<svg xmlns="http://www.w3.org/2000/svg" viewBox="29 99 49 49">
    <defs>
        <style>
            .cls-1{fill:none}.cls-2{fill:#e3764c}
        </style>
    </defs>
    <g id="icon-third" transform="translate(6454 1698)">
        <g id="Vector" transform="translate(26.82 8)">
            <path id="Union_17" d="M-6185.361-1938.021a.808.808 0 0 1-.593-.569l-3.455-12.389a2.845 2.845 0 0 1-.307.017 2.894 2.894 0 0 1-.309-.017l-3.454 12.389a.8.8 0 0 1-.592.569.822.822 0 0 1-.184.02.811.811 0 0 1-.6-.266l-3.488-3.887-4.993 1.522a.805.805 0 0 1-.8-.195.8.8 0 0 1-.213-.793l2.952-10.589a.807.807 0 0 1 .992-.561.805.805 0 0 1 .559.992l-2.558 9.176 4.08-1.245a.808.808 0 0 1 .835.234l2.849 3.175 3.089-11.076a11.785 11.785 0 0 1-1.45-1.053 6.146 6.146 0 0 0-1.692-1.111 6.367 6.367 0 0 0-2.112-.112 5.337 5.337 0 0 1-3.508-.612 5.439 5.439 0 0 1-1.674-3.17 6.347 6.347 0 0 0-.747-1.953 6.278 6.278 0 0 0-1.609-1.291 5.454 5.454 0 0 1-2.519-2.594 5.286 5.286 0 0 1 .5-3.483 6.492 6.492 0 0 0 .555-2.088 6.494 6.494 0 0 0-.555-2.086 5.288 5.288 0 0 1-.5-3.483 5.434 5.434 0 0 1 2.519-2.594 6.278 6.278 0 0 0 1.609-1.291 6.374 6.374 0 0 0 .747-1.955 5.44 5.44 0 0 1 1.674-3.169 5.327 5.327 0 0 1 3.508-.612 6.421 6.421 0 0 0 2.114-.112 6.162 6.162 0 0 0 1.69-1.111 5.477 5.477 0 0 1 3.281-1.606 5.488 5.488 0 0 1 3.282 1.6 6.114 6.114 0 0 0 1.69 1.112 6.42 6.42 0 0 0 2.114.111 5.333 5.333 0 0 1 3.507.614 5.434 5.434 0 0 1 1.676 3.169 6.3 6.3 0 0 0 .746 1.953 6.263 6.263 0 0 0 1.609 1.293 5.438 5.438 0 0 1 2.518 2.594 5.287 5.287 0 0 1-.5 3.483 6.49 6.49 0 0 0-.556 2.086 6.471 6.471 0 0 0 .556 2.088 5.283 5.283 0 0 1 .5 3.482 5.448 5.448 0 0 1-2.518 2.6 6.227 6.227 0 0 0-1.609 1.291 6.31 6.31 0 0 0-.748 1.953 6.377 6.377 0 0 1-1.294 2.835l3.658 13.117a.808.808 0 0 1-.213.793.805.805 0 0 1-.8.193l-5-1.521-3.486 3.887a.806.806 0 0 1-.6.266.809.809 0 0 1-.173-.02zm.617-15.658a6.165 6.165 0 0 0-1.69 1.112 11.932 11.932 0 0 1-1.452 1.053l3.089 11.076 2.85-3.175a.807.807 0 0 1 .835-.234l4.081 1.245-3.154-11.311a8.281 8.281 0 0 1-2.444.123c-.324-.015-.64-.03-.94-.03a3.887 3.887 0 0 0-1.175.142zm-9.447-1.531a7.286 7.286 0 0 1 2.206 1.391 4.269 4.269 0 0 0 2.268 1.246 4.273 4.273 0 0 0 2.27-1.246 7.286 7.286 0 0 1 2.206-1.391 7.588 7.588 0 0 1 2.686-.188 4.253 4.253 0 0 0 2.485-.305 4.269 4.269 0 0 0 1.069-2.29 7.455 7.455 0 0 1 1-2.478 7.39 7.39 0 0 1 2.031-1.693c.847-.553 1.648-1.075 1.865-1.743a4.223 4.223 0 0 0-.474-2.416 7.688 7.688 0 0 1-.661-2.656 7.693 7.693 0 0 1 .659-2.656 4.208 4.208 0 0 0 .475-2.415c-.217-.67-1.018-1.192-1.865-1.743a7.42 7.42 0 0 1-2.031-1.693 7.455 7.455 0 0 1-1-2.479 4.269 4.269 0 0 0-1.069-2.29 4.252 4.252 0 0 0-2.485-.307 7.585 7.585 0 0 1-2.686-.187 7.317 7.317 0 0 1-2.206-1.391 4.277 4.277 0 0 0-2.27-1.248 4.273 4.273 0 0 0-2.268 1.248 7.286 7.286 0 0 1-2.206 1.391 7.631 7.631 0 0 1-2.687.189 4.235 4.235 0 0 0-2.483.305 4.255 4.255 0 0 0-1.068 2.29 7.525 7.525 0 0 1-1 2.479 7.4 7.4 0 0 1-2.033 1.693c-.847.553-1.648 1.075-1.865 1.743a4.212 4.212 0 0 0 .475 2.415 7.693 7.693 0 0 1 .659 2.656 7.685 7.685 0 0 1-.659 2.656 4.218 4.218 0 0 0-.475 2.416c.217.668 1.018 1.19 1.865 1.743a7.361 7.361 0 0 1 2.031 1.693 7.442 7.442 0 0 1 1 2.478 4.269 4.269 0 0 0 1.07 2.29 4.248 4.248 0 0 0 2.483.305 21.12 21.12 0 0 1 1.008-.031 5.445 5.445 0 0 1 1.681.219zm-7.174-13.771a11.663 11.663 0 0 1 11.648-11.648 11.671 11.671 0 0 1 8.638 3.835.8.8 0 0 1-.056 1.137.805.805 0 0 1-1.137-.056 10.059 10.059 0 0 0-7.445-3.3 10.047 10.047 0 0 0-10.035 10.035 10.047 10.047 0 0 0 10.035 10.037 10.048 10.048 0 0 0 10.037-10.037 9.958 9.958 0 0 0-.919-4.2.807.807 0 0 1 .395-1.069.806.806 0 0 1 1.068.394 11.563 11.563 0 0 1 1.067 4.876 11.661 11.661 0 0 1-11.648 11.648 11.662 11.662 0 0 1-11.647-11.652zm9.308 3.927a2.487 2.487 0 0 1-.848-.444 2.717 2.717 0 0 1-.61-.72 4.863 4.863 0 0 1-.433-.984l.654-.27a.857.857 0 0 1 .343-.073.549.549 0 0 1 .275.067.436.436 0 0 1 .192.192c.072.14.149.277.233.414a1.943 1.943 0 0 0 .312.366 1.623 1.623 0 0 0 .42.257 1.6 1.6 0 0 0 .583.1 1.676 1.676 0 0 0 .659-.12 1.434 1.434 0 0 0 .469-.324 1.285 1.285 0 0 0 .282-.438 1.354 1.354 0 0 0 .1-.492 2.16 2.16 0 0 0-.067-.564.828.828 0 0 0-.276-.438 1.494 1.494 0 0 0-.606-.282 4.275 4.275 0 0 0-1.05-.1v-1.056a3.7 3.7 0 0 0 .905-.1 1.538 1.538 0 0 0 .571-.265.917.917 0 0 0 .3-.413 1.589 1.589 0 0 0 .084-.528 1.2 1.2 0 0 0-.336-.93 1.281 1.281 0 0 0-.917-.318 1.342 1.342 0 0 0-.875.282 1.435 1.435 0 0 0-.486.714.691.691 0 0 1-.2.33.531.531 0 0 1-.33.1 1.359 1.359 0 0 1-.2-.017l-.78-.139a3.188 3.188 0 0 1 .349-1.092 2.553 2.553 0 0 1 .642-.785 2.622 2.622 0 0 1 .888-.475 3.519 3.519 0 0 1 1.08-.162 3.162 3.162 0 0 1 1.08.175 2.414 2.414 0 0 1 .829.474 2.024 2.024 0 0 1 .521.709 2.08 2.08 0 0 1 .186.882 2.541 2.541 0 0 1-.1.732 1.634 1.634 0 0 1-.271.545 1.579 1.579 0 0 1-.431.4 2.561 2.561 0 0 1-.577.269 2.274 2.274 0 0 1 1.165.749 2.032 2.032 0 0 1 .383 1.266 2.631 2.631 0 0 1-.24 1.146 2.509 2.509 0 0 1-.648.84 2.845 2.845 0 0 1-.949.509 3.612 3.612 0 0 1-1.134.174 3.872 3.872 0 0 1-1.14-.163zm6.06-5.052a1.769 1.769 0 0 1-.617-.379 1.76 1.76 0 0 1-.4-.606 2.162 2.162 0 0 1-.144-.8 2.055 2.055 0 0 1 .144-.787 1.654 1.654 0 0 1 .4-.594 1.769 1.769 0 0 1 .617-.379 2.394 2.394 0 0 1 .81-.131 2.289 2.289 0 0 1 .791.131 1.762 1.762 0 0 1 .619.379 1.587 1.587 0 0 1 .4.594 2.065 2.065 0 0 1 .143.787 2.172 2.172 0 0 1-.143.8 1.687 1.687 0 0 1-.4.606 1.762 1.762 0 0 1-.619.379 2.289 2.289 0 0 1-.791.131 2.394 2.394 0 0 1-.813-.131zm.187-2.563a1.29 1.29 0 0 0-.193.787 1.315 1.315 0 0 0 .193.791.741.741 0 0 0 .623.252.7.7 0 0 0 .595-.252 1.3 1.3 0 0 0 .2-.791 1.279 1.279 0 0 0-.2-.787.7.7 0 0 0-.595-.252.741.741 0 0 0-.622.253z" class="cls-2" data-name="Union 17" transform="translate(-237.82 380)"/>
        </g>
    </g>
</svg>
