<svg xmlns="http://www.w3.org/2000/svg" viewBox="-60 -13 39 39">
    <g id="icon-mail" transform="translate(6534 1900)">
        <path id="Union_7" d="M4.769 27.711A4.622 4.622 0 0 1 0 23.258V4.454A4.623 4.623 0 0 1 4.769 0h29.47A4.617 4.617 0 0 1 39 4.46v18.8a4.622 4.622 0 0 1-4.77 4.452zM2.179 4.46v18.8a2.511 2.511 0 0 0 2.59 2.418h29.47a2.511 2.511 0 0 0 2.591-2.418h-.008V4.46a2.512 2.512 0 0 0-2.592-2.418H4.769a2.512 2.512 0 0 0-2.59 2.418zm30.5 19.131l-9.7-8.606-2.719 2.276a1.125 1.125 0 0 1-.727.263 1.139 1.139 0 0 1-.726-.255l-2.648-2.208L6.4 23.583a1.131 1.131 0 0 1-.742.271 1.145 1.145 0 0 1-.8-.325.975.975 0 0 1 .047-1.439l9.612-8.4-9.65-8.054A.969.969 0 0 1 4.778 4.2a1.141 1.141 0 0 1 1.539-.082l10.443 8.72a1.563 1.563 0 0 1 .178.144c0 .008.008.014.016.022l2.565 2.139L32.675 4.121a1.151 1.151 0 0 1 1.541.076.976.976 0 0 1-.081 1.439L24.6 13.622l9.579 8.491a.977.977 0 0 1 .04 1.439 1.149 1.149 0 0 1-1.541.039z" data-name="Union 7" transform="translate(-6594 -1907.869)"/>
    </g>
</svg>
