<svg xmlns="http://www.w3.org/2000/svg" viewBox="-125 232 49 49">
    <g id="icon-users-line" transform="translate(6461 1575)">
        <path id="Path_367" d="M42.378 13.538a5.594 5.594 0 1 0-6.418 0 9.717 9.717 0 0 0-3.306 1.918 12.586 12.586 0 0 0-4.537-2.445 7.088 7.088 0 1 0-7.33 0 12.692 12.692 0 0 0-4.487 2.416 9.8 9.8 0 0 0-3.267-1.879A5.517 5.517 0 0 0 9.821 3.49a5.559 5.559 0 0 0-5.594 5.532 5.492 5.492 0 0 0 2.385 4.525A9.72 9.72 0 0 0 0 22.723v.633a.041.041 0 0 0 .039.038H11.9a12.754 12.754 0 0 0-.107 1.62v.652a5.127 5.127 0 0 0 5.158 5.1h15.024a5.127 5.127 0 0 0 5.158-5.1v-.652a12.766 12.766 0 0 0-.107-1.62h11.935a.041.041 0 0 0 .039-.038v-.633a9.757 9.757 0 0 0-6.622-9.185zM35.126 9a4.043 4.043 0 1 1 4.12 4h-.155a4.014 4.014 0 0 1-3.965-4zM18.9 7.009a5.536 5.536 0 0 1 11.072 0 5.509 5.509 0 0 1-5.216 5.465h-.64A5.509 5.509 0 0 1 18.9 7.009zM5.749 9a4.043 4.043 0 1 1 4.12 4h-.154a4.02 4.02 0 0 1-3.966-4zm6.418 12.848H1.571a8.249 8.249 0 0 1 8.163-7.315h.116a8.251 8.251 0 0 1 5.284 1.946 12.549 12.549 0 0 0-2.966 5.372zm23.395 3.816a3.592 3.592 0 0 1-3.607 3.567H16.928a3.592 3.592 0 0 1-3.607-3.567v-.652a11.071 11.071 0 0 1 10.791-11c.107.01.223.01.33.01s.223 0 .33-.01a11.071 11.071 0 0 1 10.791 11v.652zm1.154-3.816a12.514 12.514 0 0 0-2.938-5.331 8.291 8.291 0 0 1 5.332-1.985h.116a8.249 8.249 0 0 1 8.163 7.315z" data-name="Path 367" transform="translate(-6586 -1334)"/>
    </g>
</svg>
