<svg width="68" height="65" viewBox="0 0 68 65" version="1.1" xmlns="http://www.w3.org/2000/svg" xmlns:xlink="http://www.w3.org/1999/xlink">
<title>Vector</title>
<desc>Created using Figma</desc>
<g id="Canvas" transform="translate(-3099 902)">
<rect x="3099" y="-902" width="68" height="65" fill="#E5E5E5"/>
<clipPath id="clip-0" clip-rule="evenodd">
<path d="M 2703 -1228L 3983 -1228L 3983 -460L 2703 -460L 2703 -1228Z" fill="#FFFFFF"/>
</clipPath>
<g id="Compras - modal" clip-path="url(#clip-0)">
<path d="M 2703 -1228L 3983 -1228L 3983 -460L 2703 -460L 2703 -1228Z" fill="#FFFFFF"/>
<g id="Background">
<g id="Rectangle">
<use xlink:href="#path0_fill" transform="translate(2703 -1228)" fill="#F7F7F7"/>
</g>
<g id="Vector" opacity="0.04">
<use xlink:href="#path1_fill" transform="translate(2703 -978)" fill="#21436E"/>
</g>
</g>
<g id="Group 28">
<g id="Rectangle 2.8">
<use xlink:href="#path2_fill" transform="translate(2763 -1033)" fill="#FFFFFF"/>
<mask id="mask0_outline_ins">
<use xlink:href="#path2_fill" fill="white" transform="translate(2763 -1033)"/>
</mask>
<g mask="url(#mask0_outline_ins)">
<use xlink:href="#path3_stroke_2x" transform="translate(2763 -1033)" fill="#000000" fill-opacity="0.05"/>
</g>
</g>
<g id="Group 4.1">
<g id="Group 4.1">
<g id="Group">
</g>
<g id="Rectangle">
<mask id="mask1_outline_ins">
<use xlink:href="#path4_fill" fill="white" transform="translate(3044 -964)"/>
</mask>
<g mask="url(#mask1_outline_ins)">
<use xlink:href="#path5_stroke_2x" transform="translate(3044 -964)" fill="#000000" fill-opacity="0.1"/>
</g>
</g>
<g id="Rectangle">
<use xlink:href="#path6_fill" transform="translate(3044 -883)" fill="#2A3143"/>
<mask id="mask2_outline_ins">
<use xlink:href="#path6_fill" fill="white" transform="translate(3044 -883)"/>
</mask>
<g mask="url(#mask2_outline_ins)">
<use xlink:href="#path7_stroke_2x" transform="translate(3044 -883)" fill="#000000" fill-opacity="0.05"/>
</g>
</g>
<g id="Comprar mais itens?">
<use xlink:href="#path8_fill" transform="translate(3056 -873)" fill="#FFFFFF"/>
</g>
</g>
</g>
</g>
<g id="Rectangle" filter="url(#filter0_b)">
<use xlink:href="#path0_fill" transform="translate(2703 -1228)" fill="#2A3143" fill-opacity="0.08"/>
</g>
<g id="Group 8">
<g id="Ret&#195;&#162;ngulo Arredondado 2 copiar 7" filter="url(#filter1_d)">
<use xlink:href="#path9_fill" transform="translate(3021 -1114)" fill="#FFFFFF"/>
</g>
<g id="Group 7">
<g id="Rectangle">
<mask id="mask3_outline_ins">
<use xlink:href="#path10_fill" fill="white" transform="translate(3061 -922)"/>
</mask>
<g mask="url(#mask3_outline_ins)">
<use xlink:href="#path11_stroke_2x" transform="translate(3061 -922)" fill="#F06060"/>
</g>
</g>
<g id="Group 7">
<g id="store_2">
<g id="Vector">
<mask id="mask4_outline_ins">
<use xlink:href="#path12_fill" fill="white" transform="translate(3099 -902)"/>
<use xlink:href="#path13_fill" fill="white" transform="translate(3099 -902)"/>
<use xlink:href="#path14_fill" fill="white" transform="translate(3099 -902)"/>
<use xlink:href="#path15_fill" fill="white" transform="translate(3099 -902)"/>
<use xlink:href="#path16_fill" fill="white" transform="translate(3099 -902)"/>
<use xlink:href="#path17_fill" fill="white" transform="translate(3099 -902)"/>
<use xlink:href="#path18_fill" fill="white" transform="translate(3099 -902)"/>
<use xlink:href="#path19_fill" fill="white" transform="translate(3099 -902)"/>
<use xlink:href="#path20_fill" fill="white" transform="translate(3099 -902)"/>
<use xlink:href="#path21_fill" fill="white" transform="translate(3099 -902)"/>
<use xlink:href="#path22_fill" fill="white" transform="translate(3099 -902)"/>
<use xlink:href="#path23_fill" fill="white" transform="translate(3099 -902)"/>
<use xlink:href="#path24_fill" fill="white" transform="translate(3099 -902)"/>
<use xlink:href="#path25_fill" fill="white" transform="translate(3099 -902)"/>
<use xlink:href="#path26_fill" fill="white" transform="translate(3099 -902)"/>
</mask>
<g mask="url(#mask4_outline_ins)">
<use xlink:href="#path27_stroke_2x" transform="translate(3099 -902)" fill="#2A3143"/>
</g>
</g>
</g>
</g>
</g>
</g>
</g>
</g>
<defs>
<filter id="filter0_b" filterUnits="userSpaceOnUse" x="2698" y="-1233" width="1290" height="778" color-interpolation-filters="sRGB">
<feFlood flood-opacity="0" result="BackgroundImageFix"/>
<feGaussianBlur in="BackgroundImage" stdDeviation="2.5"/>
<feComposite in2="SourceAlpha" operator="in" result="effect1_backgroundBlur"/>
<feBlend mode="normal" in="SourceGraphic" in2="effect1_backgroundBlur" result="shape"/>
</filter>
<filter id="filter1_d" filterUnits="userSpaceOnUse" x="3017" y="-1114" width="652" height="521" color-interpolation-filters="sRGB">
<feFlood flood-opacity="0" result="BackgroundImageFix"/>
<feColorMatrix in="SourceAlpha" type="matrix" values="0 0 0 0 0 0 0 0 0 0 0 0 0 0 0 0 0 0 255 0"/>
<feOffset dx="0" dy="4"/>
<feGaussianBlur stdDeviation="2"/>
<feColorMatrix type="matrix" values="0 0 0 0 0.211765 0 0 0 0 0.211765 0 0 0 0 0.211765 0 0 0 0.15 0"/>
<feBlend mode="normal" in2="BackgroundImageFix" result="effect1_dropShadow"/>
<feBlend mode="normal" in="SourceGraphic" in2="effect1_dropShadow" result="shape"/>
</filter>
<path id="path0_fill" d="M 0 0L 1280 0L 1280 768L 0 768L 0 0Z"/>
<path id="path1_fill" d="M 1280 289L 1280 207.168L 1276.71 207.168L 1276.71 154.686L 1270.83 154.686L 1270.83 141.22L 1256.13 141.22L 1256.13 107.728L 1246.44 107.728L 1246.44 85.6296L 1251.63 85.6296L 1251.63 80.6231L 1216.52 80.6231L 1216.52 47.6487L 1206.14 47.6487L 1206.14 34.5281L 1209.6 34.5281L 1209.6 12.948L 1202.51 7.76882L 1193.69 13.1207L 1193.69 34.7007L 1197.66 34.7007L 1197.66 47.6487L 1188.5 47.6487L 1188.5 24.8602L 1163.42 24.8602L 1163.42 47.8214L 1157.19 47.8214L 1157.19 175.748L 1121.73 175.748L 1121.73 221.498L 1112.39 221.498L 1112.39 232.719L 1094.4 232.719L 1094.4 188.178L 1094.4 184.207L 1089.9 184.207L 1089.9 174.022L 1074.51 174.022L 1074.51 184.035L 1067.94 184.035L 1067.94 178.855L 1064.82 178.855L 1064.82 172.64L 1058.08 168.67L 1052.02 171.777L 1046.83 168.67L 1041.12 171.087L 1041.12 184.553L 1038.36 184.553L 1038.36 233.41L 1034.72 233.41L 1034.72 208.204L 1029.88 208.204L 1029.88 154.686L 1024.17 154.686L 1024.17 142.946L 1003.42 142.946L 1003.42 154.858L 982.141 154.858L 982.141 237.726L 972.454 237.726L 972.454 207.514L 968.476 207.514L 968.476 154.513L 961.557 154.513L 961.557 143.119L 955.33 143.119L 955.33 135.177L 949.968 132.415L 943.222 135.523L 943.222 141.565L 936.13 141.565L 936.13 154.686L 923.503 154.686L 923.503 157.793L 918.314 157.793L 918.314 184.553L 913.816 184.553L 913.816 45.7497L 906.378 45.7497L 906.378 39.8799L 889.427 39.8799L 889.427 24.6876L 879.914 24.6876L 879.914 15.5376L 872.13 11.3943L 864.346 15.365L 864.346 21.0621L 856.735 21.0621L 856.735 41.4337L 848.259 41.4337L 848.259 126.891L 831.654 126.891L 831.654 140.702L 818.508 140.702L 818.508 124.128L 787.719 142.428L 780.281 142.428L 780.281 190.768L 764.541 190.768L 764.541 195.774L 755.892 195.774L 755.892 206.305L 750.011 206.305L 750.011 196.292L 730.984 196.292L 730.984 232.719L 726.487 232.719L 726.487 184.725L 723.2 184.725L 723.2 154.686L 719.568 154.686L 719.568 133.106L 713.513 125.164L 713.513 110.662L 707.805 107.9L 701.578 111.353L 701.578 125.164L 697.254 133.451L 697.254 119.122L 676.324 119.122L 676.324 133.106L 673.211 133.106L 673.211 184.207L 669.751 184.207L 669.751 206.823L 665.254 206.823L 665.254 184.207L 662.832 184.207L 662.832 154.513L 656.951 154.513L 656.951 143.464L 635.503 143.464L 635.503 154.513L 614.227 154.341L 614.227 169.188L 610.595 171.605L 610.595 184.38L 599.697 184.38L 599.697 78.5514L 594.508 78.5514L 594.508 60.2515L 574.27 60.2515L 574.27 78.3787L 552.822 78.3787L 552.822 186.279L 545.73 186.279L 545.73 111.008L 547.632 111.008L 547.632 106.001L 539.849 106.001L 539.849 89.773L 531.373 89.773L 531.373 79.7599L 522.724 75.7891L 514.941 79.4146L 514.941 89.773L 504.043 89.773L 504.043 106.692L 487.438 106.692L 487.438 111.18L 479.654 111.18L 479.654 195.084L 474.811 195.084L 474.811 154.341L 466.335 154.341L 466.335 146.917L 469.622 146.917L 469.622 135.005L 463.741 131.725L 457.168 135.005L 457.168 146.917L 460.454 146.917L 460.454 154.513L 452.67 154.513L 452.67 140.529L 444.541 140.529L 444.541 81.141L 422.054 81.141L 422.054 62.1505L 400.605 62.1505L 400.605 81.141L 396.973 81.141L 396.973 96.8513L 382.443 96.8513L 382.443 113.943L 378.811 113.943L 378.811 29.8668L 364.8 29.8668L 364.8 8.45938L 356.151 0L 347.849 8.45938L 347.849 30.0394L 334.703 30.0394L 334.703 35.7366L 328.476 35.7366L 328.476 232.719L 297.341 232.719L 297.341 184.725L 292.843 184.725L 292.843 99.9588L 286.789 99.9588L 286.789 95.6428L 274.162 95.6428L 274.162 77.6882L 266.724 77.6882L 266.724 67.8477L 261.016 63.7043L 255.135 67.8477L 255.135 80.1051L 248.562 80.1051L 248.562 96.1607L 239.741 96.1607L 239.741 240.833L 234.378 240.833L 234.378 188.178L 235.762 188.178L 235.762 184.553L 230.573 184.553L 230.573 174.367L 214.486 174.367L 214.486 184.38L 205.319 184.38L 205.319 173.849C 205.319 173.849 204.627 168.842 198.919 168.842C 193.211 168.842 192.692 172.122 192.692 172.122C 192.692 172.122 191.654 169.015 185.946 169.015C 180.93 169.015 180.584 173.849 180.584 173.849L 180.584 184.553L 176.951 184.553L 176.951 187.66L 178.854 187.66L 178.854 263.795L 172.281 263.795L 172.281 187.66L 174.184 187.66L 174.184 184.553L 169.168 184.553L 169.168 174.022L 153.427 174.022L 153.427 183.344L 143.741 183.344L 143.741 172.468C 143.741 172.468 142.703 169.015 137.686 169.015C 133.189 169.015 131.632 172.468 131.632 172.468C 131.632 172.468 130.768 168.842 125.751 168.842C 121.773 168.842 120.043 172.122 120.043 172.122L 120.043 184.207L 117.449 184.207L 117.449 232.719L 112.951 232.719L 112.951 87.7013L 114.681 87.7013L 114.681 83.2127L 107.589 83.2127L 107.589 66.2939L 82.6811 66.2939L 82.6811 82.8674L 57.6 82.8674L 57.6 232.892L 46.7027 232.892L 46.7027 157.793L 48.4324 157.793L 48.4324 154.341L 42.3784 154.341L 42.3784 141.738L 23.5243 141.738L 23.5243 154.341L 15.3946 154.341L 15.3946 147.262L 17.6432 147.262L 17.6432 135.177L 11.9351 131.725L 5.01622 135.695L 5.01622 147.608L 7.26486 147.608L 7.26486 154.686L 0 154.686L 0 409L 1279.83 409"/>
<path id="path2_fill" d="M 0 3C 0 1.34315 1.34315 0 3 0L 567 0C 568.657 0 570 1.34315 570 3L 570 360C 570 361.657 568.657 363 567 363L 3 363C 1.34315 363 0 361.657 0 360L 0 3Z"/>
<path id="path3_stroke_2x" d="M 3 1L 567 1L 567 -1L 3 -1L 3 1ZM 569 3L 569 360L 571 360L 571 3L 569 3ZM 567 362L 3 362L 3 364L 567 364L 567 362ZM 1 360L 1 3L -1 3L -1 360L 1 360ZM 3 362C 1.89543 362 1 361.105 1 360L -1 360C -1 362.209 0.790861 364 3 364L 3 362ZM 569 360C 569 361.105 568.105 362 567 362L 567 364C 569.209 364 571 362.209 571 360L 569 360ZM 567 1C 568.105 1 569 1.89543 569 3L 571 3C 571 0.790861 569.209 -1 567 -1L 567 1ZM 3 -1C 0.790861 -1 -1 0.790861 -1 3L 1 3C 1 1.89543 1.89543 1 3 1L 3 -1Z"/>
<path id="path4_fill" d="M 0 3C 0 1.34315 1.34315 0 3 0L 248 0C 249.657 0 251 1.34315 251 3L 251 119C 251 120.657 249.657 122 248 122L 3 122C 1.34315 122 0 120.657 0 119L 0 3Z"/>
<path id="path5_stroke_2x" d="M 3 1L 248 1L 248 -1L 3 -1L 3 1ZM 250 3L 250 119L 252 119L 252 3L 250 3ZM 248 121L 3 121L 3 123L 248 123L 248 121ZM 1 119L 1 3L -1 3L -1 119L 1 119ZM 3 121C 1.89543 121 1 120.105 1 119L -1 119C -1 121.209 0.790861 123 3 123L 3 121ZM 250 119C 250 120.105 249.105 121 248 121L 248 123C 250.209 123 252 121.209 252 119L 250 119ZM 248 1C 249.105 1 250 1.89543 250 3L 252 3C 252 0.790861 250.209 -1 248 -1L 248 1ZM 3 -1C 0.790861 -1 -1 0.790861 -1 3L 1 3C 1 1.89543 1.89543 1 3 1L 3 -1Z"/>
<path id="path6_fill" d="M 0 0L 251 0L 251 38C 251 39.6569 249.657 41 248 41L 3 41C 1.34315 41 0 39.6569 0 38L 0 0Z"/>
<path id="path7_stroke_2x" d="M 0 0L 0 -1L -1 -1L -1 0L 0 0ZM 251 0L 252 0L 252 -1L 251 -1L 251 0ZM 0 1L 251 1L 251 -1L 0 -1L 0 1ZM 250 0L 250 38L 252 38L 252 0L 250 0ZM 248 40L 3 40L 3 42L 248 42L 248 40ZM 1 38L 1 0L -1 0L -1 38L 1 38ZM 3 40C 1.89543 40 1 39.1046 1 38L -1 38C -1 40.2091 0.790861 42 3 42L 3 40ZM 250 38C 250 39.1046 249.105 40 248 40L 248 42C 250.209 42 252 40.2091 252 38L 250 38Z"/>
<path id="path8_fill" d="M 7.104 13.224C 7.168 13.224 7.226 13.25 7.278 13.302L 7.734 13.8C 7.382 14.208 6.954 14.526 6.45 14.754C 5.95 14.982 5.346 15.096 4.638 15.096C 4.018 15.096 3.456 14.99 2.952 14.778C 2.448 14.562 2.018 14.262 1.662 13.878C 1.306 13.49 1.03 13.026 0.834 12.486C 0.638 11.946 0.54 11.352 0.54 10.704C 0.54 10.056 0.644 9.462 0.852 8.922C 1.064 8.382 1.36 7.918 1.74 7.53C 2.12 7.142 2.574 6.842 3.102 6.63C 3.634 6.414 4.22 6.306 4.86 6.306C 5.492 6.306 6.036 6.404 6.492 6.6C 6.952 6.796 7.36 7.062 7.716 7.398L 7.338 7.932C 7.31 7.972 7.278 8.006 7.242 8.034C 7.206 8.058 7.154 8.07 7.086 8.07C 7.034 8.07 6.978 8.052 6.918 8.016C 6.862 7.976 6.794 7.928 6.714 7.872C 6.634 7.816 6.54 7.756 6.432 7.692C 6.324 7.628 6.196 7.568 6.048 7.512C 5.9 7.456 5.728 7.41 5.532 7.374C 5.336 7.334 5.11 7.314 4.854 7.314C 4.394 7.314 3.972 7.394 3.588 7.554C 3.208 7.71 2.88 7.934 2.604 8.226C 2.328 8.518 2.112 8.874 1.956 9.294C 1.804 9.714 1.728 10.184 1.728 10.704C 1.728 11.24 1.804 11.718 1.956 12.138C 2.112 12.558 2.322 12.914 2.586 13.206C 2.854 13.494 3.17 13.714 3.534 13.866C 3.898 14.018 4.29 14.094 4.71 14.094C 4.966 14.094 5.196 14.08 5.4 14.052C 5.604 14.02 5.792 13.972 5.964 13.908C 6.14 13.844 6.302 13.764 6.45 13.668C 6.602 13.568 6.754 13.45 6.906 13.314C 6.974 13.254 7.04 13.224 7.104 13.224ZM 12.6308 8.826C 13.0748 8.826 13.4748 8.9 13.8308 9.048C 14.1908 9.196 14.4948 9.406 14.7428 9.678C 14.9948 9.95 15.1868 10.28 15.3188 10.668C 15.4548 11.052 15.5228 11.482 15.5228 11.958C 15.5228 12.438 15.4548 12.87 15.3188 13.254C 15.1868 13.638 14.9948 13.966 14.7428 14.238C 14.4948 14.51 14.1908 14.72 13.8308 14.868C 13.4748 15.012 13.0748 15.084 12.6308 15.084C 12.1868 15.084 11.7848 15.012 11.4248 14.868C 11.0688 14.72 10.7648 14.51 10.5128 14.238C 10.2608 13.966 10.0668 13.638 9.93084 13.254C 9.79484 12.87 9.72684 12.438 9.72684 11.958C 9.72684 11.482 9.79484 11.052 9.93084 10.668C 10.0668 10.28 10.2608 9.95 10.5128 9.678C 10.7648 9.406 11.0688 9.196 11.4248 9.048C 11.7848 8.9 12.1868 8.826 12.6308 8.826ZM 12.6308 14.25C 13.2308 14.25 13.6788 14.05 13.9748 13.65C 14.2708 13.246 14.4188 12.684 14.4188 11.964C 14.4188 11.24 14.2708 10.676 13.9748 10.272C 13.6788 9.868 13.2308 9.666 12.6308 9.666C 12.3268 9.666 12.0628 9.718 11.8388 9.822C 11.6148 9.926 11.4268 10.076 11.2748 10.272C 11.1268 10.468 11.0148 10.71 10.9388 10.998C 10.8668 11.282 10.8308 11.604 10.8308 11.964C 10.8308 12.324 10.8668 12.646 10.9388 12.93C 11.0148 13.214 11.1268 13.454 11.2748 13.65C 11.4268 13.842 11.6148 13.99 11.8388 14.094C 12.0628 14.198 12.3268 14.25 12.6308 14.25ZM 17.9188 15L 17.9188 8.922L 18.5548 8.922C 18.7068 8.922 18.8028 8.996 18.8428 9.144L 18.9208 9.768C 19.1448 9.492 19.3948 9.266 19.6708 9.09C 19.9508 8.914 20.2748 8.826 20.6428 8.826C 21.0548 8.826 21.3868 8.94 21.6388 9.168C 21.8948 9.396 22.0788 9.704 22.1908 10.092C 22.2748 9.872 22.3848 9.682 22.5208 9.522C 22.6608 9.362 22.8168 9.23 22.9888 9.126C 23.1608 9.022 23.3428 8.946 23.5348 8.898C 23.7308 8.85 23.9288 8.826 24.1288 8.826C 24.4488 8.826 24.7328 8.878 24.9808 8.982C 25.2328 9.082 25.4448 9.23 25.6168 9.426C 25.7928 9.622 25.9268 9.864 26.0188 10.152C 26.1108 10.436 26.1568 10.762 26.1568 11.13L 26.1568 15L 25.0888 15L 25.0888 11.13C 25.0888 10.654 24.9848 10.294 24.7768 10.05C 24.5688 9.802 24.2668 9.678 23.8708 9.678C 23.6948 9.678 23.5268 9.71 23.3668 9.774C 23.2108 9.834 23.0728 9.924 22.9528 10.044C 22.8328 10.164 22.7368 10.316 22.6648 10.5C 22.5968 10.68 22.5628 10.89 22.5628 11.13L 22.5628 15L 21.4948 15L 21.4948 11.13C 21.4948 10.642 21.3968 10.278 21.2008 10.038C 21.0048 9.798 20.7188 9.678 20.3428 9.678C 20.0788 9.678 19.8328 9.75 19.6048 9.894C 19.3808 10.034 19.1748 10.226 18.9868 10.47L 18.9868 15L 17.9188 15ZM 28.8543 17.058L 28.8543 8.922L 29.4903 8.922C 29.6423 8.922 29.7383 8.996 29.7783 9.144L 29.8683 9.864C 30.1283 9.548 30.4243 9.294 30.7563 9.102C 31.0923 8.91 31.4783 8.814 31.9143 8.814C 32.2623 8.814 32.5783 8.882 32.8623 9.018C 33.1463 9.15 33.3883 9.348 33.5883 9.612C 33.7883 9.872 33.9423 10.196 34.0503 10.584C 34.1583 10.972 34.2123 11.418 34.2123 11.922C 34.2123 12.37 34.1523 12.788 34.0323 13.176C 33.9123 13.56 33.7403 13.894 33.5163 14.178C 33.2923 14.458 33.0163 14.68 32.6883 14.844C 32.3643 15.004 31.9983 15.084 31.5903 15.084C 31.2143 15.084 30.8923 15.022 30.6243 14.898C 30.3603 14.774 30.1263 14.598 29.9223 14.37L 29.9223 17.058L 28.8543 17.058ZM 31.5603 9.678C 31.2123 9.678 30.9063 9.758 30.6423 9.918C 30.3823 10.078 30.1423 10.304 29.9223 10.596L 29.9223 13.536C 30.1183 13.8 30.3323 13.986 30.5643 14.094C 30.8003 14.202 31.0623 14.256 31.3503 14.256C 31.9143 14.256 32.3483 14.054 32.6523 13.65C 32.9563 13.246 33.1083 12.67 33.1083 11.922C 33.1083 11.526 33.0723 11.186 33.0003 10.902C 32.9323 10.618 32.8323 10.386 32.7003 10.206C 32.5683 10.022 32.4063 9.888 32.2143 9.804C 32.0223 9.72 31.8043 9.678 31.5603 9.678ZM 36.5554 15L 36.5554 8.922L 37.1674 8.922C 37.2834 8.922 37.3634 8.944 37.4074 8.988C 37.4514 9.032 37.4814 9.108 37.4974 9.216L 37.5694 10.164C 37.7774 9.74 38.0334 9.41 38.3374 9.174C 38.6454 8.934 39.0054 8.814 39.4174 8.814C 39.5854 8.814 39.7374 8.834 39.8734 8.874C 40.0094 8.91 40.1354 8.962 40.2514 9.03L 40.1134 9.828C 40.0854 9.928 40.0234 9.978 39.9274 9.978C 39.8714 9.978 39.7854 9.96 39.6694 9.924C 39.5534 9.884 39.3914 9.864 39.1834 9.864C 38.8114 9.864 38.4994 9.972 38.2474 10.188C 37.9994 10.404 37.7914 10.718 37.6234 11.13L 37.6234 15L 36.5554 15ZM 46.7166 15L 46.2426 15C 46.1386 15 46.0546 14.984 45.9906 14.952C 45.9266 14.92 45.8846 14.852 45.8646 14.748L 45.7446 14.184C 45.5846 14.328 45.4286 14.458 45.2766 14.574C 45.1246 14.686 44.9646 14.782 44.7966 14.862C 44.6286 14.938 44.4486 14.996 44.2566 15.036C 44.0686 15.076 43.8586 15.096 43.6266 15.096C 43.3906 15.096 43.1686 15.064 42.9606 15C 42.7566 14.932 42.5786 14.832 42.4266 14.7C 42.2746 14.568 42.1526 14.402 42.0606 14.202C 41.9726 13.998 41.9286 13.758 41.9286 13.482C 41.9286 13.242 41.9946 13.012 42.1266 12.792C 42.2586 12.568 42.4706 12.37 42.7626 12.198C 43.0586 12.026 43.4446 11.886 43.9206 11.778C 44.3966 11.666 44.9786 11.602 45.6666 11.586L 45.6666 11.112C 45.6666 10.64 45.5646 10.284 45.3606 10.044C 45.1606 9.8 44.8626 9.678 44.4666 9.678C 44.2066 9.678 43.9866 9.712 43.8066 9.78C 43.6306 9.844 43.4766 9.918 43.3446 10.002C 43.2166 10.082 43.1046 10.156 43.0086 10.224C 42.9166 10.288 42.8246 10.32 42.7326 10.32C 42.6606 10.32 42.5966 10.302 42.5406 10.266C 42.4886 10.226 42.4466 10.178 42.4146 10.122L 42.2226 9.78C 42.5586 9.456 42.9206 9.214 43.3086 9.054C 43.6966 8.894 44.1266 8.814 44.5986 8.814C 44.9386 8.814 45.2406 8.87 45.5046 8.982C 45.7686 9.094 45.9906 9.25 46.1706 9.45C 46.3506 9.65 46.4866 9.892 46.5786 10.176C 46.6706 10.46 46.7166 10.772 46.7166 11.112L 46.7166 15ZM 43.9446 14.346C 44.1326 14.346 44.3046 14.328 44.4606 14.292C 44.6166 14.252 44.7626 14.198 44.8986 14.13C 45.0386 14.058 45.1706 13.972 45.2946 13.872C 45.4226 13.772 45.5466 13.658 45.6666 13.53L 45.6666 12.264C 45.1746 12.28 44.7566 12.32 44.4126 12.384C 44.0686 12.444 43.7886 12.524 43.5726 12.624C 43.3566 12.724 43.1986 12.842 43.0986 12.978C 43.0026 13.114 42.9546 13.266 42.9546 13.434C 42.9546 13.594 42.9806 13.732 43.0326 13.848C 43.0846 13.964 43.1546 14.06 43.2426 14.136C 43.3306 14.208 43.4346 14.262 43.5546 14.298C 43.6746 14.33 43.8046 14.346 43.9446 14.346ZM 49.4146 15L 49.4146 8.922L 50.0266 8.922C 50.1426 8.922 50.2226 8.944 50.2666 8.988C 50.3106 9.032 50.3406 9.108 50.3566 9.216L 50.4286 10.164C 50.6366 9.74 50.8926 9.41 51.1966 9.174C 51.5046 8.934 51.8646 8.814 52.2766 8.814C 52.4446 8.814 52.5966 8.834 52.7326 8.874C 52.8686 8.91 52.9946 8.962 53.1106 9.03L 52.9726 9.828C 52.9446 9.928 52.8826 9.978 52.7866 9.978C 52.7306 9.978 52.6446 9.96 52.5286 9.924C 52.4126 9.884 52.2506 9.864 52.0426 9.864C 51.6706 9.864 51.3586 9.972 51.1066 10.188C 50.8586 10.404 50.6506 10.718 50.4826 11.13L 50.4826 15L 49.4146 15ZM 58.7347 15L 58.7347 8.922L 59.3707 8.922C 59.5227 8.922 59.6187 8.996 59.6587 9.144L 59.7367 9.768C 59.9607 9.492 60.2107 9.266 60.4867 9.09C 60.7667 8.914 61.0907 8.826 61.4587 8.826C 61.8707 8.826 62.2027 8.94 62.4547 9.168C 62.7107 9.396 62.8947 9.704 63.0067 10.092C 63.0907 9.872 63.2007 9.682 63.3367 9.522C 63.4767 9.362 63.6327 9.23 63.8047 9.126C 63.9767 9.022 64.1587 8.946 64.3507 8.898C 64.5467 8.85 64.7447 8.826 64.9447 8.826C 65.2647 8.826 65.5487 8.878 65.7967 8.982C 66.0487 9.082 66.2607 9.23 66.4327 9.426C 66.6087 9.622 66.7427 9.864 66.8347 10.152C 66.9267 10.436 66.9727 10.762 66.9727 11.13L 66.9727 15L 65.9047 15L 65.9047 11.13C 65.9047 10.654 65.8007 10.294 65.5927 10.05C 65.3847 9.802 65.0827 9.678 64.6867 9.678C 64.5107 9.678 64.3427 9.71 64.1827 9.774C 64.0267 9.834 63.8887 9.924 63.7687 10.044C 63.6487 10.164 63.5527 10.316 63.4807 10.5C 63.4127 10.68 63.3787 10.89 63.3787 11.13L 63.3787 15L 62.3107 15L 62.3107 11.13C 62.3107 10.642 62.2127 10.278 62.0167 10.038C 61.8207 9.798 61.5347 9.678 61.1587 9.678C 60.8947 9.678 60.6487 9.75 60.4207 9.894C 60.1967 10.034 59.9907 10.226 59.8027 10.47L 59.8027 15L 58.7347 15ZM 74.1342 15L 73.6602 15C 73.5562 15 73.4722 14.984 73.4082 14.952C 73.3442 14.92 73.3022 14.852 73.2822 14.748L 73.1622 14.184C 73.0022 14.328 72.8462 14.458 72.6942 14.574C 72.5422 14.686 72.3822 14.782 72.2142 14.862C 72.0462 14.938 71.8662 14.996 71.6742 15.036C 71.4862 15.076 71.2762 15.096 71.0442 15.096C 70.8082 15.096 70.5862 15.064 70.3782 15C 70.1742 14.932 69.9962 14.832 69.8442 14.7C 69.6922 14.568 69.5702 14.402 69.4782 14.202C 69.3902 13.998 69.3462 13.758 69.3462 13.482C 69.3462 13.242 69.4122 13.012 69.5442 12.792C 69.6762 12.568 69.8882 12.37 70.1802 12.198C 70.4762 12.026 70.8622 11.886 71.3382 11.778C 71.8142 11.666 72.3962 11.602 73.0842 11.586L 73.0842 11.112C 73.0842 10.64 72.9822 10.284 72.7782 10.044C 72.5782 9.8 72.2802 9.678 71.8842 9.678C 71.6242 9.678 71.4042 9.712 71.2242 9.78C 71.0482 9.844 70.8942 9.918 70.7622 10.002C 70.6342 10.082 70.5222 10.156 70.4262 10.224C 70.3342 10.288 70.2422 10.32 70.1502 10.32C 70.0782 10.32 70.0142 10.302 69.9582 10.266C 69.9062 10.226 69.8642 10.178 69.8322 10.122L 69.6402 9.78C 69.9762 9.456 70.3382 9.214 70.7262 9.054C 71.1142 8.894 71.5442 8.814 72.0162 8.814C 72.3562 8.814 72.6582 8.87 72.9222 8.982C 73.1862 9.094 73.4082 9.25 73.5882 9.45C 73.7682 9.65 73.9042 9.892 73.9962 10.176C 74.0882 10.46 74.1342 10.772 74.1342 11.112L 74.1342 15ZM 71.3622 14.346C 71.5502 14.346 71.7222 14.328 71.8782 14.292C 72.0342 14.252 72.1802 14.198 72.3162 14.13C 72.4562 14.058 72.5882 13.972 72.7122 13.872C 72.8402 13.772 72.9642 13.658 73.0842 13.53L 73.0842 12.264C 72.5922 12.28 72.1742 12.32 71.8302 12.384C 71.4862 12.444 71.2062 12.524 70.9902 12.624C 70.7742 12.724 70.6162 12.842 70.5162 12.978C 70.4202 13.114 70.3722 13.266 70.3722 13.434C 70.3722 13.594 70.3982 13.732 70.4502 13.848C 70.5022 13.964 70.5722 14.06 70.6602 14.136C 70.7482 14.208 70.8522 14.262 70.9722 14.298C 71.0922 14.33 71.2222 14.346 71.3622 14.346ZM 78.0203 8.922L 78.0203 15L 76.9523 15L 76.9523 8.922L 78.0203 8.922ZM 78.2603 7.014C 78.2603 7.118 78.2383 7.216 78.1943 7.308C 78.1543 7.396 78.0983 7.476 78.0263 7.548C 77.9583 7.616 77.8783 7.67 77.7863 7.71C 77.6943 7.75 77.5963 7.77 77.4923 7.77C 77.3883 7.77 77.2903 7.75 77.1983 7.71C 77.1103 7.67 77.0303 7.616 76.9583 7.548C 76.8903 7.476 76.8363 7.396 76.7963 7.308C 76.7563 7.216 76.7363 7.118 76.7363 7.014C 76.7363 6.91 76.7563 6.812 76.7963 6.72C 76.8363 6.624 76.8903 6.542 76.9583 6.474C 77.0303 6.402 77.1103 6.346 77.1983 6.306C 77.2903 6.266 77.3883 6.246 77.4923 6.246C 77.5963 6.246 77.6943 6.266 77.7863 6.306C 77.8783 6.346 77.9583 6.402 78.0263 6.474C 78.0983 6.542 78.1543 6.624 78.1943 6.72C 78.2383 6.812 78.2603 6.91 78.2603 7.014ZM 84.4626 9.924C 84.4146 10.012 84.3406 10.056 84.2406 10.056C 84.1806 10.056 84.1126 10.034 84.0366 9.99C 83.9606 9.946 83.8666 9.898 83.7546 9.846C 83.6466 9.79 83.5166 9.74 83.3646 9.696C 83.2126 9.648 83.0326 9.624 82.8246 9.624C 82.6446 9.624 82.4826 9.648 82.3386 9.696C 82.1946 9.74 82.0706 9.802 81.9666 9.882C 81.8666 9.962 81.7886 10.056 81.7326 10.164C 81.6806 10.268 81.6546 10.382 81.6546 10.506C 81.6546 10.662 81.6986 10.792 81.7866 10.896C 81.8786 11 81.9986 11.09 82.1466 11.166C 82.2946 11.242 82.4626 11.31 82.6506 11.37C 82.8386 11.426 83.0306 11.488 83.2266 11.556C 83.4266 11.62 83.6206 11.692 83.8086 11.772C 83.9966 11.852 84.1646 11.952 84.3126 12.072C 84.4606 12.192 84.5786 12.34 84.6666 12.516C 84.7586 12.688 84.8046 12.896 84.8046 13.14C 84.8046 13.42 84.7546 13.68 84.6546 13.92C 84.5546 14.156 84.4066 14.362 84.2106 14.538C 84.0146 14.71 83.7746 14.846 83.4906 14.946C 83.2066 15.046 82.8786 15.096 82.5066 15.096C 82.0826 15.096 81.6986 15.028 81.3546 14.892C 81.0106 14.752 80.7186 14.574 80.4786 14.358L 80.7306 13.95C 80.7626 13.898 80.8006 13.858 80.8446 13.83C 80.8886 13.802 80.9466 13.788 81.0186 13.788C 81.0906 13.788 81.1666 13.816 81.2466 13.872C 81.3266 13.928 81.4226 13.99 81.5346 14.058C 81.6506 14.126 81.7886 14.188 81.9486 14.244C 82.1126 14.3 82.3166 14.328 82.5606 14.328C 82.7686 14.328 82.9506 14.302 83.1066 14.25C 83.2626 14.194 83.3926 14.12 83.4966 14.028C 83.6006 13.936 83.6766 13.83 83.7246 13.71C 83.7766 13.59 83.8026 13.462 83.8026 13.326C 83.8026 13.158 83.7566 13.02 83.6646 12.912C 83.5766 12.8 83.4586 12.706 83.3106 12.63C 83.1626 12.55 82.9926 12.482 82.8006 12.426C 82.6126 12.366 82.4186 12.304 82.2186 12.24C 82.0226 12.176 81.8286 12.104 81.6366 12.024C 81.4486 11.94 81.2806 11.836 81.1326 11.712C 80.9846 11.588 80.8646 11.436 80.7726 11.256C 80.6846 11.072 80.6406 10.85 80.6406 10.59C 80.6406 10.358 80.6886 10.136 80.7846 9.924C 80.8806 9.708 81.0206 9.52 81.2046 9.36C 81.3886 9.196 81.6146 9.066 81.8826 8.97C 82.1506 8.874 82.4566 8.826 82.8006 8.826C 83.2006 8.826 83.5586 8.89 83.8746 9.018C 84.1946 9.142 84.4706 9.314 84.7026 9.534L 84.4626 9.924ZM 91.854 8.922L 91.854 15L 90.786 15L 90.786 8.922L 91.854 8.922ZM 92.094 7.014C 92.094 7.118 92.072 7.216 92.028 7.308C 91.988 7.396 91.932 7.476 91.86 7.548C 91.792 7.616 91.712 7.67 91.62 7.71C 91.528 7.75 91.43 7.77 91.326 7.77C 91.222 7.77 91.124 7.75 91.032 7.71C 90.944 7.67 90.864 7.616 90.792 7.548C 90.724 7.476 90.67 7.396 90.63 7.308C 90.59 7.216 90.57 7.118 90.57 7.014C 90.57 6.91 90.59 6.812 90.63 6.72C 90.67 6.624 90.724 6.542 90.792 6.474C 90.864 6.402 90.944 6.346 91.032 6.306C 91.124 6.266 91.222 6.246 91.326 6.246C 91.43 6.246 91.528 6.266 91.62 6.306C 91.712 6.346 91.792 6.402 91.86 6.474C 91.932 6.542 91.988 6.624 92.028 6.72C 92.072 6.812 92.094 6.91 92.094 7.014ZM 96.6583 15.096C 96.1783 15.096 95.8083 14.962 95.5483 14.694C 95.2923 14.426 95.1643 14.04 95.1643 13.536L 95.1643 9.816L 94.4323 9.816C 94.3683 9.816 94.3143 9.798 94.2703 9.762C 94.2263 9.722 94.2043 9.662 94.2043 9.582L 94.2043 9.156L 95.2003 9.03L 95.4463 7.152C 95.4543 7.092 95.4803 7.044 95.5243 7.008C 95.5683 6.968 95.6243 6.948 95.6923 6.948L 96.2323 6.948L 96.2323 9.042L 97.9723 9.042L 97.9723 9.816L 96.2323 9.816L 96.2323 13.464C 96.2323 13.72 96.2943 13.91 96.4183 14.034C 96.5423 14.158 96.7023 14.22 96.8983 14.22C 97.0103 14.22 97.1063 14.206 97.1863 14.178C 97.2703 14.146 97.3423 14.112 97.4023 14.076C 97.4623 14.04 97.5123 14.008 97.5523 13.98C 97.5963 13.948 97.6343 13.932 97.6663 13.932C 97.7223 13.932 97.7723 13.966 97.8163 14.034L 98.1283 14.544C 97.9443 14.716 97.7223 14.852 97.4623 14.952C 97.2023 15.048 96.9343 15.096 96.6583 15.096ZM 102.779 8.826C 103.143 8.826 103.479 8.888 103.787 9.012C 104.095 9.132 104.361 9.308 104.585 9.54C 104.809 9.768 104.983 10.052 105.107 10.392C 105.235 10.728 105.299 11.112 105.299 11.544C 105.299 11.712 105.281 11.824 105.245 11.88C 105.209 11.936 105.141 11.964 105.041 11.964L 100.997 11.964C 101.005 12.348 101.057 12.682 101.153 12.966C 101.249 13.25 101.381 13.488 101.549 13.68C 101.717 13.868 101.917 14.01 102.149 14.106C 102.381 14.198 102.641 14.244 102.929 14.244C 103.197 14.244 103.427 14.214 103.619 14.154C 103.815 14.09 103.983 14.022 104.123 13.95C 104.263 13.878 104.379 13.812 104.471 13.752C 104.567 13.688 104.649 13.656 104.717 13.656C 104.805 13.656 104.873 13.69 104.921 13.758L 105.221 14.148C 105.089 14.308 104.931 14.448 104.747 14.568C 104.563 14.684 104.365 14.78 104.153 14.856C 103.945 14.932 103.729 14.988 103.505 15.024C 103.281 15.064 103.059 15.084 102.839 15.084C 102.419 15.084 102.031 15.014 101.675 14.874C 101.323 14.73 101.017 14.522 100.757 14.25C 100.501 13.974 100.301 13.634 100.157 13.23C 100.013 12.826 99.9409 12.362 99.9409 11.838C 99.9409 11.414 100.005 11.018 100.133 10.65C 100.265 10.282 100.453 9.964 100.697 9.696C 100.941 9.424 101.239 9.212 101.591 9.06C 101.943 8.904 102.339 8.826 102.779 8.826ZM 102.803 9.612C 102.287 9.612 101.881 9.762 101.585 10.062C 101.289 10.358 101.105 10.77 101.033 11.298L 104.339 11.298C 104.339 11.05 104.305 10.824 104.237 10.62C 104.169 10.412 104.069 10.234 103.937 10.086C 103.805 9.934 103.643 9.818 103.451 9.738C 103.263 9.654 103.047 9.612 102.803 9.612ZM 107.746 15L 107.746 8.922L 108.382 8.922C 108.534 8.922 108.63 8.996 108.67 9.144L 108.754 9.804C 109.018 9.512 109.312 9.276 109.636 9.096C 109.964 8.916 110.342 8.826 110.77 8.826C 111.102 8.826 111.394 8.882 111.646 8.994C 111.902 9.102 112.114 9.258 112.282 9.462C 112.454 9.662 112.584 9.904 112.672 10.188C 112.76 10.472 112.804 10.786 112.804 11.13L 112.804 15L 111.736 15L 111.736 11.13C 111.736 10.67 111.63 10.314 111.418 10.062C 111.21 9.806 110.89 9.678 110.458 9.678C 110.142 9.678 109.846 9.754 109.57 9.906C 109.298 10.058 109.046 10.264 108.814 10.524L 108.814 15L 107.746 15ZM 118.974 9.924C 118.926 10.012 118.852 10.056 118.752 10.056C 118.692 10.056 118.624 10.034 118.548 9.99C 118.472 9.946 118.378 9.898 118.266 9.846C 118.158 9.79 118.028 9.74 117.876 9.696C 117.724 9.648 117.544 9.624 117.336 9.624C 117.156 9.624 116.994 9.648 116.85 9.696C 116.706 9.74 116.582 9.802 116.478 9.882C 116.378 9.962 116.3 10.056 116.244 10.164C 116.192 10.268 116.166 10.382 116.166 10.506C 116.166 10.662 116.21 10.792 116.298 10.896C 116.39 11 116.51 11.09 116.658 11.166C 116.806 11.242 116.974 11.31 117.162 11.37C 117.35 11.426 117.542 11.488 117.738 11.556C 117.938 11.62 118.132 11.692 118.32 11.772C 118.508 11.852 118.676 11.952 118.824 12.072C 118.972 12.192 119.09 12.34 119.178 12.516C 119.27 12.688 119.316 12.896 119.316 13.14C 119.316 13.42 119.266 13.68 119.166 13.92C 119.066 14.156 118.918 14.362 118.722 14.538C 118.526 14.71 118.286 14.846 118.002 14.946C 117.718 15.046 117.39 15.096 117.018 15.096C 116.594 15.096 116.21 15.028 115.866 14.892C 115.522 14.752 115.23 14.574 114.99 14.358L 115.242 13.95C 115.274 13.898 115.312 13.858 115.356 13.83C 115.4 13.802 115.458 13.788 115.53 13.788C 115.602 13.788 115.678 13.816 115.758 13.872C 115.838 13.928 115.934 13.99 116.046 14.058C 116.162 14.126 116.3 14.188 116.46 14.244C 116.624 14.3 116.828 14.328 117.072 14.328C 117.28 14.328 117.462 14.302 117.618 14.25C 117.774 14.194 117.904 14.12 118.008 14.028C 118.112 13.936 118.188 13.83 118.236 13.71C 118.288 13.59 118.314 13.462 118.314 13.326C 118.314 13.158 118.268 13.02 118.176 12.912C 118.088 12.8 117.97 12.706 117.822 12.63C 117.674 12.55 117.504 12.482 117.312 12.426C 117.124 12.366 116.93 12.304 116.73 12.24C 116.534 12.176 116.34 12.104 116.148 12.024C 115.96 11.94 115.792 11.836 115.644 11.712C 115.496 11.588 115.376 11.436 115.284 11.256C 115.196 11.072 115.152 10.85 115.152 10.59C 115.152 10.358 115.2 10.136 115.296 9.924C 115.392 9.708 115.532 9.52 115.716 9.36C 115.9 9.196 116.126 9.066 116.394 8.97C 116.662 8.874 116.968 8.826 117.312 8.826C 117.712 8.826 118.07 8.89 118.386 9.018C 118.706 9.142 118.982 9.314 119.214 9.534L 118.974 9.924ZM 121.105 7.17C 121.229 7.054 121.365 6.944 121.513 6.84C 121.665 6.736 121.829 6.644 122.005 6.564C 122.185 6.484 122.377 6.422 122.581 6.378C 122.789 6.33 123.013 6.306 123.253 6.306C 123.569 6.306 123.861 6.352 124.129 6.444C 124.401 6.536 124.635 6.666 124.831 6.834C 125.027 7.002 125.181 7.206 125.293 7.446C 125.405 7.686 125.461 7.956 125.461 8.256C 125.461 8.56 125.415 8.822 125.323 9.042C 125.235 9.262 125.121 9.456 124.981 9.624C 124.845 9.788 124.695 9.932 124.531 10.056C 124.367 10.176 124.213 10.29 124.069 10.398C 123.929 10.506 123.807 10.614 123.703 10.722C 123.603 10.83 123.545 10.95 123.529 11.082L 123.421 12L 122.689 12L 122.617 11.004L 122.617 10.938C 122.617 10.77 122.661 10.622 122.749 10.494C 122.841 10.362 122.955 10.24 123.091 10.128C 123.231 10.012 123.379 9.898 123.535 9.786C 123.695 9.67 123.843 9.544 123.979 9.408C 124.119 9.268 124.233 9.11 124.321 8.934C 124.413 8.758 124.459 8.55 124.459 8.31C 124.459 8.138 124.425 7.982 124.357 7.842C 124.289 7.702 124.197 7.584 124.081 7.488C 123.965 7.388 123.827 7.312 123.667 7.26C 123.511 7.208 123.343 7.182 123.163 7.182C 122.919 7.182 122.709 7.212 122.533 7.272C 122.361 7.332 122.215 7.398 122.095 7.47C 121.975 7.542 121.877 7.608 121.801 7.668C 121.729 7.728 121.669 7.758 121.621 7.758C 121.521 7.758 121.443 7.712 121.387 7.62L 121.105 7.17ZM 122.281 14.34C 122.281 14.236 122.299 14.138 122.335 14.046C 122.375 13.954 122.427 13.874 122.491 13.806C 122.559 13.738 122.639 13.684 122.731 13.644C 122.823 13.604 122.921 13.584 123.025 13.584C 123.129 13.584 123.227 13.604 123.319 13.644C 123.411 13.684 123.491 13.738 123.559 13.806C 123.627 13.874 123.679 13.954 123.715 14.046C 123.755 14.138 123.775 14.236 123.775 14.34C 123.775 14.448 123.755 14.548 123.715 14.64C 123.679 14.728 123.627 14.806 123.559 14.874C 123.491 14.942 123.411 14.994 123.319 15.03C 123.227 15.07 123.129 15.09 123.025 15.09C 122.921 15.09 122.823 15.07 122.731 15.03C 122.639 14.994 122.559 14.942 122.491 14.874C 122.427 14.806 122.375 14.728 122.335 14.64C 122.299 14.548 122.281 14.448 122.281 14.34Z"/>
<path id="path9_fill" d="M 641.059 0L 2.94064 0C 1.31657 0 0 1.9972 0 4.46087L 0 508.539C 0 511.003 1.31657 513 2.94064 513L 641.059 513C 642.683 513 644 511.003 644 508.539L 644 4.46087C 644 1.9972 642.683 0 641.059 0Z"/>
<path id="path10_fill" d="M 0 2C 0 0.895431 0.895431 0 2 0L 142 0C 143.105 0 144 0.895431 144 2L 144 206C 144 207.105 143.105 208 142 208L 2 208C 0.895431 208 0 207.105 0 206L 0 2Z"/>
<path id="path11_stroke_2x" d="M 2 1L 142 1L 142 -1L 2 -1L 2 1ZM 143 2L 143 206L 145 206L 145 2L 143 2ZM 142 207L 2 207L 2 209L 142 209L 142 207ZM 1 206L 1 2L -1 2L -1 206L 1 206ZM 2 207C 1.44772 207 1 206.552 1 206L -1 206C -1 207.657 0.343146 209 2 209L 2 207ZM 143 206C 143 206.552 142.552 207 142 207L 142 209C 143.657 209 145 207.657 145 206L 143 206ZM 142 1C 142.552 1 143 1.44772 143 2L 145 2C 145 0.343146 143.657 -1 142 -1L 142 1ZM 2 -1C 0.343146 -1 -1 0.343146 -1 2L 1 2C 1 1.44772 1.44772 1 2 1L 2 -1Z"/>
<path id="path12_fill" d="M 64.699 54.7915L 64.699 25.8673L 62.7184 25.8673L 62.7184 54.7915L 28.0079 54.7915L 28.0079 29.0141C 28.0079 27.9152 27.1211 27.0243 26.0273 27.0243L 11.9449 27.0243C 10.851 27.0243 9.9643 27.9152 9.9643 29.0141L 9.9643 54.7915L 5.28155 54.7915L 5.28155 25.8673L 3.30097 25.8673L 3.30097 54.7915L 1.98058 54.7915C 0.886737 54.7915 0 55.6824 0 56.7813L 0 63.0102C 0 64.1091 0.886737 65 1.98058 65L 66.0194 65C 67.1133 65 68 64.1091 68 63.0102L 68 56.7813C 68 55.6824 67.1133 54.7915 66.0194 54.7915L 64.699 54.7915ZM 11.9841 29.7293C 11.9841 29.363 12.2797 29.0661 12.6443 29.0661L 25.3279 29.0661C 25.6925 29.0661 25.9881 29.363 25.9881 29.7293L 25.9881 54.6554L 11.9841 54.6554L 11.9841 29.7293ZM 65.9802 62.295C 65.9802 62.6613 65.6846 62.9583 65.32 62.9583L 2.68001 62.9583C 2.3154 62.9583 2.01982 62.6613 2.01982 62.295L 2.01982 57.4964C 2.01982 57.1301 2.3154 56.8331 2.68001 56.8331L 65.32 56.8331C 65.6846 56.8331 65.9802 57.1301 65.9802 57.4964L 65.9802 62.295Z"/>
<path id="path13_fill" d="M 64.699 25.9357C 64.699 26.4851 64.2557 26.9306 63.7087 26.9306C 63.1618 26.9306 62.7184 26.4851 62.7184 25.9357C 62.7184 25.3862 63.1618 24.9408 63.7087 24.9408C 64.2557 24.9408 64.699 25.3862 64.699 25.9357Z"/>
<path id="path14_fill" d="M 5.28155 25.8673C 5.28155 26.4168 4.83818 26.8622 4.29126 26.8622C 3.74434 26.8622 3.30097 26.4168 3.30097 25.8673C 3.30097 25.3179 3.74434 24.8724 4.29126 24.8724C 4.83818 24.8724 5.28155 25.3179 5.28155 25.8673Z"/>
<path id="path15_fill" d="M 1.98058 0C 0.886737 0 0 0.890862 0 1.9898L 0 3.97959C 0 5.07853 0.886737 5.96939 1.98058 5.96939L 3.30097 5.96939L 3.30097 11.2755L 5.28155 11.2755L 5.28155 5.96939L 62.7184 5.96939L 62.7184 11.2755L 64.699 11.2755L 64.699 5.96939L 66.0194 5.96939C 67.1133 5.96939 68 5.07853 68 3.97959L 68 1.9898C 68 0.890863 67.1133 0 66.0194 0L 1.98058 0ZM 65.9646 3.43457C 65.9646 3.80088 65.669 4.09784 65.3044 4.09784L 2.83131 4.09784C 2.46669 4.09784 2.17111 3.80088 2.17111 3.43457L 2.17111 2.71218C 2.17111 2.34587 2.46669 2.04892 2.83131 2.04892L 65.3044 2.04892C 65.669 2.04892 65.9646 2.34587 65.9646 2.71218L 65.9646 3.43457Z"/>
<path id="path16_fill" d="M 64.699 11.2755C 64.699 11.825 64.2557 12.2704 63.7087 12.2704C 63.1618 12.2704 62.7184 11.825 62.7184 11.2755C 62.7184 10.726 63.1618 10.2806 63.7087 10.2806C 64.2557 10.2806 64.699 10.726 64.699 11.2755Z"/>
<path id="path17_fill" d="M 5.28155 11.2755C 5.28155 11.825 4.83818 12.2704 4.29126 12.2704C 3.74434 12.2704 3.30097 11.825 3.30097 11.2755C 3.30097 10.726 3.74434 10.2806 4.29126 10.2806C 4.83818 10.2806 5.28155 10.726 5.28155 11.2755Z"/>
<path id="path18_fill" d="M 33.7326 26.8905C 32.6388 26.8905 31.752 27.7814 31.752 28.8803L 31.752 46.7556C 31.752 47.8545 32.6388 48.7454 33.7326 48.7454L 58.9452 48.7454C 60.039 48.7454 60.9258 47.8545 60.9258 46.7556L 60.9258 28.8803C 60.9258 27.7814 60.039 26.8905 58.9452 26.8905L 33.7326 26.8905ZM 58.8904 46.0332C 58.8904 46.3995 58.5948 46.6965 58.2302 46.6965L 34.4476 46.6965C 34.083 46.6965 33.7874 46.3995 33.7874 46.0332L 33.7874 29.6027C 33.7874 29.2364 34.083 28.9394 34.4476 28.9394L 58.2303 28.9394C 58.5949 28.9394 58.8905 29.2364 58.8905 29.6027L 58.8904 46.0332Z"/>
<path id="path19_fill" d="M 16.2831 38.0228L 14.2477 38.0228L 14.2477 44.5793L 16.2831 44.5793L 16.2831 38.0228Z"/>
<path id="path20_fill" d="M 36.3108 34.49C 36.4799 34.49 36.6489 34.425 36.7776 34.2956L 39.4184 31.6426C 39.6765 31.3832 39.6765 30.964 39.4184 30.7047C 39.1602 30.4454 38.743 30.4454 38.4849 30.7047L 35.8441 33.3578C 35.5859 33.6171 35.5859 34.0363 35.8441 34.2956C 35.9735 34.425 36.1425 34.49 36.3108 34.49Z"/>
<path id="path21_fill" d="M 36.3108 37.8063C 36.4799 37.8063 36.6489 37.7413 36.7776 37.612L 38.098 36.2854C 38.3561 36.0261 38.3561 35.6069 38.098 35.3476C 37.8399 35.0882 37.4226 35.0882 37.1645 35.3476L 35.8441 36.6741C 35.5859 36.9334 35.5859 37.3526 35.8441 37.612C 35.9735 37.7413 36.1425 37.8063 36.3108 37.8063Z"/>
<path id="path22_fill" d="M 38.4829 34.0191C 38.3634 34.1444 38.2914 34.3175 38.2914 34.49C 38.2914 34.6624 38.3634 34.8349 38.4829 34.9543C 38.6077 35.0796 38.7727 35.1532 38.9516 35.1532C 39.1233 35.1532 39.2949 35.0803 39.4204 34.9609C 39.5392 34.8349 39.6118 34.6624 39.6118 34.49C 39.6118 34.3175 39.5392 34.1444 39.4204 34.0191C 39.1761 33.7736 38.7278 33.7736 38.4829 34.0191Z"/>
<path id="path23_fill" d="M 39.8052 33.6324C 39.9346 33.7617 40.1036 33.8267 40.272 33.8267C 40.4403 33.8267 40.61 33.7617 40.7388 33.6324L 42.7193 31.6426C 42.9775 31.3832 42.9775 30.964 42.7193 30.7047C 42.4612 30.4454 42.044 30.4454 41.7858 30.7047L 39.8052 32.6945C 39.5478 32.9538 39.5478 33.373 39.8052 33.6324Z"/>
<path id="path24_fill" d="M 36.3108 41.1226C 36.4799 41.1226 36.6489 41.0576 36.7776 40.9283L 42.7193 34.9589C 42.9775 34.6996 42.9775 34.2804 42.7193 34.021C 42.4612 33.7617 42.044 33.7617 41.7858 34.021L 35.8441 39.9904C 35.5859 40.2498 35.5859 40.6689 35.8441 40.9283C 35.9735 41.0576 36.1425 41.1226 36.3108 41.1226Z"/>
<path id="path25_fill" d="M 43.1042 33.6344C 43.229 33.7537 43.4013 33.8267 43.573 33.8267C 43.7446 33.8267 43.9163 33.7537 44.0417 33.6344C 44.1605 33.5083 44.2332 33.3359 44.2332 33.1634C 44.2332 32.991 44.1605 32.8179 44.0417 32.6925C 43.7974 32.4471 43.3485 32.4471 43.1042 32.6925C 42.9847 32.8179 42.9128 32.991 42.9128 33.1634C 42.9128 33.3359 42.9854 33.5083 43.1042 33.6344Z"/>
<path id="path26_fill" d="M 1.32032 17.5617C 1.32032 15.9215 2.64461 14.5919 4.27821 14.5919L 64.3818 14.5919C 66.0154 14.5919 67.3397 15.9215 67.3397 17.5617L 67.3397 19.5812C 67.3397 21.2214 66.0154 22.5511 64.3818 22.5511L 4.27821 22.5511C 2.64461 22.5511 1.32032 21.2214 1.32032 19.5812L 1.32032 17.5617Z"/>
<path id="path27_stroke_2x" d="M 64.699 54.7915L 62.699 54.7915L 62.699 56.7915L 64.699 56.7915L 64.699 54.7915ZM 64.699 25.8673L 66.699 25.8673L 66.699 23.8673L 64.699 23.8673L 64.699 25.8673ZM 62.7184 25.8673L 62.7184 23.8673L 60.7184 23.8673L 60.7184 25.8673L 62.7184 25.8673ZM 62.7184 54.7915L 62.7184 56.7915L 64.7184 56.7915L 64.7184 54.7915L 62.7184 54.7915ZM 28.0079 54.7915L 26.0079 54.7915L 26.0079 56.7915L 28.0079 56.7915L 28.0079 54.7915ZM 9.9643 54.7915L 9.9643 56.7915L 11.9643 56.7915L 11.9643 54.7915L 9.9643 54.7915ZM 5.28155 54.7915L 3.28155 54.7915L 3.28155 56.7915L 5.28155 56.7915L 5.28155 54.7915ZM 3.30097 54.7915L 3.30097 56.7915L 5.30097 56.7915L 5.30097 54.7915L 3.30097 54.7915ZM 25.9881 54.6554L 25.9881 56.6554L 27.9881 56.6554L 27.9881 54.6554L 25.9881 54.6554ZM 11.9841 54.6554L 9.98412 54.6554L 9.98412 56.6554L 11.9841 56.6554L 11.9841 54.6554ZM 3.30097 5.96939L 5.30097 5.96939L 5.30097 3.96939L 3.30097 3.96939L 3.30097 5.96939ZM 5.28155 5.96939L 5.28155 3.96939L 3.28155 3.96939L 3.28155 5.96939L 5.28155 5.96939ZM 62.7184 5.96939L 64.7184 5.96939L 64.7184 3.96939L 62.7184 3.96939L 62.7184 5.96939ZM 64.699 5.96939L 64.699 3.96939L 62.699 3.96939L 62.699 5.96939L 64.699 5.96939ZM 68 1.9898L 70 1.9898L 70 1.9898L 68 1.9898ZM 68 3.97959L 66 3.97959L 66 3.97959L 68 3.97959ZM 58.8905 29.6027L 56.8905 29.6027L 58.8905 29.6027ZM 58.8904 46.0332L 60.8904 46.0332L 58.8904 46.0332ZM 14.2477 38.0228L 14.2477 36.0228L 12.2477 36.0228L 12.2477 38.0228L 14.2477 38.0228ZM 16.2831 38.0228L 18.2831 38.0228L 18.2831 36.0228L 16.2831 36.0228L 16.2831 38.0228ZM 16.2831 44.5793L 16.2831 46.5793L 18.2831 46.5793L 18.2831 44.5793L 16.2831 44.5793ZM 14.2477 44.5793L 12.2477 44.5793L 12.2477 46.5793L 14.2477 46.5793L 14.2477 44.5793ZM 36.7776 34.2956L 38.1951 35.7066L 36.7776 34.2956ZM 39.4184 31.6426L 38.0009 30.2316L 39.4184 31.6426ZM 38.4849 30.7047L 37.0674 29.2938L 38.4849 30.7047ZM 35.8441 33.3578L 37.2616 34.7687L 35.8441 33.3578ZM 35.8441 34.2956L 34.4266 35.7066L 34.4302 35.7102L 35.8441 34.2956ZM 36.7776 37.612L 35.3601 36.201L 36.7776 37.612ZM 38.098 36.2854L 39.5155 37.6964L 38.098 36.2854ZM 37.1645 35.3476L 38.582 36.7585L 37.1645 35.3476ZM 35.8441 36.6741L 34.4266 35.2632L 35.8441 36.6741ZM 35.8441 37.612L 34.4266 39.0229L 34.4302 39.0265L 35.8441 37.612ZM 38.4829 34.0191L 37.0673 32.6062L 37.0511 32.6225L 37.0352 32.6391L 38.4829 34.0191ZM 38.4829 34.9543L 39.9004 33.5433L 39.8965 33.5394L 38.4829 34.9543ZM 39.4204 34.9609L 40.7992 36.4096L 40.8384 36.3723L 40.8754 36.333L 39.4204 34.9609ZM 39.4204 34.0191L 40.8718 32.6431L 40.855 32.6254L 40.8378 32.6081L 39.4204 34.0191ZM 39.8052 33.6324L 38.3859 35.0415L 38.3914 35.0469L 39.8052 33.6324ZM 40.7388 33.6324L 42.1562 35.0433L 40.7388 33.6324ZM 42.7193 31.6426L 41.3018 30.2316L 41.3018 30.2316L 42.7193 31.6426ZM 41.7858 30.7047L 40.3683 29.2938L 41.7858 30.7047ZM 39.8052 32.6945L 38.3877 31.2836L 38.3859 31.2854L 39.8052 32.6945ZM 36.7776 40.9283L 35.3601 39.5173L 36.7776 40.9283ZM 42.7193 34.9589L 44.1368 36.3698L 42.7193 34.9589ZM 41.7858 34.021L 43.2033 35.432L 41.7858 34.021ZM 35.8441 39.9904L 34.4266 38.5795L 35.8441 39.9904ZM 35.8441 40.9283L 34.4266 42.3392L 34.4302 42.3428L 35.8441 40.9283ZM 43.1042 33.6344L 41.6491 35.0065L 41.6844 35.0439L 41.7216 35.0794L 43.1042 33.6344ZM 44.0417 33.6344L 45.4206 35.0831L 45.4597 35.0458L 45.4968 35.0065L 44.0417 33.6344ZM 44.0417 32.6925L 45.4932 31.3166L 45.4764 31.2989L 45.4592 31.2816L 44.0417 32.6925ZM 43.1042 32.6925L 41.6867 31.2816L 41.6715 31.2969L 41.6566 31.3126L 43.1042 32.6925ZM 66.699 54.7915L 66.699 25.8673L 62.699 25.8673L 62.699 54.7915L 66.699 54.7915ZM 64.699 23.8673L 62.7184 23.8673L 62.7184 27.8673L 64.699 27.8673L 64.699 23.8673ZM 60.7184 25.8673L 60.7184 54.7915L 64.7184 54.7915L 64.7184 25.8673L 60.7184 25.8673ZM 62.7184 52.7915L 28.0079 52.7915L 28.0079 56.7915L 62.7184 56.7915L 62.7184 52.7915ZM 30.0079 54.7915L 30.0079 29.0141L 26.0079 29.0141L 26.0079 54.7915L 30.0079 54.7915ZM 26.0273 25.0243L 11.9449 25.0243L 11.9449 29.0243L 26.0273 29.0243L 26.0273 25.0243ZM 7.9643 29.0141L 7.9643 54.7915L 11.9643 54.7915L 11.9643 29.0141L 7.9643 29.0141ZM 9.9643 52.7915L 5.28155 52.7915L 5.28155 56.7915L 9.9643 56.7915L 9.9643 52.7915ZM 7.28155 54.7915L 7.28155 25.8673L 3.28155 25.8673L 3.28155 54.7915L 7.28155 54.7915ZM 5.28155 23.8673L 3.30097 23.8673L 3.30097 27.8673L 5.28155 27.8673L 5.28155 23.8673ZM 1.30097 25.8673L 1.30097 54.7915L 5.30097 54.7915L 5.30097 25.8673L 1.30097 25.8673ZM 3.30097 52.7915L 1.98058 52.7915L 1.98058 56.7915L 3.30097 56.7915L 3.30097 52.7915ZM -2 56.7813L -2 63.0102L 2 63.0102L 2 56.7813L -2 56.7813ZM 1.98058 67L 66.0194 67L 66.0194 63L 1.98058 63L 1.98058 67ZM 70 63.0102L 70 56.7813L 66 56.7813L 66 63.0102L 70 63.0102ZM 66.0194 52.7915L 64.699 52.7915L 64.699 56.7915L 66.0194 56.7915L 66.0194 52.7915ZM 12.6443 31.0661L 25.3279 31.0661L 25.3279 27.0661L 12.6443 27.0661L 12.6443 31.0661ZM 23.9881 29.7293L 23.9881 54.6554L 27.9881 54.6554L 27.9881 29.7293L 23.9881 29.7293ZM 25.9881 52.6554L 11.9841 52.6554L 11.9841 56.6554L 25.9881 56.6554L 25.9881 52.6554ZM 13.9841 54.6554L 13.9841 29.7293L 9.98412 29.7293L 9.98412 54.6554L 13.9841 54.6554ZM 65.32 60.9583L 2.68001 60.9583L 2.68001 64.9583L 65.32 64.9583L 65.32 60.9583ZM 4.01982 62.295L 4.01982 57.4964L 0.0198203 57.4964L 0.0198203 62.295L 4.01982 62.295ZM 2.68001 58.8331L 65.32 58.8331L 65.32 54.8331L 2.68001 54.8331L 2.68001 58.8331ZM 63.9802 57.4964L 63.9802 62.295L 67.9802 62.295L 67.9802 57.4964L 63.9802 57.4964ZM 62.699 25.9357C 62.699 25.3893 63.1423 24.9306 63.7087 24.9306L 63.7087 28.9306C 65.369 28.9306 66.699 27.581 66.699 25.9357L 62.699 25.9357ZM 63.7087 24.9306C 64.2751 24.9306 64.7184 25.3893 64.7184 25.9357L 60.7184 25.9357C 60.7184 27.581 62.0485 28.9306 63.7087 28.9306L 63.7087 24.9306ZM 64.7184 25.9357C 64.7184 26.482 64.2751 26.9408 63.7087 26.9408L 63.7087 22.9408C 62.0485 22.9408 60.7184 24.2904 60.7184 25.9357L 64.7184 25.9357ZM 63.7087 26.9408C 63.1423 26.9408 62.699 26.482 62.699 25.9357L 66.699 25.9357C 66.699 24.2904 65.369 22.9408 63.7087 22.9408L 63.7087 26.9408ZM 3.28155 25.8673C 3.28155 25.321 3.72488 24.8622 4.29126 24.8622L 4.29126 28.8622C 5.95149 28.8622 7.28155 27.5126 7.28155 25.8673L 3.28155 25.8673ZM 4.29126 24.8622C 4.85764 24.8622 5.30097 25.321 5.30097 25.8673L 1.30097 25.8673C 1.30097 27.5126 2.63104 28.8622 4.29126 28.8622L 4.29126 24.8622ZM 5.30097 25.8673C 5.30097 26.4137 4.85766 26.8724 4.29126 26.8724L 4.29126 22.8724C 2.63102 22.8724 1.30097 24.2221 1.30097 25.8673L 5.30097 25.8673ZM 4.29126 26.8724C 3.72487 26.8724 3.28155 26.4137 3.28155 25.8673L 7.28155 25.8673C 7.28155 24.2221 5.9515 22.8724 4.29126 22.8724L 4.29126 26.8724ZM 65.32 58.8331C 64.5713 58.8331 63.9802 58.2259 63.9802 57.4964L 67.9802 57.4964C 67.9802 56.0343 66.7979 54.8331 65.32 54.8331L 65.32 58.8331ZM 4.01982 57.4964C 4.01982 58.2259 3.42872 58.8331 2.68001 58.8331L 2.68001 54.8331C 1.20208 54.8331 0.0198203 56.0343 0.0198203 57.4964L 4.01982 57.4964ZM 2.68001 60.9583C 3.4287 60.9583 4.01982 61.5655 4.01982 62.295L 0.0198203 62.295C 0.0198203 63.7571 1.2021 64.9583 2.68001 64.9583L 2.68001 60.9583ZM 65.32 64.9583C 66.7979 64.9583 67.9802 63.7572 67.9802 62.295L 63.9802 62.295C 63.9802 61.5655 64.5713 60.9583 65.32 60.9583L 65.32 64.9583ZM 70 56.7813C 70 54.5866 68.2266 52.7915 66.0194 52.7915L 66.0194 56.7915C 66.0201 56.7915 66.0186 56.7916 66.0158 56.791C 66.0131 56.7904 66.0105 56.7896 66.0082 56.7886C 66.0059 56.7877 66.0044 56.7868 66.0036 56.7862C 66.0028 56.7856 66.0025 56.7853 66.0024 56.7853C 66.0023 56.7852 66.0023 56.7851 66.0021 56.7849C 66.0019 56.7846 66.0015 56.7839 66.001 56.7828C 66.0006 56.7817 66.0002 56.7805 66 56.7795C 65.9998 56.7784 66 56.7788 66 56.7813L 70 56.7813ZM 66.0194 67C 68.2266 67 70 65.2049 70 63.0102L 66 63.0102C 66 63.0128 65.9998 63.0132 66 63.0121C 66.0002 63.0111 66.0006 63.0098 66.001 63.0087C 66.0015 63.0076 66.0019 63.007 66.0021 63.0067C 66.0023 63.0064 66.0023 63.0063 66.0024 63.0063C 66.0025 63.0062 66.0028 63.0059 66.0036 63.0053C 66.0044 63.0048 66.0059 63.0039 66.0082 63.0029C 66.0105 63.0019 66.0131 63.0011 66.0158 63.0005C 66.0186 63 66.0201 63 66.0194 63L 66.0194 67ZM -2 63.0102C -2 65.205 -0.226566 67 1.98058 67L 1.98058 63C 1.97994 63 1.98136 63 1.98416 63.0005C 1.98685 63.0011 1.9895 63.0019 1.99182 63.0029C 1.99406 63.0039 1.99556 63.0048 1.9964 63.0053C 1.9972 63.0059 1.99753 63.0062 1.99759 63.0063C 1.99764 63.0063 1.99773 63.0064 1.9979 63.0067C 1.9981 63.007 1.99849 63.0076 1.99894 63.0087C 1.99943 63.0098 1.9998 63.0111 2 63.0121C 2.00023 63.0132 2 63.0128 2 63.0102L -2 63.0102ZM 1.98058 52.7915C -0.226576 52.7915 -2 54.5866 -2 56.7813L 2 56.7813C 2 56.7788 2.00023 56.7784 2 56.7795C 1.9998 56.7805 1.99943 56.7817 1.99895 56.7828C 1.9985 56.7839 1.9981 56.7846 1.9979 56.7849C 1.99773 56.7851 1.99765 56.7852 1.99759 56.7853C 1.99754 56.7853 1.99721 56.7856 1.9964 56.7862C 1.99556 56.7868 1.99406 56.7877 1.99183 56.7886C 1.98951 56.7896 1.98685 56.7904 1.98417 56.791C 1.98137 56.7916 1.97994 56.7915 1.98058 56.7915L 1.98058 52.7915ZM 25.3279 31.0661C 24.5792 31.0661 23.9881 30.4588 23.9881 29.7293L 27.9881 29.7293C 27.9881 28.2672 26.8058 27.0661 25.3279 27.0661L 25.3279 31.0661ZM 11.9449 25.0243C 9.73772 25.0243 7.9643 26.8194 7.9643 29.0141L 11.9643 29.0141C 11.9643 29.0116 11.9645 29.0112 11.9643 29.0123C 11.9641 29.0133 11.9637 29.0145 11.9632 29.0157C 11.9628 29.0167 11.9624 29.0174 11.9622 29.0177C 11.962 29.0179 11.9619 29.018 11.9619 29.0181C 11.9618 29.0181 11.9615 29.0185 11.9607 29.019C 11.9599 29.0196 11.9584 29.0205 11.9561 29.0214C 11.9538 29.0224 11.9511 29.0232 11.9485 29.0238C 11.9457 29.0244 11.9442 29.0243 11.9449 29.0243L 11.9449 25.0243ZM 12.6443 27.0661C 11.1664 27.0661 9.98412 28.2672 9.98412 29.7293L 13.9841 29.7293C 13.9841 30.4588 13.393 31.0661 12.6443 31.0661L 12.6443 27.0661ZM 30.0079 29.0141C 30.0079 26.8194 28.2345 25.0243 26.0273 25.0243L 26.0273 29.0243C 26.0279 29.0243 26.0265 29.0244 26.0237 29.0238C 26.021 29.0232 26.0184 29.0224 26.016 29.0214C 26.0138 29.0205 26.0123 29.0196 26.0115 29.019C 26.0107 29.0185 26.0103 29.0181 26.0103 29.0181C 26.0102 29.018 26.0101 29.0179 26.01 29.0177C 26.0098 29.0174 26.0094 29.0167 26.0089 29.0157C 26.0084 29.0145 26.0081 29.0133 26.0079 29.0123C 26.0076 29.0112 26.0079 29.0116 26.0079 29.0141L 30.0079 29.0141ZM -2 1.9898L -2 3.97959L 2 3.97959L 2 1.9898L -2 1.9898ZM 1.98058 7.96939L 3.30097 7.96939L 3.30097 3.96939L 1.98058 3.96939L 1.98058 7.96939ZM 1.30097 5.96939L 1.30097 11.2755L 5.30097 11.2755L 5.30097 5.96939L 1.30097 5.96939ZM 3.30097 13.2755L 5.28155 13.2755L 5.28155 9.27551L 3.30097 9.27551L 3.30097 13.2755ZM 7.28155 11.2755L 7.28155 5.96939L 3.28155 5.96939L 3.28155 11.2755L 7.28155 11.2755ZM 5.28155 7.96939L 62.7184 7.96939L 62.7184 3.96939L 5.28155 3.96939L 5.28155 7.96939ZM 60.7184 5.96939L 60.7184 11.2755L 64.7184 11.2755L 64.7184 5.96939L 60.7184 5.96939ZM 62.7184 13.2755L 64.699 13.2755L 64.699 9.27551L 62.7184 9.27551L 62.7184 13.2755ZM 66.699 11.2755L 66.699 5.96939L 62.699 5.96939L 62.699 11.2755L 66.699 11.2755ZM 64.699 7.96939L 66.0194 7.96939L 66.0194 3.96939L 64.699 3.96939L 64.699 7.96939ZM 70 3.9796L 70 1.9898L 66 1.98979L 66 3.97959L 70 3.9796ZM 66.0194 -2L 1.98058 -2L 1.98058 2L 66.0194 2L 66.0194 -2ZM 65.3044 2.09783L 2.83131 2.09783L 2.83131 6.09784L 65.3044 6.09784L 65.3044 2.09783ZM 4.17111 3.43457L 4.17111 2.71218L 0.171113 2.71218L 0.171113 3.43457L 4.17111 3.43457ZM 2.83131 4.04892L 65.3044 4.04892L 65.3044 0.0489174L 2.83131 0.0489174L 2.83131 4.04892ZM 63.9646 2.71218L 63.9646 3.43457L 67.9646 3.43457L 67.9646 2.71218L 63.9646 2.71218ZM 62.699 11.2755C 62.699 10.7292 63.1423 10.2704 63.7087 10.2704L 63.7087 14.2704C 65.369 14.2704 66.699 12.9208 66.699 11.2755L 62.699 11.2755ZM 63.7087 10.2704C 64.2751 10.2704 64.7184 10.7292 64.7184 11.2755L 60.7184 11.2755C 60.7184 12.9208 62.0485 14.2704 63.7087 14.2704L 63.7087 10.2704ZM 64.7184 11.2755C 64.7184 11.8218 64.2751 12.2806 63.7087 12.2806L 63.7087 8.28061C 62.0485 8.28061 60.7184 9.63024 60.7184 11.2755L 64.7184 11.2755ZM 63.7087 12.2806C 63.1423 12.2806 62.699 11.8218 62.699 11.2755L 66.699 11.2755C 66.699 9.63024 65.369 8.28061 63.7087 8.28061L 63.7087 12.2806ZM 3.28155 11.2755C 3.28155 10.7292 3.72487 10.2704 4.29126 10.2704L 4.29126 14.2704C 5.9515 14.2704 7.28155 12.9208 7.28155 11.2755L 3.28155 11.2755ZM 4.29126 10.2704C 4.85765 10.2704 5.30097 10.7292 5.30097 11.2755L 1.30097 11.2755C 1.30097 12.9208 2.63103 14.2704 4.29126 14.2704L 4.29126 10.2704ZM 5.30097 11.2755C 5.30097 11.8219 4.85765 12.2806 4.29126 12.2806L 4.29126 8.28061C 2.63103 8.28061 1.30097 9.63023 1.30097 11.2755L 5.30097 11.2755ZM 4.29126 12.2806C 3.72487 12.2806 3.28155 11.8218 3.28155 11.2755L 7.28155 11.2755C 7.28155 9.63024 5.9515 8.28061 4.29126 8.28061L 4.29126 12.2806ZM 65.3044 4.04892C 64.5557 4.04892 63.9646 3.44169 63.9646 2.71218L 67.9646 2.71218C 67.9646 1.25005 66.7823 0.0489174 65.3044 0.0489174L 65.3044 4.04892ZM 4.17111 2.71218C 4.17111 3.44168 3.58001 4.04892 2.83131 4.04892L 2.83131 0.0489174C 1.35338 0.0489174 0.171113 1.25007 0.171113 2.71218L 4.17111 2.71218ZM 2.83131 2.09783C 3.58 2.09783 4.17111 2.70507 4.17111 3.43457L 0.171113 3.43457C 0.171113 4.89669 1.35338 6.09784 2.83131 6.09784L 2.83131 2.09783ZM -2 3.97959C -2 6.17433 -0.226573 7.96939 1.98058 7.96939L 1.98058 3.96939C 1.97994 3.96939 1.98137 3.96936 1.98417 3.96993C 1.98685 3.97048 1.9895 3.97133 1.99183 3.97231C 1.99406 3.97326 1.99556 3.97416 1.9964 3.97473C 1.99721 3.97528 1.99754 3.97561 1.99759 3.97566C 1.99764 3.97572 1.99773 3.97581 1.9979 3.97606C 1.9981 3.97635 1.9985 3.977 1.99895 3.97807C 1.99943 3.97922 1.9998 3.98044 2 3.98144C 2.00023 3.98255 2 3.98215 2 3.97959L -2 3.97959ZM 65.3044 6.09784C 66.7823 6.09784 67.9646 4.8967 67.9646 3.43457L 63.9646 3.43457C 63.9646 2.70506 64.5557 2.09783 65.3044 2.09783L 65.3044 6.09784ZM 2 1.9898C 2 1.98724 2.00023 1.98684 2 1.98795C 1.9998 1.98895 1.99943 1.99017 1.99895 1.99132C 1.9985 1.99239 1.9981 1.99304 1.9979 1.99333C 1.99773 1.99358 1.99764 1.99367 1.99759 1.99373C 1.99754 1.99378 1.99721 1.99411 1.9964 1.99466C 1.99556 1.99523 1.99406 1.99612 1.99183 1.99707C 1.9895 1.99806 1.98685 1.9989 1.98417 1.99946C 1.98137 2.00003 1.97994 2 1.98058 2L 1.98058 -2C -0.226574 -2 -2 -0.204946 -2 1.9898L 2 1.9898ZM 70 1.9898C 70 -0.204944 68.2266 -2 66.0194 -2L 66.0194 2C 66.0201 2 66.0186 2.00003 66.0158 1.99946C 66.0132 1.9989 66.0105 1.99806 66.0082 1.99707C 66.0059 1.99612 66.0044 1.99523 66.0036 1.99466C 66.0028 1.99411 66.0025 1.99378 66.0024 1.99373C 66.0024 1.99367 66.0023 1.99358 66.0021 1.99333C 66.0019 1.99304 66.0015 1.99239 66.0011 1.99132C 66.0006 1.99017 66.0002 1.98895 66 1.98795C 65.9998 1.98684 66 1.98724 66 1.9898L 70 1.9898ZM 66.0194 7.96939C 68.2266 7.96939 70 6.17433 70 3.97959L 66 3.97959C 66 3.98215 65.9998 3.98255 66 3.98144C 66.0002 3.98044 66.0006 3.97922 66.001 3.97807C 66.0015 3.977 66.0019 3.97635 66.0021 3.97606C 66.0023 3.97581 66.0023 3.97572 66.0024 3.97566C 66.0025 3.97561 66.0028 3.97528 66.0036 3.97473C 66.0044 3.97416 66.0059 3.97326 66.0082 3.97231C 66.0105 3.97133 66.0131 3.97048 66.0158 3.96993C 66.0186 3.96936 66.0201 3.96939 66.0194 3.96939L 66.0194 7.96939ZM 29.752 28.8803L 29.752 46.7556L 33.752 46.7556L 33.752 28.8803L 29.752 28.8803ZM 33.7326 50.7454L 58.9452 50.7454L 58.9452 46.7454L 33.7326 46.7454L 33.7326 50.7454ZM 62.9258 46.7556L 62.9258 28.8803L 58.9258 28.8803L 58.9258 46.7556L 62.9258 46.7556ZM 58.9452 24.8905L 33.7326 24.8905L 33.7326 28.8905L 58.9452 28.8905L 58.9452 24.8905ZM 58.2302 44.6965L 34.4476 44.6965L 34.4476 48.6965L 58.2302 48.6965L 58.2302 44.6965ZM 35.7874 46.0332L 35.7874 29.6027L 31.7874 29.6027L 31.7874 46.0332L 35.7874 46.0332ZM 34.4476 30.9394L 58.2303 30.9394L 58.2303 26.9394L 34.4476 26.9394L 34.4476 30.9394ZM 56.8905 29.6027L 56.8904 46.0332L 60.8904 46.0332L 60.8905 29.6027L 56.8905 29.6027ZM 58.2303 30.9394C 57.4816 30.9394 56.8905 30.3322 56.8905 29.6027L 60.8905 29.6027C 60.8905 28.1406 59.7082 26.9394 58.2303 26.9394L 58.2303 30.9394ZM 35.7874 29.6027C 35.7874 30.3322 35.1963 30.9394 34.4476 30.9394L 34.4476 26.9394C 32.9697 26.9394 31.7874 28.1406 31.7874 29.6027L 35.7874 29.6027ZM 34.4476 44.6965C 35.1963 44.6965 35.7874 45.3037 35.7874 46.0332L 31.7874 46.0332C 31.7874 47.4953 32.9697 48.6965 34.4476 48.6965L 34.4476 44.6965ZM 58.2302 48.6965C 59.7081 48.6965 60.8904 47.4954 60.8904 46.0332L 56.8904 46.0332C 56.8904 45.3037 57.4815 44.6965 58.2302 44.6965L 58.2302 48.6965ZM 62.9258 28.8803C 62.9258 26.6856 61.1523 24.8905 58.9452 24.8905L 58.9452 28.8905C 58.9458 28.8905 58.9444 28.8905 58.9416 28.89C 58.9389 28.8894 58.9363 28.8886 58.9339 28.8876C 58.9317 28.8866 58.9302 28.8857 58.9294 28.8852C 58.9286 28.8846 58.9282 28.8843 58.9282 28.8842C 58.9281 28.8842 58.928 28.8841 58.9279 28.8838C 58.9277 28.8835 58.9273 28.8829 58.9268 28.8818C 58.9263 28.8807 58.926 28.8795 58.9258 28.8785C 58.9255 28.8773 58.9258 28.8777 58.9258 28.8803L 62.9258 28.8803ZM 58.9452 50.7454C 61.1523 50.7454 62.9258 48.9503 62.9258 46.7556L 58.9258 46.7556C 58.9258 46.7582 58.9255 46.7586 58.9258 46.7574C 58.926 46.7564 58.9263 46.7552 58.9268 46.7541C 58.9273 46.753 58.9277 46.7524 58.9279 46.7521C 58.928 46.7518 58.9281 46.7517 58.9282 46.7517C 58.9282 46.7516 58.9286 46.7513 58.9294 46.7507C 58.9302 46.7502 58.9317 46.7493 58.9339 46.7483C 58.9363 46.7473 58.9389 46.7465 58.9416 46.7459C 58.9444 46.7454 58.9458 46.7454 58.9452 46.7454L 58.9452 50.7454ZM 29.752 46.7556C 29.752 48.9503 31.5254 50.7454 33.7326 50.7454L 33.7326 46.7454C 33.732 46.7454 33.7334 46.7454 33.7362 46.7459C 33.7389 46.7465 33.7415 46.7473 33.7438 46.7483C 33.7461 46.7493 33.7476 46.7502 33.7484 46.7507C 33.7492 46.7513 33.7496 46.7516 33.7496 46.7517C 33.7497 46.7517 33.7498 46.7518 33.7499 46.7521C 33.7501 46.7524 33.7505 46.753 33.751 46.7541C 33.7514 46.7552 33.7518 46.7564 33.752 46.7574C 33.7522 46.7586 33.752 46.7582 33.752 46.7556L 29.752 46.7556ZM 33.752 28.8803C 33.752 28.8777 33.7522 28.8773 33.752 28.8785C 33.7518 28.8795 33.7514 28.8807 33.751 28.8818C 33.7505 28.8829 33.7501 28.8835 33.7499 28.8838C 33.7498 28.8841 33.7497 28.8842 33.7496 28.8842C 33.7496 28.8843 33.7492 28.8846 33.7484 28.8852C 33.7476 28.8857 33.7461 28.8866 33.7438 28.8876C 33.7415 28.8886 33.7389 28.8894 33.7362 28.89C 33.7334 28.8905 33.732 28.8905 33.7326 28.8905L 33.7326 24.8905C 31.5254 24.8905 29.752 26.6856 29.752 28.8803L 33.752 28.8803ZM 14.2477 40.0228L 16.2831 40.0228L 16.2831 36.0228L 14.2477 36.0228L 14.2477 40.0228ZM 14.2831 38.0228L 14.2831 44.5793L 18.2831 44.5793L 18.2831 38.0228L 14.2831 38.0228ZM 16.2831 42.5793L 14.2477 42.5793L 14.2477 46.5793L 16.2831 46.5793L 16.2831 42.5793ZM 16.2477 44.5793L 16.2477 38.0228L 12.2477 38.0228L 12.2477 44.5793L 16.2477 44.5793ZM 36.3108 36.49C 36.9928 36.49 37.6778 36.2263 38.1951 35.7066L 35.3601 32.8847C 35.6199 32.6237 35.9669 32.49 36.3108 32.49L 36.3108 36.49ZM 38.1951 35.7066L 40.8359 33.0535L 38.0009 30.2316L 35.3601 32.8847L 38.1951 35.7066ZM 40.8359 33.0535C 41.8707 32.0139 41.8707 30.3334 40.8359 29.2938L 38.0009 32.1156C 37.4823 31.5947 37.4823 30.7526 38.0009 30.2316L 40.8359 33.0535ZM 40.8359 29.2938C 39.7959 28.249 38.1073 28.249 37.0674 29.2938L 39.9024 32.1156C 39.3787 32.6417 38.5245 32.6417 38.0009 32.1156L 40.8359 29.2938ZM 37.0674 29.2938L 34.4266 31.9468L 37.2616 34.7687L 39.9024 32.1156L 37.0674 29.2938ZM 34.4266 31.9468C 33.3918 32.9865 33.3918 34.6669 34.4266 35.7066L 37.2616 32.8847C 37.7801 33.4057 37.7801 34.2477 37.2616 34.7687L 34.4266 31.9468ZM 34.4302 35.7102C 34.9453 36.2251 35.6275 36.49 36.3108 36.49L 36.3108 32.49C 36.6575 32.49 37.0016 32.6249 37.258 32.8811L 34.4302 35.7102ZM 36.3108 39.8063C 36.9928 39.8063 37.6778 39.5426 38.1951 39.0229L 35.3601 36.201C 35.62 35.94 35.9669 35.8063 36.3108 35.8063L 36.3108 39.8063ZM 38.1951 39.0229L 39.5155 37.6964L 36.6805 34.8745L 35.3601 36.201L 38.1951 39.0229ZM 39.5155 37.6964C 40.5503 36.6567 40.5503 34.9763 39.5155 33.9366L 36.6805 36.7585C 36.162 36.2375 36.162 35.3955 36.6805 34.8745L 39.5155 37.6964ZM 39.5155 33.9366C 38.4756 32.8919 36.7869 32.8919 35.747 33.9366L 38.582 36.7585C 38.0583 37.2846 37.2042 37.2846 36.6805 36.7585L 39.5155 33.9366ZM 35.747 33.9366L 34.4266 35.2632L 37.2616 38.085L 38.582 36.7585L 35.747 33.9366ZM 34.4266 35.2632C 33.3918 36.3028 33.3918 37.9833 34.4266 39.0229L 37.2616 36.201C 37.7801 36.722 37.7801 37.5641 37.2616 38.085L 34.4266 35.2632ZM 34.4302 39.0265C 34.9454 39.5414 35.6275 39.8063 36.3108 39.8063L 36.3108 35.8063C 36.6574 35.8063 37.0016 35.9412 37.258 36.1974L 34.4302 39.0265ZM 37.0352 32.6391C 36.5762 33.1206 36.2914 33.7822 36.2914 34.49L 40.2914 34.49C 40.2914 34.8528 40.1505 35.1682 39.9305 35.399L 37.0352 32.6391ZM 36.2914 34.49C 36.2914 35.1912 36.573 35.8732 37.0693 36.3691L 39.8965 33.5394C 40.1538 33.7965 40.2914 34.1336 40.2914 34.49L 36.2914 34.49ZM 37.0654 36.3652C 37.54 36.842 38.2056 37.1532 38.9516 37.1532L 38.9516 33.1532C 39.3399 33.1532 39.6753 33.3172 39.9004 33.5433L 37.0654 36.3652ZM 38.9516 37.1532C 39.6717 37.1532 40.3282 36.8579 40.7992 36.4096L 38.0415 33.5122C 38.2617 33.3026 38.5748 33.1532 38.9516 33.1532L 38.9516 37.1532ZM 40.8754 36.333C 41.3214 35.8601 41.6118 35.205 41.6118 34.49L 37.6118 34.49C 37.6118 34.1199 37.757 33.8096 37.9653 33.5888L 40.8754 36.333ZM 41.6118 34.49C 41.6118 33.7778 41.3233 33.1193 40.8718 32.6431L 37.9689 35.395C 37.7551 35.1695 37.6118 34.8572 37.6118 34.49L 41.6118 34.49ZM 40.8378 32.6081C 39.8107 31.5762 38.0925 31.579 37.0673 32.6062L 39.8985 35.4319C 39.5902 35.7408 39.2255 35.835 38.9519 35.835C 38.6783 35.835 38.3122 35.7408 38.0029 35.43L 40.8378 32.6081ZM 38.3914 35.0469C 38.9065 35.5618 39.5887 35.8267 40.272 35.8267L 40.272 31.8267C 40.6186 31.8267 40.9628 31.9616 41.2191 32.2178L 38.3914 35.0469ZM 40.272 35.8267C 40.9522 35.8267 41.6382 35.5638 42.1562 35.0433L 39.3213 32.2214C 39.5818 31.9596 39.9285 31.8267 40.272 31.8267L 40.272 35.8267ZM 42.1562 35.0433L 44.1368 33.0535L 41.3018 30.2316L 39.3213 32.2214L 42.1562 35.0433ZM 44.1368 33.0535C 45.1716 32.0139 45.1716 30.3334 44.1368 29.2938L 41.3018 32.1156C 40.7833 31.5947 40.7833 30.7526 41.3018 30.2316L 44.1368 33.0535ZM 44.1368 29.2938C 43.0969 28.249 41.4083 28.249 40.3683 29.2938L 43.2033 32.1156C 42.6797 32.6417 41.8255 32.6417 41.3018 32.1156L 44.1368 29.2938ZM 40.3683 29.2938L 38.3877 31.2836L 41.2227 34.1054L 43.2033 32.1156L 40.3683 29.2938ZM 38.3859 31.2854C 37.3542 32.3246 37.3542 34.0023 38.3859 35.0415L 41.2245 32.2233C 41.7413 32.7438 41.7413 33.5831 41.2245 34.1036L 38.3859 31.2854ZM 36.3108 43.1226C 36.9928 43.1226 37.6778 42.8589 38.1951 42.3392L 35.3601 39.5173C 35.6199 39.2563 35.9669 39.1226 36.3108 39.1226L 36.3108 43.1226ZM 38.1951 42.3392L 44.1368 36.3698L 41.3019 33.548L 35.3601 39.5173L 38.1951 42.3392ZM 44.1368 36.3698C 45.1717 35.3302 45.1717 33.6497 44.1368 32.6101L 41.3019 35.432C 40.7833 34.911 40.7833 34.0689 41.3019 33.548L 44.1368 36.3698ZM 44.1368 32.6101C 43.0969 31.5653 41.4083 31.5653 40.3683 32.6101L 43.2033 35.432C 42.6797 35.9581 41.8255 35.9581 41.3019 35.432L 44.1368 32.6101ZM 40.3683 32.6101L 34.4266 38.5795L 37.2616 41.4013L 43.2033 35.432L 40.3683 32.6101ZM 34.4266 38.5795C 33.3918 39.6191 33.3918 41.2996 34.4266 42.3392L 37.2616 39.5173C 37.7801 40.0383 37.7801 40.8804 37.2616 41.4013L 34.4266 38.5795ZM 34.4302 42.3428C 34.9453 42.8577 35.6275 43.1226 36.3108 43.1226L 36.3108 39.1226C 36.6575 39.1226 37.0016 39.2575 37.258 39.5137L 34.4302 42.3428ZM 41.7216 35.0794C 42.196 35.5333 42.8557 35.8267 43.573 35.8267L 43.573 31.8267C 43.9469 31.8267 44.262 31.9741 44.4869 32.1893L 41.7216 35.0794ZM 43.573 35.8267C 44.2931 35.8267 44.9495 35.5314 45.4206 35.0831L 42.6629 32.1856C 42.883 31.9761 43.1962 31.8267 43.573 31.8267L 43.573 35.8267ZM 45.4968 35.0065C 45.9427 34.5336 46.2332 33.8784 46.2332 33.1634L 42.2332 33.1634C 42.2332 32.7934 42.3784 32.4831 42.5866 32.2622L 45.4968 35.0065ZM 46.2332 33.1634C 46.2332 32.4513 45.9447 31.7928 45.4932 31.3166L 42.5902 34.0685C 42.3764 33.8429 42.2332 33.5307 42.2332 33.1634L 46.2332 33.1634ZM 45.4592 31.2816C 44.4331 30.2508 42.7128 30.2508 41.6867 31.2816L 44.5217 34.1034C 44.212 34.4146 43.8458 34.5085 43.573 34.5085C 43.3002 34.5085 42.934 34.4146 42.6242 34.1034L 45.4592 31.2816ZM 41.6566 31.3126C 41.1976 31.7941 40.9128 32.4557 40.9128 33.1634L 44.9128 33.1634C 44.9128 33.5262 44.7719 33.8417 44.5519 34.0725L 41.6566 31.3126ZM 40.9128 33.1634C 40.9128 33.8784 41.2032 34.5336 41.6491 35.0065L 44.5593 32.2622C 44.7676 32.4831 44.9128 32.7934 44.9128 33.1634L 40.9128 33.1634ZM 4.27821 16.5919L 64.3818 16.5919L 64.3818 12.5919L 4.27821 12.5919L 4.27821 16.5919ZM 65.3397 17.5617L 65.3397 19.5812L 69.3397 19.5812L 69.3397 17.5617L 65.3397 17.5617ZM 64.3818 20.5511L 4.27821 20.5511L 4.27821 24.5511L 64.3818 24.5511L 64.3818 20.5511ZM 3.32032 19.5812L 3.32032 17.5617L -0.679682 17.5617L -0.679682 19.5812L 3.32032 19.5812ZM 4.27821 20.5511C 3.75678 20.5511 3.32032 20.1245 3.32032 19.5812L -0.679682 19.5812C -0.679682 22.3184 1.53245 24.5511 4.27821 24.5511L 4.27821 20.5511ZM 65.3397 19.5812C 65.3397 20.1245 64.9033 20.5511 64.3818 20.5511L 64.3818 24.5511C 67.1276 24.5511 69.3397 22.3184 69.3397 19.5812L 65.3397 19.5812ZM 64.3818 16.5919C 64.9033 16.5919 65.3397 17.0185 65.3397 17.5617L 69.3397 17.5617C 69.3397 14.8246 67.1276 12.5919 64.3818 12.5919L 64.3818 16.5919ZM 4.27821 12.5919C 1.53245 12.5919 -0.679682 14.8246 -0.679682 17.5617L 3.32032 17.5617C 3.32032 17.0185 3.75678 16.5919 4.27821 16.5919L 4.27821 12.5919Z"/>
</defs>
</svg>
