<svg xmlns="http://www.w3.org/2000/svg" viewBox="15 523 41.001 41">
    <defs>
        <style>
            .cls-1{fill:none}.cls-2{fill:#f1a93b}.cls-3{fill:#2a3143}
        </style>
    </defs>
    <g id="icon-papers" transform="translate(6669 1259)">
        <g id="Vector" transform="translate(2 23)">
            <path id="Path_137" d="M3.5 0h-3L0 1l1 3 1.5 2.5 4 2h2v-8l-1-.5z" class="cls-2" data-name="Path 137" transform="translate(-6655.5 -727.5)"/>
            <path id="Union_6" d="M-6863.477-380a9.55 9.55 0 0 1-9.523-9.554v-3.8a.6.6 0 0 1 .6-.6.6.6 0 0 1 .6.6v3.293a13.793 13.793 0 0 0 2.691.183h.007l3.893-.083a2.094 2.094 0 0 1 1.543.626 2.1 2.1 0 0 1 .614 1.552l-.107 3.872a13.929 13.929 0 0 0 .183 2.7h18.941a1.2 1.2 0 0 0 1.2-1.2v-26.655a1.2 1.2 0 0 0-1.2-1.2h-26.565a1.2 1.2 0 0 0-1.2 1.2v11.778a.6.6 0 0 1-.6.6.6.6 0 0 1-.6-.6v-11.778a2.4 2.4 0 0 1 2.4-2.406h7.238v-6.127a2.406 2.406 0 0 1 2.4-2.406h26.567a2.406 2.406 0 0 1 2.4 2.406v3.327a.6.6 0 0 1-.6.6.6.6 0 0 1-.6-.6v-3.327a1.2 1.2 0 0 0-1.2-1.2h-26.567a1.2 1.2 0 0 0-1.2 1.2v6.127h18.129a2.4 2.4 0 0 1 2.4 2.406v1.371h4.083a.6.6 0 0 1 .6.6.6.6 0 0 1-.6.6h-4.083v2.534h4.083a.6.6 0 0 1 .6.6.6.6 0 0 1-.6.6h-4.083v2.534h4.083a.6.6 0 0 1 .6.6.6.6 0 0 1-.6.6h-4.083v9.268h7.238a1.2 1.2 0 0 0 1.2-1.2v-19.81a.6.6 0 0 1 .6-.6.6.6 0 0 1 .6.6v19.81a2.4 2.4 0 0 1-2.4 2.406h-7.238v6.129a2.4 2.4 0 0 1-2.4 2.406zm-.721-1.237a15.277 15.277 0 0 1-.161-2.7l.107-3.871a.908.908 0 0 0-.266-.671.9.9 0 0 0-.667-.269l-3.89.081a14.989 14.989 0 0 1-2.694-.16 8.352 8.352 0 0 0 7.569 7.591zm1.023-10.8a.6.6 0 0 1-.6-.6.6.6 0 0 1 .6-.6h11.714a.6.6 0 0 1 .6.6.6.6 0 0 1-.6.6zm-2.5-3.089a.6.6 0 0 1-.6-.6.6.6 0 0 1 .6-.6h16.714a.6.6 0 0 1 .6.6.6.6 0 0 1-.6.6z" class="cls-3" data-name="Union 6" transform="translate(217 -338)"/>
        </g>
    </g>
</svg>
