<svg xmlns="http://www.w3.org/2000/svg" viewBox="131 327 49.001 49">
    <g id="icon-computer-line" transform="translate(6582 1562)">
        <path id="Union_26" d="M-6277.974-1784.389a1.816 1.816 0 0 1-1.812-1.814v-.81a1.816 1.816 0 0 1 1.812-1.814h1.5l.7-4.779h-7.37a.718.718 0 0 1-.718-.719.718.718 0 0 1 .718-.718h34.479a2.224 2.224 0 0 0 2.223-2.223V-1801h-46.128v3.729a2.225 2.225 0 0 0 2.224 2.223h3a.718.718 0 0 1 .716.718.718.718 0 0 1-.716.719h-3a3.665 3.665 0 0 1-3.66-3.66v-30.072a3.665 3.665 0 0 1 3.66-3.662h41.682a3.664 3.664 0 0 1 3.658 3.662v3.246a.717.717 0 0 1-.719.718.718.718 0 0 1-.717-.718v-3.246a2.226 2.226 0 0 0-2.223-2.225h-41.682a2.227 2.227 0 0 0-2.224 2.225v24.906h46.128v-17.5a.719.719 0 0 1 .717-.719.717.717 0 0 1 .719.719v22.666a3.663 3.663 0 0 1-3.658 3.66h-14.575l.7 4.779h1.5a1.818 1.818 0 0 1 1.814 1.814v.81a1.818 1.818 0 0 1-1.814 1.814zm-.377-2.625v.81a.377.377 0 0 0 .377.377h16.946a.377.377 0 0 0 .377-.377v-.81a.377.377 0 0 0-.377-.377h-16.946a.377.377 0 0 0-.377.378zm3.333-1.814h11.037l-.7-4.779h-9.632zm3.188-9.191a2.335 2.335 0 0 1 2.329-2.332 2.333 2.333 0 0 1 2.33 2.332 2.332 2.332 0 0 1-2.33 2.329 2.333 2.333 0 0 1-2.329-2.329zm1.438 0a.891.891 0 0 0 .892.893.894.894 0 0 0 .9-.893.9.9 0 0 0-.9-.9.9.9 0 0 0-.893.9zm-18.006-6.521a2.061 2.061 0 0 1-2.059-2.061v-18.8a2.06 2.06 0 0 1 2.059-2.058h37.8a2.062 2.062 0 0 1 2.059 2.058v18.8a2.062 2.062 0 0 1-2.059 2.061zm32.866-5.106a1.9 1.9 0 0 1 1.9 1.9v1.768h3.031a.625.625 0 0 0 .623-.624v-18.8a.623.623 0 0 0-.623-.622h-37.8a.624.624 0 0 0-.624.622v18.8a.626.626 0 0 0 .624.624h3.88v-1.768a1.9 1.9 0 0 1 1.9-1.9zm-27.552 1.9v1.768h28.017v-1.768a.465.465 0 0 0-.465-.465h-27.085a.466.466 0 0 0-.467.467zm28.781-4.221a1.24 1.24 0 0 1-1.239-1.241v-1.335a1.24 1.24 0 0 1 1.239-1.241h1.335a1.242 1.242 0 0 1 1.238 1.241v1.335a1.242 1.242 0 0 1-1.238 1.241zm.2-1.437h.94v-.943h-.94zm-.2-3.224a1.24 1.24 0 0 1-1.239-1.241v-1.335a1.24 1.24 0 0 1 1.239-1.241h1.335a1.242 1.242 0 0 1 1.238 1.241v1.335a1.242 1.242 0 0 1-1.238 1.241zm.2-1.437h.94v-.943h-.94zm-.2-3.224a1.24 1.24 0 0 1-1.239-1.241v-1.335a1.24 1.24 0 0 1 1.239-1.241h1.335a1.242 1.242 0 0 1 1.238 1.241v1.335a1.242 1.242 0 0 1-1.238 1.241zm.2-1.437h.94v-.943h-.94z" data-name="Union 26" transform="translate(-156.999 597.001)"/>
    </g>
</svg>
