<svg xmlns="http://www.w3.org/2000/svg" viewBox="235 518 41 42">
    <defs>
        <style>
            .cls-1{fill:none}.cls-2{fill:#2a3143}.cls-3{fill:#f1a93b}
        </style>
    </defs>
    <g id="icon-paper-header" transform="translate(6810 1277.001)">
        <g id="Group_3" data-name="Group 3" transform="translate(-9 1)">
            <path id="Union_9" d="M2.726 42A2.709 2.709 0 0 1 0 39.315v-2.772a.728.728 0 0 1 .733-.723.728.728 0 0 1 .734.723v2.772a1.25 1.25 0 0 0 1.259 1.24h30.4a1.251 1.251 0 0 0 1.259-1.24V8.883a.733.733 0 0 1 1.466 0v30.432A2.708 2.708 0 0 1 33.127 42zm3.646-5.8a.722.722 0 1 1 0-1.445h16.4a.722.722 0 1 1 0 1.445zM0 33.117V2.685A2.709 2.709 0 0 1 2.726 0h30.4a2.708 2.708 0 0 1 2.725 2.685v2.774a.733.733 0 0 1-1.466 0V2.685a1.251 1.251 0 0 0-1.259-1.239h-30.4a1.25 1.25 0 0 0-1.259 1.239v30.432a.728.728 0 0 1-.734.721.728.728 0 0 1-.733-.721zm6.372-1.594a.722.722 0 1 1 0-1.445H19.64a.722.722 0 1 1 0 1.445zm0-4.675a.722.722 0 1 1 0-1.445h20.556a.722.722 0 1 1 0 1.445z" class="cls-2" data-name="Union 9" transform="translate(-6563 -760.001)"/>
            <path id="Path_146" d="M0 1.024A1.024 1.024 0 0 1 1.024 0h23.56a1.024 1.024 0 0 1 1.024 1.024v8.195a1.024 1.024 0 0 1-1.024 1.024H1.024A1.024 1.024 0 0 1 0 9.219z" class="cls-3" data-name="Path 146" transform="translate(-6557.878 -753.854)"/>
        </g>
    </g>
</svg>
