<svg xmlns="http://www.w3.org/2000/svg" viewBox="400 -13 39 39">
    <g id="icon_mais" transform="translate(6510 1898)">
        <path id="Exclusion_2" d="M-6260.5-2150a19.386 19.386 0 0 1-7.591-1.532 19.44 19.44 0 0 1-6.2-4.179 19.429 19.429 0 0 1-4.179-6.2 19.376 19.376 0 0 1-1.533-7.59 19.379 19.379 0 0 1 1.533-7.591 19.427 19.427 0 0 1 4.179-6.2 19.436 19.436 0 0 1 6.2-4.179 19.384 19.384 0 0 1 7.591-1.529 19.379 19.379 0 0 1 7.59 1.532 19.429 19.429 0 0 1 6.2 4.179 19.437 19.437 0 0 1 4.179 6.2 19.387 19.387 0 0 1 1.531 7.589 19.384 19.384 0 0 1-1.532 7.59 19.438 19.438 0 0 1-4.179 6.2 19.44 19.44 0 0 1-6.2 4.179 19.379 19.379 0 0 1-7.589 1.531zm-2.163-17.329v6.5h4.333v-6.5h6.5v-4.333h-6.5v-6.5h-4.333v6.5h-6.5v4.333z" data-name="Exclusion 2" transform="translate(170 278)"/>
    </g>
</svg>
