<svg xmlns="http://www.w3.org/2000/svg" viewBox="372 252 14 14">
    <g id="icon-gamepad" transform="translate(-134 -537.931)">
        <path id="Union_31" d="M148.872 549.807a4.882 4.882 0 0 1 .012-9.763h1.592v-1.618a.495.495 0 0 1 .989 0v1.618h1.664a4.888 4.888 0 0 1-.013 9.776zm-3.883-4.9a3.887 3.887 0 0 0 3.883 3.91l4.244.012a3.9 3.9 0 0 0 .013-7.8l-4.233-.012h-.023a3.887 3.887 0 0 0-3.884 3.89zm9.237.82a.8.8 0 1 1 .8.8.8.8 0 0 1-.8-.8zm-7.007.278v-.567h-.566a.5.5 0 0 1 0-.99h.566v-.567a.495.495 0 1 1 .989 0v.567h.567a.5.5 0 0 1 0 .99h-.567v.567a.495.495 0 1 1-.989 0zm5.415-1.871a.8.8 0 1 1 .8.8.8.8 0 0 1-.8-.8z" data-name="Union 31" transform="translate(362 253)"/>
    </g>
</svg>
