<svg width="37" height="38" viewBox="0 0 37 38" version="1.1" xmlns="http://www.w3.org/2000/svg" xmlns:xlink="http://www.w3.org/1999/xlink">
<title>Group 25</title>
<desc>Created using Figma</desc>
<g id="Canvas" transform="translate(5156 1858)">
<g id="Group 25">
<g id="Vector">
<use xlink:href="#path0_fill" transform="translate(-5155 -1858)" fill="#2A3143"/>
</g>
</g>
</g>
<defs>
<path id="path0_fill" fill-rule="evenodd" d="M 7.2 11.875L 4.8 11.875L 4.8 14.25L 7.2 14.25L 7.2 11.875ZM 16.8 9.5L 14.4 9.5L 14.4 11.875L 16.8 11.875L 16.8 9.5ZM 21.6 9.5L 19.2 9.5L 19.2 11.875L 21.6 11.875L 21.6 9.5ZM 26.4 9.5L 24 9.5L 24 11.875L 26.4 11.875L 26.4 9.5ZM 16.8 4.75L 14.4 4.75L 14.4 7.125L 16.8 7.125L 16.8 4.75ZM 21.6 4.75L 19.2 4.75L 19.2 7.125L 21.6 7.125L 21.6 4.75ZM 26.4 4.75L 24 4.75L 24 7.125L 26.4 7.125L 26.4 4.75ZM 16.8 19L 14.4 19L 14.4 21.375L 16.8 21.375L 16.8 19ZM 21.6 19L 19.2 19L 19.2 21.375L 21.6 21.375L 21.6 19ZM 26.4 19L 24 19L 24 21.375L 26.4 21.375L 26.4 19ZM 16.8 23.75L 14.4 23.75L 14.4 26.125L 16.8 26.125L 16.8 23.75ZM 26.4 23.75L 24 23.75L 24 26.125L 26.4 26.125L 26.4 23.75ZM 16.8 28.5L 14.4 28.5L 14.4 30.875L 16.8 30.875L 16.8 28.5ZM 26.4 28.5L 24 28.5L 24 30.875L 26.4 30.875L 26.4 28.5ZM 16.8 14.25L 14.4 14.25L 14.4 16.625L 16.8 16.625L 16.8 14.25ZM 21.6 14.25L 19.2 14.25L 19.2 16.625L 21.6 16.625L 21.6 14.25ZM 26.4 14.25L 24 14.25L 24 16.625L 26.4 16.625L 26.4 14.25ZM 7.2 16.625L 4.8 16.625L 4.8 19L 7.2 19L 7.2 16.625ZM 7.2 21.375L 4.8 21.375L 4.8 23.75L 7.2 23.75L 7.2 21.375ZM 7.2 26.125L 4.8 26.125L 4.8 28.5L 7.2 28.5L 7.2 26.125ZM 7.2 30.875L 4.8 30.875L 4.8 33.25L 7.2 33.25L 7.2 30.875ZM 21.6 23.75L 19.2 23.75L 19.2 26.125L 21.6 26.125L 21.6 23.75ZM 33.6 16.625L 31.2 16.625L 31.2 2.375C 31.2 1.06222 30.1266 0 28.8 0L 12 0C 10.6734 0 9.6 1.06222 9.6 2.375L 9.6 7.125L 2.4 7.125C 1.0734 7.125 0 8.18722 0 9.5L 0 35.625C 0 36.9378 1.0734 38 2.4 38L 33.6 38C 34.9266 38 36 36.9378 36 35.625L 36 19C 36 17.6872 34.9266 16.625 33.6 16.625ZM 9.6 35.625L 2.4 35.625L 2.4 9.5L 9.6 9.5L 9.6 35.625ZM 28.8 35.625L 21.6 35.625L 21.6 28.5L 19.2 28.5L 19.2 35.625L 12 35.625L 12 2.375L 28.8 2.375L 28.8 35.625ZM 33.6 35.625L 31.2 35.625L 31.2 33.25L 33.6 33.25L 33.6 35.625ZM 33.6 30.875L 31.2 30.875L 31.2 28.5L 33.6 28.5L 33.6 30.875ZM 33.6 26.125L 31.2 26.125L 31.2 23.75L 33.6 23.75L 33.6 26.125ZM 33.6 21.375L 31.2 21.375L 31.2 19L 33.6 19L 33.6 21.375Z"/>
</defs>
</svg>
