<svg width="28" height="24" viewBox="0 0 28 24" version="1.1" xmlns="http://www.w3.org/2000/svg" xmlns:xlink="http://www.w3.org/1999/xlink">
<title>Vector</title>
<desc>Created using Figma</desc>
<g id="Canvas" transform="translate(-7103 1931)">
<rect x="7103" y="-1931" width="28" height="24" fill="#E5E5E5"/>
<clipPath id="clip-0" clip-rule="evenodd">
<path d="M 7024 -2276L 8304 -2276L 8304 -1508L 7024 -1508L 7024 -2276Z" fill="#FFFFFF"/>
</clipPath>
<g id="Dashboard" clip-path="url(#clip-0)">
<path d="M 7024 -2276L 8304 -2276L 8304 -1508L 7024 -1508L 7024 -2276Z" fill="#FFFFFF"/>
<g id="Background">
<g id="Rectangle">
<use xlink:href="#path0_fill" transform="translate(7024 -2276)" fill="#F7F7F7"/>
</g>
</g>
<g id="Group 29.1">
<g id="Rectangle 2.10">
<use xlink:href="#path1_fill" transform="translate(7084 -2082)" fill="#FFFFFF"/>
<use xlink:href="#path2_stroke" transform="translate(7084 -2082)" fill="#000000" fill-opacity="0.05"/>
</g>
<g id="Group 2">
<g id="Group 2">
<g id="Group">
<g id="Group 2">
<g id="Vector">
<use xlink:href="#path3_fill" transform="translate(7103 -1931)" fill="#2A3143"/>
<use xlink:href="#path4_fill" transform="translate(7103 -1931)" fill="#2A3143"/>
<use xlink:href="#path5_fill" transform="translate(7103 -1931)" fill="#2A3143"/>
</g>
</g>
</g>
</g>
</g>
</g>
</g>
</g>
<defs>
<path id="path0_fill" d="M 0 0L 1280 0L 1280 768L 0 768L 0 0Z"/>
<path id="path1_fill" d="M 0 3C 0 1.34315 1.34315 0 3 0L 370 0C 371.657 0 373 1.34315 373 3L 373 212C 373 213.657 371.657 215 370 215L 3 215C 1.34315 215 0 213.657 0 212L 0 3Z"/>
<path id="path2_stroke" d="M 3 0.5L 370 0.5L 370 -0.5L 3 -0.5L 3 0.5ZM 372.5 3L 372.5 212L 373.5 212L 373.5 3L 372.5 3ZM 370 214.5L 3 214.5L 3 215.5L 370 215.5L 370 214.5ZM 0.5 212L 0.5 3L -0.5 3L -0.5 212L 0.5 212ZM 3 214.5C 1.61929 214.5 0.5 213.381 0.5 212L -0.5 212C -0.5 213.933 1.067 215.5 3 215.5L 3 214.5ZM 372.5 212C 372.5 213.381 371.381 214.5 370 214.5L 370 215.5C 371.933 215.5 373.5 213.933 373.5 212L 372.5 212ZM 370 0.5C 371.381 0.5 372.5 1.61929 372.5 3L 373.5 3C 373.5 1.067 371.933 -0.5 370 -0.5L 370 0.5ZM 3 -0.5C 1.067 -0.5 -0.5 1.067 -0.5 3L 0.5 3C 0.5 1.61929 1.61929 0.5 3 0.5L 3 -0.5Z"/>
<path id="path3_fill" d="M 22.7613 2.47161L 22.4674 0.347762C 22.4526 0.240828 22.3961 0.14435 22.3104 0.0798467C 22.2248 0.0153987 22.1173 -0.011708 22.0117 0.00466678L 19.6987 0.363031C 19.4807 0.396776 19.3312 0.602843 19.3645 0.823239C 19.3979 1.04369 19.6017 1.1951 19.8195 1.16124L 21.1674 0.952411C 19.3649 3.20665 17.4262 5.12681 15.3957 6.66532C 13.6289 8.00407 11.789 9.05924 9.92732 9.80164C 6.75878 11.0651 4.59513 10.9821 4.57385 10.9813C 4.35324 10.9701 4.16714 11.1425 4.15648 11.365C 4.14576 11.5878 4.31556 11.7771 4.53574 11.7879C 4.54875 11.7885 4.60322 11.7909 4.69663 11.7909C 5.27172 11.7909 7.31769 11.7016 10.17 10.5727C 12.1042 9.80717 14.013 8.71786 15.8434 7.33497C 17.9468 5.74579 19.9516 3.7614 21.8113 1.43115L 21.9708 2.58358C 21.9987 2.78544 22.1697 2.93138 22.3656 2.93138C 22.3839 2.93138 22.4026 2.93011 22.4214 2.92745C 22.6397 2.89653 22.7919 2.69245 22.7613 2.47161Z"/>
<path id="path4_fill" d="M 27.2635 21.7775L 24.0381 21.7775C 24.3036 21.5989 24.5536 21.3925 24.7842 21.1593C 25.6931 20.2399 26.1936 19.0175 26.1936 17.7174C 26.1936 16.4172 25.6931 15.1949 24.7842 14.2756C 24.4605 13.9481 24.1011 13.6784 23.7193 13.464L 23.7193 11.834C 23.7193 11.611 23.5406 11.4303 23.3202 11.4303C 23.0998 11.4303 22.9211 11.6111 22.9211 11.834L 22.9211 13.1054C 21.8286 12.7312 20.6423 12.7669 19.5756 13.2049L 19.5756 8.24555C 19.5756 8.19333 19.6176 8.15084 19.6692 8.15084L 22.8275 8.15084C 22.8791 8.15084 22.9211 8.19333 22.9211 8.24555L 22.9211 9.24767C 22.9211 9.47067 23.0998 9.6514 23.3202 9.6514C 23.5407 9.6514 23.7193 9.47061 23.7193 9.24767L 23.7193 8.24555C 23.7193 7.74806 23.3192 7.34333 22.8274 7.34333L 19.6691 7.34333C 19.1773 7.34333 18.7772 7.74806 18.7772 8.24555L 18.7772 13.625C 18.4945 13.8091 18.2264 14.0253 17.9792 14.2754C 17.0704 15.1948 16.5699 16.4172 16.5699 17.7173C 16.5699 19.0175 17.0704 20.2398 17.9792 21.1591C 18.2098 21.3924 18.4598 21.5988 18.7253 21.7773L 16.2049 21.7773L 16.2049 11.909C 16.2049 11.4115 15.8049 11.0068 15.313 11.0068L 12.1548 11.0068C 11.663 11.0068 11.2629 11.4115 11.2629 11.909L 11.2629 21.7775L 8.69055 21.7775L 8.69055 15.2303C 8.69055 14.7328 8.29046 14.3281 7.79866 14.3281L 4.64034 14.3281C 4.14854 14.3281 3.74845 14.7328 3.74845 15.2303L 3.74845 21.7775L 2.10437 21.7775L 2.10437 1.01383C 2.10437 0.60302 1.77401 0.268831 1.3679 0.268831L 0.736477 0.268831C 0.330367 0.268831 0 0.60302 0 1.01383L 0 3.88018C 0 4.10318 0.178719 4.28391 0.399109 4.28391C 0.6195 4.28391 0.798219 4.10312 0.798219 3.88018L 0.798219 1.07634L 1.30605 1.07634L 1.30605 21.84C 1.30605 22.2508 1.63647 22.585 2.04252 22.585L 27.2017 22.585L 27.2017 23.1925L 0.798274 23.1925L 0.798274 6.43155C 0.798274 6.20855 0.619555 6.02782 0.399164 6.02782C 0.178773 6.02782 0 6.20855 0 6.43155L 0 23.255C 0 23.6658 0.330367 24 0.736477 24L 27.2635 24C 27.6696 24 28 23.6658 28 23.255L 28 22.5224C 28 22.1116 27.6696 21.7775 27.2635 21.7775ZM 7.89228 21.7775L 4.54672 21.7775L 4.54672 15.2303C 4.54672 15.178 4.58872 15.1356 4.64034 15.1356L 7.79866 15.1356C 7.85028 15.1356 7.89228 15.178 7.89228 15.2303L 7.89228 21.7775ZM 12.0611 21.7775L 12.0611 11.909C 12.0611 11.8568 12.1031 11.8143 12.1547 11.8143L 15.313 11.8143C 15.3646 11.8143 15.4066 11.8568 15.4066 11.909L 15.4066 21.7775L 12.0611 21.7775ZM 23.1449 21.3647C 22.7406 21.5646 22.3014 21.6946 21.854 21.7487C 21.8465 21.7496 21.839 21.7506 21.8314 21.7515C 21.8008 21.7551 21.7703 21.758 21.7396 21.7609C 21.6929 21.765 21.6462 21.7688 21.5992 21.7713C 21.5844 21.7721 21.5696 21.7725 21.5548 21.7732C 21.4973 21.7756 21.4396 21.7775 21.3817 21.7775C 21.3236 21.7775 21.2659 21.7756 21.2083 21.7732C 21.19 21.7724 21.1718 21.7715 21.1536 21.7705C 21.1101 21.7681 21.0668 21.7647 21.0236 21.7609C 20.9877 21.7576 20.9519 21.7538 20.9161 21.7495C 20.8905 21.7465 20.865 21.7435 20.8395 21.74C 20.8032 21.735 20.7669 21.7297 20.7307 21.7236C 20.726 21.7229 20.7213 21.722 20.7166 21.7211C 20.2457 21.6411 19.7909 21.4769 19.376 21.2344C 19.3738 21.2332 19.3715 21.2323 19.3693 21.2311C 19.0715 21.0559 18.7937 20.8413 18.5437 20.5882C 17.7856 19.8214 17.3681 18.8018 17.3681 17.7174C 17.3681 16.6329 17.7856 15.6133 18.5437 14.8465C 18.8339 14.5528 19.1581 14.3139 19.5034 14.1292C 19.5132 14.124 19.523 14.119 19.5328 14.1139C 20.1105 13.811 20.746 13.6592 21.3817 13.6592C 21.8899 13.6592 22.3981 13.7564 22.8766 13.9499C 22.8849 13.9533 22.8933 13.9565 22.9015 13.9599C 22.9512 13.9804 23.0005 14.0022 23.0495 14.0248C 23.069 14.0338 23.0885 14.0432 23.1079 14.0526C 23.5102 14.246 23.8873 14.5101 24.2197 14.8464C 25.7846 16.4294 25.7846 19.0051 24.2197 20.5882C 23.9051 20.9066 23.5469 21.1645 23.1594 21.3586C 23.1546 21.3607 23.1497 21.3623 23.1449 21.3647Z"/>
<path id="path5_fill" d="M 21.5671 17.3266L 21.5671 15.8885C 22.0574 15.9239 22.2395 16.1506 22.4075 16.1506C 22.6176 16.1506 22.7157 15.8814 22.7157 15.7469C 22.7157 15.3997 22.0434 15.251 21.5672 15.2368L 21.5672 15.0455C 21.5672 14.9605 21.4622 14.8826 21.3571 14.8826C 21.2381 14.8826 21.154 14.9605 21.154 15.0455L 21.154 15.251C 20.4887 15.3218 19.8234 15.676 19.8234 16.5686C 19.8234 17.4754 20.5238 17.7304 21.154 17.9571L 21.154 19.6219C 20.4397 19.5652 20.2506 19.0693 20.0195 19.0693C 19.8444 19.0693 19.6974 19.303 19.6974 19.4731C 19.6974 19.8202 20.2856 20.2949 21.154 20.309L 21.154 20.5286C 21.154 20.6136 21.238 20.6915 21.3571 20.6915C 21.4621 20.6915 21.5671 20.6136 21.5671 20.5286L 21.5671 20.2877C 22.3235 20.1815 22.8417 19.6997 22.8417 18.8284C 22.8417 17.8649 22.1764 17.5533 21.5671 17.3266ZM 21.1961 17.192C 20.8249 17.0503 20.5238 16.9015 20.5238 16.4978C 20.5238 16.1293 20.8039 15.9523 21.1961 15.9027L 21.1961 17.192ZM 21.5252 19.6077L 21.5252 18.1129C 21.8684 18.2617 22.1415 18.46 22.1415 18.9063C 22.1415 19.3102 21.9034 19.5369 21.5252 19.6077Z"/>
</defs>
</svg>
