<svg width="35" height="49" viewBox="0 0 35 49" version="1.1" xmlns="http://www.w3.org/2000/svg" xmlns:xlink="http://www.w3.org/1999/xlink">
<title>icn-bandeira-b</title>
<desc>Created using Figma</desc>
<g id="Canvas" transform="translate(-1015 -2192)">
<g id="icn-bandeira-b">
<g id="Vector">
<use xlink:href="#path0_fill" transform="translate(1015.18 2192)" fill="#C4C4C4"/>
<use xlink:href="#path1_fill" transform="translate(1015.18 2192)" fill="#C4C4C4"/>
</g>
</g>
</g>
<defs>
<path id="path0_fill" d="M 27.8644 13.1435C 27.6781 12.7396 27.1995 12.5633 26.7957 12.7497C 26.3918 12.9361 26.2156 13.4146 26.4019 13.8185C 27.0114 15.1391 27.3205 16.5525 27.3205 18.0196C 27.3205 23.5538 22.8182 28.0561 17.2841 28.0561C 11.7498 28.0561 7.24748 23.5538 7.24748 18.0196C 7.24748 12.4854 11.7498 7.98298 17.2841 7.98298C 20.1143 7.98298 22.8276 9.18741 24.7279 11.2874C 25.0265 11.6172 25.5356 11.6426 25.8657 11.3443C 26.1955 11.0457 26.2209 10.5364 25.9223 10.2065C 23.717 7.76975 20.5685 6.3722 17.2841 6.3722C 10.8616 6.3722 5.63661 11.5972 5.63661 18.0197C 5.63661 24.4421 10.8616 29.6671 17.2841 29.6671C 23.7064 29.6671 28.9314 24.4421 28.9314 18.0197C 28.9313 16.3179 28.5723 14.6772 27.8644 13.1435Z"/>
<path id="path1_fill" d="M 33.37 18.0196C 33.37 17.403 33.6399 16.689 33.9257 15.933C 34.3571 14.7918 34.8032 13.6116 34.426 12.4501C 34.0331 11.24 32.9041 10.5046 31.908 9.85541C 31.2537 9.42915 30.6357 9.02662 30.299 8.5639C 29.9552 8.09141 29.7596 7.37182 29.5525 6.61002C 29.2429 5.47068 28.892 4.17936 27.8772 3.44091C 26.8727 2.70993 25.6001 2.76994 24.3695 2.82793C 23.5746 2.86545 22.8238 2.90086 22.2563 2.71653C 21.7281 2.54503 21.1634 2.08853 20.5655 1.60523C 19.6344 0.853002 18.5791 0 17.2841 0C 15.9889 0 14.9336 0.853002 14.0025 1.60561C 13.4046 2.08882 12.8399 2.54532 12.3119 2.71682C 11.7444 2.90114 10.9935 2.86564 10.1986 2.82822C 8.96803 2.77013 7.69528 2.71012 6.69078 3.4412C 5.67604 4.17964 5.32519 5.47096 5.01549 6.61031C 4.80849 7.37211 4.61287 8.0917 4.26901 8.56419C 3.93233 9.02682 3.31428 9.42944 2.66005 9.8557C 1.66387 10.5047 0.534865 11.2402 0.1421 12.4502C -0.235066 13.6117 0.211006 14.7919 0.642435 15.9332C 0.928109 16.6892 1.19799 17.4032 1.19799 18.0198C 1.19799 18.6363 0.928109 19.3503 0.64234 20.1063C 0.21091 21.2476 -0.235162 22.4278 0.142004 23.5893C 0.534961 24.7993 1.66397 25.5348 2.66005 26.1838C 3.31428 26.6101 3.93233 27.0127 4.26901 27.4753C 4.61287 27.9478 4.80839 28.6675 5.01549 29.4292C 5.32509 30.5685 5.67604 31.8599 6.69078 32.5983C 7.69518 33.3293 8.96784 33.2693 10.1985 33.2113C 10.9933 33.1737 11.7442 33.1384 12.3117 33.3227C 12.8399 33.4942 13.4046 33.9507 14.0026 34.434C 14.4525 34.7976 14.9319 35.1839 15.4528 35.4869L 12.3648 46.5635L 9.51498 43.3877C 9.30577 43.1546 8.98047 43.0639 8.68073 43.155L 4.60043 44.3984L 7.15867 35.2243C 7.27811 34.7958 7.02765 34.3517 6.59919 34.2321C 6.17053 34.1128 5.72647 34.3632 5.60704 34.7916L 2.65412 45.3807C 2.57516 45.664 2.65679 45.9678 2.86725 46.1733C 3.0777 46.3789 3.38356 46.4532 3.66474 46.3675L 8.65891 44.8456L 12.1466 48.7324C 12.3013 48.9048 12.5202 49 12.7461 48.9999C 12.8071 48.9999 12.8686 48.993 12.9296 48.9788C 13.216 48.9118 13.443 48.694 13.5221 48.4108L 16.9758 36.021C 17.0771 36.0317 17.1795 36.0389 17.2839 36.0389C 17.388 36.0389 17.4902 36.0316 17.5914 36.021L 21.0465 48.4108C 21.1255 48.694 21.3527 48.9118 21.639 48.9788C 21.6999 48.9929 21.7613 48.9999 21.8223 48.9999C 22.0483 48.9999 22.2672 48.9047 22.4219 48.7323L 25.9084 44.8455L 30.9037 46.3673C 31.1848 46.453 31.4905 46.3786 31.7011 46.1731C 31.9114 45.9676 31.9932 45.6638 31.9142 45.3806L 28.257 32.2645C 28.986 31.508 29.285 30.4122 29.5522 29.4287C 29.7593 28.6669 29.9549 27.9473 30.2987 27.4748C 30.6354 27.0122 31.2535 26.6096 31.9077 26.1833C 32.9039 25.5344 34.0329 24.7988 34.4256 23.5889C 34.8028 22.4275 34.3567 21.2472 33.9253 20.1059C 33.6398 19.3501 33.37 18.6362 33.37 18.0196ZM 29.9683 44.3984L 25.8867 43.155C 25.5871 43.0635 25.2616 43.1545 25.0524 43.3877L 22.2037 46.5634L 19.1147 35.4868C 19.6359 35.1837 20.1153 34.7974 20.5654 34.4335C 21.1633 33.9503 21.728 33.4939 22.2562 33.3222C 22.8239 33.1379 23.5747 33.1734 24.3695 33.2108C 25.1972 33.2499 26.0434 33.2887 26.8147 33.0883L 29.9683 44.3984ZM 32.8938 23.0917C 32.6768 23.7602 31.8762 24.2818 31.0286 24.834C 30.2809 25.3211 29.5077 25.8248 28.9965 26.5274C 28.4783 27.2395 28.234 28.1379 27.998 29.0067C 27.7347 29.9756 27.486 30.8906 26.9294 31.2958C 26.3827 31.6934 25.4418 31.6491 24.4453 31.6021C 23.5411 31.5596 22.606 31.5153 21.7587 31.7905C 20.9471 32.054 20.2383 32.6269 19.5528 33.181C 18.759 33.8226 18.0095 34.4284 17.284 34.4284C 16.5584 34.4284 15.8087 33.8224 15.015 33.1808C 14.3296 32.6268 13.6206 32.0538 12.8092 31.7904C 12.2748 31.6169 11.7054 31.5704 11.131 31.5704C 10.7947 31.5704 10.4565 31.5862 10.1226 31.602C 9.12633 31.6491 8.18528 31.6934 7.63862 31.2957C 7.08201 30.8906 6.83328 29.9755 6.57 29.0066C 6.334 28.1378 6.08976 27.2393 5.57153 26.5273C 5.06038 25.8248 4.28729 25.3211 3.53946 24.8339C 2.69182 24.2817 1.89127 23.76 1.67421 23.0915C 1.4718 22.4681 1.80092 21.5974 2.14928 20.6757C 2.47362 19.8176 2.80896 18.9305 2.80896 18.0198C 2.80896 17.109 2.47362 16.2217 2.14938 15.3638C 1.80092 14.4421 1.47189 13.5714 1.67431 12.9479C 1.89136 12.2794 2.69192 11.7578 3.53956 11.2056C 4.28719 10.7185 5.06038 10.2148 5.57162 9.51241C 6.08986 8.80029 6.33409 7.90192 6.5701 7.03313C 6.83337 6.06423 7.08211 5.14921 7.63872 4.744C 8.18528 4.34626 9.12652 4.39057 10.1228 4.43766C 11.0269 4.48025 11.9621 4.52446 12.8095 4.24931C 13.621 3.98575 14.3298 3.41287 15.0153 2.85884C 15.8089 2.21706 16.5586 1.61107 17.2841 1.61107C 18.0095 1.61107 18.7593 2.21706 19.5529 2.85846C 20.2383 3.41258 20.9473 3.98556 21.7588 4.24903C 22.6061 4.52417 23.541 4.48015 24.4453 4.43737C 25.4416 4.39048 26.3827 4.34607 26.9293 4.74372C 27.4859 5.14883 27.7346 6.06394 27.9979 7.03284C 28.2339 7.90163 28.4782 8.80009 28.9964 9.51213C 29.5075 10.2146 30.2806 10.7183 31.0284 11.2053C 31.876 11.7575 32.6766 12.2791 32.8937 12.9477C 33.0961 13.5712 32.7671 14.4418 32.4186 15.3636C 32.0943 16.2216 31.759 17.1088 31.759 18.0196C 31.759 18.9304 32.0945 19.8174 32.4188 20.6755C 32.7672 21.5973 33.0963 22.468 32.8938 23.0917Z"/>
</defs>
</svg>
