<svg width="38" height="38" viewBox="0 0 38 38" version="1.1" xmlns="http://www.w3.org/2000/svg" xmlns:xlink="http://www.w3.org/1999/xlink">
<title>Coin</title>
<desc>Created using Figma</desc>
<g id="Canvas" transform="translate(4703 1854)">
<g id="Coin">
<g id="Union">
<use xlink:href="#path0_fill" transform="translate(-4703 -1854)"/>
<use xlink:href="#path1_fill" transform="translate(-4703 -1854)"/>
</g>
</g>
</g>
<defs>
<path id="path0_fill" d="M 24.6436 20.6166C 25.1147 21.1771 25.3545 21.9663 25.3545 22.9647C 25.3672 23.5421 25.2593 24.1158 25.0381 24.6494C 24.8169 25.1829 24.4868 25.6642 24.0688 26.063C 23.2046 26.9191 22.0088 27.4657 20.5195 27.6888L 20.0762 27.7559L 20.0762 29.8221C 20.0835 29.9318 20.0684 30.0416 20.0322 30.1451C 19.9956 30.2488 19.9385 30.3438 19.8643 30.4246C 19.7041 30.5623 19.5 30.6378 19.2886 30.6378C 19.0776 30.6378 18.873 30.5623 18.7129 30.4246C 18.6382 30.344 18.5806 30.249 18.5439 30.1455C 18.5068 30.0419 18.4917 29.9319 18.4985 29.8221L 18.4985 27.778L 18.0244 27.7362C 17.0952 27.6548 16.1802 27.4572 15.3003 27.1478C 14.4951 26.8738 13.7412 26.4677 13.0698 25.9458L 13.0562 25.9458C 12.9385 25.8715 12.8423 25.7676 12.7773 25.6447C 12.7173 25.493 12.6899 25.3306 12.6963 25.1677C 12.6919 24.9395 12.7666 24.7167 12.9082 24.5376C 13.0752 24.3256 13.1899 24.3256 13.2314 24.3256C 13.3271 24.3236 13.4219 24.3407 13.5103 24.3757C 13.6846 24.4521 13.854 24.5387 14.0176 24.635C 14.7739 25.1377 15.5947 25.5355 16.4575 25.8175C 17.2852 26.0756 18.1475 26.2053 19.0142 26.2024C 20.2661 26.2024 21.2612 25.9459 21.9722 25.4384C 22.3467 25.1752 22.6489 24.8218 22.8506 24.4108C 23.0527 23.9999 23.1475 23.5447 23.1265 23.0874C 23.1357 22.7875 23.0786 22.4894 22.9604 22.2139C 22.8418 21.9382 22.6646 21.6918 22.4409 21.4921C 22.0142 21.1191 21.5176 20.8347 20.98 20.6555C 20.4526 20.4714 19.7334 20.2623 18.7798 20.0142C 17.7363 19.7646 16.7114 19.4423 15.7129 19.0492C 14.9829 18.7421 14.3374 18.2639 13.8311 17.6548C 13.332 17.0692 13.0811 16.2493 13.0811 15.2174C 13.0693 14.6246 13.1821 14.0361 13.4116 13.4895C 13.6411 12.943 13.9824 12.4504 14.4136 12.0438C 15.4106 11.1111 16.6816 10.5244 18.0381 10.3706L 18.4814 10.3037L 18.4814 8.23718C 18.4746 8.12744 18.4902 8.01746 18.5273 7.91394C 18.564 7.81042 18.6216 7.71545 18.6963 7.63477C 18.8564 7.49719 19.0605 7.42151 19.272 7.42151C 19.4834 7.42151 19.6875 7.49719 19.8477 7.63477C 19.9224 7.71545 19.98 7.81055 20.0166 7.91406C 20.0537 8.01758 20.0693 8.12744 20.0625 8.23718L 20.0625 10.287L 20.5171 10.3455C 22.0576 10.5195 23.5161 11.1301 24.7212 12.1052C 24.8506 12.1924 24.9551 12.3107 25.0264 12.4491C 25.0977 12.5875 25.1328 12.7416 25.1284 12.8972C 25.1328 13.1255 25.0581 13.3484 24.9165 13.5276C 24.7686 13.7144 24.6543 13.7394 24.5679 13.7394C 24.4731 13.74 24.3789 13.724 24.2891 13.692C 24.1274 13.626 23.9731 13.5427 23.8291 13.4437C 23.1812 12.9742 22.48 12.5822 21.7407 12.2753C 20.9697 11.9884 20.1519 11.8492 19.3291 11.8654C 18.1499 11.8654 17.1992 12.1387 16.4771 12.6742C 16.105 12.9414 15.8047 13.2963 15.6021 13.7073C 15.3999 14.1183 15.3022 14.5728 15.3169 15.0305C 15.3066 15.3539 15.3628 15.676 15.4829 15.9766C 15.603 16.277 15.7837 16.5493 16.0142 16.7764C 16.457 17.198 16.9888 17.5154 17.5698 17.7051C 18.1274 17.8975 18.8916 18.1177 19.8452 18.3604C 20.8594 18.5969 21.8555 18.9065 22.8257 19.2863C 23.5298 19.5764 24.1538 20.0328 24.6436 20.6166Z"/>
<path id="path1_fill" fill-rule="evenodd" d="M 38 19C 38 29.4934 29.4937 38 19 38C 8.50635 38 0 29.4934 0 19C 0 8.50659 8.50635 0 19 0C 29.4937 0 38 8.50659 38 19ZM 36.1904 18.9999C 36.1904 28.494 28.4941 36.1904 19 36.1904C 9.50586 36.1904 1.80957 28.494 1.80957 18.9999C 1.80957 9.50586 9.50586 1.80945 19 1.80945C 28.4941 1.80945 36.1904 9.50586 36.1904 18.9999Z"/>
</defs>
</svg>
