<svg xmlns="http://www.w3.org/2000/svg" viewBox="238 232 49 49">
    <g id="icon-produtivity-line" transform="translate(6561 1489)">
        <path id="Union_22" d="M-6266.893-1753.283a.993.993 0 0 1-.662-.248.97.97 0 0 1-.326-.617l-.016-.012v-6.348a18.613 18.613 0 0 1-6.148 4.2 18.925 18.925 0 0 1-7.335 1.483 18.488 18.488 0 0 1-18.62-18.307 18.5 18.5 0 0 1 18.622-18.319 18.9 18.9 0 0 1 8.268 1.914 18.567 18.567 0 0 1 6.544 5.322 7.811 7.811 0 0 1 1.582-.277l.541-.035 3.039 3.977 3.041-3.977.541.035a7.327 7.327 0 0 1 4.847 2.234 7.082 7.082 0 0 1 1.974 4.892v10.827a.969.969 0 0 1-.29.688 1 1 0 0 1-.7.287h-2.927v11.17l-.051.031v.1a.961.961 0 0 1-.289.688.993.993 0 0 1-.7.287zm.448-28.869l-.109.041a5.328 5.328 0 0 0-.677.332.263.263 0 0 1-.054.029 4.82 4.82 0 0 0-.591.411l-.02.014a.129.129 0 0 1-.035.029c-.179.161-.33.3-.459.438l-.089.087a4.932 4.932 0 0 0-.378.481l-.011.014a1.389 1.389 0 0 0-.1.143 5.4 5.4 0 0 0-.309.527l-.027.054c-.008.017-.021.048-.033.07a3.726 3.726 0 0 0-.206.51l-.006.019a.274.274 0 0 0-.018.052l-.027.08a4.767 4.767 0 0 0-.144.62.572.572 0 0 0-.008.06.508.508 0 0 1-.012.093 4.475 4.475 0 0 0-.054.686v9.788h3.918v12.32h3.477v-10.8h2.013v10.8h3.452v-2.557a1.113 1.113 0 0 1 .021-.2v-9.557h3.931v-9.761a5.142 5.142 0 0 0-1.259-3.348 5.312 5.312 0 0 0-3.161-1.755l-3.979 5.2-3.979-5.2a5.407 5.407 0 0 0-1.067.28zm-13.913 21.8v3.521a16.985 16.985 0 0 0 6.415-1.693l-.768-1.3 1.743-.989.76 1.3a16.74 16.74 0 0 0 4.332-4.074v-1.968h-2.944a1 1 0 0 1-.7-.287.956.956 0 0 1-.291-.688v-4.349a.853.853 0 0 1 .013-.157v-6.319a8.76 8.76 0 0 1 .059-.839c.005-.049.013-.093.021-.138s.014-.07.018-.108a6.091 6.091 0 0 1 .12-.613c.018-.081.037-.169.056-.244a6.074 6.074 0 0 1 .258-.752c.027-.06.056-.118.089-.177l.027-.052c.075-.155.153-.32.243-.485.06-.108.118-.2.178-.3l.005-.01c.1-.153.2-.291.283-.413.031-.041.058-.08.089-.116s.06-.089.089-.124q.235-.3.5-.57a2.316 2.316 0 0 1 .2-.194l.01-.008a5.808 5.808 0 0 1 .463-.4l.039-.033a1.351 1.351 0 0 1 .118-.093 6.31 6.31 0 0 1 .5-.351 16.846 16.846 0 0 0-3.77-3.364l-.768 1.3-1.743-.989.758-1.3a16.71 16.71 0 0 0-6.4-1.693v3.506h-2.013v-3.506a16.564 16.564 0 0 0-6.408 1.681l.76 1.3-1.743.989-.758-1.285a16.378 16.378 0 0 0-4.685 4.6l1.318.747-1.008 1.712-1.318-.744a15.859 15.859 0 0 0-1.712 6.3h3.573v1.98h-3.565a15.826 15.826 0 0 0 1.71 6.3l1.318-.747 1.008 1.714-1.318.747a16.372 16.372 0 0 0 4.685 4.615l.756-1.3 1.745.989-.758 1.3a16.545 16.545 0 0 0 6.4 1.681v-3.505zm17.946-7.56v-1.98h2.012v1.98zm-21.244-2.271a3.645 3.645 0 0 1-1.333-1.962h-4.538v-1.982h4.535a3.666 3.666 0 0 1 .957-1.625 3.737 3.737 0 0 1 1.648-.948v-7.05h2.014v7.054a3.758 3.758 0 0 1 2.135 1.532 3.652 3.652 0 0 1 .585 2.532 3.7 3.7 0 0 1-1.255 2.29 3.8 3.8 0 0 1-2.474.913h-.009a3.776 3.776 0 0 1-2.265-.754zm1.934-4.651a1.767 1.767 0 0 0-.9.471 1.718 1.718 0 0 0-.479.884 1.672 1.672 0 0 0 .1 1 1.715 1.715 0 0 0 .646.776 1.774 1.774 0 0 0 .975.291 1.778 1.778 0 0 0 1.241-.506 1.718 1.718 0 0 0 .516-1.219 1.714 1.714 0 0 0-.3-.96 1.761 1.761 0 0 0-.788-.636 1.8 1.8 0 0 0-.67-.131 1.73 1.73 0 0 0-.341.03zm19.311 3.845v-1.979h2.012v1.979zm0-3.079v-1.98h2.012v1.98zm-1.176-11.139a5.694 5.694 0 0 1-2.561-2.067 5.542 5.542 0 0 1-.961-3.116 5.569 5.569 0 0 1 1.675-3.963 5.763 5.763 0 0 1 4.034-1.647 5.776 5.776 0 0 1 3.17.946 5.616 5.616 0 0 1 2.1 2.517 5.524 5.524 0 0 1 .326 3.24 5.6 5.6 0 0 1-1.561 2.874 5.755 5.755 0 0 1-2.922 1.536 5.822 5.822 0 0 1-1.111.107 5.8 5.8 0 0 1-2.189-.428zm1.462-8.735a3.734 3.734 0 0 0-1.892.995 3.628 3.628 0 0 0-1.013 1.862 3.584 3.584 0 0 0 .211 2.1 3.648 3.648 0 0 0 1.361 1.631 3.741 3.741 0 0 0 2.054.613 3.739 3.739 0 0 0 2.611-1.066 3.6 3.6 0 0 0 1.083-2.567 3.589 3.589 0 0 0-.622-2.018 3.674 3.674 0 0 0-1.658-1.34 3.751 3.751 0 0 0-1.417-.277 3.769 3.769 0 0 0-.718.066z" data-name="Union 22" transform="translate(-22.999 542)"/>
    </g>
</svg>
