<svg xmlns="http://www.w3.org/2000/svg" viewBox="513 657 41.005 41">
    <defs>
        <style>
            .cls-1{fill:none}.cls-2{fill:#f1a93b}.cls-3{fill:#2a3143}
        </style>
    </defs>
    <g id="menu_cash" transform="translate(6908 1026)">
        <g id="Group_10" data-name="Group 10" transform="translate(-.999 -3.999)">
            <path id="Union_14" d="M-7147.349-24.113l-.078-.043-13.252-7.44-.214-.12-.107-.058.106-.066.208-.131 7.9-4.913.074-.047.04-.025.036.022.077.045 13.545 7.6-4.3 2.708-3.889 2.417-.076.047-.034.025zm1.213-16.527l-.216-.12-.108-.059.1-.066.208-.128 7.9-4.921.076-.041.036-.025.038.022.079.045 13.25 7.44.215.12.108.059-.1.066-.207.128-5.581 3.472a.735.735 0 0 0-.16.137l-2.249 1.395z" class="cls-2" data-name="Union 14" transform="translate(769.17 -315.495)"/>
            <path id="Union_15" d="M-7145.512-10.1l-15.091-8.474a.778.778 0 0 1-.369-.467.769.769 0 0 1 .074-.589.78.78 0 0 1 .475-.363.788.788 0 0 1 .595.072l14.605 8.2.078.045.075-.047 6.43-3.993a.778.778 0 0 1 .417-.12h-.005a.783.783 0 0 1 .473.155.764.764 0 0 1 .282.4.764.764 0 0 1-.02.491.765.765 0 0 1-.318.379l-6.9 4.29a.773.773 0 0 1-.4.119h-.021a.771.771 0 0 1-.38-.098zm0-3.679l-15.091-8.474a.787.787 0 0 1-.232-.2.778.778 0 0 1-.137-.27.78.78 0 0 1-.023-.3.82.82 0 0 1 .1-.288.792.792 0 0 1 .2-.228.814.814 0 0 1 .273-.137.794.794 0 0 1 .305-.022.774.774 0 0 1 .29.1l14.605 8.2.078.045.075-.047 6.43-4a.778.778 0 0 1 .417-.12h-.005a.783.783 0 0 1 .473.155.764.764 0 0 1 .282.4.764.764 0 0 1-.02.491.773.773 0 0 1-.318.379l-6.9 4.29a.808.808 0 0 1-.4.119h-.021a.771.771 0 0 1-.381-.095zm9.579-2.469a.689.689 0 0 1-.208-.5v-9.748l-7.64 4.743-.958.6a.73.73 0 0 1-.363.108.727.727 0 0 1-.367-.092l-15.091-8.474a.72.72 0 0 1-.259-.25.684.684 0 0 1-.1-.345.665.665 0 0 1 .084-.347.694.694 0 0 1 .248-.262l9.687-6.03 4.842-3.007-.02-.031.009-.025.021.031 9.687-6.013A.714.714 0 0 1-7136-46a.736.736 0 0 1 .369.093l15.089 8.474a.705.705 0 0 1 .259.25.664.664 0 0 1 .1.343.671.671 0 0 1-.084.349.7.7 0 0 1-.248.261l-3.418 2.128.018.022-5.959 3.7v10.63a.7.7 0 0 1-.088.34.709.709 0 0 1-.244.255l-4.845 3.007a.731.731 0 0 1-.381.106.711.711 0 0 1-.502-.208zm-9.76-22.19l-.076.047-3.044 1.914-.207.128-.106.066.108.059.216.12 13.737 7.712a.707.707 0 0 1 .263.257.7.7 0 0 1 .1.352v9.773l.113-.072.227-.138 2.985-1.856.068-.041.017-.032v-9.363l-1.143.712v-.016l-.232.144a.709.709 0 0 1-.259.1.765.765 0 0 1-.279-.007.783.783 0 0 1-.253-.111.749.749 0 0 1-.19-.2.668.668 0 0 1-.1-.257.661.661 0 0 1 .007-.273.669.669 0 0 1 .113-.25.7.7 0 0 1 .2-.189l1.159-.722.208-.128.1-.066-.108-.059-.215-.12-13.258-7.439-.078-.043-.04-.023zm-4.849 3l-.076.047-7.9 4.919-.208.129-.1.066.108.059.212.12 13.252 7.44.078.043.04.023.038-.025.075-.047 3.889-2.414 4.3-2.708-13.545-7.611-.077-.043-.04-.022zm14.542-9.031l-.074.047-7.906 4.919-.207.129-.106.065.108.061.216.12 13.4 7.519 2.249-1.393a.728.728 0 0 1 .16-.138l5.581-3.47.207-.131.106-.066-.108-.059-.216-.12-13.252-7.44-.077-.045-.04-.022zm-9.509 27.008l-15.091-8.474a.8.8 0 0 1-.232-.2.812.812 0 0 1-.136-.271.751.751 0 0 1 .013-.449.754.754 0 0 1 .262-.367.79.79 0 0 1 .424-.162.8.8 0 0 1 .444.1l14.605 8.2.078.043.074-.047 6.432-4a.786.786 0 0 1 .591-.1.79.79 0 0 1 .489.343.76.76 0 0 1 .1.584.775.775 0 0 1-.347.483l-6.9 4.288a.791.791 0 0 1-.4.12h-.02a.793.793 0 0 1-.388-.091zm17.548-3.339a.793.793 0 0 1-.278-.124.754.754 0 0 1-.208-.219.775.775 0 0 1-.11-.284.8.8 0 0 1 .009-.3.771.771 0 0 1 .125-.277.766.766 0 0 1 .223-.207l6.9-4.288a.777.777 0 0 1 .417-.12h-.005a.792.792 0 0 1 .473.155.794.794 0 0 1 .284.4.77.77 0 0 1-.021.492.785.785 0 0 1-.316.379l-6.9 4.288a.766.766 0 0 1-.286.108.83.83 0 0 1-.132.011.769.769 0 0 1-.177-.014zm0-3.682a.777.777 0 0 1-.487-.343.759.759 0 0 1-.1-.584.771.771 0 0 1 .349-.482l6.9-4.29a.777.777 0 0 1 .417-.12h-.005a.78.78 0 0 1 .473.155.78.78 0 0 1 .284.4.764.764 0 0 1-.021.491.777.777 0 0 1-.316.379l-6.9 4.29a.8.8 0 0 1-.415.117.788.788 0 0 1-.181-.014zm.11-3.575a.79.79 0 0 1-.487-.343.752.752 0 0 1-.1-.584.772.772 0 0 1 .347-.483l6.9-4.288a.777.777 0 0 1 .417-.12h-.005a.791.791 0 0 1 .473.155.8.8 0 0 1 .284.4.774.774 0 0 1-.021.492.79.79 0 0 1-.316.379l-6.9 4.288a.787.787 0 0 1-.416.119.782.782 0 0 1-.178-.016z" class="cls-3" data-name="Union 15" transform="translate(767 -317)"/>
        </g>
    </g>
</svg>
