<svg xmlns="http://www.w3.org/2000/svg" viewBox="50 232 49 49.001">
    <g id="icon-debit-line" transform="translate(6499 1481)">
        <path id="Union_20" d="M241.849-479.229H230.57a4.433 4.433 0 0 1-4.4-4.454 4.466 4.466 0 0 1 1.667-3.487 4.464 4.464 0 0 1-1.667-3.486 4.466 4.466 0 0 1 1.667-3.487 4.464 4.464 0 0 1-1.667-3.486 4.466 4.466 0 0 1 1.667-3.487 4.464 4.464 0 0 1-1.667-3.486 4.433 4.433 0 0 1 4.4-4.455h2.5a4.461 4.461 0 0 1-.774-2.518 4.46 4.46 0 0 1 .774-2.517h-7.67a4.433 4.433 0 0 1-4.4-4.455 4.433 4.433 0 0 1 4.4-4.453h23.45a4.433 4.433 0 0 1 4.4 4.454 4.467 4.467 0 0 1-.773 2.518h7.663a4.433 4.433 0 0 1 4.4 4.454 4.434 4.434 0 0 1-4.4 4.455h-2.491a4.416 4.416 0 0 1 .425.791A16.462 16.462 0 0 1 270-490.462 16.385 16.385 0 0 1 253.731-474a16.14 16.14 0 0 1-11.882-5.229zm-2.474-11.233a14.459 14.459 0 0 0 14.356 14.526 14.459 14.459 0 0 0 14.356-14.526 14.458 14.458 0 0 0-14.356-14.526 14.458 14.458 0 0 0-14.356 14.526zm-11.293 6.779a2.506 2.506 0 0 0 2.488 2.517h9.741a16.476 16.476 0 0 1-2.3-5.035h-7.441a2.507 2.507 0 0 0-2.488 2.518zm0-6.972a2.506 2.506 0 0 0 2.488 2.517h7.054a16.628 16.628 0 0 1-.163-2.324 16.731 16.731 0 0 1 .221-2.712h-7.112a2.507 2.507 0 0 0-2.488 2.518zm0-6.972a2.506 2.506 0 0 0 2.488 2.517h7.553a16.478 16.478 0 0 1 2.46-5.035H230.57a2.507 2.507 0 0 0-2.488 2.517zm0-6.972a2.506 2.506 0 0 0 2.488 2.517h11.648a16.122 16.122 0 0 1 11.513-4.842c.463 0 .92.021 1.372.059a2.466 2.466 0 0 0-1.085-.253H230.57a2.507 2.507 0 0 0-2.488 2.518zm6.125-6.973a2.506 2.506 0 0 0 2.489 2.518h23.447a2.506 2.506 0 0 0 2.488-2.518 2.506 2.506 0 0 0-2.488-2.517H236.7a2.506 2.506 0 0 0-2.493 2.515zm-11.293-6.972a2.507 2.507 0 0 0 2.488 2.518h23.448a2.506 2.506 0 0 0 2.488-2.518 2.506 2.506 0 0 0-2.488-2.517H225.4a2.506 2.506 0 0 0-2.486 2.515zm29.318 40.672a.962.962 0 0 1-.953-.973.962.962 0 0 1 .961-.964h.056a.962.962 0 0 1 .957.968.963.963 0 0 1-.957.968zm-3.885-1.237a12.518 12.518 0 0 1-5.093-4.561 12.656 12.656 0 0 1-1.964-6.79 12.733 12.733 0 0 1 1.452-5.906.952.952 0 0 1 1.294-.4.974.974 0 0 1 .4 1.31 10.769 10.769 0 0 0-1.227 5 10.729 10.729 0 0 0 5.972 9.607.974.974 0 0 1 .448 1.292.959.959 0 0 1-.864.549.938.938 0 0 1-.419-.103zm4.423-4.512v-.418a3.841 3.841 0 0 1-3.062-3.671.963.963 0 0 1 .957-.968.963.963 0 0 1 .957.968 1.99 1.99 0 0 0 2.106 1.843 1.99 1.99 0 0 0 2.105-1.843 1.99 1.99 0 0 0-2.105-1.844 3.91 3.91 0 0 1-4.019-3.781 3.841 3.841 0 0 1 3.062-3.672v-.5a.964.964 0 0 1 .958-.968.963.963 0 0 1 .957.968v.5a3.841 3.841 0 0 1 3.063 3.672.963.963 0 0 1-.957.968.963.963 0 0 1-.958-.968 1.99 1.99 0 0 0-2.105-1.844 1.99 1.99 0 0 0-2.106 1.844 1.99 1.99 0 0 0 2.106 1.844 3.909 3.909 0 0 1 4.019 3.781 3.841 3.841 0 0 1-3.063 3.671v.418a.963.963 0 0 1-.957.968.964.964 0 0 1-.959-.969zm10.658-.535a.974.974 0 0 1-.4-1.31 10.772 10.772 0 0 0 1.228-5 10.729 10.729 0 0 0-5.972-9.607.973.973 0 0 1-.448-1.292.952.952 0 0 1 1.277-.453 12.515 12.515 0 0 1 5.094 4.561 12.656 12.656 0 0 1 1.964 6.79 12.733 12.733 0 0 1-1.452 5.906.956.956 0 0 1-.846.514.941.941 0 0 1-.447-.11zm-8.2-16.958h-.056a.963.963 0 0 1-.957-.968.963.963 0 0 1 .957-.968h.065a.963.963 0 0 1 .952.973.962.962 0 0 1-.957.964z" data-name="Union 20" transform="translate(-6670 -726)"/>
    </g>
</svg>
