<svg xmlns="http://www.w3.org/2000/svg" viewBox="47 327 49 49">
    <g id="icon-mobile-line" transform="translate(6522 1591)">
        <path id="Union_25" d="M-6232.383-1781a3.608 3.608 0 0 1-3.617-3.589v-41.821a3.608 3.608 0 0 1 3.617-3.589h21.217a3.607 3.607 0 0 1 3.617 3.589v41.821a3.607 3.607 0 0 1-3.617 3.589zm-2.17-3.589a2.165 2.165 0 0 0 2.17 2.154h21.217a2.165 2.165 0 0 0 2.17-2.154v-5.024h-20.493a.721.721 0 0 1-.725-.718.721.721 0 0 1 .725-.717H-6209v-31.773h-25.557v31.773h2.17a.719.719 0 0 1 .723.717.72.72 0 0 1-.723.718h-2.17zm0-41.821v2.152H-6209v-2.152a2.165 2.165 0 0 0-2.17-2.155h-21.217a2.165 2.165 0 0 0-2.166 2.154zm10.607 40.386a2.167 2.167 0 0 1 2.172-2.155 2.166 2.166 0 0 1 2.17 2.155 2.164 2.164 0 0 1-2.17 2.152 2.165 2.165 0 0 1-2.172-2.152zm1.447 0a.721.721 0 0 0 .725.717.721.721 0 0 0 .723-.717.721.721 0 0 0-.723-.718.721.721 0 0 0-.726.718zm.725-39.669a.721.721 0 0 1-.725-.718.721.721 0 0 1 .725-.718h2.893a.721.721 0 0 1 .725.718.721.721 0 0 1-.725.718zm-3.616-.718a.721.721 0 0 1 .723-.718.719.719 0 0 1 .722.718.719.719 0 0 1-.722.718.721.721 0 0 1-.723-.718z" data-name="Union 25" transform="translate(-229 566)"/>
    </g>
</svg>
