<svg xmlns="http://www.w3.org/2000/svg" viewBox="126 659 40 40">
    <defs>
        <style>
            .cls-1{fill:none}.cls-2{fill:#f1a93b}.cls-3{fill:#2a3143}
        </style>
    </defs>
    <g id="icon-checkout" transform="translate(6830 1114)">
        <g id="cashier-machine" transform="translate(-248 -68)">
            <g id="Vector">
                <path id="Path_102" d="M0 0h10v18.823H0z" class="cls-2" data-name="Path 102" transform="translate(-6449.53 -386.412)"/>
                <path id="Union_1" d="M-6519.122-445a1.877 1.877 0 0 1-1.878-1.871v-1.913a.625.625 0 0 1 .626-.624.626.626 0 0 1 .627.624v1.913a.625.625 0 0 0 .625.624h36.243a.625.625 0 0 0 .625-.624v-6.278h-9.06a.625.625 0 0 1-.627-.624.625.625 0 0 1 .627-.625h9.06v-15.508a1.877 1.877 0 0 0-1.879-1.872h-19.331v5.738h1.8a.625.625 0 0 1 .625.625.625.625 0 0 1-.625.624h-15.536a.625.625 0 0 1-.626-.624.625.625 0 0 1 .626-.625h1.8v-5.738h-2.465a1.878 1.878 0 0 0-1.878 1.872v15.506h25.095a.625.625 0 0 1 .625.625.625.625 0 0 1-.625.624h-25.095v1.538a.625.625 0 0 1-.625.624.625.625 0 0 1-.626-.624v-18.3a3.128 3.128 0 0 1 3.13-3.119h2.465v-10.1a1.877 1.877 0 0 1 1.879-1.871h8.184a1.878 1.878 0 0 1 1.879 1.871v10.1h11.857v-2.745h-7.474a1.878 1.878 0 0 1-1.879-1.871v-5.489a1.878 1.878 0 0 1 1.873-1.863h16.2a1.878 1.878 0 0 1 1.879 1.871v5.489a1.877 1.877 0 0 1-1.879 1.871h-7.474v2.745h6.221a3.13 3.13 0 0 1 3.132 3.119v23.035a1.877 1.877 0 0 1-1.879 1.871zm4.969-38.128v17.089h9.437v-17.089a.625.625 0 0 0-.625-.624h-8.184a.626.626 0 0 0-.628.623zm14.448 0v5.489a.625.625 0 0 0 .625.624h16.2a.625.625 0 0 0 .625-.624v-5.489a.625.625 0 0 0-.625-.624h-16.2a.625.625 0 0 0-.625.623zm-3.758 33.348a2.46 2.46 0 0 1 2.463-2.453 2.461 2.461 0 0 1 2.463 2.453 2.462 2.462 0 0 1-2.463 2.453 2.461 2.461 0 0 1-2.463-2.454zm1.252 0a1.209 1.209 0 0 0 1.211 1.2 1.209 1.209 0 0 0 1.211-1.2 1.21 1.21 0 0 0-1.211-1.206 1.209 1.209 0 0 0-1.211 1.205zm15.907-5.365a.625.625 0 0 1-.625-.624v-2.661a.624.624 0 0 1 .625-.624h2.673a.624.624 0 0 1 .626.624v2.661a.625.625 0 0 1-.626.624zm.627-1.247h1.42v-1.414h-1.42zm-5.97 1.247a.625.625 0 0 1-.627-.624v-2.661a.624.624 0 0 1 .627-.624h2.672a.624.624 0 0 1 .625.624v2.661a.625.625 0 0 1-.625.624zm.625-1.247h1.42v-1.414h-1.42zm-16.659 1.247a.625.625 0 0 1-.627-.624v-2.661a.624.624 0 0 1 .627-.624h13.361a.625.625 0 0 1 .627.624v2.661a.626.626 0 0 1-.627.624zm.627-1.247h12.107v-1.414h-12.107zm-5.972 1.247a.626.626 0 0 1-.626-.624v-2.661a.625.625 0 0 1 .626-.624h2.673a.625.625 0 0 1 .626.624v2.661a.626.626 0 0 1-.626.624zm.627-1.247h1.419v-1.414h-1.419zm-5.972 1.247a.625.625 0 0 1-.625-.624v-2.661a.624.624 0 0 1 .625-.624h2.672a.624.624 0 0 1 .627.624v2.661a.625.625 0 0 1-.627.624zm.627-1.247h1.418v-1.414h-1.418zm31.439-3.411a.624.624 0 0 1-.625-.624v-2.661a.625.625 0 0 1 .625-.624h2.673a.625.625 0 0 1 .626.624v2.661a.624.624 0 0 1-.626.624zm.627-1.247h1.42v-1.414h-1.42zm-5.97 1.247a.624.624 0 0 1-.627-.624v-2.661a.625.625 0 0 1 .627-.624h2.672a.625.625 0 0 1 .625.624v2.661a.624.624 0 0 1-.625.624zm.625-1.247h1.42v-1.414h-1.42zm-5.97 1.247a.625.625 0 0 1-.627-.624v-2.661a.626.626 0 0 1 .627-.624h2.672a.626.626 0 0 1 .627.624v2.661a.625.625 0 0 1-.627.624zm.626-1.247h1.419v-1.414h-1.419zm-5.97 1.247a.624.624 0 0 1-.626-.624v-2.661a.625.625 0 0 1 .626-.624h2.671a.625.625 0 0 1 .627.624v2.661a.624.624 0 0 1-.627.624zm.625-1.247h1.42v-1.414h-1.42zm-5.97 1.247a.624.624 0 0 1-.627-.624v-2.661a.625.625 0 0 1 .627-.624h2.672a.625.625 0 0 1 .625.624v2.661a.624.624 0 0 1-.625.624zm.627-1.247h1.418v-1.414h-1.418zm-5.972 1.247a.625.625 0 0 1-.626-.624v-2.661a.626.626 0 0 1 .626-.624h2.673a.626.626 0 0 1 .626.624v2.661a.625.625 0 0 1-.626.624zm.627-1.247h1.419v-1.414h-1.419zm-5.972 1.247a.624.624 0 0 1-.625-.624v-2.661a.625.625 0 0 1 .625-.624h2.672a.625.625 0 0 1 .627.624v2.661a.624.624 0 0 1-.627.624zm.627-1.247h1.418v-1.414h-1.418zm22-3.741a1.878 1.878 0 0 1-1.879-1.872v-2.162a1.877 1.877 0 0 1 1.879-1.871h10.857a1.877 1.877 0 0 1 1.878 1.871v2.162a1.877 1.877 0 0 1-1.878 1.872zm-.625-4.034v2.162a.625.625 0 0 0 .625.624h10.857a.626.626 0 0 0 .626-.624v-2.162a.626.626 0 0 0-.626-.624h-10.857a.625.625 0 0 0-.62.623zm-15.156 1.373a.625.625 0 0 1-.627-.625.625.625 0 0 1 .627-.624h4.508a.626.626 0 0 1 .627.624.626.626 0 0 1-.627.625zm0-2.661a.625.625 0 0 1-.627-.625.625.625 0 0 1 .627-.624h4.508a.626.626 0 0 1 .627.624.626.626 0 0 1-.627.625zm1.545-3.119v-.707h-1.712a.625.625 0 0 1-.627-.624.624.624 0 0 1 .627-.624h1.712v-1.746h-.543a1.459 1.459 0 0 1-1.461-1.455v-1.331a1.46 1.46 0 0 1 1.461-1.457h.543v-.707a.625.625 0 0 1 .625-.624.625.625 0 0 1 .627.624v.707h1.711a.626.626 0 0 1 .627.624.625.625 0 0 1-.627.624h-1.711v1.748h.543a1.459 1.459 0 0 1 1.461 1.455v1.331a1.46 1.46 0 0 1-1.461 1.455h-.543v.707a.625.625 0 0 1-.627.624.625.625 0 0 1-.62-.625zm1.252-1.954h.543a.208.208 0 0 0 .208-.208v-1.331a.208.208 0 0 0-.208-.208h-.543zm-2-4.532v1.331a.209.209 0 0 0 .209.208h.543v-1.746h-.543a.208.208 0 0 0-.209.206zm12.4 1.455a.625.625 0 0 1-.627-.624v-2.995a.625.625 0 0 1 .627-.624h14.7a.625.625 0 0 1 .626.624v2.995a.625.625 0 0 1-.626.624zm.625-1.247h13.446v-1.748h-13.442z" class="cls-3" data-name="Union 1" transform="translate(65 98)"/>
            </g>
        </g>
    </g>
</svg>
