<svg xmlns="http://www.w3.org/2000/svg" viewBox="352 -13 39 39">
    <g id="icon_menos" transform="translate(6530 1898)">
        <path id="Exclusion_1" d="M-6248.5-2150a19.384 19.384 0 0 1-7.591-1.532 19.437 19.437 0 0 1-6.2-4.179 19.44 19.44 0 0 1-4.18-6.2 19.382 19.382 0 0 1-1.532-7.59 19.384 19.384 0 0 1 1.532-7.591 19.448 19.448 0 0 1 4.18-6.2 19.438 19.438 0 0 1 6.2-4.179 19.38 19.38 0 0 1 7.591-1.529 19.373 19.373 0 0 1 7.589 1.532 19.43 19.43 0 0 1 6.2 4.179 19.437 19.437 0 0 1 4.18 6.2 19.384 19.384 0 0 1 1.531 7.589 19.382 19.382 0 0 1-1.532 7.59 19.437 19.437 0 0 1-4.18 6.2 19.429 19.429 0 0 1-6.2 4.179 19.381 19.381 0 0 1-7.588 1.531zm-8.663-21.666v4.333h17.334v-4.333z" data-name="Exclusion 1" transform="translate(90.001 278.001)"/>
    </g>
</svg>
