<svg width="38" height="27" viewBox="0 0 38 27" version="1.1" xmlns="http://www.w3.org/2000/svg" xmlns:xlink="http://www.w3.org/1999/xlink">
<title>icn_envelop</title>
<desc>Created using Figma</desc>
<g id="Canvas" transform="translate(5075 1750)">
<g id="icn_envelop">
<g id="Vector">
<use xlink:href="#path0_fill" transform="translate(-5075 -1750)"/>
<use xlink:href="#path1_fill" transform="translate(-5075 -1750)"/>
</g>
</g>
</g>
<defs>
<path id="path0_fill" d="M 33.361 0L 4.6468 0C 2.08359 0 0 1.94535 0 4.3385L 0 22.6615C 0 25.0547 2.08359 27 4.6468 27L 33.3532 27C 35.9164 27 38 25.0547 38 22.6615L 38 4.34584C 38.0078 1.95269 35.9242 0 33.361 0ZM 35.8849 22.6615C 35.8849 23.9608 34.7527 25.0179 33.361 25.0179L 4.6468 25.0179C 3.25512 25.0179 2.1229 23.9608 2.1229 22.6615L 2.1229 4.34584C 2.1229 3.04649 3.25512 1.9894 4.6468 1.9894L 33.3532 1.9894C 34.7449 1.9894 35.8771 3.04649 35.8771 4.34584L 35.8771 22.6615L 35.8849 22.6615Z"/>
<path id="path1_fill" d="M 23.9657 13.2724L 33.2593 5.491C 33.6917 5.12395 33.731 4.49997 33.3379 4.08888C 32.9448 3.68513 32.2765 3.64842 31.8362 4.01547L 19.0201 14.7553L 16.5198 12.6704C 16.5119 12.6631 16.5041 12.6558 16.5041 12.6484C 16.449 12.597 16.394 12.553 16.3311 12.5089L 6.15689 4.00813C 5.71659 3.64108 5.04826 3.67779 4.65513 4.08888C 4.262 4.49997 4.30132 5.12395 4.74162 5.491L 14.1453 13.3385L 4.78093 21.5236C 4.35635 21.898 4.33277 22.522 4.73376 22.9257C 4.94605 23.1313 5.2291 23.2414 5.51216 23.2414C 5.77162 23.2414 6.03109 23.1533 6.23552 22.9771L 15.7414 14.6745L 18.3203 16.8254C 18.5248 16.9943 18.7764 17.075 19.028 17.075C 19.2796 17.075 19.539 16.9869 19.7356 16.8181L 22.3853 14.6011L 31.8362 22.9845C 32.0406 23.168 32.3079 23.2561 32.5674 23.2561C 32.8504 23.2561 33.1256 23.1533 33.3379 22.9478C 33.7389 22.5514 33.7232 21.92 33.2986 21.5457L 23.9657 13.2724Z"/>
</defs>
</svg>
