<svg xmlns="http://www.w3.org/2000/svg" viewBox="263 -13 39 39">
    <g id="icon-select-add" transform="translate(6559 2030)">
        <path id="Union_11" d="M-6316-2301.5a19.522 19.522 0 0 1 19.5-19.5 19.522 19.522 0 0 1 19.5 19.5 19.522 19.522 0 0 1-19.5 19.5 19.522 19.522 0 0 1-19.5-19.5zm2.557 0a16.962 16.962 0 0 0 16.942 16.943 16.962 16.962 0 0 0 16.944-16.943 16.962 16.962 0 0 0-16.944-16.942 16.961 16.961 0 0 0-16.942 16.942zm15 9.222v-7.283h-7.283a1.213 1.213 0 0 1-1.213-1.214 1.212 1.212 0 0 1 1.213-1.213h7.283v-7.283a1.214 1.214 0 0 1 1.214-1.213 1.214 1.214 0 0 1 1.214 1.213v7.283h7.283a1.214 1.214 0 0 1 1.214 1.213 1.214 1.214 0 0 1-1.214 1.214h-7.283v7.283a1.216 1.216 0 0 1-1.214 1.215 1.214 1.214 0 0 1-1.21-1.215z" data-name="Union 11" transform="translate(20.001 278)"/>
    </g>
</svg>
