<svg xmlns="http://www.w3.org/2000/svg" viewBox="77 511 56 56">
    <defs>
        <style>
            .cls-1{fill:none}.cls-2{fill:#2a3143}.cls-3{fill:#f1a93b}
        </style>
    </defs>
    <g id="icon-mobile" transform="translate(6568 1154)">
        <g id="Vector" transform="translate(8 -2.001)">
            <path id="Union_7" d="M-6671.933-253a4.089 4.089 0 0 1-4.068-4.1v-47.8a4.089 4.089 0 0 1 4.068-4.1h23.865a4.09 4.09 0 0 1 4.068 4.1v47.8a4.09 4.09 0 0 1-4.068 4.1zm-2.441-4.1a2.454 2.454 0 0 0 2.441 2.461h23.865a2.453 2.453 0 0 0 2.439-2.461v-5.742h-23.049a.817.817 0 0 1-.814-.821.816.816 0 0 1 .814-.819h23.049V-300.8h-28.746v36.312h2.441a.817.817 0 0 1 .814.819.818.818 0 0 1-.814.821h-2.441zm0-47.8v2.46h28.746v-2.46a2.453 2.453 0 0 0-2.439-2.461h-23.865a2.454 2.454 0 0 0-2.442 2.461zm11.933 46.155A2.454 2.454 0 0 1-6660-261.2a2.454 2.454 0 0 1 2.441 2.461 2.454 2.454 0 0 1-2.441 2.461 2.454 2.454 0 0 1-2.441-2.464zm1.627 0a.819.819 0 0 0 .814.821.818.818 0 0 0 .813-.821.818.818 0 0 0-.813-.821.819.819 0 0 0-.814.824zm.814-45.336a.817.817 0 0 1-.814-.819.818.818 0 0 1 .814-.821h3.254a.818.818 0 0 1 .814.821.817.817 0 0 1-.814.819zm-4.068-.819a.816.816 0 0 1 .813-.821.817.817 0 0 1 .814.821.816.816 0 0 1-.814.819.816.816 0 0 1-.813-.819z" class="cls-2" data-name="Union 7" transform="translate(189 -332)"/>
            <path id="Path_157" d="M0 0h29.63v36.936H0z" class="cls-3" data-name="Path 157" transform="translate(-6485.81 -633.255)"/>
        </g>
    </g>
</svg>
