<svg xmlns="http://www.w3.org/2000/svg" viewBox="270 659 40.003 40">
    <defs>
        <style>
            .cls-1{fill:none}.cls-2{fill:#f1a93b}.cls-3{fill:#2a3143}
        </style>
    </defs>
    <g id="icon-debit" transform="translate(6636 1056)">
        <g id="money">
            <path id="Path_129" d="M25.882 13.529c0 7.472-5.794 13.529-12.941 13.529S0 21 0 13.529 5.794 0 12.941 0s12.941 6.057 12.941 13.529z" class="cls-2" data-name="Path 129" transform="translate(-6351.88 -384.059)"/>
            <path id="Union_4" d="M-6643.981-459.269h-9.206a3.619 3.619 0 0 1-3.594-3.636 3.646 3.646 0 0 1 1.361-2.847 3.643 3.643 0 0 1-1.361-2.845 3.64 3.64 0 0 1 1.361-2.845 3.646 3.646 0 0 1-1.361-2.847 3.643 3.643 0 0 1 1.361-2.845 3.646 3.646 0 0 1-1.361-2.847 3.619 3.619 0 0 1 3.594-3.636h2.038a3.645 3.645 0 0 1-.632-2.055 3.65 3.65 0 0 1 .632-2.056h-6.257a3.62 3.62 0 0 1-3.594-3.636 3.619 3.619 0 0 1 3.594-3.636h19.141a3.619 3.619 0 0 1 3.594 3.636 3.641 3.641 0 0 1-.632 2.055h6.257a3.619 3.619 0 0 1 3.592 3.638 3.619 3.619 0 0 1-3.592 3.636h-2.035a3.584 3.584 0 0 1 .346.645 13.438 13.438 0 0 1 9.735 12.95 13.376 13.376 0 0 1-13.282 13.44 13.176 13.176 0 0 1-9.699-4.269zm-2.02-9.171a11.8 11.8 0 0 0 11.719 11.859 11.8 11.8 0 0 0 11.718-11.859 11.8 11.8 0 0 0-11.718-11.857A11.8 11.8 0 0 0-6646-468.44zm-9.218 5.535a2.045 2.045 0 0 0 2.031 2.055h7.951a13.466 13.466 0 0 1-1.874-4.111h-6.077a2.046 2.046 0 0 0-2.03 2.061zm0-5.692a2.045 2.045 0 0 0 2.031 2.055h5.757a13.649 13.649 0 0 1-.132-1.9 13.625 13.625 0 0 1 .18-2.213h-5.806a2.046 2.046 0 0 0-2.029 2.055zm0-5.692a2.046 2.046 0 0 0 2.031 2.056h6.165a13.428 13.428 0 0 1 2.008-4.111h-8.173a2.045 2.045 0 0 0-2.03 2.055zm0-5.692a2.046 2.046 0 0 0 2.031 2.056h9.507a13.162 13.162 0 0 1 9.4-3.954c.378 0 .752.018 1.122.048a2.017 2.017 0 0 0-.886-.206h-19.141a2.045 2.045 0 0 0-2.032 2.056zm5-5.69a2.045 2.045 0 0 0 2.031 2.055h19.141a2.045 2.045 0 0 0 2.031-2.055 2.046 2.046 0 0 0-2.031-2.056h-19.141a2.046 2.046 0 0 0-2.03 2.056zm-9.219-5.692a2.045 2.045 0 0 0 2.031 2.055h19.141a2.045 2.045 0 0 0 2.031-2.055 2.046 2.046 0 0 0-2.031-2.056h-19.141a2.046 2.046 0 0 0-2.03 2.056zm23.932 33.2a.786.786 0 0 1-.777-.794.785.785 0 0 1 .784-.787h.045a.787.787 0 0 1 .782.791.787.787 0 0 1-.782.791zm-3.171-1.01a10.218 10.218 0 0 1-4.157-3.723 10.328 10.328 0 0 1-1.6-5.545 10.382 10.382 0 0 1 1.186-4.819.777.777 0 0 1 1.056-.328.8.8 0 0 1 .323 1.07 8.79 8.79 0 0 0-1 4.077A8.758 8.758 0 0 0-6638-460.6a.8.8 0 0 1 .366 1.055.783.783 0 0 1-.705.448.764.764 0 0 1-.338-.075zm3.611-3.683v-.343a3.134 3.134 0 0 1-2.5-3 .787.787 0 0 1 .783-.791.786.786 0 0 1 .781.791 1.624 1.624 0 0 0 1.718 1.506 1.624 1.624 0 0 0 1.718-1.506 1.624 1.624 0 0 0-1.718-1.5 3.192 3.192 0 0 1-3.282-3.086 3.135 3.135 0 0 1 2.5-3v-.411a.786.786 0 0 1 .781-.791.786.786 0 0 1 .781.791v.411a3.135 3.135 0 0 1 2.5 3 .786.786 0 0 1-.783.791.787.787 0 0 1-.781-.791 1.624 1.624 0 0 0-1.718-1.506 1.624 1.624 0 0 0-1.718 1.506 1.624 1.624 0 0 0 1.718 1.5 3.192 3.192 0 0 1 3.282 3.086 3.134 3.134 0 0 1-2.5 3v.343a.785.785 0 0 1-.781.789.785.785 0 0 1-.781-.787zm8.7-.436a.8.8 0 0 1-.323-1.07 8.79 8.79 0 0 0 1-4.077 8.761 8.761 0 0 0-4.875-7.844.793.793 0 0 1-.366-1.055.777.777 0 0 1 1.042-.369 10.238 10.238 0 0 1 4.159 3.723 10.34 10.34 0 0 1 1.6 5.545 10.377 10.377 0 0 1-1.186 4.819.779.779 0 0 1-.69.42.78.78 0 0 1-.361-.091zm-6.7-13.843h-.047a.786.786 0 0 1-.781-.791.786.786 0 0 1 .781-.791h.053a.786.786 0 0 1 .777.794.785.785 0 0 1-.78.787z" class="cls-3" data-name="Union 4" transform="translate(295 98)"/>
        </g>
    </g>
</svg>
