<svg xmlns="http://www.w3.org/2000/svg" viewBox="421 330 41.001 41">
    <g id="icon-chair-line" transform="translate(6896.001 1091)">
        <g id="Group_4" data-name="Group 4">
            <path id="Union_10" d="M-6888.25-400.208v-.736h-20.5v.736a2.2 2.2 0 0 1-2.195 2.207 2.205 2.205 0 0 1-2.2-2.207v-.736a3.67 3.67 0 0 1-3.651-3.459.578.578 0 0 1-.009-.1v-9.7a4.77 4.77 0 0 1-2.2-4.03 4.778 4.778 0 0 1 4.76-4.784c.123 0 .245.007.366.016v-8.845a5.143 5.143 0 0 1 5.125-5.15h20.5a5.144 5.144 0 0 1 5.126 5.15V-423c.12-.009.242-.016.365-.016a4.777 4.777 0 0 1 4.76 4.784 4.77 4.77 0 0 1-2.2 4.03v9.7a.579.579 0 0 1-.007.1 3.671 3.671 0 0 1-3.653 3.459v.736a2.2 2.2 0 0 1-2.2 2.207 2.2 2.2 0 0 1-2.187-2.208zm1.464 0a.735.735 0 0 0 .733.736.735.735 0 0 0 .733-.736v-.736h-1.466zm-24.892 0a.735.735 0 0 0 .733.736.734.734 0 0 0 .731-.736v-.736h-1.464zm-5.857-18.028a3.3 3.3 0 0 0 1.8 2.948.739.739 0 0 1 .4.656v10.009a2.2 2.2 0 0 0 2.195 2.207h29.287a2.206 2.206 0 0 0 2.2-2.207v-10.009a.735.735 0 0 1 .4-.656 3.3 3.3 0 0 0 1.8-2.948 3.306 3.306 0 0 0-3.3-3.311 3.306 3.306 0 0 0-3.294 3.311v6.255a3.675 3.675 0 0 1-3.66 3.68h-.733a.733.733 0 0 1-.731-.736.733.733 0 0 1 .731-.736h.733a2.2 2.2 0 0 0 2.2-2.207 2.2 2.2 0 0 0-2.2-2.207h-17.571a2.2 2.2 0 0 0-2.2 2.207 2.2 2.2 0 0 0 2.2 2.207h9.518a.733.733 0 0 1 .731.736.733.733 0 0 1-.731.736h-9.518a3.674 3.674 0 0 1-3.66-3.68v-6.255a3.308 3.308 0 0 0-3.3-3.311 3.306 3.306 0 0 0-3.297 3.311zm27.821 2.575a3.628 3.628 0 0 1 2.2.738v-3.313a4.792 4.792 0 0 1 2.928-4.416v-9.2a3.674 3.674 0 0 0-3.661-3.68h-20.5a3.675 3.675 0 0 0-3.661 3.68v9.2a4.793 4.793 0 0 1 2.929 4.416v3.313a3.622 3.622 0 0 1 2.2-.738zm-5.125 7.359a.735.735 0 0 1-.733-.736.735.735 0 0 1 .733-.736h1.464a.733.733 0 0 1 .731.736.733.733 0 0 1-.731.736z" class="cls-2" data-name="Union 10" transform="translate(444 -322)"/>
        </g>
    </g>
</svg>
