<svg xmlns="http://www.w3.org/2000/svg" viewBox="150 506 55 55">
    <defs>
        <style>
            .cls-1{fill:none}.cls-2{fill:#f1a93b}.cls-3{fill:#2a3143}
        </style>
    </defs>
    <g id="icon-paycheck" transform="translate(6544 1152)">
        <g id="Group">
            <path id="Path_212" d="M1.5 26.5l-1.5 5v.5l5.5-1 24-24.5L32 3l-1-2-2.5-1z" class="cls-2" data-name="Path 212" transform="translate(-6372.5 -640)"/>
            <path id="Union_8" d="M-6691.554-265a3.466 3.466 0 0 1-2.437-1 3.418 3.418 0 0 1-1.01-2.418V-290.3a3.409 3.409 0 0 1 1.011-2.416 3.46 3.46 0 0 1 2.435-1h28.866l16.555-16.434a2.93 2.93 0 0 1 2.06-.845 2.926 2.926 0 0 1 2.06.845l1.16 1.149a2.9 2.9 0 0 1 .632.939 2.871 2.871 0 0 1 .222 1.106 2.879 2.879 0 0 1-.222 1.107 2.9 2.9 0 0 1-.632.939l-11.276 11.194h8.351a3.459 3.459 0 0 1 2.435 1 3.407 3.407 0 0 1 1.011 2.416v21.88a3.416 3.416 0 0 1-1.01 2.418 3.465 3.465 0 0 1-2.436 1zm-1.02-26.317a1.428 1.428 0 0 0-.426 1.017v21.878a1.424 1.424 0 0 0 .422 1.012 1.446 1.446 0 0 0 1.02.42h47.775a1.446 1.446 0 0 0 1.02-.42 1.424 1.424 0 0 0 .422-1.012v.008-21.886a1.435 1.435 0 0 0-.423-1.012 1.45 1.45 0 0 0-1.018-.418h-10.355l-13.26 13.163a1 1 0 0 1-.39.24l-5.8 1.917a1.017 1.017 0 0 1-.549.025 1 1 0 0 1-.479-.266.983.983 0 0 1-.265-.477.983.983 0 0 1 .027-.544l1.931-5.753a.977.977 0 0 1 .243-.388l7.979-7.922h-26.865a1.452 1.452 0 0 0-1.009.418zm21.49 8.754l-1.223 3.641 3.668-1.215 22.07-21.91-2.445-2.426zm26.37-26.181l-2.887 2.858 2.446 2.428 2.883-2.865a.886.886 0 0 0 .269-.632.874.874 0 0 0-.067-.346.912.912 0 0 0-.2-.292l-1.159-1.151a.91.91 0 0 0-.644-.264.915.915 0 0 0-.642.264zm-2.413 39.111a1 1 0 0 1-.709-.291.99.99 0 0 1-.292-.7.991.991 0 0 1 .292-.7 1 1 0 0 1 .709-.291h.655a1 1 0 0 1 .707.291.991.991 0 0 1 .294.7.99.99 0 0 1-.294.7 1 1 0 0 1-.707.291zm-29.391 0a1.007 1.007 0 0 1-.709-.291.988.988 0 0 1-.292-.7.989.989 0 0 1 .292-.7 1.007 1.007 0 0 1 .709-.291h25.02a1.007 1.007 0 0 1 .709.291 1 1 0 0 1 .292.7 1 1 0 0 1-.292.7 1.007 1.007 0 0 1-.709.291zm-8.074-2.912v-.712h-.1c-2.492-.04-4.082-1.363-4.082-2.257 0-.457.4-1.038.827-1.038.21 0 .432.186.712.423A4.089 4.089 0 0 0-6684.7-275l.106.008v-4.856l-.065-.024c-1.758-.62-3.75-1.324-3.75-3.816 0-2.908 2.606-3.493 3.727-3.611l.089-.01v-.665c0-.173.19-.361.489-.361.25 0 .5.183.5.361v.632h.1c1.551.045 3.2.529 3.2 1.339 0 .358-.267 1.038-.783 1.038a1.489 1.489 0 0 1-.586-.208 4.433 4.433 0 0 0-1.82-.529l-.1-.008v4.219l.063.023c1.818.664 3.592 1.529 3.592 4.135a3.791 3.791 0 0 1-3.57 4.012l-.084.012v.761c0 .18-.255.361-.506.361a.446.446 0 0 1-.494-.359zm.874-2.473l.116-.022a2 2 0 0 0 1.847-2.068 2.427 2.427 0 0 0-1.826-2.324l-.135-.057zm-.859-10.643c-1.315.165-2.013.776-2.013 1.773 0 1.2.9 1.637 1.993 2.045l.131.049v-3.88zm21.719 9.737a1.008 1.008 0 0 1-.709-.292.987.987 0 0 1-.292-.7.991.991 0 0 1 .292-.7 1.007 1.007 0 0 1 .709-.291h16.389a1 1 0 0 1 .707.291.991.991 0 0 1 .294.7.987.987 0 0 1-.294.7 1 1 0 0 1-.707.292z" class="cls-3" data-name="Union 8" transform="translate(301 -330)"/>
        </g>
    </g>
</svg>
