<svg xmlns="http://www.w3.org/2000/svg" viewBox="-125 327 49 49">
    <g id="icon-chart-line-2" transform="translate(6447 1595)">
        <path id="Union_23" d="M-6273.711-1785a1.3 1.3 0 0 1-1.289-1.3v-29.439a.7.7 0 0 1 .7-.708.7.7 0 0 1 .7.708v29.331h46.205v-1.064h-44.028a1.3 1.3 0 0 1-1.287-1.3v-36.337h-.89v4.905a.7.7 0 0 1-.7.708.7.7 0 0 1-.7-.708v-5.016a1.3 1.3 0 0 1 1.289-1.3h1.105a1.3 1.3 0 0 1 1.29 1.3v36.337h2.877v-11.456a1.572 1.572 0 0 1 1.561-1.579h5.527a1.572 1.572 0 0 1 1.561 1.579v11.456h4.5v-17.269a1.571 1.571 0 0 1 1.562-1.579h5.526a1.574 1.574 0 0 1 1.563 1.579v17.269h4.409a8.359 8.359 0 0 1-1.307-1.083A8.5 8.5 0 0 1-6246-1796a8.516 8.516 0 0 1 2.466-6.024 8.554 8.554 0 0 1 1.4-1.138v-9.411a1.571 1.571 0 0 1 1.56-1.579h5.529a1.571 1.571 0 0 1 1.56 1.579v1.753a.7.7 0 0 1-.7.706.7.7 0 0 1-.7-.706v-1.753a.166.166 0 0 0-.162-.168h-5.529a.164.164 0 0 0-.162.168v8.678a8.3 8.3 0 0 1 5.854-.176v-2.224a.7.7 0 0 1 .7-.706.7.7 0 0 1 .7.706v2.852a8.36 8.36 0 0 1 1.862 1.422 8.505 8.505 0 0 1 2.467 6.021 8.518 8.518 0 0 1-2.467 6.025 8.361 8.361 0 0 1-1.306 1.08h5.646a1.3 1.3 0 0 1 1.287 1.3v1.281a1.3 1.3 0 0 1-1.287 1.3zm32.895-17.3a.349.349 0 0 0-.052.028 7.054 7.054 0 0 0-1.681 1.254 7.1 7.1 0 0 0-2.051 5.018 7.1 7.1 0 0 0 2.056 5.024 7.036 7.036 0 0 0 1.446 1.124.025.025 0 0 0 .011.006 6.926 6.926 0 0 0 2.346.852.08.08 0 0 0 .025.005 4.1 4.1 0 0 0 .189.028c.047.008.092.011.135.017.063.008.128.017.188.022l.228.016h.1c.1.006.2.008.3.008s.2 0 .3-.008a.788.788 0 0 0 .08 0c.08 0 .162-.011.245-.016l.16-.017a.215.215 0 0 1 .041-.006 6.974 6.974 0 0 0 2.258-.672.07.07 0 0 0 .024-.011 6.992 6.992 0 0 0 1.857-1.347 7.176 7.176 0 0 0 0-10.048 7 7 0 0 0-1.945-1.389l-.1-.05a11.327 11.327 0 0 0-.259-.113l-.044-.017a6.984 6.984 0 0 0-2.615-.51 6.974 6.974 0 0 0-3.243.802zm-13.076-3.858v17.269h5.856v-17.269a.166.166 0 0 0-.165-.165h-5.526a.166.166 0 0 0-.166.164zm-13.148 5.812v11.456h5.854v-11.456a.165.165 0 0 0-.163-.165h-5.527a.163.163 0 0 0-.166.164zm29.061 9.271v-.383c-1.519-.025-2.549-.857-2.549-1.463 0-.3.257-.706.565-.706.4 0 .735.865 1.983.965v-2.913c-1.1-.4-2.328-.843-2.328-2.428a2.288 2.288 0 0 1 2.328-2.307v-.361a.325.325 0 0 1 .355-.284c.185 0 .369.135.369.284v.336c.833.025 2.01.284 2.01.893 0 .234-.174.706-.54.706-.295 0-.611-.4-1.472-.458v2.516c1.066.4 2.232.942 2.232 2.626a2.39 2.39 0 0 1-2.232 2.555v.422c0 .149-.183.287-.367.287a.325.325 0 0 1-.356-.288zm.65-1.612a1.175 1.175 0 0 0 1.078-1.227 1.449 1.449 0 0 0-1.078-1.389zm-1.752-5.44c0 .706.526.965 1.176 1.213v-2.254c-.687.084-1.178.395-1.178 1.04zm-27.981-8.243a.7.7 0 0 1-.661-.742.7.7 0 0 1 .73-.67 25.187 25.187 0 0 0 9.367-2.064 41.254 41.254 0 0 0 9.569-5.49 57.65 57.65 0 0 0 10.1-10l-2.359.367a.7.7 0 0 1-.8-.592.7.7 0 0 1 .585-.8l4.049-.625a.677.677 0 0 1 .521.129.7.7 0 0 1 .275.469l.516 3.718a.711.711 0 0 1-.595.8c-.033 0-.067.005-.1.005a.7.7 0 0 1-.688-.609l-.278-2.018a59.1 59.1 0 0 1-10.444 10.332 42.55 42.55 0 0 1-9.931 5.666 27.156 27.156 0 0 1-9.576 2.133l-.282-.01z" data-name="Union 23" transform="translate(-296.999 563)"/>
    </g>
</svg>
