<svg xmlns="http://www.w3.org/2000/svg" viewBox="198 658.999 40 40.001">
    <defs>
        <style>
            .cls-1{fill:none}.cls-2{fill:#f1a93b}.cls-3{fill:#2a3143}
        </style>
    </defs>
    <g id="icon-chart" transform="translate(6450 1038)">
        <g id="Group_1" data-name="Group 1">
            <path id="Path_122" d="M10 5a5 5 0 1 1-5-5 5 5 0 0 1 5 5z" class="cls-2" data-name="Path 122" transform="translate(-6223 -378)"/>
            <path id="Union_3" d="M-6474.218-437a.782.782 0 0 1-.782-.782.781.781 0 0 1 .782-.782h.624v-7.811a.781.781 0 0 1 .782-.782h6.25a.781.781 0 0 1 .782.782v7.811h1.875v-12.812a.781.781 0 0 1 .781-.782h6.25a.781.781 0 0 1 .78.782v12.812h2.188v-17.656a.781.781 0 0 1 .78-.782h6.25a.781.781 0 0 1 .782.782v17.656h1.875v-6.8a.781.781 0 0 1 .781-.782.782.782 0 0 1 .782.782v6.8h4.687v-22.03h-4.687v7.577a.783.783 0 0 1-.782.782.782.782 0 0 1-.781-.782v-8.359a.781.781 0 0 1 .781-.782h6.25a.781.781 0 0 1 .782.782v22.812h.624a.781.781 0 0 1 .782.782.782.782 0 0 1-.782.782zm21.875-1.563h4.688v-16.874h-4.688zm-10 0h4.688v-12.032h-4.688zm-9.687 0h4.687v-7.031h-4.687zm28.041-10.236a.786.786 0 0 1-.229-.553.78.78 0 0 1 .229-.552.781.781 0 0 1 .552-.229.787.787 0 0 1 .553.229.788.788 0 0 1 .229.552.794.794 0 0 1-.229.553.794.794 0 0 1-.553.229.788.788 0 0 1-.553-.23zm-29.313-.79a.794.794 0 0 1-.229-.552.789.789 0 0 1 .229-.553.788.788 0 0 1 .552-.229.791.791 0 0 1 .553.229.788.788 0 0 1 .229.553.794.794 0 0 1-.229.552.791.791 0 0 1-.553.229.788.788 0 0 1-.55-.228zm2.031-2.031a.78.78 0 0 1 0-1.105l8.5-8.5a.784.784 0 0 1 1.1 0l4.245 4.245 8.353-8.353h-1.172a.782.782 0 0 1-.782-.782.781.781 0 0 1 .782-.782h3.058a.781.781 0 0 1 .782.782v3.058a.782.782 0 0 1-.782.782.782.782 0 0 1-.781-.782v-1.173l-8.905 8.907a.784.784 0 0 1-1.1 0l-4.245-4.245-7.943 7.945a.779.779 0 0 1-.553.229.779.779 0 0 1-.558-.226zm24.4-19.443a5.946 5.946 0 0 1 5.938-5.938 5.945 5.945 0 0 1 5.938 5.938 5.944 5.944 0 0 1-5.938 5.938 5.945 5.945 0 0 1-5.943-5.938zm5.052-1.485a.822.822 0 0 0 .886.733 2.377 2.377 0 0 1 2.449 2.295 2.313 2.313 0 0 1-1.667 2.173v.59a4.382 4.382 0 0 0 3.594-4.3 4.381 4.381 0 0 0-3.594-4.3v.645a2.313 2.313 0 0 1 1.667 2.173.781.781 0 0 1-.781.782.781.781 0 0 1-.78-.782.822.822 0 0 0-.887-.731.822.822 0 0 0-.892.722zm-3.489 1.485a4.383 4.383 0 0 0 3.595 4.3v-.59a2.315 2.315 0 0 1-1.669-2.173.782.782 0 0 1 .781-.782.781.781 0 0 1 .782.782.822.822 0 0 0 .886.731.822.822 0 0 0 .887-.731.822.822 0 0 0-.887-.733 2.377 2.377 0 0 1-2.449-2.295 2.315 2.315 0 0 1 1.669-2.173v-.645a4.381 4.381 0 0 0-3.599 4.309z" class="cls-3" data-name="Union 3" transform="translate(223 98)"/>
        </g>
    </g>
</svg>
