<svg xmlns="http://www.w3.org/2000/svg" viewBox="417 506 56 56">
    <defs>
        <style>
            .cls-1{fill:none}.cls-2,.cls-3{fill:#f1a93b;fill-rule:evenodd}.cls-3{fill:#2a3143}
        </style>
    </defs>
    <g id="icon-produtivity" transform="translate(6717 1150)">
        <g id="Group_6" data-name="Group 6" transform="translate(-2 -1)">
            <path id="Path_219" d="M11.095 10.638a5.319 5.319 0 1 0-5.283-5.319 5.3 5.3 0 0 0 5.283 5.319zm0 8.511l3.7-5.851c1.585.177 4.966 1.277 5.812 4.255s.7 11.879.528 15.958h-4.229v14.361H4.227V33.511H0V18.617c.88-1.6 3.381-4.894 6.34-5.319z" class="cls-2" data-name="Path 219" transform="translate(-6264.72 -638.936)"/>
            <path id="Path_220" d="M44.112 0a6.488 6.488 0 0 1 3.623 1.107 6.6 6.6 0 0 1 .988 10.1 6.5 6.5 0 0 1-10.033-1 6.593 6.593 0 0 1 .81-8.28A6.509 6.509 0 0 1 44.112 0zm4.225 6.582a4.278 4.278 0 0 0-.711-2.364A4.219 4.219 0 0 0 39.97 5.75a4.268 4.268 0 0 0 1.8 4.367 4.2 4.2 0 0 0 5.332-.53 4.275 4.275 0 0 0 1.234-3.005zM56 34.48V21.807a8.393 8.393 0 0 0-2.26-5.727 8.279 8.279 0 0 0-5.54-2.615l-.619-.042-3.473 4.656-3.474-4.656-.617.042a8.718 8.718 0 0 0-1.81.323A21.339 21.339 0 1 0 21.282 48.2a21.245 21.245 0 0 0 15.409-6.653v7.431l.018.012a1.143 1.143 0 0 0 .372.723 1.129 1.129 0 0 0 .755.291h12.5a1.129 1.129 0 0 0 .8-.336 1.146 1.146 0 0 0 .331-.806v-.123l.057-.035V35.622h3.345a1.13 1.13 0 0 0 .8-.334A1.147 1.147 0 0 0 56 34.48zm-2.291-12.64v11.426h-4.487v11.189a1.152 1.152 0 0 0-.024.235v3h-3.946V35.045h-2.3v12.647h-3.974V33.271H34.5V21.812a5.269 5.269 0 0 1 .062-.8.608.608 0 0 0 .013-.109.662.662 0 0 1 .008-.069 5.726 5.726 0 0 1 .165-.728c.011-.031.023-.072.029-.092v-.01a.534.534 0 0 1 .018-.052l.007-.021a4.291 4.291 0 0 1 .235-.6l.038-.082.029-.065a6.205 6.205 0 0 1 .354-.616 1.874 1.874 0 0 1 .118-.169l.011-.014a5.773 5.773 0 0 1 .434-.563l.1-.1a8.71 8.71 0 0 1 .525-.513.349.349 0 0 0 .041-.034l.02-.016a5.807 5.807 0 0 1 .676-.481.264.264 0 0 0 .062-.034 6.194 6.194 0 0 1 .773-.389l.125-.046a5.878 5.878 0 0 1 1.215-.338l4.547 6.092 4.547-6.092a6.017 6.017 0 0 1 3.612 2.054 6.094 6.094 0 0 1 1.445 3.915zm-17 13.782v2.3a19.293 19.293 0 0 1-4.947 4.778l-.862-1.521-2 1.158.877 1.528a19.075 19.075 0 0 1-7.331 1.98v-4.121h-2.3v4.1a18.56 18.56 0 0 1-7.32-1.969l.867-1.518-1.993-1.154-.865 1.517a18.924 18.924 0 0 1-5.355-5.4l1.507-.873-1.151-2.009-1.507.873a18.9 18.9 0 0 1-1.955-7.373h4.075V25.6H2.367a18.89 18.89 0 0 1 1.957-7.373l1.506.873 1.15-2-1.506-.873a18.982 18.982 0 0 1 5.354-5.391l.866 1.505 1.992-1.158-.867-1.523a18.562 18.562 0 0 1 7.322-1.969v4.1h2.3v-4.1a18.772 18.772 0 0 1 7.321 1.981l-.862 1.517 1.991 1.157.878-1.516a19.337 19.337 0 0 1 4.309 3.938 7.6 7.6 0 0 0-.568.411 1.355 1.355 0 0 0-.134.109l-.045.038c-.19.147-.363.309-.53.466l-.01.009a2.16 2.16 0 0 0-.226.228 8 8 0 0 0-.572.667.7.7 0 0 0-.044.061l-.008.012c-.016.024-.033.049-.05.071s-.049.064-.073.1l-.01.014-.019.025c-.1.143-.21.3-.324.483l-.007.012a4.317 4.317 0 0 0-.2.348c-.1.192-.191.385-.276.566l-.032.063a2.016 2.016 0 0 0-.1.205 7.25 7.25 0 0 0-.294.88c-.022.09-.045.192-.065.286q-.086.355-.138.718c0 .035-.008.062-.014.1v.031c-.009.051-.019.1-.024.161a9.614 9.614 0 0 0-.066.983v7.4a1.045 1.045 0 0 0-.016.183v5.082a1.145 1.145 0 0 0 .332.808 1.13 1.13 0 0 0 .8.334zM24.873 24.389a4.305 4.305 0 0 0-2.44-1.793V14.34h-2.3v8.253a4.277 4.277 0 0 0-2.976 3.013h-5.185v2.319h5.185a4.293 4.293 0 0 0 1.525 2.3 4.267 4.267 0 0 0 5.427-.187 4.356 4.356 0 0 0 .763-5.645zm-1.922 1.245a2.03 2.03 0 0 1-.25 2.55 2 2 0 0 1-3.272-.655 2.031 2.031 0 0 1 .435-2.2 2 2 0 0 1 3.087.306zm22.311.037v-2.317h-2.3v2.317zm-2.3 1.291h2.3v2.318h-2.3zm0 5.925v-2.316h2.3v2.317z" class="cls-3" data-name="Path 220" transform="translate(-6298 -640)"/>
        </g>
    </g>
</svg>
