<svg width="46" height="46" viewBox="0 0 46 46" version="1.1" xmlns="http://www.w3.org/2000/svg" xmlns:xlink="http://www.w3.org/1999/xlink">
<title>icn_coins</title>
<desc>Created using Figma</desc>
<g id="Canvas" transform="translate(1954 908)">
<rect x="-1954" y="-908" width="46" height="46" fill="#E5E5E5"/>
<clipPath id="clip-0" clip-rule="evenodd">
<path d="M -2024 -1327L -744 -1327L -744 -559L -2024 -559L -2024 -1327Z" fill="#FFFFFF"/>
</clipPath>
<g id="1.0.1 A Empresa" clip-path="url(#clip-0)">
<path d="M -2024 -1327L -744 -1327L -744 -559L -2024 -559L -2024 -1327Z" fill="#FFFFFF"/>
<g id="Rectangle">
<use xlink:href="#path0_fill" transform="translate(-2024 -1327)" fill="#2A3143"/>
</g>
<g id="Group 8">
<g id="cards">
<g id="Group 7">
<g id="icn_coins">
<g id="Group">
<g id="Union">
<use xlink:href="#path1_fill" transform="translate(-1953.41 -901.696)" fill="#F1A93B"/>
</g>
<g id="Union">
<use xlink:href="#path2_fill" transform="translate(-1954 -908)" fill="#FFFFFF"/>
</g>
</g>
</g>
</g>
</g>
</g>
</g>
</g>
<defs>
<path id="path0_fill" d="M 0 0L 1280 0L 1280 768L 0 768L 0 0Z"/>
<path id="path1_fill" fill-rule="evenodd" d="M 28.1335 10.155L 26.3752 7.80366L 27.5475 6.628L 28.1335 4.86445L 29.3058 4.27662L 28.7197 2.51313L 26.9613 0.749582L 22.2725 0.749582C 21.491 0.357675 19.928 -0.308523 19.928 0.161752C 19.928 0.632028 18.365 2.70905 17.5835 3.68879L 18.7557 5.45228L 19.928 7.21583L 20.514 8.39149L 18.1696 10.155L 23.7377 10.155L 28.1335 10.155ZM 0.58606 13.0942C 3.32129 17.601 13.3634 25.0861 31.6503 18.9725L 39.8558 16.0334L 39.8558 18.9725L 35.7531 23.6752C 33.0178 25.4388 25.203 28.4956 15.8251 26.6145C 11.3315 26.6145 1.87561 25.0861 0 18.9725L 0.58606 13.0942Z"/>
<path id="path2_fill" fill-rule="evenodd" d="M 41.1454 22.4633L 41.1454 22.6559C 44.1276 24.409 45.717 26.6052 45.717 29.0392L 45.717 35.4951C 45.717 41.3021 36.6803 45.8514 25.1444 45.8514C 13.6084 45.8514 4.57166 41.3021 4.57166 35.4951L 4.57166 30.6111C 1.703 28.8336 0 26.5518 0 24.0322L 0 17.5764C 0 15.3724 1.32422 13.3397 3.80981 11.6692L 3.80981 9.93445C 3.80981 4.27106 12.6537 0 24.3824 0C 36.1111 0 44.9551 4.27106 44.9551 9.93445L 44.9551 16.3903C 44.9551 18.6776 43.5493 20.7676 41.1454 22.4633ZM 25.1444 38.2095C 35.292 38.2095 44.1931 33.9247 44.1931 29.0392C 44.1931 27.0447 42.7074 25.5063 41.1309 24.4373C 41.13 24.4509 41.1281 24.4646 41.1262 24.4783C 41.1248 24.4883 41.1234 24.4983 41.1224 24.5083C 41.1163 24.5743 41.1077 24.6398 41.099 24.7056L 41.0928 24.7529L 41.0884 24.7867C 41.0778 24.8696 41.067 24.9528 41.0516 25.0356C 41.0388 25.1038 41.0232 25.1715 41.0077 25.2391L 40.999 25.2771C 40.9777 25.3703 40.9564 25.4628 40.9304 25.5552C 40.9121 25.6212 40.8906 25.6867 40.869 25.7525L 40.8558 25.7929C 40.8481 25.8161 40.8412 25.8394 40.8344 25.8627C 40.825 25.8947 40.8154 25.9266 40.804 25.958C 42.0261 26.9208 42.6692 27.9777 42.6692 29.0392C 42.6692 32.6408 35.4718 36.6544 25.1444 36.6544C 19.298 36.6544 14.0352 35.3766 10.6528 33.1452C 9.401 32.8051 8.23438 32.4001 7.16235 31.9416C 7.17651 31.9606 7.19031 31.9796 7.20386 31.9985C 7.22327 32.0253 7.24243 32.0519 7.26294 32.0784C 7.28052 32.1014 7.29919 32.124 7.31775 32.1464C 7.33057 32.1619 7.34338 32.1774 7.35583 32.193C 9.68823 35.0572 15.0204 37.3245 21.2889 38.0009L 21.3894 38.0112C 21.4614 38.0187 21.5336 38.0262 21.6058 38.033C 21.8459 38.0566 22.0859 38.0795 22.3282 38.0986C 22.7001 38.1277 23.075 38.1506 23.452 38.1674C 23.5758 38.1733 23.6997 38.1777 23.8235 38.1822L 23.8384 38.1827C 24.2712 38.198 24.7063 38.2095 25.1444 38.2095ZM 28.3258 39.6094C 28.3146 39.6106 28.3033 39.6118 28.292 39.6125C 28.2755 39.614 28.259 39.6151 28.2427 39.6163C 28.2257 39.6174 28.2089 39.6187 28.1921 39.6202L 28.1921 44.203C 29.2368 44.1212 30.2548 43.9974 31.24 43.8377L 31.24 39.2587C 30.8278 39.3252 30.408 39.3825 29.9851 39.436C 29.8754 39.4498 29.7656 39.4627 29.6552 39.4757C 29.2277 39.5254 28.7971 39.5705 28.3599 39.6064C 28.3484 39.6072 28.337 39.6083 28.3258 39.6094ZM 32.8298 38.9624C 32.8082 38.9675 32.7865 38.9727 32.7639 38.9775L 32.7632 43.5557C 33.5532 43.3907 34.3168 43.2019 35.049 42.9902L 35.049 38.4135C 34.7883 38.4876 34.5232 38.5594 34.2557 38.6282L 34.1968 38.6442C 34.1653 38.6529 34.1339 38.6615 34.1019 38.6695C 33.7057 38.7696 33.3003 38.8613 32.8904 38.9484C 32.8699 38.9528 32.8499 38.9576 32.8298 38.9624ZM 36.6232 37.9124L 36.5736 37.9297L 36.5745 42.5012C 37.1047 42.3132 37.6122 42.1122 38.0983 41.9005L 38.0983 37.3436L 38.048 37.3643C 37.9941 37.3866 37.9398 37.4087 37.8851 37.4308L 37.7913 37.4689C 37.4888 37.5912 37.1809 37.7104 36.8662 37.8243C 36.8373 37.8346 36.8091 37.8451 36.7809 37.8556C 36.7527 37.8661 36.7245 37.8766 36.6956 37.887L 36.6232 37.9124ZM 39.9092 36.4786C 39.8143 36.5302 39.7191 36.582 39.6215 36.6322L 39.6207 41.1577C 40.1724 40.8574 40.6813 40.5395 41.1445 40.2078L 41.1445 35.7564L 41.1121 35.7767L 41.0798 35.7969C 40.8063 35.9711 40.5205 36.1408 40.2264 36.3058C 40.1569 36.3448 40.0857 36.3831 40.0148 36.4213L 40.0062 36.4258L 39.9092 36.4786ZM 10.6674 36.6238C 10.1324 36.3479 9.61816 36.0613 9.14343 35.7564L 9.14343 40.2078C 9.60669 40.5395 10.1156 40.8566 10.6674 41.1577L 10.6674 36.6238ZM 4.60327 24.3133L 4.57166 24.2936L 4.57166 28.745C 4.71033 28.8443 4.85291 28.9421 4.99988 29.0392L 6.09485 29.0392L 6.09485 25.1693C 5.97498 25.1078 5.85901 25.0444 5.7428 24.9809L 5.71008 24.963L 5.64502 24.9278C 5.59302 24.8998 5.54089 24.8716 5.48987 24.843C 5.1958 24.678 4.91077 24.5083 4.63647 24.3341L 4.60327 24.3133ZM 8.85156 26.3607C 8.53613 26.2468 8.22827 26.1284 7.92651 26.0054L 7.92163 26.0034C 7.83728 25.9697 7.75281 25.9359 7.67053 25.8999L 7.62024 25.8793L 7.62024 30.4362C 8.10645 30.6478 8.61389 30.8488 9.14417 31.0368L 9.14417 26.4662L 9.08325 26.4448L 9.02222 26.4233C 8.9873 26.4114 8.95337 26.3986 8.91931 26.3858L 8.85156 26.3607ZM 12.8259 27.4848C 12.416 27.3977 12.0106 27.306 11.6144 27.2059C 11.5822 27.1978 11.5505 27.1891 11.5187 27.1804L 11.4604 27.1646C 11.1931 27.0959 10.9279 27.0248 10.6674 26.9499L 10.6674 31.5266C 10.9781 31.616 11.2936 31.7031 11.616 31.7849C 12.0114 31.885 12.4137 31.9783 12.8229 32.0646L 12.9524 32.0921L 12.9524 27.5139C 12.9308 27.5092 12.9094 27.5042 12.8881 27.4991C 12.8674 27.4942 12.8469 27.4893 12.8259 27.4848ZM 17.3564 28.1436C 16.9199 28.1077 16.4886 28.0626 16.0612 28.0129C 15.9514 27.9999 15.8417 27.9869 15.7312 27.9731C 15.3083 27.9204 14.8885 27.8624 14.4763 27.7958L 14.4763 32.3657C 14.5602 32.379 14.6436 32.3929 14.7269 32.4067C 14.8921 32.4341 15.0573 32.4615 15.2253 32.4849L 15.4045 32.5098C 15.5901 32.5356 15.7758 32.5615 15.9636 32.5835C 16.4779 32.6439 16.9999 32.689 17.524 32.7294L 17.524 28.1566L 17.4243 28.1497C 17.413 28.1489 17.4017 28.1478 17.3905 28.1466C 17.3793 28.1454 17.3679 28.1443 17.3564 28.1436ZM 22.0966 28.2375C 21.5907 28.2574 21.084 28.275 20.5726 28.275C 20.0941 28.275 19.621 28.2635 19.1509 28.2467C 19.1342 28.246 19.1169 28.2458 19.0999 28.2456C 19.0826 28.2454 19.0656 28.2452 19.0488 28.2444L 19.0488 32.8127L 19.3779 32.8264C 19.7754 32.8433 20.1726 32.8601 20.5726 32.8601C 21.0687 32.8601 21.5594 32.8479 22.0486 32.8296C 22.0635 32.8296 22.0782 32.8289 22.0931 32.8282L 22.0966 32.8281L 22.0966 28.2375ZM 5.35559 14.0015C 5.34814 13.9932 5.34045 13.9849 5.33362 13.9763L 5.33362 16.3903C 5.33362 17.5863 5.87842 18.7364 6.85754 19.7879L 6.85754 15.5306C 6.82349 15.5024 6.79041 15.4736 6.75671 15.4444L 6.72656 15.4183C 6.69531 15.3915 6.66577 15.3644 6.63599 15.3373L 6.59241 15.2975C 6.40344 15.1279 6.2229 14.9559 6.05066 14.7809L 6.00049 14.7304C 5.97253 14.7024 5.94446 14.6743 5.91736 14.6457C 5.72375 14.4409 5.54163 14.2322 5.37256 14.0206L 5.35559 14.0015ZM 8.41296 16.6714L 8.38147 16.6517L 8.38074 21.1031C 8.84399 21.4348 9.35291 21.7519 9.90454 22.053L 9.90454 17.5275C 9.78662 17.4669 9.67224 17.4044 9.55774 17.3418L 9.51978 17.3211L 9.45471 17.2859C 9.40271 17.2579 9.35059 17.2297 9.29956 17.2011C 9.00549 17.0361 8.72058 16.8664 8.44617 16.6922L 8.41296 16.6714ZM 11.4795 18.2588L 11.4293 18.2382L 11.4301 22.7943C 11.9161 23.0059 12.4236 23.2069 12.954 23.3949L 12.954 18.8243L 12.8931 18.8029L 12.832 18.7815C 12.7972 18.7696 12.7634 18.7568 12.7295 18.7441L 12.6614 18.7188C 12.3459 18.605 12.0381 18.4865 11.7363 18.3635C 11.6503 18.3291 11.5641 18.2947 11.4795 18.2588ZM 15.2703 19.5228C 15.0028 19.454 14.7377 19.3829 14.4771 19.308L 14.4763 23.8847C 15.2085 24.0964 15.972 24.2852 16.7622 24.4503L 16.7622 19.8719C 16.7408 19.8674 16.7198 19.8624 16.699 19.8574C 16.678 19.8525 16.657 19.8475 16.6356 19.843C 16.2257 19.7558 15.8204 19.6641 15.4242 19.564C 15.392 19.556 15.3604 19.5473 15.3286 19.5386L 15.2703 19.5228ZM 19.5417 20.3305C 19.1189 20.2778 18.699 20.2197 18.2869 20.1532L 18.2869 24.7314C 19.272 24.8919 20.29 25.015 21.3346 25.0967L 21.3346 20.5139L 21.2349 20.507C 21.2234 20.5062 21.212 20.5051 21.2008 20.504C 21.1896 20.5028 21.1783 20.5016 21.167 20.5009C 20.7303 20.465 20.2991 20.4199 19.8717 20.3702C 19.7612 20.3572 19.6515 20.3442 19.5417 20.3305ZM 25.8042 20.6049C 25.3341 20.6216 24.861 20.6331 24.3824 20.6331C 23.9039 20.6331 23.4308 20.6216 22.9606 20.6049C 22.9438 20.6041 22.9268 20.6039 22.9095 20.6037C 22.8925 20.6035 22.8752 20.6033 22.8585 20.6025L 22.8585 25.1862C 23.3622 25.2053 23.8696 25.2183 24.3824 25.2183C 24.7756 25.2183 25.1653 25.2015 25.5552 25.1848C 25.6721 25.1797 25.7892 25.1747 25.9064 25.1701L 25.9064 20.6025C 25.8896 20.6033 25.8724 20.6035 25.8552 20.6037C 25.8381 20.6039 25.821 20.6041 25.8042 20.6049ZM 28.8932 20.371C 28.4657 20.4207 28.0353 20.4658 27.5979 20.5016C 27.5754 20.5031 27.5538 20.5061 27.5316 20.5091L 27.53 20.5093L 27.4302 20.5162L 27.4302 25.0891C 28.0123 25.044 28.5922 24.9943 29.163 24.924C 29.2651 24.9113 29.3661 24.8973 29.467 24.8832L 29.6201 24.8621C 29.8074 24.8365 29.9902 24.8053 30.1732 24.774C 30.2745 24.7567 30.3759 24.7394 30.478 24.723L 30.478 20.1539C 30.0658 20.2205 29.646 20.2778 29.2231 20.3312C 29.1134 20.345 29.0037 20.358 28.8932 20.371ZM 33.4346 19.539C 33.4033 19.5475 33.3723 19.5561 33.3407 19.564C 32.9445 19.6641 32.5391 19.7558 32.1284 19.843C 32.1079 19.8474 32.088 19.8521 32.068 19.8569C 32.0463 19.862 32.0245 19.8672 32.002 19.8719L 32.002 24.4503C 32.0529 24.4399 32.1033 24.4291 32.1539 24.4182L 32.1932 24.4097C 32.6274 24.3165 33.0542 24.2164 33.474 24.1078C 33.6477 24.0628 33.8199 24.0154 33.9906 23.968C 33.9913 23.9673 33.9929 23.9673 33.9937 23.9673C 34.0919 23.9405 34.1903 23.913 34.2878 23.8847L 34.2878 19.308C 34.0272 19.3821 33.7621 19.454 33.4946 19.5228L 33.4346 19.539ZM 37.0293 18.3643C 36.7268 18.4865 36.4189 18.6057 36.1042 18.7196C 36.063 18.7345 36.0223 18.7498 35.9814 18.7653L 35.9343 18.783L 35.8612 18.8088L 35.8125 18.8258L 35.8125 23.3964C 36.3428 23.2084 36.8502 23.0074 37.3363 22.7958L 37.3363 18.2389L 37.286 18.2595C 37.2314 18.2822 37.1761 18.3046 37.1207 18.3271L 37.0293 18.3643ZM 40.3179 16.6914C 40.0443 16.8657 39.7585 17.0353 39.4645 17.2004C 39.3921 17.2408 39.3182 17.2806 39.2435 17.3204L 39.14 17.3766C 39.0472 17.4271 38.9542 17.4777 38.8588 17.5267L 38.8588 22.0522C 39.4104 21.7519 39.9193 21.434 40.3827 21.1023L 40.3827 16.6509L 40.3503 16.6711L 40.3179 16.6914ZM 18.7665 34.3478C 18.7408 34.3471 18.7146 34.3464 18.6884 34.345C 18.251 34.3259 17.8167 34.3029 17.3884 34.2701C 19.4419 34.7676 22.0089 35.126 25.1444 35.126C 35.4978 35.126 41.1454 31.1055 41.1454 29.0392C 41.1454 28.5341 40.772 27.941 40.0984 27.3534C 40.0588 27.4146 40.0177 27.4749 39.9757 27.5353C 39.9261 27.607 39.8737 27.678 39.8212 27.749L 39.8142 27.7584C 39.7533 27.8409 39.6908 27.9235 39.6252 28.0045C 39.5665 28.0778 39.5049 28.1505 39.4431 28.223C 39.3738 28.3033 39.3037 28.3828 39.2313 28.4622C 39.1658 28.5333 39.0988 28.6036 39.0302 28.6739C 38.9532 28.7518 38.8755 28.8298 38.7955 28.907C 38.7239 28.9765 38.6508 29.0446 38.576 29.1125C 38.4922 29.1882 38.4069 29.2639 38.3201 29.3387C 38.2416 29.406 38.1624 29.4725 38.0815 29.5382C 37.9908 29.6123 37.8987 29.6849 37.8049 29.7575C 37.7212 29.8225 37.6357 29.8875 37.549 29.9509C 37.4521 30.0219 37.3531 30.0922 37.2533 30.1618C 37.1626 30.2244 37.0712 30.2871 36.9783 30.349C 36.8754 30.4171 36.7703 30.4843 36.6636 30.5515C 36.5675 30.6127 36.4708 30.6722 36.3717 30.7319C 36.2628 30.7968 36.1515 30.861 36.0396 30.9252C 35.9374 30.9833 35.8346 31.0414 35.7294 31.0987C 35.6151 31.1613 35.4978 31.2225 35.3804 31.2836C 35.2729 31.3394 35.1648 31.3952 35.0551 31.4495C 34.9331 31.5098 34.8097 31.5687 34.6855 31.6267L 34.6785 31.63C 34.5687 31.6816 34.4591 31.7333 34.3472 31.7834C 34.2476 31.8286 34.1456 31.8723 34.0435 31.9161L 33.9609 31.9515L 33.8472 31.9996C 33.7671 32.0334 33.687 32.0673 33.6058 32.1005C 33.4747 32.1541 33.3407 32.206 33.2065 32.2579L 33.1455 32.2816C 33.0431 32.3212 32.9403 32.3611 32.8354 32.3994C 32.7238 32.4407 32.6099 32.4805 32.4957 32.5204L 32.4203 32.5468L 32.3397 32.5749C 32.2393 32.61 32.1384 32.6453 32.0363 32.679C 31.9119 32.7203 31.7859 32.7599 31.6591 32.7998L 31.6034 32.8173L 31.5935 32.8204C 31.4666 32.8607 31.3396 32.9009 31.2102 32.9396C 31.0902 32.9758 30.9681 33.0101 30.8462 33.0444L 30.757 33.0695L 30.6483 33.1C 30.5508 33.1275 30.4535 33.1549 30.3546 33.1811C 30.2317 33.2137 30.1068 33.2449 29.9816 33.2762L 29.8914 33.2988C 29.7527 33.3339 29.614 33.3691 29.473 33.4027C 29.3497 33.4315 29.2251 33.4589 29.1002 33.4863L 28.9976 33.5089L 28.8639 33.5385C 28.7654 33.5604 28.6667 33.5824 28.567 33.6029C 28.4169 33.634 28.2633 33.6632 28.1108 33.6923L 28.0741 33.6992L 27.9313 33.7267C 27.8346 33.7455 27.7378 33.7643 27.6398 33.7817C 27.5153 33.8043 27.3895 33.8246 27.2634 33.8452L 27.1277 33.8673L 27.0428 33.8816C 26.925 33.9014 26.8071 33.9213 26.6874 33.9391C 26.5607 33.9586 26.4327 33.976 26.3046 33.9934L 26.1593 34.0133L 25.9938 34.0363C 25.9016 34.0493 25.8093 34.0622 25.7158 34.0737C 25.5858 34.09 25.4545 34.1044 25.323 34.1189L 25.1649 34.1364C 25.1101 34.1423 25.0557 34.1486 25.0011 34.1548C 24.9083 34.1655 24.8156 34.1761 24.7214 34.1852C 24.5714 34.2 24.4196 34.2127 24.2676 34.2255L 24.1561 34.2349L 24.0403 34.2451C 23.9301 34.2549 23.8201 34.2646 23.7089 34.2731C 23.5569 34.2845 23.4033 34.2933 23.2496 34.3021L 23.0909 34.3113L 22.9568 34.3199C 22.8654 34.3259 22.7738 34.3319 22.6818 34.3365C 22.6035 34.3406 22.5245 34.3433 22.4456 34.3461L 22.3274 34.3503C 22.2642 34.3531 22.2004 34.3552 22.1371 34.3574L 22.1187 34.358L 22.0458 34.3607L 21.9762 34.3633L 21.8407 34.3683C 21.7721 34.371 21.7035 34.3737 21.634 34.3755C 21.2828 34.3839 20.9293 34.3885 20.5726 34.3885C 20.0637 34.3885 19.5624 34.3763 19.064 34.3587L 18.8719 34.3518L 18.8236 34.3499L 18.7744 34.348L 18.7665 34.3478ZM 32.002 26.4356L 32.002 31.0375C 32.5322 30.8495 33.0397 30.6486 33.525 30.4369L 33.525 25.8448C 33.4558 25.8745 33.3877 25.905 33.3197 25.9354C 33.209 25.9849 33.0984 26.0343 32.9833 26.0803C 32.791 26.1569 32.5909 26.2269 32.3909 26.297C 32.3096 26.3254 32.2283 26.3539 32.1475 26.3829L 32.002 26.4356ZM 29.0568 27.2997C 28.9673 27.3198 28.8779 27.3398 28.7888 27.3603C 28.7166 27.377 28.6445 27.3942 28.5726 27.4115C 28.4465 27.4418 28.3203 27.4721 28.1914 27.4993L 28.1914 32.0921C 28.9816 31.9271 29.745 31.7383 30.4773 31.5266L 30.4773 26.9224C 30.3883 26.9482 30.3002 26.9749 30.2122 27.0015C 30.0574 27.0484 29.9027 27.0953 29.7435 27.1371C 29.5188 27.196 29.2878 27.2479 29.0568 27.2997ZM 35.0497 25.2901L 35.0497 29.6949C 35.6014 29.3938 36.1104 29.0767 36.5736 28.745L 36.5736 24.7834C 36.0814 24.963 35.5747 25.1326 35.0497 25.2901ZM 24.8306 28.0328C 24.6783 28.0529 24.5262 28.0731 24.3717 28.0886C 24.226 28.1029 24.0785 28.1128 23.9308 28.1227C 23.827 28.1296 23.7231 28.1365 23.6198 28.1451L 23.6198 32.7402L 23.6525 32.7379C 23.7866 32.7272 23.9199 32.7157 24.0532 32.7035C 24.4556 32.6683 24.8541 32.6271 25.248 32.5797C 25.38 32.5635 25.5104 32.5454 25.6406 32.5273L 25.7867 32.5071C 26.0183 32.4758 26.2477 32.4413 26.4755 32.4062L 26.5719 32.3905L 26.6683 32.3749L 26.6683 27.7791C 26.6035 27.7898 26.5397 27.8017 26.4758 27.8135C 26.3901 27.8295 26.3046 27.8454 26.2172 27.8585C 25.9366 27.9011 25.651 27.9341 25.3657 27.9672L 25.1177 27.9961C 25.0216 28.0076 24.9261 28.0202 24.8306 28.0328ZM 39.2458 25.7371C 39.4904 25.1838 39.6215 24.6138 39.6215 24.0322L 39.6215 23.4155C 39.1406 23.6799 38.6309 23.9306 38.0975 24.1683L 38.0975 27.426C 38.1014 27.4217 38.1057 27.4175 38.11 27.4135C 38.1141 27.4095 38.1182 27.4056 38.1219 27.4016C 38.1516 27.3699 38.1788 27.3377 38.2062 27.3055C 38.2231 27.2855 38.2401 27.2655 38.2576 27.2457C 38.6362 26.807 38.9502 26.3523 39.1765 25.8808L 39.2458 25.7371ZM 13.7151 37.9275C 13.1893 37.7441 12.6812 37.5485 12.1912 37.3413L 12.1912 41.8997C 12.6774 42.1114 13.1848 42.3124 13.7151 42.5004L 13.7151 37.9275ZM 17.5249 38.9775C 16.7355 38.8132 15.9766 38.6191 15.239 38.4074L 15.239 42.9902C 15.9712 43.2019 16.7347 43.3907 17.5249 43.5557L 17.5249 38.9775ZM 19.2482 39.2859C 19.1812 39.2768 19.1143 39.2676 19.0488 39.2571L 19.0488 43.8385C 20.0339 43.999 21.0519 44.122 22.0966 44.2037L 22.0966 39.6194C 22.017 39.6129 21.9381 39.6057 21.8594 39.5983L 21.7042 39.5842C 21.41 39.5575 21.1183 39.5284 20.8279 39.4956C 20.5361 39.4627 20.248 39.426 19.9608 39.3871C 19.7772 39.3626 19.5935 39.3366 19.4115 39.3091C 19.3574 39.3009 19.3027 39.2934 19.2482 39.2859ZM 43.4312 16.3911L 43.4312 13.9763L 43.4156 13.994C 43.4076 14.0029 43.3993 14.0121 43.3916 14.0221C 43.2224 14.2338 43.0411 14.4424 42.8468 14.6472C 42.8204 14.675 42.7926 14.7029 42.7648 14.7308C 42.7476 14.748 42.7302 14.7652 42.7134 14.7825C 42.542 14.9575 42.3615 15.1294 42.1716 15.2991C 42.1515 15.3168 42.1317 15.335 42.1118 15.3531C 42.0874 15.3754 42.0629 15.3978 42.0376 15.4198L 42.006 15.4472C 41.9733 15.4755 41.9408 15.5036 41.9073 15.5314L 41.9073 19.7887C 42.8864 18.7372 43.4312 17.587 43.4312 16.3911ZM 43.4312 9.93445C 43.4312 5.22095 35.0642 1.52838 24.3824 1.52838C 13.7007 1.52838 5.33362 5.22095 5.33362 9.93445C 5.33362 14.8199 14.2347 19.1047 24.3824 19.1047C 34.53 19.1047 43.4312 14.8199 43.4312 9.93445ZM 3.80981 16.3903L 3.80981 13.5521C 2.60205 14.5402 1.52393 15.8928 1.52393 17.5764C 1.52393 22.4618 10.425 26.7466 20.5726 26.7466C 21.1891 26.7466 21.8018 26.7313 22.4089 26.7031L 22.366 26.7004L 22.3229 26.6977C 22.2402 26.6935 22.1583 26.6885 22.0765 26.6835L 21.9175 26.674L 21.9062 26.6734C 21.7074 26.6621 21.5085 26.6509 21.3118 26.6366C 21.2174 26.63 21.124 26.6221 21.0305 26.6141L 20.8873 26.6022C 20.6953 26.5861 20.5033 26.5701 20.3129 26.5518C 20.2056 26.5414 20.0991 26.5298 19.9926 26.5181L 19.8877 26.5067C 19.7032 26.4868 19.5189 26.4662 19.3361 26.444C 19.192 26.4265 19.0496 26.4073 18.9071 26.3882C 18.7295 26.3645 18.552 26.3401 18.3767 26.3141C 18.2343 26.2927 18.0925 26.2705 17.9515 26.2476C 17.7794 26.2201 17.6072 26.1918 17.4373 26.162C 17.2963 26.1376 17.1561 26.1116 17.0166 26.0856C 16.8497 26.0543 16.6852 26.0222 16.5206 25.9885C 16.3827 25.9603 16.2448 25.932 16.1077 25.9022C 15.9453 25.8671 15.7845 25.8304 15.6245 25.7937C 15.4889 25.7623 15.3541 25.731 15.2207 25.6982C 15.0647 25.6604 14.9109 25.6203 14.7571 25.5802L 14.7521 25.5789L 14.6785 25.5596C 14.5723 25.5319 14.4664 25.5042 14.3612 25.475C 14.2073 25.4322 14.0549 25.3879 13.9033 25.3436L 13.8695 25.3337C 13.7549 25.3003 13.64 25.2668 13.5269 25.232C 13.3752 25.1854 13.2267 25.1373 13.0774 25.0883L 13.0055 25.0651C 12.9092 25.0341 12.8131 25.0031 12.7185 24.9706C 12.6041 24.9314 12.4916 24.8909 12.379 24.8503L 12.2758 24.8132L 12.1895 24.7823C 12.1052 24.7523 12.0211 24.7223 11.9382 24.691C 11.8182 24.6456 11.701 24.5988 11.5841 24.5521L 11.4917 24.5152L 11.3823 24.4719C 11.3168 24.446 11.2511 24.4202 11.187 24.3937C 11.0375 24.3314 10.8926 24.2673 10.7474 24.2029L 10.7123 24.1874C 10.6757 24.1711 10.6387 24.1551 10.6018 24.1391C 10.5555 24.1191 10.5095 24.0992 10.4646 24.0789C 10.2314 23.9719 10.0029 23.8625 9.77966 23.7502C 9.74219 23.7315 9.70605 23.7122 9.66968 23.6928L 9.60059 23.6562L 9.59546 23.6536C 9.43567 23.5712 9.27576 23.4887 9.12134 23.4033C 9.07007 23.3751 9.02063 23.3461 8.97107 23.3172C 8.93726 23.2974 8.90344 23.2776 8.86914 23.2581L 8.776 23.2045C 8.68127 23.1502 8.58704 23.0961 8.49573 23.0403C 8.43994 23.0065 8.38599 22.9719 8.33215 22.9372L 8.23743 22.8768C 8.12463 22.8057 8.01196 22.7346 7.90369 22.662C 7.83984 22.6195 7.77844 22.5761 7.7168 22.5325L 7.65222 22.4871L 7.64612 22.4828C 7.54541 22.4124 7.44458 22.3419 7.34753 22.27C 7.27661 22.218 7.2085 22.1648 7.14026 22.1115L 7.10742 22.0858L 7.04919 22.0403C 6.97412 21.9816 6.89917 21.923 6.82703 21.8635C 6.77124 21.8174 6.71692 21.7705 6.66284 21.7238L 6.60156 21.6709C 6.51392 21.596 6.42786 21.5196 6.34399 21.4432C 6.27417 21.3798 6.2074 21.3151 6.1405 21.2503L 6.13525 21.2452C 6.05518 21.1673 5.97595 21.0894 5.89978 21.0106C 5.83423 20.9426 5.77026 20.8746 5.70776 20.8058C 5.63464 20.7263 5.56372 20.6469 5.49524 20.5659C 5.43579 20.4955 5.37708 20.4252 5.32068 20.3549C 5.25513 20.2732 5.19275 20.1906 5.13098 20.1081C 5.07837 20.037 5.02588 19.9652 4.97632 19.8934C 4.91833 19.8085 4.86279 19.7237 4.80872 19.6381C 4.76294 19.5663 4.71729 19.4937 4.67456 19.4211C 4.62354 19.334 4.57629 19.2461 4.52905 19.1575L 4.52429 19.1485C 4.48706 19.0789 4.44983 19.0092 4.41553 18.9389C 4.37207 18.8488 4.3324 18.757 4.29358 18.6661L 4.26917 18.6094C 4.24573 18.5552 4.22229 18.501 4.20142 18.446C 4.16479 18.3513 4.13354 18.2557 4.10229 18.1602L 4.07935 18.0918C 4.06274 18.043 4.04626 17.9944 4.03223 17.9454C 4.0072 17.8577 3.98682 17.7689 3.96643 17.6803L 3.95679 17.6382L 3.94141 17.5751C 3.92993 17.5284 3.91846 17.4819 3.90955 17.435C 3.88855 17.3223 3.87427 17.2089 3.85999 17.0954L 3.85925 17.0895C 3.85632 17.0647 3.85254 17.04 3.84875 17.0153C 3.84375 16.9823 3.83875 16.9493 3.83569 16.9161C 3.81885 16.7419 3.80981 16.5668 3.80981 16.3903ZM 1.52393 21.6174L 1.52393 24.0322C 1.52393 25.2281 2.06873 26.3783 3.04785 27.4298L 3.04785 23.1725C 3.00366 23.1358 2.96094 23.0984 2.91675 23.0594C 2.88586 23.033 2.85669 23.0062 2.82727 22.9794L 2.78259 22.9387C 2.59363 22.769 2.41309 22.597 2.24084 22.4221L 2.19153 22.3724C 2.16333 22.3441 2.13501 22.3157 2.10754 22.2868C 1.91406 22.082 1.73193 21.8734 1.56274 21.6617L 1.54639 21.6432C 1.5387 21.6348 1.53101 21.6262 1.52393 21.6174ZM 6.09558 33.0802L 6.09558 35.4951C 6.09558 36.691 6.64038 37.8411 7.61951 38.8919L 7.61951 34.6285C 7.03662 34.1364 6.52075 33.6205 6.09558 33.0802ZM 23.6205 39.7073L 23.6205 44.2909C 24.1241 44.31 24.6316 44.323 25.1444 44.323C 25.6572 44.323 26.1647 44.31 26.6683 44.2909L 26.6683 39.7073C 26.6517 39.708 26.6349 39.7082 26.6179 39.7084C 26.6006 39.7086 26.5831 39.7088 26.5662 39.7096C 26.0961 39.7264 25.6229 39.7379 25.1444 39.7379C 24.6697 39.7379 24.1989 39.7264 23.731 39.7096C 23.7124 39.7088 23.6937 39.7086 23.675 39.7084C 23.6567 39.7082 23.6385 39.708 23.6205 39.7073ZM 44.1931 35.4958L 44.1931 33.081L 44.1782 33.098C 44.17 33.1071 44.1615 33.1165 44.1536 33.1268C 43.9844 33.3385 43.803 33.5471 43.6088 33.752C 43.5824 33.7798 43.5546 33.8077 43.5267 33.8355C 43.5095 33.8527 43.4922 33.8699 43.4753 33.8872C 43.304 34.0622 43.1234 34.2341 42.9336 34.4038C 42.9135 34.4216 42.8937 34.4397 42.8738 34.4578C 42.8494 34.4802 42.8248 34.5026 42.7996 34.5245L 42.7706 34.5496C 42.7371 34.5786 42.7035 34.6076 42.6692 34.6361L 42.6692 38.8934C 43.6483 37.8419 44.1931 36.6918 44.1931 35.4958ZM 14.7407 16.3459L 14.9365 16.2749C 9.93579 14.8038 6.85754 12.285 6.85754 9.93439C 6.85754 6.55365 13.4126 3.0567 24.3824 3.0567C 35.3522 3.0567 41.9072 6.55365 41.9072 9.93439C 41.9072 12.3362 38.6941 14.9154 33.4984 16.3712L 33.5243 16.3811L 33.3163 16.4239C 31.6621 16.8748 29.8136 17.2103 27.8036 17.3922C 26.6301 17.5121 25.4248 17.5763 24.1942 17.5763C 21.8077 17.5763 19.5105 17.3486 17.3694 16.8977L 14.7407 16.3459ZM 19.5928 10.8537C 19.7452 11.8143 20.4485 12.5067 21.6851 12.9109L 22.2756 13.1042L 22.1133 14.518C 22.0554 15.0216 21.6836 15.4564 21.1433 15.6521L 20.6396 15.8347C 21.8093 15.9539 23.0559 16.0219 24.3816 16.0219C 25.379 16.0219 26.3185 15.9745 27.2275 15.905C 27.3029 15.8985 27.3789 15.8934 27.455 15.8882C 27.5659 15.8807 27.6768 15.8732 27.7853 15.8615L 27.226 15.6513C 26.6964 15.4526 26.3323 15.0209 26.2743 14.5241L 26.1113 13.1042L 26.7034 12.9109C 27.9392 12.5067 28.6432 11.8143 28.7957 10.8537L 28.8779 10.334L 29.3915 10.2256C 29.5142 10.1996 29.5964 10.1636 29.6453 10.1346L 29.5325 9.76703C 29.5104 9.72882 29.3435 9.58746 29.0295 9.49805L 28.6951 9.40253L 28.548 9.08618C 28.2349 8.41443 27.4424 7.52112 24.1957 7.52112C 24.083 7.52112 23.9725 7.52338 23.8635 7.52795C 23.161 7.5578 22.1469 7.52643 21.2401 7.22614C 21.1624 7.47369 20.9985 7.66553 20.7479 7.89478C 20.6718 7.96436 20.5773 8.05066 20.4629 8.16681C 20.2031 8.43048 19.9944 8.73694 19.8435 9.07623L 19.6987 9.40179L 19.3566 9.49957C 19.0442 9.58978 18.8788 9.73035 18.8514 9.78082L 18.744 10.1339C 18.7927 10.1629 18.875 10.1996 18.9977 10.2256L 19.5105 10.3348L 19.5928 10.8537ZM 40.3834 9.93439C 40.3834 8.01477 35.036 4.58508 24.3824 4.58508C 13.7288 4.58508 8.38147 8.01477 8.38147 9.93439C 8.38147 11.4811 11.5474 14.1229 17.4807 15.354L 20.6138 14.22L 20.6229 14.1412C 19.0959 13.478 18.4484 12.4578 18.1915 11.5652C 17.8342 11.4078 17.5546 11.1716 17.3816 10.8774C 17.1865 10.5458 17.1423 10.1591 17.2551 9.78918L 17.3992 9.31769C 17.5515 8.8233 17.9896 8.40143 18.6 8.14771C 18.8073 7.76031 19.0686 7.40649 19.3787 7.09161C 19.5106 6.95782 19.6205 6.85693 19.7096 6.77509L 19.7185 6.76685C 19.7305 6.75562 19.7424 6.74512 19.7535 6.73535L 19.7543 6.73474L 19.7518 6.71967L 19.749 6.70111C 19.7162 6.50854 19.7056 6.33276 19.7056 6.1853L 19.7056 5.71454L 20.165 5.45319C 20.4294 5.31946 20.8378 5.28888 21.1548 5.52429C 21.1929 5.55255 21.3163 5.63123 21.6265 5.74438C 22.1765 5.94531 22.9476 6.03625 23.7996 6.00189C 23.9291 5.99652 24.0609 5.99347 24.1942 5.99347C 26.0709 5.99347 28.6448 6.22424 29.7694 8.14008C 30.3896 8.39301 30.8353 8.81866 30.9885 9.31848L 31.1326 9.78918C 31.2461 10.1591 31.201 10.5458 31.0068 10.8774C 30.8339 11.1716 30.5542 11.4078 30.196 11.5652C 29.9393 12.4578 29.2925 13.478 27.7648 14.1412L 27.7738 14.2208L 30.9512 15.4144C 37.0948 14.2139 40.3834 11.5086 40.3834 9.93439Z"/>
</defs>
</svg>
