<svg xmlns="http://www.w3.org/2000/svg" viewBox="-42 232 49 49">
    <g id="icon-fav-people-line" transform="translate(6563 1511)">
        <path id="Union_19" d="M-6264.348-1713.15a.781.781 0 0 1-.312-.746l.64-4.3-3.045-3.1a.787.787 0 0 1-.187-.791.777.777 0 0 1 .612-.529l4.291-.72 2.009-3.855a.786.786 0 0 1 .693-.423.783.783 0 0 1 .694.423l2.012 3.855 4.287.72a.776.776 0 0 1 .613.529.784.784 0 0 1-.185.791l-3.047 3.1.643 4.3a.789.789 0 0 1-.312.746.792.792 0 0 1-.463.149.773.773 0 0 1-.348-.081l-3.895-1.937-3.894 1.937a.773.773 0 0 1-.347.082.785.785 0 0 1-.459-.15zm5.051-3.445l2.9 1.443-.478-3.2a.78.78 0 0 1 .217-.662l2.269-2.312-3.193-.536a.786.786 0 0 1-.563-.41l-1.5-2.87-1.5 2.87a.787.787 0 0 1-.564.41l-3.192.536 2.269 2.312a.781.781 0 0 1 .214.662l-.475 3.2 2.9-1.443a.773.773 0 0 1 .349-.081.777.777 0 0 1 .344.082zm-21.9 3.445a.781.781 0 0 1-.315-.746l.642-4.3-3.047-3.1a.786.786 0 0 1-.185-.791.781.781 0 0 1 .614-.529l4.286-.72 2.012-3.855a.788.788 0 0 1 .694-.423.788.788 0 0 1 .694.423l2.008 3.855 4.291.72a.781.781 0 0 1 .613.529.781.781 0 0 1-.187.791l-3.044 3.1.639 4.3a.775.775 0 0 1-.312.746.772.772 0 0 1-.459.149.777.777 0 0 1-.349-.081l-3.894-1.937-3.894 1.937a.789.789 0 0 1-.348.082.783.783 0 0 1-.462-.15zm5.05-3.445l2.9 1.443-.478-3.2a.783.783 0 0 1 .217-.662l2.267-2.312-3.192-.536a.793.793 0 0 1-.565-.41l-1.5-2.87-1.5 2.87a.79.79 0 0 1-.562.41l-3.2.536 2.27 2.312a.789.789 0 0 1 .217.662l-.479 3.2 2.9-1.443a.776.776 0 0 1 .349-.081.773.773 0 0 1 .353.082zm-21.906 3.445a.783.783 0 0 1-.312-.746l.643-4.3-3.048-3.1a.787.787 0 0 1-.187-.791.783.783 0 0 1 .617-.529l4.287-.72 2.012-3.855a.783.783 0 0 1 .691-.423.781.781 0 0 1 .693.423l2.012 3.855 4.287.72a.783.783 0 0 1 .616.529.8.8 0 0 1-.187.791l-3.048 3.1.642 4.3a.777.777 0 0 1-.312.746.772.772 0 0 1-.462.149.789.789 0 0 1-.349-.081l-3.893-1.937-3.892 1.937a.787.787 0 0 1-.349.082.786.786 0 0 1-.465-.15zm5.05-3.445l2.9 1.443-.474-3.2a.771.771 0 0 1 .212-.662l2.27-2.312-3.192-.536a.791.791 0 0 1-.565-.41l-1.5-2.87-1.5 2.87a.787.787 0 0 1-.564.41l-3.193.536 2.27 2.312a.769.769 0 0 1 .214.662l-.475 3.2 2.9-1.443a.778.778 0 0 1 .349-.083.757.757 0 0 1 .344.084zm7.067-14.28h-3.129a.781.781 0 0 1-.78-.781 13.365 13.365 0 0 1 13.35-13.35 13.363 13.363 0 0 1 13.347 13.35.78.78 0 0 1-.781.781zm21.2-1.562a11.8 11.8 0 0 0-11.758-11 11.8 11.8 0 0 0-11.759 11h23.517zm-19.475-21.847a7.725 7.725 0 0 1 7.711-7.716 7.722 7.722 0 0 1 7.713 7.716 7.722 7.722 0 0 1-7.713 7.716 7.725 7.725 0 0 1-7.716-7.716zm1.566 0a6.158 6.158 0 0 0 6.15 6.154 6.158 6.158 0 0 0 6.15-6.154 6.157 6.157 0 0 0-6.15-6.15 6.157 6.157 0 0 0-6.154 6.15zm3.475 2.324a.782.782 0 0 1 .076-1.1.783.783 0 0 1 1.1.078 1.98 1.98 0 0 0 1.5.685 1.98 1.98 0 0 0 1.5-.685.782.782 0 0 1 1.1-.078.784.784 0 0 1 .077 1.1 3.557 3.557 0 0 1-2.676 1.22 3.545 3.545 0 0 1-2.682-1.22z" data-name="Union 19" transform="translate(-303.999 483.001)"/>
    </g>
</svg>
