<svg xmlns="http://www.w3.org/2000/svg" viewBox="621 -19 47 47">
    <g id="icon-add-photo" transform="translate(7229 1768)">
        <path id="Union_14" d="M-6924.208-2017.858h-16.917s-5.875 0-5.875-5.856v-17.572c0-5.856 5.875-5.856 5.875-5.856h5.875l5.874-5.858h11.751l5.875 5.858h5.874s5.875 0 5.875 5.856v17.572a7.3 7.3 0 0 1-.828 3.091 13.216 13.216 0 0 1-12.391 8.623 13.217 13.217 0 0 1-10.988-5.858zm.877-7.321a10.116 10.116 0 0 0 10.112 10.079 10.117 10.117 0 0 0 10.11-10.079 10.119 10.119 0 0 0-10.11-10.082 10.118 10.118 0 0 0-10.112 10.083zm-8.981-7.321a8.768 8.768 0 0 0 5.923 8.287c-.023-.321-.049-.64-.049-.966a13.177 13.177 0 0 1 9.851-12.731 8.787 8.787 0 0 0-6.913-3.377 8.8 8.8 0 0 0-8.812 8.787zm17.625 14.642v-5.856h-5.875v-2.929h5.875v-5.856h2.939v5.856h5.872v2.929h-5.872v5.856z" data-name="Union 14" transform="translate(339 269.001)"/>
    </g>
</svg>
