<svg xmlns="http://www.w3.org/2000/svg" viewBox="625 657 41 41">
    <defs>
        <style>
            .cls-1{fill:none}.cls-2,.cls-3{fill:#f1a93b;fill-rule:evenodd}.cls-3{fill:#2a3143}
        </style>
    </defs>
    <g id="menu_box" transform="translate(6855 1027)">
        <g id="Group_12" data-name="Group 12">
            <path id="Path_191" d="M24.2 7.449L26.691 0h-24.2L0 7.449zM35.642 0l2.516 7.942h-6.44L28.481 0zm-10.53 8.429a.6.6 0 0 1-.532.442H2.869V27.16h23.978V3.216zM11.9 24.177H5.427v-6.468H11.9z" class="cls-2" data-name="Path 191" transform="translate(-6228.57 -362.584)"/>
            <path id="Path_192" d="M40.959 9.808a.84.84 0 0 1-.076.687.549.549 0 0 1-.458.289h-2.4V29.29a.653.653 0 0 1-.573.71H3.537a.653.653 0 0 1-.573-.71v-19H.569A.55.55 0 0 1 .11 10a.847.847 0 0 1-.066-.687L3.023.442A.588.588 0 0 1 3.553 0h33.92a.6.6 0 0 1 .534.458zm-1.375-.458l-2.521-7.939H29.9l3.239 7.939zm-2.957 19.218v-17.8h-3.834a.582.582 0 0 1-.511-.392l-2.661-6.528v24.72zm-8.345 0V4.632l-1.744 5.213a.6.6 0 0 1-.532.442H4.3v18.288zm-2.657-19.7l2.495-7.446H3.917L1.426 8.869zm-6.141 12.746h-3.816a.641.641 0 1 1 0-1.283h3.816a.641.641 0 1 1 0 1.283zm-3.816 2.978h8.48a.641.641 0 1 0 0-1.283h-8.48a.641.641 0 1 0 0 1.283zm18.766 0h-2.556a.641.641 0 1 1 0-1.283h2.556a.641.641 0 1 1 0 1.283zm-22 .529V19.8H7.362v5.321zm-5.618-6.6h6.168a.733.733 0 0 1 .733.733v6.414a.733.733 0 0 1-.733.733H6.811a.733.733 0 0 1-.733-.733V19.25a.733.733 0 0 1 .733-.733z" class="cls-3" data-name="Path 192" transform="translate(-6230 -364)"/>
        </g>
    </g>
</svg>
