<svg xmlns="http://www.w3.org/2000/svg" viewBox="288 -83 38 38">
    <g id="icon-calendar" transform="translate(6543 1928)">
        <path id="Union_5" d="M-6282.835-2181a3.159 3.159 0 0 1-2.237-.928 3.166 3.166 0 0 1-.927-2.237v-28.109a3.17 3.17 0 0 1 .927-2.239 3.166 3.166 0 0 1 2.237-.927h5.146v-2.373a1.184 1.184 0 0 1 .347-.839 1.186 1.186 0 0 1 .839-.349 1.192 1.192 0 0 1 .839.349 1.184 1.184 0 0 1 .347.839v2.373h7.125v-2.373a1.191 1.191 0 0 1 .347-.839 1.192 1.192 0 0 1 .839-.349 1.186 1.186 0 0 1 .839.349 1.186 1.186 0 0 1 .349.839v2.373h7.125v-2.373a1.184 1.184 0 0 1 .347-.839 1.186 1.186 0 0 1 .839-.349 1.188 1.188 0 0 1 .839.349 1.184 1.184 0 0 1 .347.839v2.373h5.148a3.2 3.2 0 0 1 1.213.238 3.165 3.165 0 0 1 1.03.686 3.164 3.164 0 0 1 .688 1.027 3.156 3.156 0 0 1 .243 1.215v28.109a3.164 3.164 0 0 1-.928 2.237 3.157 3.157 0 0 1-2.237.928zm-.549-31.833a.791.791 0 0 0-.231.56v28.109a.788.788 0 0 0 .231.559.784.784 0 0 0 .559.233h31.667a.8.8 0 0 0 .554-.237.794.794 0 0 0 .227-.555v-28.109a.783.783 0 0 0-.232-.56.789.789 0 0 0-.559-.232h-5.146v2.374a1.179 1.179 0 0 1-.349.838 1.18 1.18 0 0 1-.838.349 1.181 1.181 0 0 1-.839-.349 1.185 1.185 0 0 1-.347-.838v-2.374h-7.126v2.374a1.186 1.186 0 0 1-.347.838 1.183 1.183 0 0 1-.839.349 1.181 1.181 0 0 1-.839-.349 1.186 1.186 0 0 1-.347-.838v-2.374h-7.125v2.374a1.186 1.186 0 0 1-.347.838 1.181 1.181 0 0 1-.839.349 1.183 1.183 0 0 1-.839-.349 1.186 1.186 0 0 1-.347-.838v-2.374h-5.146a.789.789 0 0 0-.556.231zm22.318 23.523v-3.563h4.75v3.563zm-8.311 0v-3.563h4.75v3.563zm-8.312 0v-3.563h4.75v3.563zm16.623-5.938v-3.564h4.75v3.564zm-8.311 0v-3.564h4.75v3.564zm-8.312 0v-3.564h4.75v3.564zm16.623-5.939v-3.562h4.75v3.562zm-8.311 0v-3.562h4.75v3.562zm-8.312 0v-3.562h4.75v3.562z" data-name="Union 5" transform="translate(30.999 208.001)"/>
    </g>
</svg>
