<svg xmlns="http://www.w3.org/2000/svg" viewBox="-125 97 49 49">
    <defs>
        <style>
            .cls-1{fill:#e8c41e}.cls-2{fill:none}
        </style>
    </defs>
    <g id="icon-first" transform="translate(6541 1717)">
        <g id="Vector" transform="translate(-2.18 -13.001)">
            <path id="Union_15" d="M-6257.361-1959.021a.807.807 0 0 1-.593-.569l-3.456-12.39a2.82 2.82 0 0 1-.308.019 2.826 2.826 0 0 1-.307-.019l-3.455 12.39a.806.806 0 0 1-.592.569.79.79 0 0 1-.183.021.809.809 0 0 1-.6-.266l-3.487-3.888-4.994 1.522a.809.809 0 0 1-.8-.194.805.805 0 0 1-.213-.793l2.953-10.59a.8.8 0 0 1 .991-.559.806.806 0 0 1 .56.993l-2.558 9.173 4.08-1.243a.807.807 0 0 1 .835.233l2.849 3.175 3.087-11.077a11.835 11.835 0 0 1-1.45-1.053 6.163 6.163 0 0 0-1.691-1.111 6.435 6.435 0 0 0-2.113-.112 5.328 5.328 0 0 1-3.508-.613 5.444 5.444 0 0 1-1.675-3.169 6.29 6.29 0 0 0-.746-1.953 6.252 6.252 0 0 0-1.609-1.292 5.448 5.448 0 0 1-2.518-2.594 5.282 5.282 0 0 1 .5-3.484 6.445 6.445 0 0 0 .556-2.087 6.465 6.465 0 0 0-.556-2.086 5.285 5.285 0 0 1-.5-3.483 5.44 5.44 0 0 1 2.518-2.594 6.254 6.254 0 0 0 1.609-1.292 6.3 6.3 0 0 0 .746-1.954 5.448 5.448 0 0 1 1.675-3.169 5.329 5.329 0 0 1 3.508-.613 6.4 6.4 0 0 0 2.113-.11 6.135 6.135 0 0 0 1.693-1.117 5.484 5.484 0 0 1 3.282-1.6 5.484 5.484 0 0 1 3.281 1.6 6.061 6.061 0 0 0 1.691 1.111 6.391 6.391 0 0 0 2.113.112 5.328 5.328 0 0 1 3.508.613 5.443 5.443 0 0 1 1.675 3.169 6.314 6.314 0 0 0 .745 1.954 6.266 6.266 0 0 0 1.609 1.292 5.438 5.438 0 0 1 2.518 2.594 5.288 5.288 0 0 1-.5 3.483 6.452 6.452 0 0 0-.556 2.086 6.464 6.464 0 0 0 .555 2.087 5.289 5.289 0 0 1 .5 3.483 5.448 5.448 0 0 1-2.518 2.6 6.261 6.261 0 0 0-1.609 1.291 6.365 6.365 0 0 0-.747 1.954 6.387 6.387 0 0 1-1.3 2.837l3.657 13.116a.8.8 0 0 1-.212.793.808.808 0 0 1-.8.194l-5-1.522-3.486 3.886a.8.8 0 0 1-.6.268.793.793 0 0 1-.167-.022zm.618-15.656a6.1 6.1 0 0 0-1.691 1.111 11.71 11.71 0 0 1-1.452 1.053l3.089 11.077 2.849-3.175a.805.805 0 0 1 .834-.233l4.082 1.243-3.153-11.31a8.24 8.24 0 0 1-2.444.123c-.322-.015-.636-.03-.934-.03a3.9 3.9 0 0 0-1.18.141zm-9.447-1.532a7.308 7.308 0 0 1 2.206 1.39 4.272 4.272 0 0 0 2.269 1.248 4.28 4.28 0 0 0 2.268-1.248 7.308 7.308 0 0 1 2.206-1.39 7.583 7.583 0 0 1 2.687-.189 4.247 4.247 0 0 0 2.483-.306 4.264 4.264 0 0 0 1.068-2.29 7.5 7.5 0 0 1 1-2.479 7.433 7.433 0 0 1 2.031-1.694c.848-.552 1.648-1.073 1.866-1.741a4.235 4.235 0 0 0-.475-2.416 7.7 7.7 0 0 1-.66-2.657 7.709 7.709 0 0 1 .659-2.655 4.228 4.228 0 0 0 .476-2.416c-.218-.668-1.018-1.19-1.866-1.743a7.426 7.426 0 0 1-2.031-1.693 7.493 7.493 0 0 1-1-2.48 4.263 4.263 0 0 0-1.068-2.288 4.257 4.257 0 0 0-2.483-.307 7.544 7.544 0 0 1-2.687-.187 7.31 7.31 0 0 1-2.206-1.39 4.264 4.264 0 0 0-2.268-1.248 4.268 4.268 0 0 0-2.269 1.248 7.31 7.31 0 0 1-2.206 1.39 7.582 7.582 0 0 1-2.687.189 4.244 4.244 0 0 0-2.483.306 4.26 4.26 0 0 0-1.069 2.29 7.5 7.5 0 0 1-1 2.479 7.4 7.4 0 0 1-2.031 1.693c-.848.553-1.648 1.075-1.866 1.743a4.2 4.2 0 0 0 .476 2.416 7.7 7.7 0 0 1 .659 2.655 7.717 7.717 0 0 1-.659 2.657 4.2 4.2 0 0 0-.476 2.416c.217.668 1.018 1.19 1.866 1.741a7.44 7.44 0 0 1 2.031 1.694 7.5 7.5 0 0 1 1 2.479 4.26 4.26 0 0 0 1.069 2.29 4.245 4.245 0 0 0 2.483.306 21.16 21.16 0 0 1 1.008-.031 5.425 5.425 0 0 1 1.679.218zm-7.174-13.772a11.662 11.662 0 0 1 11.649-11.647 11.675 11.675 0 0 1 8.638 3.834.807.807 0 0 1-.057 1.138.8.8 0 0 1-1.138-.057 10.061 10.061 0 0 0-7.443-3.3 10.048 10.048 0 0 0-10.037 10.037 10.048 10.048 0 0 0 10.037 10.037 10.048 10.048 0 0 0 10.036-10.037 9.949 9.949 0 0 0-.919-4.2.806.806 0 0 1 .394-1.068.805.805 0 0 1 1.068.394 11.556 11.556 0 0 1 1.068 4.876 11.66 11.66 0 0 1-11.647 11.647 11.661 11.661 0 0 1-11.649-11.654z" class="cls-1" data-name="Union 15" transform="translate(-377.82 401)"/>
            <path id="Path_280" d="M7.307 14.89h1.758V9.832q0-.294.018-.618l-1.248 1.044a.438.438 0 0 1-.162.09.528.528 0 0 1-.156.024.515.515 0 0 1-.222-.048.442.442 0 0 1-.144-.12l-.468-.642 2.646-2.25h1.218v7.578h1.56V16h-4.8zm7.687-7.674a2.285 2.285 0 0 1 .792.132 1.762 1.762 0 0 1 .618.378 1.582 1.582 0 0 1 .4.594 2.039 2.039 0 0 1 .144.786 2.148 2.148 0 0 1-.144.8 1.7 1.7 0 0 1-.4.606 1.762 1.762 0 0 1-.618.378 2.285 2.285 0 0 1-.792.132 2.373 2.373 0 0 1-.81-.132 1.677 1.677 0 0 1-1.02-.984 2.148 2.148 0 0 1-.144-.8 2.039 2.039 0 0 1 .144-.786 1.644 1.644 0 0 1 .4-.594 1.762 1.762 0 0 1 .618-.378 2.373 2.373 0 0 1 .812-.132zm0 2.946a.7.7 0 0 0 .594-.252 1.3 1.3 0 0 0 .2-.792 1.269 1.269 0 0 0-.2-.786.7.7 0 0 0-.594-.252.745.745 0 0 0-.624.252 1.3 1.3 0 0 0-.192.786 1.328 1.328 0 0 0 .192.792.745.745 0 0 0 .624.252z" class="cls-1" data-name="Path 280" transform="translate(-6650 -1601)"/>
        </g>
    </g>
</svg>
