<svg width="32" height="38" viewBox="0 0 32 38" version="1.1" xmlns="http://www.w3.org/2000/svg" xmlns:xlink="http://www.w3.org/1999/xlink">
<title>icn_person</title>
<desc>Created using Figma</desc>
<g id="Canvas" transform="translate(4928 1755)">
<g id="icn_person">
<g id="Vector">
<use xlink:href="#path0_fill" transform="translate(-4928 -1755)"/>
<use xlink:href="#path1_fill" transform="translate(-4928 -1755)"/>
</g>
</g>
</g>
<defs>
<path id="path0_fill" d="M 16.1363 20.4755C 16.0974 20.4755 16.0584 20.4755 16.0117 20.4755C 15.9961 20.4755 15.9805 20.4755 15.965 20.4755C 15.9416 20.4755 15.9104 20.4755 15.8871 20.4755C 13.6044 20.4362 11.7581 19.6256 10.3947 18.0754C 7.39538 14.6602 7.89397 8.80557 7.9485 8.24686C 8.14327 4.05261 10.1065 2.04598 11.7269 1.10955C 12.9344 0.409196 14.3445 0.0314766 15.9182 0L 15.9727 0C 15.9805 0 15.9961 0 16.0039 0L 16.0507 0C 16.9154 0 18.6137 0.141645 20.242 1.07807C 21.878 2.0145 23.8723 4.02113 24.0671 8.24686C 24.1216 8.80557 24.6202 14.6602 21.6209 18.0754C 20.2653 19.6256 18.419 20.4362 16.1363 20.4755ZM 21.987 8.44359C 21.987 8.41998 21.9792 8.39638 21.9792 8.38064C 21.7222 2.73846 17.7568 2.13254 16.0584 2.13254L 16.0273 2.13254C 16.0117 2.13254 15.9883 2.13254 15.965 2.13254C 13.8615 2.17975 10.2857 3.04536 10.0442 8.38064C 10.0442 8.40425 10.0442 8.42785 10.0364 8.44359C 10.0286 8.49868 9.48324 13.8497 11.9606 16.6668C 12.9422 17.7843 14.251 18.3351 15.9727 18.3508C 15.9883 18.3508 15.9961 18.3508 16.0117 18.3508C 16.0273 18.3508 16.0351 18.3508 16.0507 18.3508C 17.7646 18.3351 19.0812 17.7843 20.055 16.6668C 22.5246 13.8654 21.9948 8.49081 21.987 8.44359Z"/>
<path id="path1_fill" d="M 0.00218184 30.1859C 0.00218184 30.1781 0.00218184 30.1702 0.00218184 30.1623C 0.00218184 30.0994 0.00997046 30.0364 0.00997046 29.9656C 0.0567136 28.4075 0.157992 24.7641 3.53908 23.5995C 3.56245 23.5916 3.59361 23.5837 3.61699 23.5759C 7.13051 22.6709 10.052 20.6249 10.0831 20.6013C 10.5583 20.2629 11.2128 20.381 11.5477 20.861C 11.8827 21.341 11.7659 22.002 11.2907 22.3404C 11.1582 22.4348 8.05759 24.6146 4.1779 25.6218C 2.36271 26.275 2.16016 28.2344 2.10562 30.0286C 2.10562 30.0994 2.10562 30.1623 2.09783 30.2253C 2.09004 30.9335 2.13679 32.0273 2.26144 32.6569C 3.5235 33.3808 8.47048 35.8832 15.9961 35.8832C 23.4906 35.8832 28.4688 33.3729 29.7386 32.649C 29.8633 32.0194 29.9178 30.9256 29.9022 30.2174C 29.9022 30.1545 29.8944 30.0915 29.8944 30.0207C 29.8399 28.2265 29.6373 26.2671 27.8222 25.614C 23.9425 24.6067 20.8418 22.4191 20.7094 22.3325C 20.2342 21.9942 20.1173 21.3332 20.4523 20.8531C 20.7873 20.3731 21.4417 20.2551 21.9169 20.5935C 21.9481 20.6171 24.854 22.663 28.3831 23.568C 28.4142 23.5759 28.4376 23.5837 28.461 23.5916C 31.8421 24.7641 31.9433 28.4075 31.9901 29.9577C 31.9901 30.0286 31.9901 30.0915 31.9979 30.1545C 31.9979 30.1623 31.9979 30.1702 31.9979 30.1781C 32.0057 30.5873 32.0135 32.6883 31.6006 33.7428C 31.5227 33.9474 31.3824 34.1205 31.1955 34.2386C 30.9617 34.3959 25.3603 38 15.9883 38C 6.61634 38 1.01495 34.3881 0.781235 34.2386C 0.602052 34.1205 0.454032 33.9474 0.376126 33.7428C -0.0134002 32.6962 -0.00560869 30.5951 0.00218184 30.1859Z"/>
</defs>
</svg>
