<svg xmlns="http://www.w3.org/2000/svg" viewBox="155 232 49 49">
    <defs>
        <style>
            .cls-1{fill:none}
        </style>
    </defs>
    <g id="icon-paycheck-line" transform="translate(6527 1505)">
        <path id="Union_21" d="M-6261.93-1754.986a3.073 3.073 0 0 1-2.17-.895 3.046 3.046 0 0 1-.9-2.156v-19.507a3.046 3.046 0 0 1 .9-2.156 3.09 3.09 0 0 1 2.17-.895h25.718l14.747-14.652a2.606 2.606 0 0 1 1.836-.755 2.606 2.606 0 0 1 1.835.755l1.033 1.024a2.583 2.583 0 0 1 .563.837 2.572 2.572 0 0 1 .2.988 2.562 2.562 0 0 1-.2.986 2.545 2.545 0 0 1-.562.837l-10.045 9.98h7.439a3.087 3.087 0 0 1 2.169.895 3.039 3.039 0 0 1 .9 2.156v19.507a3.044 3.044 0 0 1-.9 2.156 3.075 3.075 0 0 1-2.171.895zm-.91-23.463a1.268 1.268 0 0 0-.375.9v19.507a1.271 1.271 0 0 0 .375.9 1.292 1.292 0 0 0 .91.374h42.563a1.285 1.285 0 0 0 .908-.374 1.272 1.272 0 0 0 .378-.9v-19.5a1.277 1.277 0 0 0-.377-.9 1.289 1.289 0 0 0-.907-.374h-9.226l-11.811 11.737a.935.935 0 0 1-.349.215l-5.164 1.709a.9.9 0 0 1-.487.022.878.878 0 0 1-.427-.237.88.88 0 0 1-.237-.426.879.879 0 0 1 .024-.486l1.72-5.129a.9.9 0 0 1 .217-.346l7.109-7.064h-23.934a1.285 1.285 0 0 0-.909.372zm19.146 7.8l-1.09 3.247 3.269-1.083 19.662-19.535-2.178-2.165zm23.493-23.344l-2.572 2.548 2.178 2.165 2.57-2.553a.81.81 0 0 0 .239-.564.788.788 0 0 0-.06-.308.79.79 0 0 0-.178-.262l-1.031-1.025a.815.815 0 0 0-.573-.235.811.811 0 0 0-.572.239zm-2.148 34.88a.894.894 0 0 1-.631-.26.882.882 0 0 1-.262-.627.886.886 0 0 1 .262-.628.9.9 0 0 1 .631-.258h.583a.9.9 0 0 1 .631.258.884.884 0 0 1 .262.628.88.88 0 0 1-.262.627.891.891 0 0 1-.631.26zm-26.185 0a.9.9 0 0 1-.631-.26.89.89 0 0 1-.261-.627.894.894 0 0 1 .261-.628.9.9 0 0 1 .631-.258h22.29a.9.9 0 0 1 .632.258.888.888 0 0 1 .261.628.883.883 0 0 1-.261.627.894.894 0 0 1-.632.26zm-7.2-2.606v-.637h-.085c-2.22-.035-3.636-1.214-3.636-2.012 0-.407.355-.926.734-.926.188 0 .387.168.637.379a3.632 3.632 0 0 0 2.255 1.007l.093.008v-4.328l-.058-.022c-1.565-.553-3.34-1.179-3.34-3.4 0-2.593 2.322-3.116 3.319-3.22l.079-.008v-.594c0-.155.17-.321.437-.321.222 0 .45.163.45.321v.564h.086c1.382.039 2.851.471 2.851 1.192 0 .321-.239.927-.7.927a1.324 1.324 0 0 1-.521-.185 3.959 3.959 0 0 0-1.622-.473l-.093-.007v3.762l.058.021c1.618.592 3.2 1.364 3.2 3.687a3.376 3.376 0 0 1-3.179 3.577l-.077.011v.68c0 .159-.226.321-.448.321a.4.4 0 0 1-.436-.319zm.779-2.206l.1-.021a1.785 1.785 0 0 0 1.646-1.844 2.161 2.161 0 0 0-1.627-2.072l-.121-.052zm-.764-9.489c-1.173.146-1.793.691-1.793 1.58 0 1.07.8 1.459 1.774 1.823l.116.043v-3.458zm19.348 8.68a.9.9 0 0 1-.631-.26.884.884 0 0 1-.262-.625.889.889 0 0 1 .262-.628.9.9 0 0 1 .631-.26h14.6a.894.894 0 0 1 .632.26.882.882 0 0 1 .261.628.877.877 0 0 1-.261.625.894.894 0 0 1-.632.26z" data-name="Union 21" transform="translate(-106.999 527)"/>
    </g>
</svg>
