<svg xmlns="http://www.w3.org/2000/svg" viewBox="218 -83 38 38">
    <g id="icon-clock" transform="translate(6618 1921)">
        <g id="Group_5" data-name="Group 5" transform="translate(-70 5)">
            <path id="Path_234" d="M5.246 8.918l.414-.392-2.289-2.168L2.28 7.391a.882.882 0 0 1-.287.185.922.922 0 0 1-.68 0 .882.882 0 0 1-.287-.185.832.832 0 0 1-.195-.272.791.791 0 0 1 0-.644.831.831 0 0 1 .195-.275L4.412 3a.922.922 0 0 1 1.254 0 .809.809 0 0 1 0 1.188L4.575 5.217l2.373 2.248.4-.3a18.535 18.535 0 0 1 9.218-3.237l.539-.042V1.662h-3.823a.923.923 0 0 1-.352-.048.889.889 0 0 1-.3-.177.834.834 0 0 1-.2-.276.792.792 0 0 1 0-.659.834.834 0 0 1 .2-.276.889.889 0 0 1 .3-.176.923.923 0 0 1 .352-.05h9.628a.923.923 0 0 1 .352.048.887.887 0 0 1 .3.176.831.831 0 0 1 .2.276.791.791 0 0 1 0 .659.831.831 0 0 1-.2.276.887.887 0 0 1-.3.177.923.923 0 0 1-.352.048h-4.048v2.25l.539.039a18.54 18.54 0 0 1 10.29 4.035 16.934 16.934 0 0 1 5.814 9 16.216 16.216 0 0 1-.886 10.516 17.346 17.346 0 0 1-7.249 8.009 18.8 18.8 0 0 1-10.835 2.436 18.533 18.533 0 0 1-10.274-4.071 16.924 16.924 0 0 1-5.782-9.017A16.217 16.217 0 0 1 1.4 14.344a16.851 16.851 0 0 1 3.846-5.426zm12.776 27.518a16.956 16.956 0 0 0 9.058-2.6 15.658 15.658 0 0 0 6-6.931 14.69 14.69 0 0 0 .928-8.923 15.21 15.21 0 0 0-4.462-7.908A16.6 16.6 0 0 0 21.2 5.843a17.148 17.148 0 0 0-9.42.879 16.146 16.146 0 0 0-7.317 5.689 14.872 14.872 0 0 0-2.748 8.581A15.065 15.065 0 0 0 6.5 31.9a16.8 16.8 0 0 0 11.521 4.529z" data-name="Path 234" transform="translate(-6329 -2009)"/>
            <path id="Path_235" d="M17.181 14.564a.778.778 0 0 1 .261-.53.869.869 0 0 1 1.147 0 .778.778 0 0 1 .261.53v8.157a.734.734 0 0 1-.067.3.768.768 0 0 1-.183.25.815.815 0 0 1-.271.163.847.847 0 0 1-.316.05h-5.941a.856.856 0 0 1-.559-.248.765.765 0 0 1 0-1.088.856.856 0 0 1 .559-.248h5.106v-7.336z" data-name="Path 235" transform="translate(-6329 -2009)"/>
        </g>
    </g>
</svg>
