<svg width="473" height="574" viewBox="0 0 473 574" version="1.1" xmlns="http://www.w3.org/2000/svg" xmlns:xlink="http://www.w3.org/1999/xlink">
<title>Ilustra&#195;&#167;&#195;&#163;o_Recuperar Senha</title>
<desc>Created using Figma</desc>
<g id="Canvas" transform="translate(3455 1134)">
<g id="Ilustra&#195;&#167;&#195;&#163;o_Recuperar Senha">
<mask id="mask0_alpha" mask-type="alpha">
<g id="Rectangle">
<use xlink:href="#path0_fill" transform="translate(-3464 -1145)" fill="#C4C4C4"/>
</g>
</mask>
<g id="Vector" mask="url(#mask0_alpha)">
<use xlink:href="#path1_fill" transform="translate(-3354.76 -1092.68)" fill="#FFC162"/>
</g>
<g id="Group" mask="url(#mask0_alpha)">
<g id="Vector">
<use xlink:href="#path2_fill" transform="translate(-3262.61 -774.143)" fill="#F7CDB9"/>
</g>
<g id="Vector">
<use xlink:href="#path3_fill" transform="translate(-3239.86 -773.765)" fill="#E3B9A5"/>
</g>
</g>
<g id="Group" mask="url(#mask0_alpha)">
<g id="Vector">
<use xlink:href="#path4_fill" transform="translate(-3354.99 -714.216)" fill="#2A3143"/>
</g>
<g id="Group">
<g id="Vector">
<use xlink:href="#path5_fill" transform="translate(-3299.5 -715.393)" fill="#FFFFFF"/>
</g>
<g id="Vector">
<use xlink:href="#path6_fill" transform="translate(-3194.37 -714.771)" fill="#FFFFFF"/>
</g>
</g>
<g id="Group">
<g id="Vector">
<use xlink:href="#path7_fill" transform="translate(-3455 -702.345)" fill="#2A3143"/>
</g>
</g>
<g id="Group">
<g id="Vector">
<use xlink:href="#path8_fill" transform="translate(-3119.54 -712.225)" fill="#2A3143"/>
</g>
</g>
</g>
<g id="Group" mask="url(#mask0_alpha)">
<g id="Group">
<g id="Vector">
<use xlink:href="#path9_fill" transform="translate(-3321.55 -1093.12)" fill="#F7CDB9"/>
</g>
<g id="Vector">
<use xlink:href="#path10_fill" transform="translate(-3217.33 -1093.12)" fill="#E9BFAB"/>
</g>
<g id="Group">
<g id="Group">
<g id="Vector">
<use xlink:href="#path11_fill" transform="matrix(0.999397 -0.0349815 0.0348187 0.999403 -3269.62 -909.1)" fill="#F7CDB9"/>
</g>
<g id="Vector">
<use xlink:href="#path11_fill" transform="matrix(0.999397 -0.0349815 0.0348187 0.999403 -3269.62 -913.66)" fill="#3C2417"/>
</g>
<g id="Vector">
<use xlink:href="#path12_fill" transform="matrix(0.999397 -0.0349815 0.0348187 0.999403 -3249.59 -897.14)" fill="#FFFFFF"/>
</g>
<g id="Vector">
<use xlink:href="#path13_fill" transform="translate(-3287.34 -925.392)" fill="#3C2417"/>
</g>
</g>
<g id="Group">
<g id="Vector">
<use xlink:href="#path14_fill" transform="matrix(0.999397 -0.0349815 0.0348187 0.999403 -3155.89 -909.099)" fill="#F7CDB9"/>
</g>
<g id="Vector">
<use xlink:href="#path14_fill" transform="matrix(0.999397 -0.0349815 0.0348187 0.999403 -3155.89 -913.659)" fill="#3C2417"/>
</g>
<g id="Vector">
<use xlink:href="#path12_fill" transform="matrix(0.999397 -0.0349815 0.0348187 0.999403 -3135.86 -897.139)" fill="#FFFFFF"/>
</g>
<g id="Vector">
<use xlink:href="#path15_fill" transform="translate(-3159.34 -925.392)" fill="#3C2417"/>
</g>
</g>
</g>
</g>
<g id="Group">
<g id="Vector">
<use xlink:href="#path16_fill" transform="translate(-3230.73 -814.076)" fill="#F05D44"/>
</g>
<g id="Vector">
<use xlink:href="#path17_fill" transform="translate(-3225.06 -814.076)" fill="#FFFFFF"/>
</g>
</g>
<g id="Vector">
<use xlink:href="#path18_fill" transform="translate(-3312.77 -943.314)" fill="#2A3143"/>
</g>
<g id="Vector">
<use xlink:href="#path19_fill" transform="translate(-3346.9 -1134)" fill="#FFC162"/>
</g>
</g>
</g>
</g>
<defs>
<path id="path0_fill" d="M 0 0L 513 0L 513 586L 0 586L 0 0Z"/>
<path id="path1_fill" d="M 303.857 295.751C 303.675 296.46 303.457 297.078 303.233 297.729C 300.961 304.466 298.416 310.737 295.654 316.453C 290.886 326.311 285.804 334.468 279.346 340.584C 276.359 343.457 273.015 345.868 269.271 347.812C 262.099 351.551 253.32 353.529 242.18 353.529L 75.8686 353.529C 64.2372 353.529 55.1925 351.366 47.8381 347.317C 44.4516 345.464 41.465 343.209 38.7026 340.579C 32.2386 334.464 27.162 326.307 22.3943 316.449C 19.6319 310.733 17.0935 304.462 14.8157 297.725C 14.5916 297.074 14.3674 296.456 14.1918 295.809C -11.876 216.249 -4.12168 75.2344 54.9684 32.7492C 79.2126 15.3224 109.2 -1.86527e-14 159.021 -1.86527e-14C 198.501 -1.86527e-14 225.557 9.63952 247.123 22.341C 252.781 25.6172 258.04 29.137 263.074 32.7534C 265.079 34.2066 267.042 35.7817 268.914 37.4492C 322.661 84.7816 329.034 218.97 303.857 295.751Z"/>
<path id="path2_fill" d="M 113.732 58.1603L 113.732 -1.66989e-06L 22.7464 -1.66989e-06L 22.7464 58.1603L 2.499e-06 64.4895L 22.7464 206.954L 113.732 206.954L 136.479 64.4895L 113.732 58.1603Z"/>
<path id="path3_fill" d="M -9.07044e-06 0L -9.07044e-06 25.6997L 90.9858 57.7773L 90.9858 0L -9.07044e-06 0Z"/>
<path id="path4_fill" d="M 272.32 248.419C 293.902 226.318 329.144 181.521 283.942 116.576C 254.894 74.8435 341.712 6.72436 213.665 -7.79284e-06L 160.62 145.468L 107.576 0.00606876C -20.4779 6.73043 66.3408 74.8496 37.2981 116.582C -7.90364 181.527 27.3382 226.324 48.92 248.425C 48.92 248.425 42.83 347.272 5.27566e-06 474.542L 145.45 474.542L 160.62 419.823L 175.791 474.542L 321.24 474.542C 278.41 347.272 272.32 248.419 272.32 248.419Z"/>
<path id="path5_fill" d="M -5.27566e-06 37.0996L 49.8663 56.0019L 30.2922 83.3615L 105.125 146.641L 51.9953 -1.2617e-05L -5.27566e-06 37.0996Z"/>
<path id="path6_fill" d="M 105.131 36.4794L 53.0508 1.78122e-05L -9.07044e-06 146.021L 74.8328 82.7413L 55.2587 55.3818L 105.131 36.4794Z"/>
<path id="path7_fill" d="M 122.173 271.966C -14.7298 259.8 -15.8641 203.47 19.5718 140.616C 46.6189 92.6394 110 14.3303 151.72 1.00194e-05L 152.326 40.6198L 171.852 84.2674C 119.571 114.782 104.644 137.254 80.1866 174.128C 72.0888 186.331 74.3028 188.744 74.5394 188.939C 79.7074 193.158 133.65 199.931 154.116 198.284L 159.362 271.03C 152.605 271.577 129.234 271.966 122.173 271.966Z"/>
<path id="path8_fill" d="M 76.5372 545.792L 137.498 545.652C 137.498 545.652 138.274 208.729 132.997 162.048C 125.791 56.0323 58.6919 1.00194e-05 1.85111e-06 1.00194e-05C 1.85111e-06 1.00194e-05 49.5933 28.6728 33.6526 54.5488C 41.3682 79.3791 32.2272 104.647 38.7782 110.952C 59.5411 130.925 64.1389 135.199 68.0088 169.441C 72.9585 213.185 76.5372 545.792 76.5372 545.792Z"/>
<path id="path9_fill" d="M 231.595 161.421L 231.595 113.998C 231.595 63.6322 173.425 -1.39158e-07 127.374 -1.39158e-07C 81.3231 -1.39158e-07 23.1589 63.6322 23.1589 113.998L 23.1589 161.421C 10.3663 161.421 -3.332e-06 171.629 -3.332e-06 184.221L -3.332e-06 207.932C -3.332e-06 220.524 10.3663 230.732 23.1589 230.732C 23.1589 281.098 81.3292 346.554 127.38 346.554C 173.431 346.554 231.601 281.098 231.601 230.732C 244.394 230.732 254.76 220.524 254.76 207.932L 254.76 184.221C 254.76 171.629 244.388 161.421 231.595 161.421Z"/>
<path id="path10_fill" d="M 23.1589 262.196L 23.1589 346.554C 69.2038 346.554 127.38 281.098 127.38 230.732C 140.173 230.732 150.539 220.524 150.539 207.932L 150.539 184.221C 150.539 171.629 140.173 161.421 127.38 161.421L 127.38 113.998C 127.38 63.6322 69.2098 -1.39158e-07 23.1589 -1.39158e-07L 23.1589 184.677C 6.26588 220.05 -8.14489e-06 257.636 -8.14489e-06 257.636L 23.1589 262.196Z"/>
<path id="path11_fill" d="M 17.9667 36.0172C 27.8894 36.0172 35.9334 27.9545 35.9334 18.0086C 35.9334 8.06273 27.8894 -1.02049e-05 17.9667 -1.02049e-05C 8.04397 -1.02049e-05 -2.68412e-06 8.06273 -2.68412e-06 18.0086C -2.68412e-06 27.9545 8.04397 36.0172 17.9667 36.0172Z"/>
<path id="path12_fill" d="M 4.49471 9.01037C 6.97707 9.01037 8.98943 6.99334 8.98943 4.5052C 8.98943 2.01705 6.97707 0 4.49471 0C 2.01235 0 -3.70223e-06 2.01705 -3.70223e-06 4.5052C -3.70223e-06 6.99334 2.01235 9.01037 4.49471 9.01037Z"/>
<path id="path13_fill" d="M 58.1507 14.712C 54.8388 6.99662 46.3468 1.14775 37.0177 0.15065C 31.3038 -0.475579 20.5736 0.37562 11.3537 12.0733C 10.9109 12.1098 10.5045 12.122 9.9889 12.0673C 8.96379 11.9761 7.53835 11.6417 6.1493 11.0458C 3.31661 9.9028 0.963107 7.51342 0.963107 7.51342C 0.799332 7.35534 0.53245 7.29453 0.314084 7.40397C 0.0350612 7.53773 -0.0801979 7.87821 0.0593136 8.15788C 0.0593136 8.15788 0.411126 8.94218 1.09049 10.067C 1.75772 11.1978 2.81316 12.6631 4.14762 13.9399C 5.46994 15.2288 7.05309 16.3232 8.38755 16.9859C 9.04872 17.3264 9.64922 17.5574 10.092 17.7155C 10.5166 17.8675 10.9715 17.9526 10.8927 17.9404C 12.1301 18.0681 13.2583 17.3993 13.8042 16.3597C 19.8396 7.9086 27.9192 3.74997 36.5325 4.68019C 44.151 5.4949 51.3207 10.3588 53.9653 16.5117C 54.4688 17.6729 55.8093 18.2019 56.9557 17.7033C 58.1143 17.2048 58.6481 15.8672 58.1507 14.712Z"/>
<path id="path14_fill" d="M 17.9667 36.0172C 27.8894 36.0172 35.9334 27.9545 35.9334 18.0086C 35.9334 8.06273 27.8894 -1.02049e-05 17.9667 -1.02049e-05C 8.04397 -1.02049e-05 8.88536e-06 8.06273 8.88536e-06 18.0086C 8.88536e-06 27.9545 8.04397 36.0172 17.9667 36.0172Z"/>
<path id="path15_fill" d="M 0.186181 14.712C 3.49806 6.99662 11.9901 1.14775 21.3192 0.15065C 27.0331 -0.475579 37.7633 0.37562 46.9832 12.0733C 47.426 12.1098 47.8324 12.122 48.348 12.0673C 49.3731 11.9761 50.7985 11.6417 52.1876 11.0458C 55.0203 9.9028 57.3738 7.51342 57.3738 7.51342C 57.5376 7.35534 57.8044 7.29453 58.0167 7.40397C 58.2958 7.53773 58.411 7.87821 58.2776 8.15788C 58.2776 8.15788 57.9258 8.94218 57.2464 10.067C 56.5792 11.1978 55.5298 12.6631 54.1893 13.9399C 52.8669 15.2288 51.2838 16.3232 49.9494 16.9859C 49.2882 17.3264 48.6877 17.5574 48.2449 17.7155C 47.8203 17.8675 47.3653 17.9526 47.4442 17.9404C 46.2068 18.0681 45.0786 17.3993 44.5327 16.3597C 38.4973 7.9086 30.4177 3.74997 21.7983 4.68019C 14.1798 5.4949 7.01013 10.3588 4.36548 16.5117C 3.86202 17.6729 2.5215 18.2019 1.37508 17.7033C 0.222593 17.2048 -0.311208 15.8672 0.186181 14.712Z"/>
<path id="path16_fill" d="M 72.7886 -6.49403e-06C 72.7886 17.9053 56.4961 32.4241 36.3943 32.4241C 16.2925 32.4241 -5.92355e-06 17.9053 -5.92355e-06 -6.49403e-06L 72.7886 -6.49403e-06Z"/>
<path id="path17_fill" d="M 54.5915 12.1598L 6.06573 12.1598C 2.71745 12.1598 5.73844e-06 9.43599 5.73844e-06 6.07989L 5.73844e-06 -6.49403e-06L 60.6572 -6.49403e-06L 60.6572 6.07989C 60.6572 9.43599 57.9398 12.1598 54.5915 12.1598Z"/>
<path id="path18_fill" d="M 238.989 6.19311L 222.994 6.19311C 213.847 -0.0205482 197.13 -0.0266265 181.99 0.00377303C 156.514 0.00377303 139.457 5.0136 131.22 14.857C 128.381 13.2336 124.208 12.7594 119.495 12.7594C 114.782 12.7594 110.608 13.2336 107.77 14.857C 99.5324 5.0136 82.4756 0.00377303 56.9996 0.00377303C 41.8656 -0.0266265 25.1485 -0.0205482 15.9953 6.19311L -3.60967e-06 6.19311L -3.60967e-06 23.5208L 6.91492 27.3694C 7.0605 54.4006 20.2292 85.7364 56.9996 85.7364C 87.2372 85.7364 105.968 69.2903 112.677 36.8662C 113.162 34.5133 113.356 32.2394 113.32 30.0385C 113.781 28.2327 116.122 26.4452 119.501 26.4452C 122.879 26.4452 125.227 28.2327 125.682 30.0385C 125.645 32.2394 125.839 34.5133 126.325 36.8662C 133.033 69.2903 151.764 85.7364 182.002 85.7364C 218.772 85.7364 231.941 54.4067 232.087 27.3694L 239.001 23.5208L 239.001 6.19311L 238.989 6.19311ZM 104.658 35.1942C 98.7681 63.6785 83.1792 77.5225 56.9996 77.5225C 17.1114 77.5225 15.0915 35.3584 15.0915 26.9073C 15.0915 13.9328 43.934 12.7716 56.9996 12.7716C 85.8117 12.7776 107.351 23.0587 104.658 35.1942ZM 181.996 77.5225C 155.816 77.5225 140.227 63.6785 134.337 35.1942C 131.644 23.0527 153.184 12.7716 181.996 12.7716C 195.061 12.7716 223.904 13.9328 223.904 26.9073C 223.904 35.3645 221.884 77.5225 181.996 77.5225Z"/>
<path id="path19_fill" d="M 44.1821 373.476C 11.3059 263.515 -11.671 195.28 6.28349 121.081C 41.1614 -23.0305 216.728 -31.5728 234.506 58.8657C 238.291 78.1147 276.966 107.505 256.949 202.303C 255.409 201.755 251.975 198.035 247.444 192.18C 233.845 174.621 210.377 137.898 198.633 110.259C 44.1821 109.785 95.8681 339.301 44.1821 373.476Z"/>
</defs>
</svg>
