<svg width="817" height="836" viewBox="0 0 817 836" version="1.1" xmlns="http://www.w3.org/2000/svg" xmlns:xlink="http://www.w3.org/1999/xlink">
<title>Ilustra&#195;&#167;&#195;&#163;o_ Cadastre-se</title>
<desc>Created using Figma</desc>
<g id="Canvas" transform="translate(4612 -470)">
<g id="Ilustra&#195;&#167;&#195;&#163;o_ Cadastre-se">
<mask id="mask0_alpha" mask-type="alpha">
<g id="Rectangle">
<use xlink:href="#path0_fill" transform="translate(-4634 470)" fill="#C4C4C4"/>
</g>
</mask>
<g id="Vector" mask="url(#mask0_alpha)">
<use xlink:href="#path1_fill" transform="translate(-4335.05 528.762)" fill="#FFC162"/>
</g>
<g id="Group" mask="url(#mask0_alpha)">
<g id="Vector">
<use xlink:href="#path2_fill" transform="translate(-4202.96 984.778)" fill="#F7CDB9"/>
</g>
<g id="Vector">
<use xlink:href="#path3_fill" transform="translate(-4170.36 985.319)" fill="#E3B9A5"/>
</g>
</g>
<g id="Group" mask="url(#mask0_alpha)">
<g id="Vector">
<use xlink:href="#path4_fill" transform="translate(-4335.38 1070.57)" fill="#2A3143"/>
</g>
<g id="Group">
<g id="Vector">
<use xlink:href="#path5_fill" transform="translate(-4255.84 1068.88)" fill="#FFFFFF"/>
</g>
<g id="Vector">
<use xlink:href="#path6_fill" transform="translate(-4105.15 1069.77)" fill="#FFFFFF"/>
</g>
</g>
<g id="Group">
<g id="Group">
<g id="Vector">
<use xlink:href="#path7_fill" transform="matrix(0.59227 -0.805849 0.806428 0.591182 -4534.17 991.406)" fill="#F7CDB9"/>
</g>
<g id="Vector">
<use xlink:href="#path8_fill" transform="matrix(0.59227 -0.805849 0.806428 0.591182 -4543.41 969.978)" fill="#F7CDB9"/>
</g>
</g>
<g id="Vector">
<use xlink:href="#path9_fill" transform="matrix(0.527789 -0.849375 -0.849979 -0.526816 -4345.42 1370.09)" fill="#2A3143"/>
</g>
</g>
<g id="Group">
<g id="Vector">
<use xlink:href="#path10_fill" transform="translate(-3992.81 1075.17)" fill="#2A3143"/>
</g>
</g>
</g>
<g id="Group" mask="url(#mask0_alpha)">
<g id="Group">
<g id="Vector">
<use xlink:href="#path11_fill" transform="translate(-4287.45 528.138)" fill="#F7CDB9"/>
</g>
<g id="Vector">
<use xlink:href="#path12_fill" transform="translate(-4138.06 528.138)" fill="#E9BFAB"/>
</g>
<g id="Group">
<g id="Group">
<g id="Vector">
<use xlink:href="#path13_fill" transform="matrix(0.999399 -0.0349369 0.0348632 0.999401 -4213.01 791.575)" fill="#F7CDB9"/>
</g>
<g id="Vector">
<use xlink:href="#path13_fill" transform="matrix(0.999399 -0.0349369 0.0348632 0.999401 -4213.01 785.048)" fill="#3C2417"/>
</g>
<g id="Vector">
<use xlink:href="#path14_fill" transform="matrix(0.999399 -0.0349369 0.0348632 0.999401 -4184.3 808.697)" fill="#FFFFFF"/>
</g>
<g id="Vector">
<use xlink:href="#path15_fill" transform="translate(-4238.41 768.253)" fill="#3C2417"/>
</g>
</g>
<g id="Group">
<g id="Vector">
<use xlink:href="#path16_fill" transform="matrix(0.999399 -0.0349369 0.0348632 0.999401 -4049.98 791.577)" fill="#F7CDB9"/>
</g>
<g id="Vector">
<use xlink:href="#path16_fill" transform="matrix(0.999399 -0.0349369 0.0348632 0.999401 -4049.98 785.049)" fill="#3C2417"/>
</g>
<g id="Vector">
<use xlink:href="#path14_fill" transform="matrix(0.999399 -0.0349369 0.0348632 0.999401 -4021.27 808.699)" fill="#FFFFFF"/>
</g>
<g id="Vector">
<use xlink:href="#path17_fill" transform="translate(-4054.94 768.253)" fill="#3C2417"/>
</g>
</g>
</g>
</g>
<g id="Group">
<g id="Vector">
<use xlink:href="#path18_fill" transform="translate(-4157.26 927.61)" fill="#F05D44"/>
</g>
<g id="Vector">
<use xlink:href="#path19_fill" transform="translate(-4149.14 927.61)" fill="#FFFFFF"/>
</g>
</g>
<g id="Vector">
<use xlink:href="#path20_fill" transform="translate(-4274.86 742.596)" fill="#2A3143"/>
</g>
<g id="Vector">
<use xlink:href="#path21_fill" transform="translate(-4323.79 469.613)" fill="#FFC162"/>
</g>
</g>
</g>
</g>
<defs>
<path id="path0_fill" d="M 0 0L 839 0L 839 836L 0 836L 0 0Z"/>
<path id="path1_fill" d="M 435.551 423.39C 435.291 424.407 434.978 425.29 434.657 426.222C 431.4 435.867 427.753 444.845 423.793 453.028C 416.959 467.141 409.674 478.818 400.417 487.573C 396.136 491.685 391.343 495.137 385.976 497.921C 375.695 503.272 363.112 506.105 347.143 506.105L 108.751 506.105C 92.0782 506.105 79.1135 503.008 68.5716 497.211C 63.7174 494.56 59.4364 491.331 55.4766 487.567C 46.2112 478.812 38.9343 467.135 32.1003 453.022C 28.1405 444.839 24.5021 435.861 21.237 426.216C 20.9157 425.284 20.5944 424.4 20.3426 423.474C -17.0231 309.577 -5.90805 107.704 78.7922 46.883C 113.544 21.9353 156.528 -2.67029e-14 227.942 -2.67029e-14C 284.534 -2.67029e-14 323.315 13.7997 354.229 31.9829C 362.339 36.673 369.877 41.7119 377.093 46.889C 379.967 48.9695 382.781 51.2244 385.464 53.6115C 462.505 121.372 471.64 313.473 435.551 423.39Z"/>
<path id="path2_fill" d="M 163.025 83.2611L 163.025 -2.39059e-06L 32.605 -2.39059e-06L 32.605 83.2611L 3.58209e-06 92.3218L 32.605 296.271L 163.025 296.271L 195.63 92.3218L 163.025 83.2611Z"/>
<path id="path3_fill" d="M -1.30017e-05 0L -1.30017e-05 36.7912L 130.42 82.7127L 130.42 0L -1.30017e-05 0Z"/>
<path id="path4_fill" d="M 390.347 355.631C 421.282 323.992 471.798 259.862 407.006 166.888C 365.367 107.144 489.814 9.62646 306.269 0L 230.235 208.248L 154.2 0.00869907C -29.3532 9.63516 95.0935 107.153 53.4635 166.896C -11.3292 259.871 39.1868 324.001 70.1224 355.64C 70.1224 355.64 61.393 497.147 0 679.345L 208.489 679.345L 230.235 601.01L 251.98 679.345L 460.469 679.345C 399.076 497.147 390.347 355.631 390.347 355.631Z"/>
<path id="path5_fill" d="M -7.56219e-06 53.111L 71.4788 80.1712L 43.4211 119.339L 150.687 209.928L 74.5306 -1.80622e-05L -7.56219e-06 53.111Z"/>
<path id="path6_fill" d="M 150.696 52.2232L 76.0435 2.54996e-05L -1.30017e-05 209.04L 107.266 118.451L 79.2084 79.2834L 150.696 52.2232Z"/>
<path id="path7_fill" d="M 82.8535 0.173738C 82.8535 0.173738 58.3224 2.90924 39.2725 4.32927C 34.5382 4.61676 29.7953 4.90426 25.3564 5.17432C 20.9609 5.305 16.8608 5.43568 13.3514 5.54022C 6.43682 5.51409 1.8242 5.49669 1.8242 5.49669L 5.16938e-06 83.886C 5.16938e-06 83.886 5.77665 83.9121 14.446 83.947C 18.6764 83.8163 23.6104 83.6682 28.8919 83.5027C 34.0692 83.1891 39.5939 82.858 45.1186 82.5183C 67.009 80.8805 93.2254 77.8922 93.2254 77.8922C 110.06 75.6794 120.415 56.0081 116.853 34.7511C 113.24 13.3112 97.9857 -1.80385 82.8535 0.173738Z"/>
<path id="path8_fill" d="M 45.0276 0.0386982C 32.1019 1.50229 22.0688 10.6845 14.5113 19.8407C 7.08423 28.8314 2.22838 37.8481 1.84617 38.5974C -1.1768 44.2775 -0.473186 52.5799 3.85278 56.8661C 8.16137 61.1088 14.3376 59.9676 17.2737 54.0522C 17.3345 53.9302 18.2206 52.2314 19.7668 49.7224C 21.3217 47.2134 23.5281 43.9116 26.2297 40.5924C 31.6675 33.8581 38.9904 27.0367 47.8334 26.0261C 52.9412 25.4511 56.3551 19.1787 55.469 12.0088C 54.583 4.84765 49.9095 -0.510149 45.0276 0.0386982Z"/>
<path id="path9_fill" d="M 178.637 374.986C -17.4206 357.553 -23.9589 277.876 26.7885 187.812C 48.6877 152.505 112.329 44.4621 171.087 0L 217.205 52.6407L 290.943 74.4239C 216.073 118.149 153.533 181.956 118.508 234.794C 106.911 252.279 110.082 255.737 110.421 256.016C 117.822 262.062 195.072 271.767 224.381 269.406L 231.895 373.644C 222.218 374.428 188.748 374.986 178.637 374.986Z"/>
<path id="path10_fill" d="M 109.709 781.345L 197.091 781.145C 197.091 781.145 198.204 298.812 190.639 231.984C 180.31 80.2147 84.1295 1.43435e-05 2.6534e-06 1.43435e-05C 2.6534e-06 1.43435e-05 71.0876 41.0474 48.238 78.091C 59.2976 113.638 46.1948 149.811 55.585 158.837C 85.3468 187.429 91.9373 193.548 97.4845 242.568C 104.579 305.192 109.709 781.345 109.709 781.345Z"/>
<path id="path11_fill" d="M 331.971 231.087L 331.971 163.197C 331.971 91.0945 248.589 -1.99215e-07 182.579 -1.99215e-07C 116.569 -1.99215e-07 33.1962 91.0945 33.1962 163.197L 33.1962 231.087C 14.8592 231.087 -4.77612e-06 245.701 -4.77612e-06 263.727L -4.77612e-06 297.672C -4.77612e-06 315.698 14.8592 330.311 33.1962 330.311C 33.1962 402.414 116.578 496.12 182.588 496.12C 248.598 496.12 331.98 402.414 331.98 330.311C 350.317 330.311 365.176 315.698 365.176 297.672L 365.176 263.727C 365.176 245.701 350.308 231.087 331.971 231.087Z"/>
<path id="path12_fill" d="M 33.1962 375.354L 33.1962 496.12C 99.1974 496.12 182.588 402.414 182.588 330.311C 200.925 330.311 215.784 315.698 215.784 297.672L 215.784 263.727C 215.784 245.701 200.925 231.087 182.588 231.087L 182.588 163.197C 182.588 91.0945 99.2061 -1.99215e-07 33.1962 -1.99215e-07L 33.1962 264.38C 8.98158 315.019 -1.1675e-05 368.826 -1.1675e-05 368.826L 33.1962 375.354Z"/>
<path id="path13_fill" d="M 25.7536 51.5615C 39.9769 51.5615 51.5072 40.0191 51.5072 25.7808C 51.5072 11.5424 39.9769 -1.46091e-05 25.7536 -1.46091e-05C 11.5303 -1.46091e-05 -3.84743e-06 11.5424 -3.84743e-06 25.7808C -3.84743e-06 40.0191 11.5303 51.5615 25.7536 51.5615Z"/>
<path id="path14_fill" d="M 6.44276 12.8991C 10.001 12.8991 12.8855 10.0115 12.8855 6.44956C 12.8855 2.88757 10.001 -2.12496e-06 6.44276 -2.12496e-06C 2.88452 -2.12496e-06 -5.30681e-06 2.88757 -5.30681e-06 6.44956C -5.30681e-06 10.0115 2.88452 12.8991 6.44276 12.8991Z"/>
<path id="path15_fill" d="M 83.3538 21.0614C 78.6065 10.0162 66.434 1.6431 53.0616 0.215668C 44.8712 -0.680829 29.4904 0.53773 16.2745 17.2839C 15.6398 17.3362 15.0572 17.3536 14.3182 17.2752C 12.8488 17.1447 10.8056 16.6659 8.81447 15.813C 4.75407 14.1766 1.38053 10.7561 1.38053 10.7561C 1.14577 10.5298 0.763219 10.4427 0.450211 10.5994C 0.0502571 10.7909 -0.114956 11.2783 0.0850207 11.6787C 0.0850207 11.6787 0.589312 12.8014 1.56311 14.4117C 2.51953 16.0306 4.03241 18.1282 5.94524 19.956C 7.84067 21.8012 10.11 23.3679 12.0228 24.3166C 12.9705 24.8041 13.8313 25.1348 14.466 25.3611C 15.0746 25.5787 15.7267 25.7006 15.6137 25.6832C 17.3874 25.8659 19.0046 24.9085 19.7871 23.4201C 28.4383 11.3218 40.0196 5.36837 52.366 6.70006C 63.2865 7.86638 73.5636 14.8295 77.3545 23.6378C 78.0761 25.3002 79.9976 26.0574 81.6409 25.3437C 83.3016 24.63 84.0668 22.7151 83.3538 21.0614Z"/>
<path id="path16_fill" d="M 25.7536 51.5615C 39.9769 51.5615 51.5072 40.0191 51.5072 25.7808C 51.5072 11.5424 39.9769 -1.46091e-05 25.7536 -1.46091e-05C 11.5303 -1.46091e-05 1.27363e-05 11.5424 1.27363e-05 25.7808C 1.27363e-05 40.0191 11.5303 51.5615 25.7536 51.5615Z"/>
<path id="path17_fill" d="M 0.266874 21.0614C 5.01416 10.0162 17.1867 1.6431 30.5591 0.215668C 38.7495 -0.680829 54.1303 0.53773 67.3462 17.2839C 67.9809 17.3362 68.5635 17.3536 69.3025 17.2752C 70.7719 17.1447 72.8151 16.6659 74.8062 15.813C 78.8666 14.1766 82.2401 10.7561 82.2401 10.7561C 82.4749 10.5298 82.8575 10.4427 83.1618 10.5994C 83.5617 10.7909 83.7269 11.2783 83.5356 11.6787C 83.5356 11.6787 83.0314 12.8014 82.0576 14.4117C 81.1011 16.0306 79.597 18.1282 77.6754 19.956C 75.78 21.8012 73.5107 23.3679 71.5979 24.3166C 70.6502 24.8041 69.7894 25.1348 69.1547 25.3611C 68.546 25.5787 67.894 25.7006 68.007 25.6832C 66.2333 25.8659 64.6161 24.9085 63.8335 23.4201C 55.1824 11.3218 43.6011 5.36837 31.2459 6.70006C 20.3255 7.86638 10.0484 14.8295 6.25752 23.6378C 5.53586 25.3002 3.61434 26.0574 1.97105 25.3437C 0.319067 24.63 -0.446089 22.7151 0.266874 21.0614Z"/>
<path id="path18_fill" d="M 104.336 -9.29672e-06C 104.336 25.6328 80.9821 46.4176 52.168 46.4176C 23.3539 46.4176 -8.49088e-06 25.6328 -8.49088e-06 -9.29672e-06L 104.336 -9.29672e-06Z"/>
<path id="path19_fill" d="M 78.252 17.4077L 8.69467 17.4077C 3.89522 17.4077 8.22554e-06 13.5084 8.22554e-06 8.70384L 8.22554e-06 -9.29672e-06L 86.9466 -9.29672e-06L 86.9466 8.70384C 86.9466 13.5084 83.0514 17.4077 78.252 17.4077Z"/>
<path id="path20_fill" d="M 342.57 8.86592L 319.642 8.86592C 306.53 -0.0294164 282.568 -0.0381179 260.866 0.00540139C 224.348 0.00540139 199.899 7.17737 188.092 21.2689C 184.023 18.945 178.041 18.2661 171.285 18.2661C 164.529 18.2661 158.547 18.945 154.478 21.2689C 142.671 7.17737 118.221 0.00540139 81.7037 0.00540139C 60.0106 -0.0381179 36.0481 -0.0294164 22.9278 8.86592L -5.17413e-06 8.86592L -5.17413e-06 33.6719L 9.91192 39.1815C 10.1206 77.8788 28.9967 122.738 81.7037 122.738C 125.047 122.738 151.896 99.1945 161.512 52.7769C 162.208 49.4085 162.486 46.1532 162.434 43.0025C 163.094 40.4174 166.451 37.8585 171.294 37.8585C 176.136 37.8585 179.501 40.4174 180.153 43.0025C 180.101 46.1532 180.379 49.4085 181.075 52.7769C 190.691 99.1945 217.54 122.738 260.883 122.738C 313.59 122.738 332.466 77.8875 332.675 39.1815L 342.587 33.6719L 342.587 8.86592L 342.57 8.86592ZM 150.018 50.3833C 141.575 91.1609 119.23 110.98 81.7037 110.98C 24.5276 110.98 21.6323 50.6183 21.6323 38.52C 21.6323 19.9459 62.9754 18.2835 81.7037 18.2835C 123.003 18.2922 153.878 33.0104 150.018 50.3833ZM 260.875 110.98C 223.348 110.98 201.003 91.1609 192.561 50.3833C 188.7 33.0017 219.575 18.2835 260.875 18.2835C 279.603 18.2835 320.946 19.9459 320.946 38.52C 320.946 50.627 318.051 110.98 260.875 110.98Z"/>
<path id="path21_fill" d="M 63.3311 534.661C 16.206 377.243 -16.7294 279.559 9.00682 173.337C 59.0011 -32.97 310.659 -45.1989 336.143 84.2709C 341.569 111.827 397.006 153.902 368.314 289.612C 366.105 288.829 361.184 283.502 354.689 275.12C 335.196 249.984 301.556 197.412 284.723 157.845C 63.3311 157.166 137.418 485.736 63.3311 534.661Z"/>
</defs>
</svg>
