<svg xmlns="http://www.w3.org/2000/svg" viewBox="-62 -83 38 38">
    <g id="icon-building-line" transform="translate(6606 1930)">
        <path id="Path_238" d="M7.2 11.875H4.8v2.375h2.4zM16.8 9.5h-2.4v2.375h2.4zm4.8 0h-2.4v2.375h2.4zm4.8 0H24v2.375h2.4zm-9.6-4.75h-2.4v2.375h2.4zm4.8 0h-2.4v2.375h2.4zm4.8 0H24v2.375h2.4zM16.8 19h-2.4v2.375h2.4zm4.8 0h-2.4v2.375h2.4zm4.8 0H24v2.375h2.4zm-9.6 4.75h-2.4v2.375h2.4zm9.6 0H24v2.375h2.4zm-9.6 4.75h-2.4v2.375h2.4zm9.6 0H24v2.375h2.4zm-9.6-14.25h-2.4v2.375h2.4zm4.8 0h-2.4v2.375h2.4zm4.8 0H24v2.375h2.4zM7.2 16.625H4.8V19h2.4zm0 4.75H4.8v2.375h2.4zm0 4.75H4.8V28.5h2.4zm0 4.75H4.8v2.375h2.4zm14.4-7.125h-2.4v2.375h2.4zm12-7.125h-2.4V2.375A2.386 2.386 0 0 0 28.8 0H12a2.386 2.386 0 0 0-2.4 2.375v4.75H2.4A2.386 2.386 0 0 0 0 9.5v26.125A2.386 2.386 0 0 0 2.4 38h31.2a2.386 2.386 0 0 0 2.4-2.375V19a2.386 2.386 0 0 0-2.4-2.375zm-24 19H2.4V9.5h7.2zm19.2 0h-7.2V28.5h-2.4v7.125H12V2.375h16.8zm4.8 0h-2.4V33.25h2.4zm0-4.75h-2.4V28.5h2.4zm0-4.75h-2.4V23.75h2.4zm0-4.75h-2.4V19h2.4z" class="cls-2" data-name="Path 238" transform="translate(-6667 -2013)"/>
    </g>
</svg>
