<svg xmlns="http://www.w3.org/2000/svg" viewBox="358 330 41 41">
    <g id="icon-paper-line" transform="translate(6930 1090.001)">
        <path id="Union_30" d="M-6862.34-1418a2.643 2.643 0 0 1-2.66-2.62v-2.707a.712.712 0 0 1 .717-.706.711.711 0 0 1 .715.706v2.707a1.221 1.221 0 0 0 1.229 1.209h29.68a1.221 1.221 0 0 0 1.228-1.209v-29.708a.71.71 0 0 1 .715-.7.711.711 0 0 1 .717.7v29.708a2.644 2.644 0 0 1-2.66 2.62zm3.561-5.665a.71.71 0 0 1-.717-.7.711.711 0 0 1 .717-.706h16.007a.711.711 0 0 1 .717.706.71.71 0 0 1-.717.7zm-6.221-3.006v-29.708a2.643 2.643 0 0 1 2.66-2.62h29.68a2.644 2.644 0 0 1 2.66 2.62v2.707a.711.711 0 0 1-.717.7.71.71 0 0 1-.715-.7v-2.707a1.222 1.222 0 0 0-1.228-1.211h-29.68a1.222 1.222 0 0 0-1.229 1.211v29.708a.71.71 0 0 1-.715.7.71.71 0 0 1-.716-.701zm6.221-1.557a.71.71 0 0 1-.717-.7.71.71 0 0 1 .717-.7h12.951a.71.71 0 0 1 .716.7.71.71 0 0 1-.716.7zm0-4.562a.71.71 0 0 1-.717-.7.712.712 0 0 1 .717-.706h20.065a.712.712 0 0 1 .716.706.71.71 0 0 1-.716.7zM-6859-1443a1 1 0 0 1-1-1v-8a1 1 0 0 1 1-1h23a1 1 0 0 1 1 1v8a1 1 0 0 1-1 1z" class="cls-2" data-name="Union 30" transform="translate(296 698.999)"/>
    </g>
</svg>
