<svg xmlns="http://www.w3.org/2000/svg" viewBox="358 -83 38 38">
    <g id="icon-feedback" transform="translate(6557 1926)">
        <g id="Group_6" data-name="Group 6" transform="translate(-16)">
            <path id="Path_251" d="M11.151 17.884a1.342 1.342 0 0 0-1.9 1.9l6.19 6.182a1.312 1.312 0 0 0 .95.393h.066a1.5 1.5 0 0 0 .983-.491l15.489-18.55a1.347 1.347 0 0 0-2.063-1.734L16.293 23.019z" data-name="Path 251" transform="translate(-6183 -2009)"/>
            <path id="Path_252" d="M29.032 2.9a19 19 0 1 0 6.026 6.019 1.331 1.331 0 0 0-2.26 1.407 16.188 16.188 0 0 1-2.292 20.214 16.316 16.316 0 1 1-2.882-25.38 1.33 1.33 0 1 0 1.408-2.26z" data-name="Path 252" transform="translate(-6183 -2009)"/>
        </g>
    </g>
</svg>
