<svg xmlns="http://www.w3.org/2000/svg" viewBox="36 654 48 48">
    <defs>
        <style>
            .cls-1{fill:none}.cls-2{fill:#ffc162;fill-rule:evenodd}.cls-3{fill:#2a3143}
        </style>
    </defs>
    <g id="icon-company" transform="translate(1553 -2321)">
        <g id="building" transform="translate(-6 -4)">
            <path id="Path_392" d="M13.636 0H0v22.364h13.636zM3.273 3.818h2.182v3.273H3.273zm7.636 0H8.727v3.273h2.182zm-2.182 6.546h2.182v3.273H8.727zm-3.273 0H3.273v3.273h2.182z" class="cls-2" data-name="Path 392" transform="translate(-1483.909 3001.364)"/>
            <path id="Union_30" d="M1.874 48a1.867 1.867 0 1 1 0-3.735h1.71v-6.84a.686.686 0 0 1 1.372 0v6.84h6.807v-6.833a1 1 0 0 1 1-1h3.967a1 1 0 0 1 1 1v6.833h6.825l-.011-40.818H4.939l.013 29.733a.686.686 0 0 1-1.371 0L3.567 3.447H2.9a.884.884 0 0 1-.885-.882V.882A.884.884 0 0 1 2.9 0h23.7a.884.884 0 0 1 .885.882v1.684a.884.884 0 0 1-.885.882h-.681l.006 15.419h15.007a.684.684 0 0 1 .685.683v2.325a.685.685 0 0 1-.685.683h-1.107v6.593a.686.686 0 0 1-1.372 0v-6.595h-12.53l.009 21.708h3.7v-3.4a.978.978 0 0 1 .978-.975h3.154a.979.979 0 0 1 .98.975v3.4h3.714V33.41a.686.686 0 0 1 1.372 0v10.854h1.927a1.867 1.867 0 1 1 0 3.735zm-.5-1.867a.5.5 0 0 0 .5.5h39.888a.5.5 0 1 0 0-1H1.874a.5.5 0 0 0-.502.5zm29.635-1.867h2.37V41.26h-2.37zm-17.872 0h3.23V37.8h-3.23zm12.785-23.074h14.324v-.959H25.922zM3.39 2.082h22.719v-.716H3.39zM19.5 42.99a.823.823 0 0 1-.824-.821v-3.777a.823.823 0 0 1 .824-.821h2.785a.823.823 0 0 1 .824.821v3.777a.823.823 0 0 1-.824.821zm.548-1.366h1.69v-2.687h-1.69zM7.276 42.99a.823.823 0 0 1-.824-.821v-3.777a.823.823 0 0 1 .824-.821h2.786a.823.823 0 0 1 .824.821v3.777a.823.823 0 0 1-.824.821zm.548-1.366h1.691v-2.687H7.824zm25.738-4.272a.813.813 0 0 1-.814-.81v-3.491a.814.814 0 0 1 .814-.811h2.574a.814.814 0 0 1 .814.811v3.491a.813.813 0 0 1-.814.81zm.558-1.365h1.459v-2.38h-1.46zm-6.208 1.365a.813.813 0 0 1-.814-.81v-3.491a.814.814 0 0 1 .814-.811h2.574a.813.813 0 0 1 .813.811v3.491a.812.812 0 0 1-.813.81zm.558-1.365h1.458v-2.38h-1.459zm-8.97-3.274a.823.823 0 0 1-.824-.821v-3.777a.824.824 0 0 1 .824-.822h2.785a.824.824 0 0 1 .824.822v3.777a.823.823 0 0 1-.824.821zm.548-1.366h1.69V28.66h-1.69zm-6.658 1.366a.823.823 0 0 1-.824-.821v-3.777a.824.824 0 0 1 .824-.822h2.785a.824.824 0 0 1 .824.822v3.777a.823.823 0 0 1-.824.821zm.548-1.366h1.691V28.66h-1.691zm-6.662 1.366a.823.823 0 0 1-.824-.821v-3.777a.824.824 0 0 1 .824-.822h2.786a.824.824 0 0 1 .824.822v3.777a.823.823 0 0 1-.824.821zm.548-1.366h1.691V28.66H7.824zm25.738-1.137a.813.813 0 0 1-.814-.81v-3.491a.814.814 0 0 1 .814-.811h2.574a.813.813 0 0 1 .814.811V29.4a.813.813 0 0 1-.814.81zm.558-1.366h1.459v-2.38h-1.46zm-6.21 1.367a.813.813 0 0 1-.813-.81v-3.492a.813.813 0 0 1 .813-.811h2.575a.812.812 0 0 1 .813.811V29.4a.812.812 0 0 1-.813.81zm.559-1.366h1.458v-2.38h-1.458zM19.5 22.437a.824.824 0 0 1-.824-.821v-3.778a.823.823 0 0 1 .824-.821h2.785a.823.823 0 0 1 .824.821v3.778a.824.824 0 0 1-.824.821zm.548-1.367h1.69v-2.687h-1.69zm-6.658 1.367a.824.824 0 0 1-.824-.821v-3.778a.823.823 0 0 1 .824-.821h2.785a.823.823 0 0 1 .824.821v3.778a.824.824 0 0 1-.824.821zm.548-1.367h1.691v-2.687h-1.691zm-6.662 1.367a.824.824 0 0 1-.824-.821v-3.778a.823.823 0 0 1 .824-.821h2.786a.823.823 0 0 1 .824.821v3.778a.824.824 0 0 1-.824.821zm.548-1.367h1.691v-2.687H7.824zM19.5 12.159a.823.823 0 0 1-.824-.821V7.56a.823.823 0 0 1 .824-.82h2.785a.823.823 0 0 1 .824.82v3.778a.823.823 0 0 1-.824.821zm.548-1.365h1.69V8.106h-1.69zm-6.658 1.365a.823.823 0 0 1-.824-.821V7.56a.823.823 0 0 1 .824-.82h2.785a.824.824 0 0 1 .825.82v3.778a.824.824 0 0 1-.825.821zm.548-1.365h1.691V8.106h-1.691zm-6.662 1.365a.823.823 0 0 1-.824-.821V7.56a.824.824 0 0 1 .824-.82h2.786a.824.824 0 0 1 .825.82v3.778a.824.824 0 0 1-.825.821zm.548-1.365h1.691V8.106H7.824z" class="cls-3" data-name="Union 30" transform="translate(-1509 2979)"/>
        </g>
    </g>
</svg>
