<svg xmlns="http://www.w3.org/2000/svg" viewBox="458 657 42.002 42">
    <defs>
        <style>
            .cls-1{fill:none}.cls-2{fill:#2a3143}.cls-3{fill:#f1a93b}
        </style>
    </defs>
    <g id="menu_bag" transform="translate(6936 1026)">
        <g id="Group_9" data-name="Group 9">
            <path id="Union_13" d="M-7187.033-12.217a4.973 4.973 0 0 1-3.87-3.735 8.886 8.886 0 0 1-.04-2.149c0-.333.1-.665.123-1 .082-.973.139-1.947.228-2.918.112-1.208.249-2.411.363-3.619.063-.672.094-1.345.157-2.017.088-.98.2-1.96.278-2.939.058-.636.1-1.274.155-1.922.092-.994.2-1.985.278-2.977.06-.624.1-1.249.158-1.873.094-1.039.195-2.082.278-3.122a2.677 2.677 0 0 1 .025-.508c.2-.656.467-.824 1.258-.842 1.264-.031 2.527 0 3.791 0h.313c.179-.806.295-1.578.526-2.314a6.7 6.7 0 0 1 1.556-2.522 7.364 7.364 0 0 1 3.149-1.985c.486-.159 1-.233 1.5-.345h1.564a15.208 15.208 0 0 1 1.5.345 7.394 7.394 0 0 1 3.281 2.111 6.89 6.89 0 0 1 1.628 3.077c.12.531.187 1.076.278 1.632h4.212a1.185 1.185 0 0 1 .537.081 1.185 1.185 0 0 1 .443.307 1.414 1.414 0 0 1 .239.884c.081 1.054.193 2.106.28 3.16.056.611.094 1.224.155 1.833.092.944.2 1.885.28 2.829.063.683.09 1.372.155 2.054.114 1.208.246 2.411.365 3.619.078.8.15 1.6.222 2.4l.3 3.341c.081.971.15 1.941.226 2.916a8.242 8.242 0 0 0 .087.935 3.916 3.916 0 0 1-.477 2.661 5.4 5.4 0 0 1-3.574 2.632c-.262.069-.529.116-.8.174l-20.23.005c-.298-.064-.6-.127-.897-.209zm.076-26.931v.221c-.1.992-.2 1.983-.278 2.977-.06.636-.1 1.273-.158 1.92-.092.969-.2 1.936-.278 2.9-.062.683-.094 1.372-.157 2.055-.09 1.043-.2 2.082-.278 3.124-.056.6-.1 1.2-.154 1.8-.094 1.018-.2 2.034-.278 3.05-.058.636-.1 1.273-.153 1.92-.071.8-.159 1.6-.208 2.408a1.682 1.682 0 0 0 .135.656 3.432 3.432 0 0 0 3.176 2.077h18.876a4.118 4.118 0 0 0 2.451-.667 2.5 2.5 0 0 0 1.282-2.18c-.043-.976-.139-1.92-.219-2.881-.047-.575-.1-1.152-.154-1.726-.094-.992-.2-1.983-.278-2.977-.058-.636-.094-1.273-.156-1.92-.092-.969-.2-1.936-.28-2.9-.062-.683-.091-1.372-.156-2.055-.088-.944-.2-1.885-.278-2.829-.065-.683-.1-1.372-.154-2.055-.092-1.079-.206-2.155-.278-3.232-.02-.257-.1-.338-.353-.336h-3.2a.593.593 0 0 1-.02.132v3.066a.878.878 0 0 1-1 .891.894.894 0 0 1-1.01-.895v-3.173h-10.857v3.165a.9.9 0 0 1-.087.414 1.139 1.139 0 0 1-.559.45 1.163 1.163 0 0 1-.723.031.985.985 0 0 1-.483-.385.95.95 0 0 1-.152-.595c-.016-1.007-.016-2.028-.016-3.1h-3.219c-.403-.003-.341.053-.346.649zm9.772-7.726a5.014 5.014 0 0 0-1.779.788 5.341 5.341 0 0 0-1.723 1.829 5.258 5.258 0 0 0-.682 2.4l10.729-.005a5.2 5.2 0 0 0-1.352-3.366 5.359 5.359 0 0 0-3.243-1.7 5.05 5.05 0 0 0-.835-.07 5 5 0 0 0-1.114.124zm-19.082 23.774h-3.234a.587.587 0 0 1-.266-.047.672.672 0 0 1-.226-.168.836.836 0 0 1-.154-.26.937.937 0 0 1-.052-.309c0-.606.242-.96.687-.973h5.161a.748.748 0 0 1 .488.3 1.012 1.012 0 0 1 .2.606.946.946 0 0 1-.2.573.691.691 0 0 1-.476.264c-.412.012-.824.015-1.237.015zm-.917-4.136h-4.743a1.01 1.01 0 0 1-1.067-.654l-.007-.51a.841.841 0 0 1 .927-.654q3.777.019 7.551 0a.672.672 0 0 1 .325.049.785.785 0 0 1 .282.2.959.959 0 0 1 .186.318 1.083 1.083 0 0 1 .06.381.877.877 0 0 1-.85.868zm-2.52-4.268a.806.806 0 0 1-.266-.193.991.991 0 0 1-.181-.3 1.1 1.1 0 0 1-.069-.36 1.047 1.047 0 0 1 .062-.36.943.943 0 0 1 .177-.3.773.773 0 0 1 .266-.2.67.67 0 0 1 .308-.056h4.884a.844.844 0 0 1 .844.951c-.045.5-.288.855-.839.86-.67.016-1.356.016-2.03.014h-1.213c-.542 0-1.084-.005-1.628 0h-.034a.689.689 0 0 1-.277-.059z" class="cls-2" data-name="Union 13" transform="translate(725 -318)"/>
            <path id="Subtraction_1" d="M-7180.613-23.231h-19.075a3.6 3.6 0 0 1-1.435-.31l7.456-25.4h-1.721v-.024h10.774v3.165a.892.892 0 0 0 1 .895h.009a.881.881 0 0 0 1-.891v-3.071a.525.525 0 0 1 .018-.132h3.2c.249 0 .331.078.351.334.041.536.09 1.081.138 1.608v.046l.006.068c.045.5.091 1.008.13 1.513.028.32.05.647.072.964v.076c.023.333.046.678.077 1.015.037.4.08.817.121 1.207l.007.07a75.576 75.576 0 0 1 .235 2.652c.019.28.043.628.072.959.036.388.075.782.114 1.163v.034a93.654 93.654 0 0 1 .241 2.673v.051c.022.3.046.6.074.9l.083.868.021.213.008.079c.058.6.117 1.211.167 1.817.051.519.1 1.084.154 1.726q.031.378.064.755c.06.7.122 1.415.153 2.126a2.5 2.5 0 0 1-1.28 2.178 4.09 4.09 0 0 1-2.234.673zm-22.367-3c.031-.431.071-.858.112-1.294v-.049l-.1 1.228c0 .037-.007.075-.012.116zm5.59-22.214c-.007-.3-.007-.5-.007-.505h-3.6a.491.491 0 0 1 .277-.044H-7197.392v.55z" class="cls-3" data-name="Subtraction 1" transform="translate(739 -308.801)"/>
        </g>
    </g>
</svg>
