<svg xmlns="http://www.w3.org/2000/svg" viewBox="629 518 37.001 37.001">
    <defs>
        <style>
            .cls-1{fill:none}.cls-2{fill:#f1a93b}
        </style>
    </defs>
    <g id="icon-hand-money" transform="translate(7049 721)">
        <g id="Group_15" data-name="Group 15" transform="translate(-1.999 -2)">
            <path id="Path_223" d="M0 5l4.5 16.5L20 22v2.5l1.5 1L23 27l-1.5 2-.5 2.5-2.5 1.5.5 2.5h6l.5-1-.5-34L8 0l-.5 3z" class="cls-2" data-name="Path 223" transform="translate(-6407 -200.5)"/>
            <path id="Union_17" d="M-7459.537 155a3.632 3.632 0 0 1-2.394-.9l-.859-.748a2.174 2.174 0 0 1-2.1 1.647h-6.938a2.172 2.172 0 0 1-2.168-2.168v-11.78a2.172 2.172 0 0 1 2.168-2.168h6.938a2.169 2.169 0 0 1 1.79.947l3.07-3.072-3.551-13.248a.723.723 0 0 1 .512-.885l6.85-1.836v-2.065a.723.723 0 0 1 .722-.724h17.778a.722.722 0 0 1 .51.212.714.714 0 0 1 .212.51v35.554a.723.723 0 0 1-.722.724zm16.154-2.457a2.435 2.435 0 0 1-.219 1.011h5.158v-34.11h-16.332v20.236h1.411v-14.385a.724.724 0 0 1 .722-.724 1.948 1.948 0 0 0 1.947-1.945.721.721 0 0 1 .722-.722h6.727a.721.721 0 0 1 .722.722 1.948 1.948 0 0 0 1.945 1.945.725.725 0 0 1 .724.724v2.89a.725.725 0 0 1-.724.724.724.724 0 0 1-.722-.724v-2.245a3.4 3.4 0 0 1-2.59-2.592h-5.436a3.4 3.4 0 0 1-2.59 2.592v13.74h3.951a3.463 3.463 0 0 1-2.1-3.179 3.462 3.462 0 0 1 3.459-3.459 3.462 3.462 0 0 1 3.458 3.459 3.463 3.463 0 0 1-2.1 3.179h1.163a2.459 2.459 0 0 1 2.455 2.457 2.427 2.427 0 0 1-.217 1.011h.024a2.424 2.424 0 0 1 .525.058v-8.223a.723.723 0 0 1 .722-.722.723.723 0 0 1 .724.722v9.159a2.448 2.448 0 0 1 .486 1.463 2.459 2.459 0 0 1-1.808 2.369 2.439 2.439 0 0 1 .261 1.1 2.458 2.458 0 0 1-2.458 2.457h-.227a2.437 2.437 0 0 1 .217 1.012zm-19.342-11.046v9.994l1.744 1.523a2.195 2.195 0 0 0 1.442.54h13.7a1.012 1.012 0 0 0 1.011-1.011 1.013 1.013 0 0 0-1.011-1.013h-5.532a.723.723 0 0 1-.722-.722.723.723 0 0 1 .722-.722h8a1.013 1.013 0 0 0 1.013-1.011 1.014 1.014 0 0 0-1.013-1.013h-8a.723.723 0 0 1-.722-.722.723.723 0 0 1 .722-.722h9.544a1.013 1.013 0 0 0 1.011-1.013 1.013 1.013 0 0 0-1.011-1.011h-9.544a.724.724 0 0 1-.722-.722.724.724 0 0 1 .722-.724h7.282a1.012 1.012 0 0 0 1.011-1.011 1.012 1.012 0 0 0-1.011-1.011h-14.209a.72.72 0 0 1-.7-.544l-.572-2.238zm-9.829-.445v11.78a.724.724 0 0 0 .722.722h6.938a.724.724 0 0 0 .722-.722v-11.78a.724.724 0 0 0-.722-.722h-2.746v8.324a.723.723 0 0 1-.722.722.723.723 0 0 1-.724-.722v-8.324h-2.746a.724.724 0 0 0-.723.723zm10.554-17.217l3.4 12.667a.667.667 0 0 1 .12.253l.749 2.924h1.45l-2.816-10.431a.723.723 0 0 1 .071-.55.723.723 0 0 1 .439-.338 1.947 1.947 0 0 0 1.375-2.382.73.73 0 0 1 .073-.55.72.72 0 0 1 .439-.336l.484-.129v-2.679zm13.378 12.665a2.014 2.014 0 0 0 2.013 2.013 2.014 2.014 0 0 0 2.013-2.013 2.014 2.014 0 0 0-2.013-2.013 2.014 2.014 0 0 0-2.015 2.013zm-8.917-7l1.319 4.879v-6.1a3.4 3.4 0 0 1-1.322 1.221zm-11.337 22.4a.728.728 0 0 1-.212-.512.727.727 0 0 1 .212-.51.727.727 0 0 1 .51-.212.728.728 0 0 1 .512.212.725.725 0 0 1 .212.51.726.726 0 0 1-.212.512.736.736 0 0 1-.512.212.735.735 0 0 1-.512-.212zm27.791-19.658a.722.722 0 0 1-.212-.51.722.722 0 0 1 .212-.51.723.723 0 0 1 .51-.212.72.72 0 0 1 .51.212.726.726 0 0 1 .214.51.726.726 0 0 1-.214.51.72.72 0 0 1-.51.212.723.723 0 0 1-.512-.213z" data-name="Union 17" transform="translate(1056 -319)"/>
        </g>
    </g>
</svg>
