<svg xmlns="http://www.w3.org/2000/svg" viewBox="403 659 38 38">
    <defs>
        <style>
            .cls-1{fill:none}.cls-2,.cls-3{fill:#2a3143;fill-rule:evenodd}.cls-3{fill:#f1a93b}
        </style>
    </defs>
    <g id="menu_marketing" transform="translate(6959 1025.05)">
        <g id="Group_8" data-name="Group 8">
            <path id="Path_173" d="M32.127 27.136V3.218A3.275 3.275 0 0 0 31.2.944 3.133 3.133 0 0 0 28.967 0h-2.338a.81.81 0 0 0-.379.1h-.039l-11.43 7-.083.05H7.829a7.753 7.753 0 0 0-5.334 2.159 8.147 8.147 0 0 0-.766 10.886 7.809 7.809 0 0 0 4.978 2.913l.3.045v8.763a3.272 3.272 0 0 0 .922 2.284 3.116 3.116 0 0 0 4.475 0 3.272 3.272 0 0 0 .927-2.287V23.19H14.7l.083.051L26.2 30.272h.042a.814.814 0 0 0 .382.1h2.338a3.131 3.131 0 0 0 2.236-.948 3.275 3.275 0 0 0 .929-2.288zM30.48 3.218v23.918a1.568 1.568 0 0 1-.444 1.1 1.5 1.5 0 0 1-1.071.455H27.45V1.668h1.515a1.5 1.5 0 0 1 1.071.455 1.568 1.568 0 0 1 .444 1.095zm-4.68-.905v25.728l-.52-.321-9.352-5.741-.169-.1v-13.4l.169-.1 9.352-5.741zM14.113 8.845v12.667H11V8.845zM11.694 23.2v8.726h-.013a1.578 1.578 0 0 1-.1.613 1.555 1.555 0 0 1-.324.525 1.515 1.515 0 0 1-.5.353 1.487 1.487 0 0 1-1.19 0 1.516 1.516 0 0 1-.5-.353 1.554 1.554 0 0 1-.324-.525 1.577 1.577 0 0 1-.1-.613V23.2zM9.357 8.845v12.667H7.842a6.13 6.13 0 0 1-4.381-1.855 6.434 6.434 0 0 1 0-8.957 6.129 6.129 0 0 1 4.381-1.855zM36.622 5.98A.974.974 0 0 1 37 5.9a.984.984 0 0 1 .555.173 1.014 1.014 0 0 1 .366.457 1.039 1.039 0 0 1 .057.588 1.028 1.028 0 0 1-.271.521l-2.338 2.39a.982.982 0 0 1-1.4-.01 1.036 1.036 0 0 1-.01-1.431L36.3 6.2a.989.989 0 0 1 .322-.22zm-1.958 7.1H37a.987.987 0 0 1 .706.3 1.036 1.036 0 0 1 0 1.442.987.987 0 0 1-.706.3h-2.336a.988.988 0 0 1-.706-.3 1.036 1.036 0 0 1 0-1.442.988.988 0 0 1 .706-.302zm.7 5.083a.982.982 0 0 0-1.4.01 1.036 1.036 0 0 0-.01 1.432l2.338 2.39a.982.982 0 0 0 1.4-.01 1.037 1.037 0 0 0 .01-1.432z" class="cls-2" data-name="Path 173" transform="translate(-6556 -365.05)"/>
            <path id="Path_174" d="M28.849 1.551v23.917a1.568 1.568 0 0 1-.444 1.1 1.5 1.5 0 0 1-1.071.455H25.82V0h1.515a1.5 1.5 0 0 1 1.071.455 1.568 1.568 0 0 1 .443 1.096zM12.467 19.488v.356h-3.11V7.175h3.109v12.313zm-4.756.356V7.178H6.2a6.127 6.127 0 0 0-4.385 1.855 6.432 6.432 0 0 0 0 8.956A6.128 6.128 0 0 0 6.2 19.844z" class="cls-3" data-name="Path 174" transform="translate(-6554.37 -363.383)"/>
        </g>
    </g>
</svg>
