<svg width="48" height="48" viewBox="0 0 48 48" version="1.1" xmlns="http://www.w3.org/2000/svg" xmlns:xlink="http://www.w3.org/1999/xlink">
<title>Group</title>
<desc>Created using Figma</desc>
<g id="Canvas" transform="translate(1731 909)">
<rect x="-1731" y="-909" width="48" height="48" fill="#E5E5E5"/>
<clipPath id="clip-0" clip-rule="evenodd">
<path d="M -2024 -1327L -744 -1327L -744 -559L -2024 -559L -2024 -1327Z" fill="#FFFFFF"/>
</clipPath>
<g id="1.0.1 A Empresa" clip-path="url(#clip-0)">
<path d="M -2024 -1327L -744 -1327L -744 -559L -2024 -559L -2024 -1327Z" fill="#FFFFFF"/>
<g id="Rectangle">
<use xlink:href="#path0_fill" transform="translate(-2024 -1327)" fill="#2A3143"/>
</g>
<g id="Group 8">
<g id="cards">
<g id="Group 7.3">
<g id="Group">
<g id="Vector 2">
<use xlink:href="#path1_fill" transform="translate(-1729 -874.27)" fill="#F1A93B"/>
</g>
<g id="Vector 2.1">
<use xlink:href="#path1_fill" transform="translate(-1712.59 -874.27)" fill="#F1A93B"/>
</g>
<g id="Vector 2.2">
<use xlink:href="#path1_fill" transform="translate(-1696.18 -874.27)" fill="#F1A93B"/>
</g>
<g id="Vector">
<use xlink:href="#path2_fill" transform="translate(-1730.18 -908.365)" fill="#FFFFFF"/>
<use xlink:href="#path3_fill" transform="translate(-1730.18 -908.365)" fill="#FFFFFF"/>
<use xlink:href="#path4_fill" transform="translate(-1730.18 -908.365)" fill="#FFFFFF"/>
<use xlink:href="#path5_fill" transform="translate(-1730.18 -908.365)" fill="#FFFFFF"/>
<use xlink:href="#path6_fill" transform="translate(-1730.18 -908.365)" fill="#FFFFFF"/>
<use xlink:href="#path7_fill" transform="translate(-1730.18 -908.365)" fill="#FFFFFF"/>
</g>
</g>
</g>
</g>
</g>
</g>
</g>
<defs>
<path id="path0_fill" d="M 0 0L 1280 0L 1280 768L 0 768L 0 0Z"/>
<path id="path1_fill" d="M 4.10281 3.52703L 0 4.7027L 2.93058 7.64189L 1.75835 11.7568L 5.86116 10.5811L 9.96397 11.7568L 9.37786 7.64189L 12.3084 4.7027L 8.20562 3.52703L 5.86116 0L 4.10281 3.52703Z"/>
<path id="path2_fill" d="M 23.4448 14.8094C 27.5158 14.8094 30.8278 11.4877 30.8278 7.40464C 30.8278 3.3217 27.5158 0 23.4448 0C 19.3739 0 16.0619 3.3217 16.0619 7.40464C 16.0619 11.4877 19.3739 14.8094 23.4448 14.8094ZM 23.4448 1.50086C 26.6907 1.50086 29.3313 4.14928 29.3313 7.40464C 29.3313 10.66 26.6907 13.3085 23.4448 13.3085C 20.199 13.3085 17.5584 10.66 17.5584 7.40464C 17.5584 4.14928 20.199 1.50086 23.4448 1.50086Z"/>
<path id="path3_fill" d="M 23.4447 17.8112C 29.4118 17.8112 34.3112 22.4828 34.6974 28.3711L 13.8883 28.3711C 13.4751 28.3711 10.2753 28.707 13.792 29.1215C 13.792 29.5361 13.4751 29.872 13.8883 29.872L 35.4703 29.872C 35.8835 29.872 36.2185 29.5361 36.2185 29.1215C 36.2185 22.0574 30.4882 16.3103 23.4447 16.3103C 16.4011 16.3103 10.6709 22.0574 10.6709 29.1215C 10.6709 29.5361 11.0059 29.872 11.4191 29.872L 14.4121 29.872C 14.8253 29.872 15.1603 29.5361 15.1603 29.1215C 15.1603 28.707 14.8253 28.3711 14.4121 28.3711L 12.1919 28.3711C 12.5782 22.4828 17.4777 17.8112 23.4447 17.8112Z"/>
<path id="path4_fill" d="M 14.0078 37.7929L 9.90321 37.102L 7.97966 33.4003C 7.85076 33.1523 7.59507 32.9967 7.31613 32.9967C 7.03719 32.9967 6.78149 33.1523 6.6526 33.4003L 4.72904 37.102L 0.62445 37.7929C 0.3494 37.8392 0.122836 38.035 0.0366399 38.301C -0.0495563 38.567 0.0189817 38.8591 0.21432 39.0586L 3.13013 42.0373L 2.51688 46.166C 2.47577 46.4427 2.5915 46.7193 2.81717 46.8837C 3.04263 47.0482 3.34083 47.073 3.59044 46.9483L 7.31603 45.0875L 11.0416 46.9483C 11.1472 47.0009 11.2614 47.0269 11.375 47.0269C 11.5304 47.0269 11.6847 46.9785 11.8149 46.8836C 12.0406 46.7192 12.1563 46.4426 12.1152 46.1659L 11.5019 42.0372L 14.4177 39.0585C 14.6131 38.859 14.6816 38.5669 14.5954 38.3009C 14.5094 38.035 14.2829 37.8392 14.0078 37.7929ZM 10.1732 41.2525C 10.0089 41.4204 9.93244 41.656 9.96706 41.8888L 10.4237 44.9629L 7.64974 43.5774C 7.43974 43.4724 7.19272 43.4724 6.98262 43.5774L 4.20858 44.9629L 4.6652 41.8888C 4.69981 41.656 4.62349 41.4203 4.45908 41.2525L 2.28802 39.0347L 5.34419 38.5202C 5.57564 38.4812 5.77547 38.3356 5.88391 38.1268L 7.31613 35.3707L 8.74834 38.1268C 8.85678 38.3356 9.05661 38.4812 9.28806 38.5202L 12.3442 39.0347L 10.1732 41.2525Z"/>
<path id="path5_fill" d="M 30.1363 37.7929L 26.0318 37.102L 24.1082 33.4003C 23.9793 33.1523 23.7236 32.9967 23.4447 32.9967C 23.1657 32.9967 22.91 33.1523 22.7811 33.4003L 20.8576 37.102L 16.753 37.7929C 16.4779 37.8392 16.2514 38.035 16.1652 38.301C 16.079 38.567 16.1475 38.8591 16.3429 39.0586L 19.2587 42.0373L 18.6455 46.166C 18.6044 46.4427 18.7201 46.7193 18.9458 46.8837C 19.1713 47.0482 19.4695 47.073 19.7191 46.9483L 23.4447 45.0875L 27.1703 46.9483C 27.2758 47.0009 27.39 47.0269 27.5037 47.0269C 27.659 47.0269 27.8133 46.9785 27.9435 46.8836C 28.1692 46.7192 28.2849 46.4426 28.2438 46.1659L 27.6307 42.0372L 30.5465 39.0585C 30.7418 38.859 30.8104 38.5669 30.7242 38.3009C 30.638 38.035 30.4114 37.8392 30.1363 37.7929ZM 26.3017 41.2525C 26.1374 41.4204 26.061 41.656 26.0956 41.8888L 26.5521 44.9629L 23.7782 43.5774C 23.6731 43.5249 23.5589 43.4987 23.4447 43.4987C 23.3304 43.4987 23.2161 43.5249 23.1112 43.5774L 20.3372 44.9629L 20.7937 41.8888C 20.8284 41.656 20.752 41.4203 20.5876 41.2525L 18.4166 39.0347L 21.4727 38.5202C 21.7042 38.4812 21.904 38.3356 22.0125 38.1268L 23.4447 35.3708L 24.8769 38.1269C 24.9853 38.3357 25.1852 38.4813 25.4166 38.5203L 28.4728 39.0348L 26.3017 41.2525Z"/>
<path id="path6_fill" d="M 46.8527 38.301C 46.7665 38.035 46.54 37.8392 46.2649 37.7929L 42.1603 37.102L 40.2367 33.4003C 40.1078 33.1523 39.8521 32.9967 39.5732 32.9967C 39.2943 32.9967 39.0386 33.1523 38.9097 33.4003L 36.9861 37.102L 32.8815 37.7929C 32.6065 37.8392 32.3799 38.035 32.2937 38.301C 32.2075 38.567 32.2761 38.8591 32.4714 39.0586L 35.3872 42.0373L 34.774 46.166C 34.7329 46.4427 34.8486 46.7193 35.0742 46.8837C 35.2997 47.0482 35.5979 47.073 35.8475 46.9483L 39.5731 45.0875L 43.2987 46.9483C 43.4042 47.0009 43.5185 47.0269 43.6321 47.0269C 43.7874 47.0269 43.9418 46.9785 44.072 46.8836C 44.2976 46.7192 44.4134 46.4426 44.3723 46.1659L 43.759 42.0372L 46.6748 39.0585C 46.8704 38.8591 46.9389 38.567 46.8527 38.301ZM 42.4304 41.2525C 42.266 41.4204 42.1896 41.656 42.2242 41.8888L 42.6809 44.9629L 39.9068 43.5774C 39.8018 43.5249 39.6875 43.4987 39.5733 43.4987C 39.459 43.4987 39.3447 43.5249 39.2398 43.5774L 36.4659 44.9629L 36.9225 41.8888C 36.9571 41.656 36.8808 41.4203 36.7164 41.2525L 34.5453 39.0347L 37.6015 38.5202C 37.8329 38.4812 38.0327 38.3356 38.1412 38.1268L 39.5734 35.3707L 41.0056 38.1268C 41.1141 38.3356 41.3139 38.4812 41.5453 38.5202L 44.6015 39.0347L 42.4304 41.2525Z"/>
<path id="path7_fill" d="M 23.4448 10.8071C 24.4256 10.8071 25.3587 10.3797 26.0048 9.63433C 26.2758 9.32155 26.2429 8.84758 25.9311 8.57562C 25.6191 8.30366 25.1465 8.33678 24.8755 8.64956C 24.5138 9.0669 23.9922 9.30624 23.4448 9.30624C 22.8974 9.30624 22.376 9.0669 22.0142 8.64956C 21.7431 8.33678 21.2705 8.30376 20.9586 8.57562C 20.6468 8.84758 20.6137 9.32155 20.8849 9.63433C 21.531 10.3796 22.4641 10.8071 23.4448 10.8071Z"/>
</defs>
</svg>
