<svg xmlns="http://www.w3.org/2000/svg" viewBox="8 -83 38 38">
    <g id="icon-notification" transform="translate(6550 1928)">
        <path id="Path_240" d="M32.134 26.55a2.021 2.021 0 0 1-2.023-2.014v-7.279A11.09 11.09 0 0 0 22 6.606a3.954 3.954 0 0 0 1-2.624 4 4 0 0 0-8 0 3.955 3.955 0 0 0 1 2.624 11.089 11.089 0 0 0-8.113 10.651v7.278a2.021 2.021 0 0 1-2.023 2.015A2.863 2.863 0 0 0 3 29.4v.4a2.863 2.863 0 0 0 2.866 2.853h8.69v.919a4.445 4.445 0 0 0 8.89 0v-.919h8.69A2.863 2.863 0 0 0 35 29.8v-.4a2.863 2.863 0 0 0-2.866-2.85zM19 1.77a2.212 2.212 0 1 1-2.222 2.212A2.22 2.22 0 0 1 19 1.77zm2.667 31.8a2.667 2.667 0 0 1-5.334 0v-.919h5.334zm11.555-3.77a1.087 1.087 0 0 1-1.088 1.083H5.864A1.087 1.087 0 0 1 4.776 29.8v-.4a1.087 1.087 0 0 1 1.088-1.083 3.8 3.8 0 0 0 3.8-3.784v-7.276a9.334 9.334 0 0 1 18.668 0v7.278a3.79 3.79 0 0 0 .037.52H23.72a.885.885 0 1 0 0 1.77h5.391a3.8 3.8 0 0 0 3.023 1.495 1.087 1.087 0 0 1 1.088 1.08zM6.459 4.075A.892.892 0 0 0 5.2 4.1 19.074 19.074 0 0 0 0 15.139a.886.886 0 0 0 .785.977.912.912 0 0 0 .1.006.888.888 0 0 0 .882-.787A17.294 17.294 0 0 1 6.486 5.326a.882.882 0 0 0-.027-1.251zM4.424 16.516a.875.875 0 0 1-.1-.006.886.886 0 0 1-.785-.977A15.518 15.518 0 0 1 7.77 6.551a.892.892 0 0 1 1.257-.027.882.882 0 0 1 .027 1.251 13.744 13.744 0 0 0-3.747 7.954.888.888 0 0 1-.883.787z" class="cls-2" data-name="Path 240" transform="translate(-6541 -2011)"/>
    </g>
</svg>
