<svg xmlns="http://www.w3.org/2000/svg" viewBox="128 -13 39 39">
    <g id="icon-person" transform="translate(6586 1897)">
        <path id="Union_9" d="M-6323.2-2152.86a1.085 1.085 0 0 1-.417-.508 13.13 13.13 0 0 1-.383-3.651v-.024c0-.065.008-.129.008-.2.047-1.6.151-5.338 3.621-6.534l.081-.024a22.988 22.988 0 0 0 6.636-3.052 1.072 1.072 0 0 1 1.5.267 1.1 1.1 0 0 1-.266 1.518 24.785 24.785 0 0 1-7.3 3.367c-1.864.671-2.071 2.681-2.127 4.524a1.5 1.5 0 0 1-.009.2 14.934 14.934 0 0 0 .168 2.5 29.207 29.207 0 0 0 14.1 3.312 29.371 29.371 0 0 0 14.105-3.32 13.921 13.921 0 0 0 .167-2.5c0-.065-.008-.129-.008-.2-.055-1.842-.263-3.852-2.125-4.523a25.012 25.012 0 0 1-7.3-3.367 1.1 1.1 0 0 1-.264-1.518 1.072 1.072 0 0 1 1.5-.267 22.7 22.7 0 0 0 6.636 3.053c.031.008.055.016.08.024 3.47 1.2 3.574 4.942 3.623 6.534a1.662 1.662 0 0 0 .008.2v.024a12.53 12.53 0 0 1-.409 3.659 1.03 1.03 0 0 1-.415.508c-.24.163-5.99 3.861-15.609 3.861s-15.359-3.708-15.601-3.863zm15.631-14.125h-.127a7.348 7.348 0 0 1-5.638-2.463c-3.079-3.506-2.567-9.515-2.51-10.088.2-4.305 2.213-6.364 3.877-7.325a8.813 8.813 0 0 1 4.3-1.139h.137a8.833 8.833 0 0 1 4.3 1.106c1.678.961 3.725 3.02 3.924 7.358.057.573.568 6.583-2.51 10.088a7.318 7.318 0 0 1-5.628 2.463zm-6.125-12.414a.165.165 0 0 1-.008.065c-.008.057-.567 5.548 1.974 8.439a5.222 5.222 0 0 0 4.119 1.729h.081a5.2 5.2 0 0 0 4.11-1.729c2.535-2.875 1.991-8.392 1.983-8.439 0-.024-.009-.049-.009-.065-.264-5.791-4.333-6.413-6.076-6.413h-.1c-2.154.049-5.824.938-6.071 6.412z" data-name="Union 9" transform="translate(-131 277.999)"/>
    </g>
</svg>
