<svg xmlns="http://www.w3.org/2000/svg" viewBox="-139 477 133 133">
    <defs>
        <style>
            .cls-1{fill:none}.cls-2{fill:#f1a93b}.cls-3{fill:#2a3143}
        </style>
    </defs>
    <g id="icon-pc" transform="translate(6527 1133.756)">
        <g id="Vector">
            <path id="Path_162" d="M0 0h107.049v55.146H94.073v-8.11H16.219v8.11H0z" class="cls-2" data-name="Path 162" transform="translate(-6653.02 -640.781)"/>
            <path id="Union_5" d="M-7054.5-139.488a4.928 4.928 0 0 1-4.922-4.925v-2.193a4.928 4.928 0 0 1 4.922-4.925h4.077l1.91-12.972h-20.006a1.95 1.95 0 0 1-1.949-1.951 1.949 1.949 0 0 1 1.949-1.949h93.586a6.044 6.044 0 0 0 6.035-6.039v-10.118H-7094.1v10.118a6.044 6.044 0 0 0 6.033 6.039h8.153a1.948 1.948 0 0 1 1.947 1.949 1.948 1.948 0 0 1-1.947 1.951h-8.153a9.946 9.946 0 0 1-9.929-9.938v-81.622a9.945 9.945 0 0 1 9.929-9.936h113.14a9.946 9.946 0 0 1 9.931 9.936v8.811a1.95 1.95 0 0 1-1.949 1.951 1.948 1.948 0 0 1-1.947-1.951v-8.811a6.043 6.043 0 0 0-6.035-6.037h-113.14a6.042 6.042 0 0 0-6.033 6.037v67.6h125.2v-47.5a1.948 1.948 0 0 1 1.947-1.949 1.949 1.949 0 0 1 1.949 1.949v61.521a9.947 9.947 0 0 1-9.931 9.938h-39.561l1.91 12.972h4.079a4.929 4.929 0 0 1 4.922 4.925v2.193a4.929 4.929 0 0 1-4.922 4.925zm-1.026-7.118v2.193a1.027 1.027 0 0 0 1.026 1.026h45.995a1.026 1.026 0 0 0 1.024-1.026v-2.193a1.026 1.026 0 0 0-1.024-1.026h-45.995a1.027 1.027 0 0 0-1.023 1.026zm9.042-4.925h29.96l-1.91-12.972h-26.141zm8.659-24.95a6.331 6.331 0 0 1 6.322-6.326 6.331 6.331 0 0 1 6.32 6.326 6.331 6.331 0 0 1-6.32 6.326 6.331 6.331 0 0 1-6.319-6.326zm3.9 0a2.428 2.428 0 0 0 2.424 2.426 2.429 2.429 0 0 0 2.425-2.426 2.429 2.429 0 0 0-2.425-2.426 2.428 2.428 0 0 0-2.423 2.426zm-48.875-17.7a5.6 5.6 0 0 1-5.588-5.592v-51.018a5.6 5.6 0 0 1 5.588-5.592h102.6a5.6 5.6 0 0 1 5.59 5.592v51.018a5.6 5.6 0 0 1-5.59 5.592zm89.212-13.861a5.166 5.166 0 0 1 5.157 5.162v4.8h8.228a1.694 1.694 0 0 0 1.692-1.692v-51.018a1.694 1.694 0 0 0-1.692-1.692h-102.6a1.694 1.694 0 0 0-1.691 1.692v51.018a1.694 1.694 0 0 0 1.691 1.692h10.533v-4.8a5.166 5.166 0 0 1 5.159-5.162zm-74.784 5.164v4.8h76.045v-4.8a1.265 1.265 0 0 0-1.261-1.265h-73.521a1.265 1.265 0 0 0-1.262 1.267zm78.117-11.46a3.369 3.369 0 0 1-3.363-3.365v-3.627a3.367 3.367 0 0 1 3.363-3.365h3.625a3.368 3.368 0 0 1 3.361 3.365v3.627a3.368 3.368 0 0 1-3.361 3.365zm.534-3.9h2.556v-2.558h-2.556zm-.534-8.752a3.369 3.369 0 0 1-3.363-3.365v-3.627a3.368 3.368 0 0 1 3.363-3.365h3.625a3.367 3.367 0 0 1 3.361 3.365v3.627a3.368 3.368 0 0 1-3.361 3.365zm.534-3.9h2.556v-2.558h-2.556zm-.534-8.752a3.369 3.369 0 0 1-3.363-3.365v-3.627a3.368 3.368 0 0 1 3.363-3.365h3.625a3.367 3.367 0 0 1 3.361 3.365V-243a3.368 3.368 0 0 1-3.361 3.365zm.534-3.9h2.556v-2.558h-2.556z" class="cls-3" data-name="Union 5" transform="translate(432 -387.756)"/>
        </g>
    </g>
</svg>
