<svg width="54" height="46" viewBox="0 0 54 46" version="1.1" xmlns="http://www.w3.org/2000/svg" xmlns:xlink="http://www.w3.org/1999/xlink">
<title>Vector</title>
<desc>Created using Figma</desc>
<g id="Canvas" transform="translate(1482 909)">
<rect x="-1482" y="-909" width="54" height="46" fill="#E5E5E5"/>
<clipPath id="clip-0" clip-rule="evenodd">
<path d="M -2024 -1327L -744 -1327L -744 -559L -2024 -559L -2024 -1327Z" fill="#FFFFFF"/>
</clipPath>
<g id="1.0.1 A Empresa" clip-path="url(#clip-0)">
<path d="M -2024 -1327L -744 -1327L -744 -559L -2024 -559L -2024 -1327Z" fill="#FFFFFF"/>
<g id="Rectangle">
<use xlink:href="#path0_fill" transform="translate(-2024 -1327)" fill="#2A3143"/>
</g>
<g id="Group 8">
<g id="cards">
<g id="Group 7.4">
<g id="profits">
<g id="Group">
<g id="Group">
<g id="Vector">
<use xlink:href="#path1_fill" transform="translate(-1473.98 -909)" fill="#F1A93B"/>
</g>
</g>
</g>
<g id="Group">
<g id="Ellipse">
<use xlink:href="#path2_fill" transform="translate(-1448.48 -883.24)" fill="#F1A93B"/>
</g>
<g id="Vector">
<use xlink:href="#path3_fill" transform="translate(-1482 -908.485)" fill="#FFFFFF"/>
</g>
</g>
<g id="Group">
<g id="Group">
<g id="Vector">
<use xlink:href="#path4_fill" transform="translate(-1444.01 -880.475)" fill="#2A3143"/>
</g>
</g>
</g>
</g>
</g>
</g>
</g>
</g>
</g>
<defs>
<path id="path0_fill" d="M 0 0L 1280 0L 1280 768L 0 768L 0 0Z"/>
<path id="path1_fill" d="M 35.8817 4.73725L 35.3148 0.666543C 35.2862 0.461587 35.1773 0.27667 35.0121 0.153039C 34.8471 0.0295143 34.6397 -0.0224402 34.4361 0.00894471L 29.9751 0.695807C 29.5549 0.760486 29.2664 1.15545 29.3307 1.57787C 29.3951 2.0004 29.7882 2.2906 30.2081 2.22571L 32.8076 1.82545C 29.3314 6.14607 25.5926 9.82637 21.6767 12.7752C 18.2692 15.3411 14.7209 17.3635 11.1304 18.7864C 5.01966 21.2081 0.846892 21.049 0.805865 21.0475C 0.380404 21.0259 0.0214935 21.3565 0.000927119 21.783C -0.0197448 22.2098 0.307735 22.5727 0.732353 22.5934C 0.757454 22.5946 0.862501 22.5992 1.04264 22.5992C 2.15175 22.5992 6.09755 22.428 11.5985 20.2643C 15.3287 18.797 19.0099 16.7092 22.5399 14.0587C 26.5965 11.0127 30.4629 7.20934 34.0495 2.74303L 34.3571 4.95185C 34.4109 5.33876 34.7406 5.61846 35.1184 5.61846C 35.1539 5.61846 35.1899 5.61602 35.2261 5.61094C 35.6472 5.55166 35.9407 5.16052 35.8817 4.73725Z"/>
<path id="path2_fill" d="M 15.8276 8.28C 15.8276 12.8529 12.2845 16.56 7.91379 16.56C 3.54313 16.56 0 12.8529 0 8.28C 0 3.70708 3.54313 0 7.91379 0C 12.2845 0 15.8276 3.70708 15.8276 8.28Z"/>
<path id="path3_fill" d="M 52.5797 41.2248L 46.3592 41.2248C 46.8713 40.8825 47.3535 40.487 47.7981 40.0399C 49.5509 38.2778 50.5162 35.935 50.5162 33.443C 50.5162 30.951 49.5509 28.6082 47.7981 26.8462C 47.1737 26.2185 46.4806 25.7017 45.7444 25.2906L 45.7444 22.1665C 45.7444 21.7391 45.3998 21.3927 44.9747 21.3927C 44.5496 21.3927 44.205 21.7392 44.205 22.1665L 44.205 24.6033C 42.0981 23.8862 39.8102 23.9545 37.7529 24.7941L 37.7529 15.2887C 37.7529 15.1886 37.8339 15.1072 37.9334 15.1072L 44.0244 15.1072C 44.124 15.1072 44.205 15.1886 44.205 15.2887L 44.205 17.2094C 44.205 17.6368 44.5497 17.9832 44.9747 17.9832C 45.3999 17.9832 45.7444 17.6367 45.7444 17.2094L 45.7444 15.2887C 45.7444 14.3352 44.9728 13.5594 44.0243 13.5594L 37.9333 13.5594C 36.9848 13.5594 36.2132 14.3352 36.2132 15.2887L 36.2132 25.5993C 35.6679 25.9522 35.1509 26.3666 34.6742 26.846C 32.9214 28.6081 31.9562 30.9509 31.9562 33.4428C 31.9562 35.9348 32.9214 38.2777 34.6742 40.0397C 35.1189 40.4867 35.6011 40.8823 36.1131 41.2246L 31.2524 41.2246L 31.2524 22.3103C 31.2524 21.3568 30.4808 20.5811 29.5323 20.5811L 23.4414 20.5811C 22.4929 20.5811 21.7213 21.3568 21.7213 22.3103L 21.7213 41.2248L 16.7604 41.2248L 16.7604 28.676C 16.7604 27.7225 15.9887 26.9468 15.0403 26.9468L 8.94923 26.9468C 8.00075 26.9468 7.22914 27.7225 7.22914 28.676L 7.22914 41.2248L 4.05844 41.2248L 4.05844 1.42791C 4.05844 0.640527 3.4213 2.00618e-07 2.63809 2.00618e-07L 1.42035 2.00618e-07C 0.637137 2.00618e-07 9.36751e-17 0.640527 9.36751e-17 1.42791L 9.36751e-17 6.92175C 9.36751e-17 7.34915 0.344672 7.69555 0.769711 7.69555C 1.19475 7.69555 1.53942 7.34905 1.53942 6.92175L 1.53942 1.54772L 2.5188 1.54772L 2.5188 41.3446C 2.5188 42.132 3.15605 42.7725 3.93915 42.7725L 52.4604 42.7725L 52.4604 43.937L 1.53953 43.937L 1.53953 11.8119C 1.53953 11.3844 1.19486 11.038 0.769816 11.038C 0.344777 11.038 0 11.3844 0 11.8119L 0 44.0568C 0 44.8441 0.637137 45.4847 1.42035 45.4847L 52.5797 45.4847C 53.3629 45.4847 54 44.8441 54 44.0568L 54 42.6526C 54 41.8653 53.3629 41.2248 52.5797 41.2248ZM 15.2208 41.2248L 8.76867 41.2248L 8.76867 28.676C 8.76867 28.5759 8.84967 28.4945 8.94923 28.4945L 15.0403 28.4945C 15.1398 28.4945 15.2208 28.5759 15.2208 28.676L 15.2208 41.2248ZM 23.2607 41.2248L 23.2607 22.3103C 23.2607 22.2102 23.3417 22.1288 23.4413 22.1288L 29.5322 22.1288C 29.6318 22.1288 29.7128 22.2102 29.7128 22.3103L 29.7128 41.2248L 23.2607 41.2248ZM 44.6366 40.4336C 43.857 40.8169 43.0098 41.066 42.147 41.1697C 42.1324 41.1714 42.118 41.1734 42.1034 41.1751C 42.0445 41.1819 41.9855 41.1876 41.9265 41.193C 41.8364 41.2009 41.7462 41.2081 41.6556 41.2129C 41.627 41.2145 41.5985 41.2154 41.5699 41.2166C 41.459 41.2213 41.3479 41.2248 41.2362 41.2248C 41.1242 41.2248 41.0128 41.2213 40.9016 41.2166C 40.8665 41.2151 40.8313 41.2134 40.7963 41.2114C 40.7124 41.2068 40.6289 41.2003 40.5455 41.193C 40.4763 41.1867 40.4072 41.1794 40.3382 41.1712C 40.2889 41.1655 40.2396 41.1597 40.1906 41.153C 40.1204 41.1434 40.0505 41.1332 39.9807 41.1216C 39.9716 41.1201 39.9625 41.1184 39.9535 41.1169C 39.0453 40.9635 38.1682 40.6487 37.368 40.184C 37.3638 40.1816 37.3594 40.18 37.3551 40.1776C 36.7808 39.8418 36.2451 39.4304 35.7628 38.9455C 34.3008 37.4757 33.4956 35.5215 33.4956 33.4429C 33.4956 31.3643 34.3008 29.4102 35.7628 27.9404C 36.3226 27.3776 36.9478 26.9198 37.6137 26.5657C 37.6325 26.5556 37.6515 26.5461 37.6704 26.5362C 38.7844 25.9558 40.0101 25.6649 41.2362 25.6649C 42.2163 25.6649 43.1963 25.8511 44.1192 26.222C 44.1352 26.2284 44.1513 26.2346 44.1673 26.2412C 44.2631 26.2804 44.3582 26.3223 44.4527 26.3655C 44.4903 26.3828 44.5279 26.4008 44.5653 26.4188C 45.3411 26.7894 46.0683 27.2957 46.7095 27.9403C 49.7275 30.9744 49.7275 35.9112 46.7095 38.9454C 46.1027 39.5557 45.4119 40.05 44.6646 40.4219C 44.6554 40.4261 44.6458 40.429 44.6366 40.4336Z"/>
<path id="path4_fill" d="M 3.60598 4.6843L 3.60598 1.92805C 4.5514 1.99591 4.90261 2.43042 5.22672 2.43042C 5.63193 2.43042 5.82103 1.91448 5.82103 1.65651C 5.82103 0.99117 4.5245 0.706055 3.60608 0.678911L 3.60608 0.312259C 3.60608 0.14929 3.40358 -5.69497e-07 3.20098 -5.69497e-07C 2.97137 -5.69497e-07 2.80926 0.14929 2.80926 0.312259L 2.80926 0.706053C 1.52613 0.841878 0.243105 1.52079 0.243105 3.23158C 0.243105 4.96952 1.59374 5.45832 2.80926 5.89283L 2.80926 9.08359C 1.43163 8.97502 1.06703 8.02456 0.621316 8.02456C 0.283605 8.02456 7.20978e-07 8.47254 7.20978e-07 8.79848C 7.20978e-07 9.46382 1.13453 10.3736 2.80926 10.4007L 2.80916 10.4007L 2.80916 10.8215C 2.80916 10.9845 2.97127 11.1338 3.20087 11.1338C 3.40337 11.1338 3.60598 10.9845 3.60598 10.8215L 3.60598 10.3599C 5.06461 10.1562 6.06403 9.23288 6.06403 7.5628C 6.06403 5.71618 4.781 5.11881 3.60598 4.6843ZM 2.89037 4.42633C 2.17445 4.15479 1.59374 3.86967 1.59384 3.09576C 1.59384 2.3896 2.13406 2.0502 2.89037 1.95519L 2.89037 4.42633ZM 3.52508 9.05645L 3.52508 6.19152C 4.1869 6.47663 4.71361 6.85675 4.71361 7.7122C 4.71361 8.48622 4.2544 8.92073 3.52508 9.05645Z"/>
</defs>
</svg>
