<svg width="15" height="15" viewBox="0 0 15 15" version="1.1" xmlns="http://www.w3.org/2000/svg" xmlns:xlink="http://www.w3.org/1999/xlink">
<title>Vector</title>
<desc>Created using Figma</desc>
<g id="Canvas" transform="translate(-2793 1920)">
<rect x="2793" y="-1920" width="15" height="15" fill="#E5E5E5"/>
<clipPath id="clip-0" clip-rule="evenodd">
<path d="M 2703 -2278L 3983 -2278L 3983 -1510L 2703 -1510L 2703 -2278Z" fill="#FFFFFF"/>
</clipPath>
<g id="Compras" clip-path="url(#clip-0)">
<path d="M 2703 -2278L 3983 -2278L 3983 -1510L 2703 -1510L 2703 -2278Z" fill="#FFFFFF"/>
<g id="Background">
<g id="Rectangle">
<use xlink:href="#path0_fill" transform="translate(2703 -2278)" fill="#F7F7F7"/>
</g>
<g id="Vector" opacity="0.04">
<use xlink:href="#path1_fill" transform="translate(2703 -2028)" fill="#21436E"/>
</g>
</g>
<g id="Group 28">
<g id="Rectangle 2.8">
<use xlink:href="#path2_fill" transform="translate(2763 -2083)" fill="#FFFFFF"/>
<mask id="mask0_outline_ins">
<use xlink:href="#path2_fill" fill="white" transform="translate(2763 -2083)"/>
</mask>
<g mask="url(#mask0_outline_ins)">
<use xlink:href="#path3_stroke_2x" transform="translate(2763 -2083)" fill="#000000" fill-opacity="0.05"/>
</g>
</g>
<g id="Group 4.1">
<g id="Group 4">
<g id="Rectangle">
<mask id="mask1_outline_ins">
<use xlink:href="#path4_fill" fill="white" transform="translate(2783 -2014)"/>
</mask>
<g mask="url(#mask1_outline_ins)">
<use xlink:href="#path5_stroke_2x" transform="translate(2783 -2014)" fill="#F06060"/>
</g>
</g>
<g id="Rectangle">
<use xlink:href="#path6_fill" transform="translate(2783 -1933)" fill="#F06060"/>
<mask id="mask2_outline_ins">
<use xlink:href="#path6_fill" fill="white" transform="translate(2783 -1933)"/>
</mask>
<g mask="url(#mask2_outline_ins)">
<use xlink:href="#path7_stroke_2x" transform="translate(2783 -1933)" fill="#000000" fill-opacity="0.05"/>
</g>
</g>
</g>
</g>
</g>
<g id="warning">
<g id="Group">
<g id="Group">
<g id="Vector">
<use xlink:href="#path8_fill" transform="translate(2793 -1920)" fill="#FFFFFF"/>
</g>
<g id="Vector">
<use xlink:href="#path9_fill" transform="translate(2799.85 -1910.7)" fill="#FFFFFF"/>
</g>
<g id="Vector">
<use xlink:href="#path10_fill" transform="translate(2800 -1916.69)" fill="#FFFFFF"/>
</g>
</g>
</g>
</g>
</g>
</g>
<defs>
<path id="path0_fill" d="M 0 0L 1280 0L 1280 768L 0 768L 0 0Z"/>
<path id="path1_fill" d="M 1280 289L 1280 207.168L 1276.71 207.168L 1276.71 154.686L 1270.83 154.686L 1270.83 141.22L 1256.13 141.22L 1256.13 107.728L 1246.44 107.728L 1246.44 85.6296L 1251.63 85.6296L 1251.63 80.6231L 1216.52 80.6231L 1216.52 47.6487L 1206.14 47.6487L 1206.14 34.5281L 1209.6 34.5281L 1209.6 12.948L 1202.51 7.76882L 1193.69 13.1207L 1193.69 34.7007L 1197.66 34.7007L 1197.66 47.6487L 1188.5 47.6487L 1188.5 24.8602L 1163.42 24.8602L 1163.42 47.8214L 1157.19 47.8214L 1157.19 175.748L 1121.73 175.748L 1121.73 221.498L 1112.39 221.498L 1112.39 232.719L 1094.4 232.719L 1094.4 188.178L 1094.4 184.207L 1089.9 184.207L 1089.9 174.022L 1074.51 174.022L 1074.51 184.035L 1067.94 184.035L 1067.94 178.855L 1064.82 178.855L 1064.82 172.64L 1058.08 168.67L 1052.02 171.777L 1046.83 168.67L 1041.12 171.087L 1041.12 184.553L 1038.36 184.553L 1038.36 233.41L 1034.72 233.41L 1034.72 208.204L 1029.88 208.204L 1029.88 154.686L 1024.17 154.686L 1024.17 142.946L 1003.42 142.946L 1003.42 154.858L 982.141 154.858L 982.141 237.726L 972.454 237.726L 972.454 207.514L 968.476 207.514L 968.476 154.513L 961.557 154.513L 961.557 143.119L 955.33 143.119L 955.33 135.177L 949.968 132.415L 943.222 135.523L 943.222 141.565L 936.13 141.565L 936.13 154.686L 923.503 154.686L 923.503 157.793L 918.314 157.793L 918.314 184.553L 913.816 184.553L 913.816 45.7497L 906.378 45.7497L 906.378 39.8799L 889.427 39.8799L 889.427 24.6876L 879.914 24.6876L 879.914 15.5376L 872.13 11.3943L 864.346 15.365L 864.346 21.0621L 856.735 21.0621L 856.735 41.4337L 848.259 41.4337L 848.259 126.891L 831.654 126.891L 831.654 140.702L 818.508 140.702L 818.508 124.128L 787.719 142.428L 780.281 142.428L 780.281 190.768L 764.541 190.768L 764.541 195.774L 755.892 195.774L 755.892 206.305L 750.011 206.305L 750.011 196.292L 730.984 196.292L 730.984 232.719L 726.487 232.719L 726.487 184.725L 723.2 184.725L 723.2 154.686L 719.568 154.686L 719.568 133.106L 713.513 125.164L 713.513 110.662L 707.805 107.9L 701.578 111.353L 701.578 125.164L 697.254 133.451L 697.254 119.122L 676.324 119.122L 676.324 133.106L 673.211 133.106L 673.211 184.207L 669.751 184.207L 669.751 206.823L 665.254 206.823L 665.254 184.207L 662.832 184.207L 662.832 154.513L 656.951 154.513L 656.951 143.464L 635.503 143.464L 635.503 154.513L 614.227 154.341L 614.227 169.188L 610.595 171.605L 610.595 184.38L 599.697 184.38L 599.697 78.5514L 594.508 78.5514L 594.508 60.2515L 574.27 60.2515L 574.27 78.3787L 552.822 78.3787L 552.822 186.279L 545.73 186.279L 545.73 111.008L 547.632 111.008L 547.632 106.001L 539.849 106.001L 539.849 89.773L 531.373 89.773L 531.373 79.7599L 522.724 75.7891L 514.941 79.4146L 514.941 89.773L 504.043 89.773L 504.043 106.692L 487.438 106.692L 487.438 111.18L 479.654 111.18L 479.654 195.084L 474.811 195.084L 474.811 154.341L 466.335 154.341L 466.335 146.917L 469.622 146.917L 469.622 135.005L 463.741 131.725L 457.168 135.005L 457.168 146.917L 460.454 146.917L 460.454 154.513L 452.67 154.513L 452.67 140.529L 444.541 140.529L 444.541 81.141L 422.054 81.141L 422.054 62.1505L 400.605 62.1505L 400.605 81.141L 396.973 81.141L 396.973 96.8513L 382.443 96.8513L 382.443 113.943L 378.811 113.943L 378.811 29.8668L 364.8 29.8668L 364.8 8.45938L 356.151 0L 347.849 8.45938L 347.849 30.0394L 334.703 30.0394L 334.703 35.7366L 328.476 35.7366L 328.476 232.719L 297.341 232.719L 297.341 184.725L 292.843 184.725L 292.843 99.9588L 286.789 99.9588L 286.789 95.6428L 274.162 95.6428L 274.162 77.6882L 266.724 77.6882L 266.724 67.8477L 261.016 63.7043L 255.135 67.8477L 255.135 80.1051L 248.562 80.1051L 248.562 96.1607L 239.741 96.1607L 239.741 240.833L 234.378 240.833L 234.378 188.178L 235.762 188.178L 235.762 184.553L 230.573 184.553L 230.573 174.367L 214.486 174.367L 214.486 184.38L 205.319 184.38L 205.319 173.849C 205.319 173.849 204.627 168.842 198.919 168.842C 193.211 168.842 192.692 172.122 192.692 172.122C 192.692 172.122 191.654 169.015 185.946 169.015C 180.93 169.015 180.584 173.849 180.584 173.849L 180.584 184.553L 176.951 184.553L 176.951 187.66L 178.854 187.66L 178.854 263.795L 172.281 263.795L 172.281 187.66L 174.184 187.66L 174.184 184.553L 169.168 184.553L 169.168 174.022L 153.427 174.022L 153.427 183.344L 143.741 183.344L 143.741 172.468C 143.741 172.468 142.703 169.015 137.686 169.015C 133.189 169.015 131.632 172.468 131.632 172.468C 131.632 172.468 130.768 168.842 125.751 168.842C 121.773 168.842 120.043 172.122 120.043 172.122L 120.043 184.207L 117.449 184.207L 117.449 232.719L 112.951 232.719L 112.951 87.7013L 114.681 87.7013L 114.681 83.2127L 107.589 83.2127L 107.589 66.2939L 82.6811 66.2939L 82.6811 82.8674L 57.6 82.8674L 57.6 232.892L 46.7027 232.892L 46.7027 157.793L 48.4324 157.793L 48.4324 154.341L 42.3784 154.341L 42.3784 141.738L 23.5243 141.738L 23.5243 154.341L 15.3946 154.341L 15.3946 147.262L 17.6432 147.262L 17.6432 135.177L 11.9351 131.725L 5.01622 135.695L 5.01622 147.608L 7.26486 147.608L 7.26486 154.686L 0 154.686L 0 409L 1279.83 409"/>
<path id="path2_fill" d="M 0 3C 0 1.34315 1.34315 0 3 0L 567 0C 568.657 0 570 1.34315 570 3L 570 360C 570 361.657 568.657 363 567 363L 3 363C 1.34315 363 0 361.657 0 360L 0 3Z"/>
<path id="path3_stroke_2x" d="M 3 1L 567 1L 567 -1L 3 -1L 3 1ZM 569 3L 569 360L 571 360L 571 3L 569 3ZM 567 362L 3 362L 3 364L 567 364L 567 362ZM 1 360L 1 3L -1 3L -1 360L 1 360ZM 3 362C 1.89543 362 1 361.105 1 360L -1 360C -1 362.209 0.790861 364 3 364L 3 362ZM 569 360C 569 361.105 568.105 362 567 362L 567 364C 569.209 364 571 362.209 571 360L 569 360ZM 567 1C 568.105 1 569 1.89543 569 3L 571 3C 571 0.790861 569.209 -1 567 -1L 567 1ZM 3 -1C 0.790861 -1 -1 0.790861 -1 3L 1 3C 1 1.89543 1.89543 1 3 1L 3 -1Z"/>
<path id="path4_fill" d="M 0 3C 0 1.34315 1.34315 0 3 0L 248 0C 249.657 0 251 1.34315 251 3L 251 119C 251 120.657 249.657 122 248 122L 3 122C 1.34315 122 0 120.657 0 119L 0 3Z"/>
<path id="path5_stroke_2x" d="M 3 1L 248 1L 248 -1L 3 -1L 3 1ZM 250 3L 250 119L 252 119L 252 3L 250 3ZM 248 121L 3 121L 3 123L 248 123L 248 121ZM 1 119L 1 3L -1 3L -1 119L 1 119ZM 3 121C 1.89543 121 1 120.105 1 119L -1 119C -1 121.209 0.790861 123 3 123L 3 121ZM 250 119C 250 120.105 249.105 121 248 121L 248 123C 250.209 123 252 121.209 252 119L 250 119ZM 248 1C 249.105 1 250 1.89543 250 3L 252 3C 252 0.790861 250.209 -1 248 -1L 248 1ZM 3 -1C 0.790861 -1 -1 0.790861 -1 3L 1 3C 1 1.89543 1.89543 1 3 1L 3 -1Z"/>
<path id="path6_fill" d="M 0 0L 251 0L 251 38C 251 39.6569 249.657 41 248 41L 3 41C 1.34315 41 0 39.6569 0 38L 0 0Z"/>
<path id="path7_stroke_2x" d="M 0 0L 0 -1L -1 -1L -1 0L 0 0ZM 251 0L 252 0L 252 -1L 251 -1L 251 0ZM 0 1L 251 1L 251 -1L 0 -1L 0 1ZM 250 0L 250 38L 252 38L 252 0L 250 0ZM 248 40L 3 40L 3 42L 248 42L 248 40ZM 1 38L 1 0L -1 0L -1 38L 1 38ZM 3 40C 1.89543 40 1 39.1046 1 38L -1 38C -1 40.2091 0.790861 42 3 42L 3 40ZM 250 38C 250 39.1046 249.105 40 248 40L 248 42C 250.209 42 252 40.2091 252 38L 250 38Z"/>
<path id="path8_fill" d="M 7.5 15C 11.6354 15 15 11.6356 15 7.5C 15 3.36438 11.6354 0 7.5 0C 3.36462 0 0 3.36438 0 7.5C 0 11.6356 3.36462 15 7.5 15ZM 7.5 0.923077C 11.1265 0.923077 14.0769 3.87346 14.0769 7.5C 14.0769 11.1265 11.1265 14.0769 7.5 14.0769C 3.87346 14.0769 0.923077 11.1265 0.923077 7.5C 0.923077 3.87346 3.87346 0.923077 7.5 0.923077Z"/>
<path id="path9_fill" d="M 0.771923 1.54385C 1.19824 1.54385 1.54385 1.19824 1.54385 0.771923C 1.54385 0.345601 1.19824 0 0.771923 0C 0.345602 0 0 0.345601 0 0.771923C 0 1.19824 0.345602 1.54385 0.771923 1.54385Z"/>
<path id="path10_fill" d="M 0.461539 4.84615C 0.716308 4.84615 0.923077 4.63938 0.923077 4.38461L 0.923077 0.461538C 0.923077 0.206769 0.716308 1.76063e-09 0.461539 1.76063e-09C 0.206769 1.76063e-09 1.6902e-07 0.206769 1.6902e-07 0.461538L 1.6902e-07 4.38461C 1.6902e-07 4.63938 0.206769 4.84615 0.461539 4.84615Z"/>
</defs>
</svg>
