<svg width="24" height="24" viewBox="0 0 24 24" version="1.1" xmlns="http://www.w3.org/2000/svg" xmlns:xlink="http://www.w3.org/1999/xlink">
<title>Vector</title>
<desc>Created using Figma</desc>
<g id="Canvas" transform="translate(-7103 1979)">
<rect x="7103" y="-1979" width="24" height="24" fill="#E5E5E5"/>
<clipPath id="clip-0" clip-rule="evenodd">
<path d="M 7024 -2276L 8304 -2276L 8304 -1508L 7024 -1508L 7024 -2276Z" fill="#FFFFFF"/>
</clipPath>
<g id="Dashboard" clip-path="url(#clip-0)">
<path d="M 7024 -2276L 8304 -2276L 8304 -1508L 7024 -1508L 7024 -2276Z" fill="#FFFFFF"/>
<g id="Background">
<g id="Rectangle">
<use xlink:href="#path0_fill" transform="translate(7024 -2276)" fill="#F7F7F7"/>
</g>
</g>
<g id="Group 29.1">
<g id="Rectangle 2.10">
<use xlink:href="#path1_fill" transform="translate(7084 -2082)" fill="#FFFFFF"/>
<use xlink:href="#path2_stroke" transform="translate(7084 -2082)" fill="#000000" fill-opacity="0.05"/>
</g>
<g id="Group 2">
<g id="Group 2">
<g id="Group 27.1">
<g id="Vector">
<use xlink:href="#path3_fill" transform="translate(7103 -1979)" fill="#2A3143"/>
<use xlink:href="#path4_fill" transform="translate(7103 -1979)" fill="#2A3143"/>
<use xlink:href="#path5_fill" transform="translate(7103 -1979)" fill="#2A3143"/>
<use xlink:href="#path6_fill" transform="translate(7103 -1979)" fill="#2A3143"/>
<use xlink:href="#path7_fill" transform="translate(7103 -1979)" fill="#2A3143"/>
<use xlink:href="#path8_fill" transform="translate(7103 -1979)" fill="#2A3143"/>
</g>
</g>
</g>
</g>
</g>
</g>
</g>
<defs>
<path id="path0_fill" d="M 0 0L 1280 0L 1280 768L 0 768L 0 0Z"/>
<path id="path1_fill" d="M 0 3C 0 1.34315 1.34315 0 3 0L 370 0C 371.657 0 373 1.34315 373 3L 373 212C 373 213.657 371.657 215 370 215L 3 215C 1.34315 215 0 213.657 0 212L 0 3Z"/>
<path id="path2_stroke" d="M 3 0.5L 370 0.5L 370 -0.5L 3 -0.5L 3 0.5ZM 372.5 3L 372.5 212L 373.5 212L 373.5 3L 372.5 3ZM 370 214.5L 3 214.5L 3 215.5L 370 215.5L 370 214.5ZM 0.5 212L 0.5 3L -0.5 3L -0.5 212L 0.5 212ZM 3 214.5C 1.61929 214.5 0.5 213.381 0.5 212L -0.5 212C -0.5 213.933 1.067 215.5 3 215.5L 3 214.5ZM 372.5 212C 372.5 213.381 371.381 214.5 370 214.5L 370 215.5C 371.933 215.5 373.5 213.933 373.5 212L 372.5 212ZM 370 0.5C 371.381 0.5 372.5 1.61929 372.5 3L 373.5 3C 373.5 1.067 371.933 -0.5 370 -0.5L 370 0.5ZM 3 -0.5C 1.067 -0.5 -0.5 1.067 -0.5 3L 0.5 3C 0.5 1.61929 1.61929 0.5 3 0.5L 3 -0.5Z"/>
<path id="path3_fill" d="M 12.0001 7.5579C 14.0838 7.5579 15.779 5.86268 15.779 3.77892C 15.779 1.69521 14.0838 0 12.0001 0C 9.91638 0 8.22117 1.69521 8.22117 3.77892C 8.22117 5.86268 9.91638 7.5579 12.0001 7.5579ZM 12.0001 0.765957C 13.6614 0.765957 15.013 2.11756 15.013 3.77892C 15.013 5.44028 13.6614 6.79194 12.0001 6.79194C 10.3387 6.79194 8.98713 5.44028 8.98713 3.77892C 8.98713 2.11756 10.3387 0.765957 12.0001 0.765957Z"/>
<path id="path4_fill" d="M 12 9.08984C 15.0542 9.08984 17.562 11.474 17.7596 14.4791L 7.10863 14.4791C 6.89712 14.4791 5.25937 14.6505 7.05937 14.862C 7.05937 15.0736 6.89712 15.245 7.10863 15.245L 18.1552 15.245C 18.3667 15.245 18.5382 15.0736 18.5382 14.862C 18.5382 11.2569 15.6052 8.32388 12 8.32388C 8.39482 8.32388 5.46183 11.2569 5.46183 14.862C 5.46183 15.0736 5.6333 15.245 5.84481 15.245L 7.37672 15.245C 7.58822 15.245 7.75969 15.0736 7.75969 14.862C 7.75969 14.6505 7.58822 14.4791 7.37672 14.4791L 6.24035 14.4791C 6.43806 11.474 8.94585 9.08984 12 9.08984Z"/>
<path id="path5_fill" d="M 7.1698 19.2874L 5.06889 18.9348L 4.08434 17.0457C 4.01836 16.9191 3.88749 16.8397 3.74471 16.8397C 3.60194 16.8397 3.47106 16.9191 3.40509 17.0457L 2.42053 18.9348L 0.319621 19.2874C 0.178838 19.311 0.0628729 19.411 0.0187539 19.5467C -0.0253651 19.6825 0.00971566 19.8315 0.109698 19.9333L 1.60213 21.4535L 1.28825 23.5606C 1.26721 23.7018 1.32644 23.8429 1.44195 23.9268C 1.55735 24.0108 1.70998 24.0235 1.83774 23.9598L 3.74466 23.0102L 5.65158 23.9598C 5.70561 23.9867 5.76407 24 5.82224 24C 5.90174 24 5.98074 23.9753 6.04738 23.9268C 6.16288 23.8429 6.22211 23.7018 6.20108 23.5605L 5.88719 21.4535L 7.37962 19.9333C 7.47961 19.8315 7.51469 19.6824 7.47057 19.5467C 7.42655 19.411 7.31059 19.311 7.1698 19.2874ZM 5.20707 21.053C 5.12297 21.1387 5.08386 21.2589 5.10157 21.3777L 5.33529 22.9466L 3.91547 22.2395C 3.80798 22.1859 3.68155 22.1859 3.57401 22.2395L 2.15413 22.9466L 2.38785 21.3777C 2.40557 21.2589 2.36651 21.1387 2.28235 21.053L 1.17111 19.9211L 2.73539 19.6586C 2.85386 19.6387 2.95614 19.5644 3.01164 19.4578L 3.74471 18.0512L 4.47778 19.4578C 4.53329 19.5644 4.63557 19.6387 4.75404 19.6586L 6.31832 19.9211L 5.20707 21.053Z"/>
<path id="path6_fill" d="M 15.4251 19.2874L 13.3242 18.9348L 12.3396 17.0457C 12.2737 16.9191 12.1428 16.8397 12 16.8397C 11.8572 16.8397 11.7264 16.9191 11.6604 17.0457L 10.6758 18.9348L 8.57491 19.2874C 8.43413 19.311 8.31816 19.411 8.27404 19.5467C 8.22992 19.6825 8.265 19.8315 8.36499 19.9333L 9.85742 21.4535L 9.54359 23.5606C 9.52255 23.7018 9.58178 23.8429 9.69729 23.9268C 9.81269 24.0108 9.96532 24.0235 10.0931 23.9598L 12 23.0102L 13.9069 23.9598C 13.9609 23.9867 14.0194 24 14.0776 24C 14.1571 24 14.2361 23.9753 14.3027 23.9268C 14.4182 23.8429 14.4775 23.7018 14.4564 23.5605L 14.1426 21.4535L 15.635 19.9333C 15.735 19.8315 15.7701 19.6824 15.726 19.5467C 15.6818 19.411 15.5659 19.311 15.4251 19.2874ZM 13.4624 21.053C 13.3783 21.1387 13.3391 21.2589 13.3569 21.3777L 13.5905 22.9466L 12.1707 22.2395C 12.1169 22.2127 12.0585 22.1994 12 22.1994C 11.9415 22.1994 11.883 22.2127 11.8293 22.2395L 10.4095 22.9466L 10.6431 21.3777C 10.6609 21.2589 10.6218 21.1387 10.5376 21.053L 9.4264 19.9211L 10.9907 19.6586C 11.1091 19.6387 11.2114 19.5644 11.2669 19.4578L 12 18.0513L 12.7331 19.4579C 12.7886 19.5644 12.8909 19.6387 13.0093 19.6586L 14.5736 19.9212L 13.4624 21.053Z"/>
<path id="path7_fill" d="M 23.9812 19.5467C 23.9371 19.411 23.8212 19.311 23.6804 19.2874L 21.5795 18.9348L 20.5949 17.0457C 20.5289 16.9191 20.3981 16.8397 20.2553 16.8397C 20.1125 16.8397 19.9816 16.9191 19.9157 17.0457L 18.9311 18.9348L 16.8302 19.2874C 16.6894 19.311 16.5735 19.411 16.5293 19.5467C 16.4852 19.6825 16.5203 19.8315 16.6203 19.9333L 18.1127 21.4535L 17.7988 23.5606C 17.7778 23.7018 17.837 23.8429 17.9525 23.9268C 18.0679 24.0108 18.2206 24.0235 18.3483 23.9598L 20.2552 23.0102L 22.1622 23.9598C 22.2162 23.9867 22.2747 24 22.3328 24C 22.4123 24 22.4913 23.9753 22.558 23.9268C 22.6735 23.8429 22.7327 23.7018 22.7117 23.5605L 22.3978 21.4535L 23.8902 19.9333C 23.9903 19.8315 24.0254 19.6825 23.9812 19.5467ZM 21.7177 21.053C 21.6336 21.1387 21.5945 21.2589 21.6122 21.3777L 21.8459 22.9466L 20.426 22.2395C 20.3723 22.2127 20.3138 22.1994 20.2553 22.1994C 20.1968 22.1994 20.1384 22.2127 20.0846 22.2395L 18.6648 22.9466L 18.8985 21.3777C 18.9163 21.2589 18.8772 21.1387 18.793 21.053L 17.6818 19.9211L 19.2461 19.6586C 19.3645 19.6387 19.4668 19.5644 19.5223 19.4578L 20.2554 18.0512L 20.9885 19.4578C 21.044 19.5644 21.1462 19.6387 21.2647 19.6586L 22.829 19.9211L 21.7177 21.053Z"/>
<path id="path8_fill" d="M 12.0001 5.51535C 12.5021 5.51535 12.9797 5.2972 13.3104 4.91683C 13.4491 4.75721 13.4323 4.51532 13.2726 4.37652C 13.113 4.23773 12.8711 4.25464 12.7323 4.41426C 12.5472 4.62725 12.2803 4.74939 12.0001 4.74939C 11.7199 4.74939 11.453 4.62725 11.2678 4.41426C 11.129 4.25464 10.8872 4.23778 10.7275 4.37652C 10.5679 4.51532 10.551 4.75721 10.6898 4.91683C 11.0205 5.29715 11.4981 5.51535 12.0001 5.51535Z"/>
</defs>
</svg>
