<svg width="15" height="14" viewBox="0 0 15 14" version="1.1" xmlns="http://www.w3.org/2000/svg" xmlns:xlink="http://www.w3.org/1999/xlink">
<title>Vector</title>
<desc>Created using Figma</desc>
<g id="Canvas" transform="translate(-7283 2060)">
<rect x="7283" y="-2060" width="15" height="14" fill="#E5E5E5"/>
<clipPath id="clip-0" clip-rule="evenodd">
<path d="M 7024 -2276L 8304 -2276L 8304 -1508L 7024 -1508L 7024 -2276Z" fill="#FFFFFF"/>
</clipPath>
<g id="Dashboard" clip-path="url(#clip-0)">
<path d="M 7024 -2276L 8304 -2276L 8304 -1508L 7024 -1508L 7024 -2276Z" fill="#FFFFFF"/>
<g id="Background">
<g id="Rectangle">
<use xlink:href="#path0_fill" transform="translate(7024 -2276)" fill="#F7F7F7"/>
</g>
</g>
<g id="Group 29.1">
<g id="Rectangle 2.10">
<use xlink:href="#path1_fill" transform="translate(7084 -2082)" fill="#FFFFFF"/>
<use xlink:href="#path2_stroke" transform="translate(7084 -2082)" fill="#000000" fill-opacity="0.05"/>
</g>
<g id="Group 3.1">
<g id="calendar">
<g id="Group 2">
<g id="Vector">
<use xlink:href="#path3_fill" transform="translate(7283 -2060)" fill="#2A3143"/>
<use xlink:href="#path4_fill" transform="translate(7283 -2060)" fill="#2A3143"/>
<use xlink:href="#path5_fill" transform="translate(7283 -2060)" fill="#2A3143"/>
<use xlink:href="#path6_fill" transform="translate(7283 -2060)" fill="#2A3143"/>
<use xlink:href="#path7_fill" transform="translate(7283 -2060)" fill="#2A3143"/>
<use xlink:href="#path8_fill" transform="translate(7283 -2060)" fill="#2A3143"/>
<use xlink:href="#path9_fill" transform="translate(7283 -2060)" fill="#2A3143"/>
<use xlink:href="#path10_fill" transform="translate(7283 -2060)" fill="#2A3143"/>
<use xlink:href="#path11_fill" transform="translate(7283 -2060)" fill="#2A3143"/>
<use xlink:href="#path12_fill" transform="translate(7283 -2060)" fill="#2A3143"/>
<use xlink:href="#path13_fill" transform="translate(7283 -2060)" fill="#2A3143"/>
</g>
</g>
</g>
</g>
</g>
</g>
</g>
<defs>
<path id="path0_fill" d="M 0 0L 1280 0L 1280 768L 0 768L 0 0Z"/>
<path id="path1_fill" d="M 0 3C 0 1.34315 1.34315 0 3 0L 370 0C 371.657 0 373 1.34315 373 3L 373 212C 373 213.657 371.657 215 370 215L 3 215C 1.34315 215 0 213.657 0 212L 0 3Z"/>
<path id="path2_stroke" d="M 3 0.5L 370 0.5L 370 -0.5L 3 -0.5L 3 0.5ZM 372.5 3L 372.5 212L 373.5 212L 373.5 3L 372.5 3ZM 370 214.5L 3 214.5L 3 215.5L 370 215.5L 370 214.5ZM 0.5 212L 0.5 3L -0.5 3L -0.5 212L 0.5 212ZM 3 214.5C 1.61929 214.5 0.5 213.381 0.5 212L -0.5 212C -0.5 213.933 1.067 215.5 3 215.5L 3 214.5ZM 372.5 212C 372.5 213.381 371.381 214.5 370 214.5L 370 215.5C 371.933 215.5 373.5 213.933 373.5 212L 372.5 212ZM 370 0.5C 371.381 0.5 372.5 1.61929 372.5 3L 373.5 3C 373.5 1.067 371.933 -0.5 370 -0.5L 370 0.5ZM 3 -0.5C 1.067 -0.5 -0.5 1.067 -0.5 3L 0.5 3C 0.5 1.61929 1.61929 0.5 3 0.5L 3 -0.5Z"/>
<path id="path3_fill" d="M 13.863 1.44403L 13.408 1.44403L 13.408 0.716573C 13.408 0.321471 13.0886 0 12.6961 0L 12.3653 0C 11.9727 0 11.6534 0.321442 11.6534 0.716573L 11.6534 1.44406L 3.34664 1.44406L 3.34664 0.716573C 3.34664 0.321471 3.02728 0 2.6347 0L 2.30394 0C 1.91136 0 1.59199 0.321442 1.59199 0.716573L 1.59199 1.44406L 1.13695 1.44406C 0.510029 1.44403 0 1.95743 0 2.5884L 0 11.5386C 0 11.6607 0.0983789 11.7597 0.219727 11.7597C 0.341074 11.7597 0.439453 11.6607 0.439453 11.5386L 0.439453 5.50176L 0.820547 5.50176L 0.820547 12.8557C 0.820547 13.0312 0.96249 13.1741 1.13692 13.1741L 13.863 13.1741C 14.0375 13.1741 14.1794 13.0312 14.1794 12.8557L 14.1794 5.50176L 14.5605 5.50176L 14.5605 12.8557C 14.5605 13.2428 14.2477 13.5577 13.863 13.5577L 1.13695 13.5577C 0.752344 13.5577 0.439453 13.2428 0.439453 12.8557L 0.439453 12.5907C 0.439453 12.4686 0.341074 12.3696 0.219727 12.3696C 0.0983789 12.3696 0 12.4686 0 12.5907L 0 12.8557C 0 13.4867 0.510029 14 1.13695 14L 13.863 14C 14.49 14 15 13.4867 15 12.8557L 15 2.5884C 15 1.95743 14.49 1.44403 13.863 1.44403ZM 12.0928 0.716573C 12.0928 0.565361 12.215 0.442311 12.3653 0.442311L 12.6961 0.442311C 12.8463 0.442311 12.9686 0.565332 12.9686 0.716573L 12.9686 2.8578C 12.9686 3.00904 12.8463 3.13206 12.6961 3.13206L 12.3653 3.13206C 12.215 3.13206 12.0928 3.00904 12.0928 2.8578L 12.0928 0.716573ZM 2.03145 0.716573C 2.03145 0.565361 2.15367 0.442311 2.30394 0.442311L 2.6347 0.442311C 2.78496 0.442311 2.90719 0.565332 2.90719 0.716573L 2.90719 2.8578C 2.90719 3.00904 2.78496 3.13206 2.6347 3.13206L 2.30394 3.13206C 2.15367 3.13206 2.03145 3.00904 2.03145 2.8578L 2.03145 0.716573ZM 14.5605 5.05945L 12.7435 5.05945C 12.6221 5.05945 12.5238 5.15847 12.5238 5.2806C 12.5238 5.40274 12.6221 5.50176 12.7435 5.50176L 13.74 5.50176L 13.74 12.7318L 1.26 12.7318L 1.26 5.50176L 11.6551 5.50176C 11.7764 5.50176 11.8748 5.40274 11.8748 5.2806C 11.8748 5.15847 11.7764 5.05945 11.6551 5.05945L 0.439453 5.05945L 0.439453 2.5884C 0.439453 2.20129 0.752344 1.88637 1.13695 1.88637L 1.59199 1.88637L 1.59199 2.8578C 1.59199 3.25293 1.91136 3.57437 2.30394 3.57437L 2.6347 3.57437C 3.02728 3.57437 3.34664 3.25293 3.34664 2.8578L 3.34664 1.88634L 11.6534 1.88634L 11.6534 2.85777C 11.6534 3.2529 11.9727 3.57435 12.3653 3.57435L 12.6961 3.57435C 13.0886 3.57435 13.408 3.2529 13.408 2.85777L 13.408 1.88634L 13.863 1.88634C 14.2477 1.88634 14.5605 2.20126 14.5605 2.58837L 14.5605 5.05945Z"/>
<path id="path4_fill" d="M 2.14286 7L 3.83459 7L 3.83459 8.61538L 2.14286 8.61538L 2.14286 7Z"/>
<path id="path5_fill" d="M 4.39846 7L 6.09018 7L 6.09018 8.61538L 4.39846 8.61538L 4.39846 7Z"/>
<path id="path6_fill" d="M 6.65405 7L 8.34578 7L 8.34578 8.61538L 6.65405 8.61538L 6.65405 7Z"/>
<path id="path7_fill" d="M 8.90965 7L 10.6014 7L 10.6014 8.61538L 8.90965 8.61538L 8.90965 7Z"/>
<path id="path8_fill" d="M 11.1655 7L 12.8572 7L 12.8572 8.61538L 11.1655 8.61538L 11.1655 7Z"/>
<path id="path9_fill" d="M 2.14286 9.69231L 3.83459 9.69231L 3.83459 11.3077L 2.14286 11.3077L 2.14286 9.69231Z"/>
<path id="path10_fill" d="M 4.39846 9.69231L 6.09018 9.69231L 6.09018 11.3077L 4.39846 11.3077L 4.39846 9.69231Z"/>
<path id="path11_fill" d="M 6.65405 9.69231L 8.34578 9.69231L 8.34578 11.3077L 6.65405 11.3077L 6.65405 9.69231Z"/>
<path id="path12_fill" d="M 8.90965 9.69231L 10.6014 9.69231L 10.6014 11.3077L 8.90965 11.3077L 8.90965 9.69231Z"/>
<path id="path13_fill" d="M 11.1655 9.69231L 12.8572 9.69231L 12.8572 11.3077L 11.1655 11.3077L 11.1655 9.69231Z"/>
</defs>
</svg>
