<svg xmlns="http://www.w3.org/2000/svg" viewBox="452 -13 39.001 39">
    <g id="icon_warning" transform="translate(6468 1896)">
        <path id="Union_13" d="M-6206-2167.5a19.524 19.524 0 0 1 19.5-19.5 19.524 19.524 0 0 1 19.5 19.5 19.523 19.523 0 0 1-19.5 19.5 19.522 19.522 0 0 1-19.5-19.5zm2.4 0a17.12 17.12 0 0 0 17.1 17.1 17.12 17.12 0 0 0 17.1-17.1 17.12 17.12 0 0 0-17.1-17.1 17.119 17.119 0 0 0-17.1 17.1zm15.407 6.7a2.008 2.008 0 0 1 2.007-2.008 2.008 2.008 0 0 1 2.006 2.008 2.008 2.008 0 0 1-2.006 2.008 2.008 2.008 0 0 1-2.007-2.008zm.39-6.2v-10.2a1.2 1.2 0 0 1 1.2-1.2 1.2 1.2 0 0 1 1.2 1.2v10.2a1.2 1.2 0 0 1-1.2 1.2 1.2 1.2 0 0 1-1.197-1.2z" class="cls-2" data-name="Union 13" transform="translate(190 278)"/>
    </g>
</svg>
