<svg width="38" height="38" viewBox="0 0 38 38" version="1.1" xmlns="http://www.w3.org/2000/svg" xmlns:xlink="http://www.w3.org/1999/xlink">
<title>Notification</title>
<desc>Created using Figma</desc>
<g id="Canvas" transform="translate(4834 1856)">
<g id="Notification">
<g id="Union">
<use xlink:href="#path0_fill" transform="translate(-4833 -1856)"/>
</g>
</g>
</g>
<defs>
<path id="path0_fill" fill-rule="evenodd" d="M 32.1339 26.5496C 31.0187 26.5496 30.111 25.646 30.111 24.5354L 30.111 17.2572C 30.111 12.194 26.6759 7.91455 22.0045 6.60632C 22.6232 5.90503 22.9992 4.98694 22.9992 3.98242C 22.9992 1.7865 21.2047 0 18.9992 0C 16.7936 0 14.9987 1.7865 14.9987 3.98254C 14.9987 4.98694 15.3751 5.90503 15.9938 6.60645C 11.3219 7.91455 7.88735 12.194 7.88735 17.2573L 7.88735 24.5355C 7.88735 25.6461 6.97963 26.5497 5.86391 26.5497C 4.28383 26.5497 2.99819 27.8296 2.99819 29.4028L 2.99819 29.803C 2.99819 31.3762 4.28383 32.6561 5.86391 32.6561L 14.5543 32.6561L 14.5543 33.575C 14.5543 36.0149 16.5485 38 18.9992 38C 21.4498 38 23.444 36.0149 23.444 33.575L 23.444 32.6561L 32.1344 32.6561C 33.7145 32.6561 35.0001 31.3761 35.0001 29.8029L 35.0001 29.4028C 35.0001 27.8296 33.7145 26.5496 32.1339 26.5496ZM 18.9992 1.7699C 20.2248 1.7699 21.2213 2.76245 21.2213 3.9823C 21.2213 5.20227 20.2248 6.19482 18.9992 6.19482C 17.7736 6.19482 16.777 5.20227 16.777 3.9823C 16.777 2.76245 17.7736 1.7699 18.9992 1.7699ZM 21.6662 33.5748C 21.6662 35.0388 20.4699 36.2297 18.9992 36.2297C 17.5285 36.2297 16.3322 35.0388 16.3322 33.5748L 16.3322 32.656L 21.6662 32.656L 21.6662 33.5748ZM 33.2223 29.8029C 33.2223 30.4001 32.734 30.886 32.1339 30.886L 5.86391 30.886C 5.2643 30.886 4.77602 30.4 4.77602 29.8029L 4.77602 29.4027C 4.77602 28.8054 5.2643 28.3195 5.86391 28.3195C 7.9601 28.3195 9.66518 26.6219 9.66518 24.5353L 9.66518 17.2572C 9.66518 12.1333 13.8527 7.96472 18.9992 7.96472C 24.1461 7.96472 28.3331 12.1333 28.3331 17.2572L 28.3331 24.5353C 28.3331 24.7115 28.3463 24.8848 28.3698 25.0548L 23.7199 25.0548C 23.2287 25.0548 22.8307 25.4509 22.8307 25.9397C 22.8307 26.4286 23.2287 26.8247 23.7199 26.8247L 29.1105 26.8247C 29.8053 27.7323 30.902 28.3195 32.1339 28.3195C 32.734 28.3195 33.2223 28.8054 33.2223 29.4027L 33.2223 29.8029ZM 6.45913 4.0752C 6.10463 3.73706 5.54213 3.74902 5.20229 4.10205C 2.31118 7.10657 0.465962 11.0271 0.0055128 15.1415C -0.0486864 15.6272 0.302876 16.0648 0.790669 16.1189C 0.82436 16.1226 0.857564 16.1245 0.890278 16.1245C 1.33706 16.1245 1.72182 15.7898 1.7726 15.3373C 2.18959 11.6071 3.86342 8.05176 6.48598 5.32642C 6.82583 4.97351 6.81362 4.41333 6.45913 4.0752ZM 4.42446 16.5162C 4.39125 16.5162 4.35805 16.5144 4.32485 16.5106C 3.83706 16.4565 3.48549 16.0189 3.53969 15.5331C 3.91372 12.187 5.41616 8.99719 7.77016 6.55078C 8.11001 6.19775 8.67251 6.18579 9.027 6.52393C 9.38149 6.86206 9.3937 7.42236 9.05385 7.77527C 6.96889 9.9425 5.63784 12.7671 5.30678 15.729C 5.256 16.1815 4.87124 16.5162 4.42446 16.5162Z"/>
</defs>
</svg>
