<svg width="19" height="19" viewBox="0 0 19 19" version="1.1" xmlns="http://www.w3.org/2000/svg" xmlns:xlink="http://www.w3.org/1999/xlink">
<title>path 4 10</title>
<desc>Created using Figma</desc>
<g id="Canvas" transform="translate(5166 -1795)">
<rect x="-5166" y="1795" width="19" height="19" fill="#E5E5E5"/>
<clipPath id="clip-0" clip-rule="evenodd">
<path d="M -5307 1489L -3760 1489L -3760 3528L -5307 3528L -5307 1489Z" fill="#FFFFFF"/>
</clipPath>
<g id="Modais" clip-path="url(#clip-0)">
<path d="M -5307 1489L -3760 1489L -3760 3528L -5307 3528L -5307 1489Z" fill="#FFFFFF"/>
<g id="Notifications">
<g id="Union" filter="url(#filter0_d)">
<use xlink:href="#path0_fill" transform="translate(-5187 1750)" fill="#FFFFFF"/>
<mask id="mask0_outline_ins">
<use xlink:href="#path0_fill" fill="white" transform="translate(-5187 1750)"/>
</mask>
<g mask="url(#mask0_outline_ins)">
<use xlink:href="#path1_stroke_2x" transform="translate(-5187 1750)" fill="#000000" fill-opacity="0.05"/>
</g>
</g>
<g id="happy" opacity="0.4">
<g id="Group">
<g id="Group">
<g id="group 2svg">
<g id="path 1 10">
<use xlink:href="#path2_fill" transform="translate(-5154.46 1800.91)"/>
</g>
<g id="path 2 10">
<use xlink:href="#path3_fill" transform="translate(-5160.76 1800.91)"/>
</g>
<g id="path 3 10">
<use xlink:href="#path4_fill" transform="translate(-5160.67 1806.22)"/>
</g>
<g id="path 4 10">
<use xlink:href="#path5_fill" transform="translate(-5166 1795)"/>
</g>
</g>
</g>
</g>
</g>
</g>
</g>
</g>
<defs>
<filter id="filter0_d" filterUnits="userSpaceOnUse" x="-5190" y="1747" width="252" height="322" color-interpolation-filters="sRGB">
<feFlood flood-opacity="0" result="BackgroundImageFix"/>
<feColorMatrix in="SourceAlpha" type="matrix" values="0 0 0 0 0 0 0 0 0 0 0 0 0 0 0 0 0 0 255 0"/>
<feOffset dx="4" dy="4"/>
<feGaussianBlur stdDeviation="3.5"/>
<feColorMatrix type="matrix" values="0 0 0 0 0 0 0 0 0 0 0 0 0 0 0 0 0 0 0.1 0"/>
<feBlend mode="normal" in2="BackgroundImageFix" result="effect1_dropShadow"/>
<feBlend mode="normal" in="SourceGraphic" in2="effect1_dropShadow" result="shape"/>
</filter>
<path id="path0_fill" d="M 158.119 0L 146.601 11.1688L 146.847 11.4074L 2.71483 11.4074C 1.21546 11.4074 0 12.5861 0 14.0399L 0 305.368C 0 306.821 1.21546 308 2.71483 308L 235.285 308C 236.785 308 238 306.821 238 305.368L 238 14.0399C 238 12.5861 236.785 11.4074 235.285 11.4074L 169.391 11.4074L 169.637 11.1688L 158.119 0Z"/>
<path id="path1_stroke_2x" d="M 146.601 11.1688L 145.905 10.4508L 145.164 11.1688L 145.905 11.8867L 146.601 11.1688ZM 158.119 0L 158.815 -0.71791L 158.119 -1.39293L 157.423 -0.717908L 158.119 0ZM 146.847 11.4074L 146.847 12.4074L 149.315 12.4074L 147.543 10.6895L 146.847 11.4074ZM 169.391 11.4074L 168.695 10.6895L 166.923 12.4074L 169.391 12.4074L 169.391 11.4074ZM 169.637 11.1688L 170.333 11.8867L 171.073 11.1688L 170.333 10.4508L 169.637 11.1688ZM 147.297 11.8867L 158.815 0.717908L 157.423 -0.717908L 145.905 10.4508L 147.297 11.8867ZM 147.543 10.6895L 147.297 10.4508L 145.905 11.8867L 146.151 12.1253L 147.543 10.6895ZM 2.71483 12.4074L 146.847 12.4074L 146.847 10.4074L 2.71483 10.4074L 2.71483 12.4074ZM 1 14.0399C 1 13.1672 1.73852 12.4074 2.71483 12.4074L 2.71483 10.4074C 0.692412 10.4074 -1 12.005 -1 14.0399L 1 14.0399ZM 1 305.368L 1 14.0399L -1 14.0399L -1 305.368L 1 305.368ZM 2.71483 307C 1.73849 307 1 306.24 1 305.368L -1 305.368C -1 307.402 0.692442 309 2.71483 309L 2.71483 307ZM 235.285 307L 2.71483 307L 2.71483 309L 235.285 309L 235.285 307ZM 237 305.368C 237 306.24 236.262 307 235.285 307L 235.285 309C 237.308 309 239 307.402 239 305.368L 237 305.368ZM 237 14.0399L 237 305.368L 239 305.368L 239 14.0399L 237 14.0399ZM 235.285 12.4074C 236.261 12.4074 237 13.1672 237 14.0399L 239 14.0399C 239 12.005 237.308 10.4074 235.285 10.4074L 235.285 12.4074ZM 169.391 12.4074L 235.285 12.4074L 235.285 10.4074L 169.391 10.4074L 169.391 12.4074ZM 168.941 10.4508L 168.695 10.6895L 170.087 12.1253L 170.333 11.8867L 168.941 10.4508ZM 157.423 0.71791L 168.941 11.8867L 170.333 10.4508L 158.815 -0.71791L 157.423 0.71791Z"/>
<path id="path2_fill" d="M 2.18933 1.09439C 2.18933 1.69899 1.69942 2.18908 1.09467 2.18908C 0.49021 2.18908 -1.55365e-07 1.69899 -1.55365e-07 1.09439C -1.55365e-07 0.489784 0.49021 -5.31377e-08 1.09467 -5.31377e-08C 1.69942 -5.31377e-08 2.18933 0.489784 2.18933 1.09439Z"/>
<path id="path3_fill" d="M 2.18933 1.09439C 2.18933 1.69899 1.69912 2.18908 1.09467 2.18908C 0.49021 2.18908 1.43099e-07 1.69899 1.43099e-07 1.09439C 1.43099e-07 0.489784 0.49021 -5.31377e-08 1.09467 -5.31377e-08C 1.69912 -5.31377e-08 2.18933 0.489784 2.18933 1.09439Z"/>
<path id="path4_fill" d="M 5.01199 3.90039L 3.49179 3.90039C 1.56649 3.90039 1.55365e-07 2.35322 1.55365e-07 0.450975C 1.55365e-07 0.201747 0.2021 2.94301e-07 0.45109 2.94301e-07C 0.70008 2.94301e-07 0.902179 0.201747 0.902179 0.450975C 0.902179 1.87941 2.03955 2.99844 3.49179 2.99844L 5.01199 2.99844C 6.46424 2.99844 7.60161 1.89803 7.60161 0.493066C 7.60161 0.243838 7.80371 0.0420905 8.0527 0.0420905C 8.30199 0.0420905 8.50379 0.243838 8.50379 0.493066C 8.50382 2.40372 6.97005 3.90039 5.01199 3.90039Z"/>
<path id="path5_fill" d="M 9.50015 19C 4.26167 19 -1.03811e-10 14.7382 -1.03811e-10 9.49985C -1.03811e-10 4.2618 4.26167 0 9.50015 0C 14.7383 0 19 4.2618 19 9.49985C 19 14.7382 14.7383 19 9.50015 19ZM 9.50015 0.902286C 4.75908 0.902286 0.902213 4.75912 0.902213 9.49985C 0.902213 14.2409 4.75912 18.0977 9.50015 18.0977C 14.2409 18.0977 18.0978 14.2409 18.0978 9.49985C 18.0978 4.75908 14.2409 0.902286 9.50015 0.902286Z"/>
</defs>
</svg>
