<svg xmlns="http://www.w3.org/2000/svg" viewBox="92.999 113 21.001 21">
    <g id="icon-transfer" transform="translate(6282 449)">
        <path id="Union_2" d="M-6462.96-591.222v1.6h-.97v-3.12h3.121v.97h-1.266a9.466 9.466 0 0 0 5.576 1.8 9.54 9.54 0 0 0 9.53-9.53h.97a10.512 10.512 0 0 1-10.5 10.5 10.434 10.434 0 0 1-6.461-2.22zm-.358-8.277a6.827 6.827 0 0 1 6.818-6.819 6.827 6.827 0 0 1 6.819 6.819 6.827 6.827 0 0 1-6.819 6.819 6.827 6.827 0 0 1-6.818-6.82zm.97 0a5.856 5.856 0 0 0 5.848 5.849 5.856 5.856 0 0 0 5.849-5.849 5.856 5.856 0 0 0-5.849-5.849 5.856 5.856 0 0 0-5.848 5.848zm5.412 3.821v-.862a4.05 4.05 0 0 1-1.692-.818l.606-.755a2.448 2.448 0 0 0 2.319.568.791.791 0 0 0 .533-.661c.07-.586-.2-.835-1.871-1.069a1.64 1.64 0 0 1-1.444-1.154 1.706 1.706 0 0 1 .779-1.774 2.079 2.079 0 0 1 .769-.356v-.76h.97v.76a2.94 2.94 0 0 1 .421.123 3.574 3.574 0 0 1 .976.556l-.312.372-.31.372a2.743 2.743 0 0 0-.716-.4 1.222 1.222 0 0 0-1.22.112c-.32.237-.477.518-.416.755a.7.7 0 0 0 .637.431 5.7 5.7 0 0 1 1.851.476 1.551 1.551 0 0 1 .847 1.672 1.765 1.765 0 0 1-1.128 1.443 2.442 2.442 0 0 1-.63.157v.811zM-6467-599.5a10.512 10.512 0 0 1 10.5-10.5 10.42 10.42 0 0 1 6.584 2.319v-1.6h.969v3.12h-3.12v-.97h1.276a9.462 9.462 0 0 0-5.709-1.9 9.541 9.541 0 0 0-9.531 9.53z" class="cls-2" data-name="Union 2" transform="translate(278 274)"/>
    </g>
</svg>
