<svg xmlns="http://www.w3.org/2000/svg" viewBox="503 513 43 43">
    <defs>
        <style>
            .cls-1{fill:none}.cls-2{fill:#f1a93b}.cls-3{fill:#2a3143}
        </style>
    </defs>
    <g id="icon-users" transform="translate(7136 724)">
        <g id="Group_13" data-name="Group 13" transform="translate(-45 -3)">
            <path id="Path_221" d="M4.5 26l-2-.5-1.5-1L0 22v-2l.5-2 1-2 3-2.5 4-2.5L7 10 5.5 8 4 5.5 6 1l4-1 2 .5L14.5 2 16 4.5 15.5 7 14 9.5 13 11l4 2.5 3.5 5.5v4.5l-3 2.5z" class="cls-2" data-name="Path 221" transform="translate(-6576.5 -199.5)"/>
            <path id="Path_222" d="M37.189 11.88a4.909 4.909 0 1 0-5.632 0 8.528 8.528 0 0 0-2.9 1.683 11.044 11.044 0 0 0-3.982-2.146 6.22 6.22 0 1 0-6.432 0 11.136 11.136 0 0 0-3.939 2.12 8.6 8.6 0 0 0-2.867-1.649 4.841 4.841 0 0 0-2.818-8.825A4.879 4.879 0 0 0 3.71 7.917a4.82 4.82 0 0 0 2.09 3.972A8.529 8.529 0 0 0 0 19.941v.559a.036.036 0 0 0 .034.034h10.405a11.183 11.183 0 0 0-.094 1.422v.572A4.5 4.5 0 0 0 14.872 27H28.06a4.5 4.5 0 0 0 4.526-4.476v-.572a11.2 11.2 0 0 0-.094-1.422h10.474A.036.036 0 0 0 43 20.5v-.555a8.562 8.562 0 0 0-5.811-8.065zM30.825 7.9a3.548 3.548 0 1 1 3.616 3.509H34.3A3.522 3.522 0 0 1 30.825 7.9zM16.582 6.151a4.858 4.858 0 0 1 9.716 0 4.835 4.835 0 0 1-4.577 4.8h-.561a4.835 4.835 0 0 1-4.578-4.8zM5.045 7.9a3.548 3.548 0 1 1 3.616 3.509h-.136A3.528 3.528 0 0 1 5.045 7.9zm5.632 11.275h-9.3a7.239 7.239 0 0 1 7.164-6.42h.1a7.241 7.241 0 0 1 4.637 1.708 11.011 11.011 0 0 0-2.6 4.712zm20.53 3.349a3.153 3.153 0 0 1-3.165 3.13H14.855a3.153 3.153 0 0 1-3.165-3.13v-.572a9.716 9.716 0 0 1 9.47-9.652c.094.008.2.008.289.008s.2 0 .289-.008a9.716 9.716 0 0 1 9.47 9.651v.572zm1.012-3.349a10.983 10.983 0 0 0-2.577-4.675 7.276 7.276 0 0 1 4.679-1.742h.1a7.239 7.239 0 0 1 7.164 6.42z" class="cls-3" data-name="Path 222" transform="translate(-6588 -200)"/>
        </g>
    </g>
</svg>
