<svg xmlns="http://www.w3.org/2000/svg" viewBox="211 -13 39 39.001">
    <g id="icon-select-remove" transform="translate(6523 1909)">
        <path id="Union_10" d="M69-258.5A19.522 19.522 0 0 1 88.5-278a19.523 19.523 0 0 1 19.5 19.5A19.523 19.523 0 0 1 88.5-239 19.522 19.522 0 0 1 69-258.5zm2.557 0A16.962 16.962 0 0 0 88.5-241.557a16.962 16.962 0 0 0 16.942-16.943A16.962 16.962 0 0 0 88.5-275.442 16.962 16.962 0 0 0 71.557-258.5zm7.915 0a1.279 1.279 0 0 1 1.279-1.279h15.5a1.279 1.279 0 0 1 1.279 1.279 1.278 1.278 0 0 1-1.279 1.278h-15.5a1.279 1.279 0 0 1-1.279-1.278z" data-name="Union 10" transform="translate(-6381 -1644)"/>
    </g>
</svg>
