<svg width="17" height="16" viewBox="0 0 17 16" version="1.1" xmlns="http://www.w3.org/2000/svg" xmlns:xlink="http://www.w3.org/1999/xlink">
<title>Vector</title>
<desc>Created using Figma</desc>
<g id="Canvas" transform="translate(4334 -1791)">
<rect x="-4334" y="1791" width="17" height="16" fill="#E5E5E5"/>
<clipPath id="clip-0" clip-rule="evenodd">
<path d="M -5307 1489L -3760 1489L -3760 3528L -5307 3528L -5307 1489Z" fill="#FFFFFF"/>
</clipPath>
<g id="Modais" clip-path="url(#clip-0)">
<path d="M -5307 1489L -3760 1489L -3760 3528L -5307 3528L -5307 1489Z" fill="#FFFFFF"/>
<g id="Group 26">
<g id="Ranking">
<g id="Union" filter="url(#filter0_d)">
<use xlink:href="#path0_fill" transform="translate(-4567 1750)" fill="#FFFFFF"/>
<mask id="mask0_outline_ins">
<use xlink:href="#path0_fill" fill="white" transform="translate(-4567 1750)"/>
</mask>
<g mask="url(#mask0_outline_ins)">
<use xlink:href="#path1_stroke_2x" transform="translate(-4567 1750)" fill="#000000" fill-opacity="0.05"/>
</g>
</g>
<g id="Vector">
<use xlink:href="#path2_fill" transform="translate(-4334 1791)" fill="#010002" fill-opacity="0.3"/>
</g>
</g>
</g>
</g>
</g>
<defs>
<filter id="filter0_d" filterUnits="userSpaceOnUse" x="-4570" y="1747" width="527" height="371" color-interpolation-filters="sRGB">
<feFlood flood-opacity="0" result="BackgroundImageFix"/>
<feColorMatrix in="SourceAlpha" type="matrix" values="0 0 0 0 0 0 0 0 0 0 0 0 0 0 0 0 0 0 255 0"/>
<feOffset dx="4" dy="4"/>
<feGaussianBlur stdDeviation="3.5"/>
<feColorMatrix type="matrix" values="0 0 0 0 0 0 0 0 0 0 0 0 0 0 0 0 0 0 0.1 0"/>
<feBlend mode="normal" in2="BackgroundImageFix" result="effect1_dropShadow"/>
<feBlend mode="normal" in="SourceGraphic" in2="effect1_dropShadow" result="shape"/>
</filter>
<path id="path0_fill" d="M 181.372 0L 168.16 12.9456L 168.442 13.2222L 3.11407 13.2222C 1.39421 13.2222 0 14.5884 0 16.2735L 0 353.949C 0 355.634 1.39421 357 3.11407 357L 509.886 357C 511.606 357 513 355.634 513 353.949L 513 16.2735C 513 14.5884 511.606 13.2222 509.886 13.2222L 194.301 13.2222L 194.583 12.9456L 181.372 0Z"/>
<path id="path1_stroke_2x" d="M 168.16 12.9456L 167.46 12.2313L 166.731 12.9456L 167.46 13.6599L 168.16 12.9456ZM 181.372 0L 182.071 -0.714269L 181.372 -1.40003L 180.672 -0.714268L 181.372 0ZM 168.442 13.2222L 168.442 14.2222L 170.891 14.2222L 169.142 12.5079L 168.442 13.2222ZM 194.301 13.2222L 193.601 12.5079L 191.852 14.2222L 194.301 14.2222L 194.301 13.2222ZM 194.583 12.9456L 195.283 13.6599L 196.012 12.9456L 195.283 12.2313L 194.583 12.9456ZM 168.86 13.6599L 182.071 0.714268L 180.672 -0.714268L 167.46 12.2313L 168.86 13.6599ZM 169.142 12.5079L 168.86 12.2313L 167.46 13.6599L 167.742 13.9365L 169.142 12.5079ZM 3.11407 14.2222L 168.442 14.2222L 168.442 12.2222L 3.11407 12.2222L 3.11407 14.2222ZM 1 16.2735C 1 15.1598 1.92722 14.2222 3.11407 14.2222L 3.11407 12.2222C 0.861197 12.2222 -1 14.0171 -1 16.2735L 1 16.2735ZM 1 353.949L 1 16.2735L -1 16.2735L -1 353.949L 1 353.949ZM 3.11407 356C 1.92719 356 1 355.063 1 353.949L -1 353.949C -1 356.205 0.861229 358 3.11407 358L 3.11407 356ZM 509.886 356L 3.11407 356L 3.11407 358L 509.886 358L 509.886 356ZM 512 353.949C 512 355.063 511.073 356 509.886 356L 509.886 358C 512.139 358 514 356.205 514 353.949L 512 353.949ZM 512 16.2735L 512 353.949L 514 353.949L 514 16.2735L 512 16.2735ZM 509.886 14.2222C 511.073 14.2222 512 15.1598 512 16.2735L 514 16.2735C 514 14.0171 512.139 12.2222 509.886 12.2222L 509.886 14.2222ZM 194.301 14.2222L 509.886 14.2222L 509.886 12.2222L 194.301 12.2222L 194.301 14.2222ZM 193.884 12.2313L 193.601 12.5079L 195.001 13.9365L 195.283 13.6599L 193.884 12.2313ZM 180.672 0.714269L 193.884 13.6599L 195.283 12.2313L 182.071 -0.714269L 180.672 0.714269Z"/>
<path id="path2_fill" d="M 16.1354 14.3005L 3.11489 14.3005L 6.79808 9.43491C 6.91253 9.28397 7.12254 9.23866 7.29041 9.32929L 8.72526 10.1013C 9.42594 10.4781 10.3038 10.2617 10.7407 9.60476L 14.325 4.20872C 14.4007 4.09495 14.5539 4.06072 14.672 4.13114L 14.9643 4.30555C 15.0811 4.37499 15.2258 4.38053 15.3475 4.32022C 15.4693 4.25991 15.5505 4.14255 15.5632 4.00888L 15.8926 0.518674C 15.9065 0.370668 15.8332 0.227552 15.7041 0.150614C 15.5751 0.0736773 15.4119 0.0756332 15.2848 0.156156L 12.286 2.05448C 12.1712 2.12686 12.1029 2.25237 12.1046 2.38636C 12.1066 2.52034 12.1785 2.6439 12.295 2.71334L 12.5315 2.8545C 12.5909 2.88971 12.6331 2.94741 12.6486 3.01359C 12.6639 3.0801 12.6513 3.14953 12.6135 3.20691L 9.50092 7.8916C 9.3911 8.05656 9.17082 8.111 8.99532 8.01646L 7.60126 7.26633C 6.93211 6.90642 6.09508 7.08605 5.63957 7.68752L 1.72913 12.8544L 1.72913 0.849569C 1.72913 0.380774 1.34197 0 0.864564 0C 0.387495 2.89551e-16 0 0.380774 0 0.849569L 0 15.1511C 0 15.6199 0.387163 16 0.864564 16L 16.1354 16C 16.6125 16 17 15.6196 17 15.1504C 17 14.6813 16.6128 14.3005 16.1354 14.3005Z"/>
</defs>
</svg>
