<svg xmlns="http://www.w3.org/2000/svg" viewBox="-52 327 49 49">
    <g id="icon-chart-line" transform="translate(6514 1613)">
        <path id="Union_24" d="M-6317.042-1824a.958.958 0 0 1-.958-.958.957.957 0 0 1 .958-.956h.766v-9.57a.957.957 0 0 1 .956-.958h7.656a.958.958 0 0 1 .958.958v9.57h2.295v-15.7a.957.957 0 0 1 .958-.956h7.657a.957.957 0 0 1 .955.956v15.7h2.68v-21.629a.957.957 0 0 1 .958-.956h7.656a.957.957 0 0 1 .956.956v21.629h2.3v-8.327a.957.957 0 0 1 .956-.958.958.958 0 0 1 .959.958v8.327h5.742v-26.986h-5.742v9.283a.958.958 0 0 1-.959.956.957.957 0 0 1-.956-.956v-10.241a.957.957 0 0 1 .956-.956h7.656a.957.957 0 0 1 .959.956v27.946h.765a.957.957 0 0 1 .956.956.957.957 0 0 1-.956.958zm26.795-1.914h5.742v-20.671h-5.742zm-12.25 0h5.742v-14.738h-5.742zm-11.865 0h5.742v-8.615h-5.742zm34.35-12.539a.963.963 0 0 1-.281-.678.962.962 0 0 1 .281-.678.964.964 0 0 1 .675-.278.975.975 0 0 1 .679.278.974.974 0 0 1 .28.678.974.974 0 0 1-.28.678.978.978 0 0 1-.679.28.967.967 0 0 1-.676-.281zm-35.908-.968a.966.966 0 0 1-.28-.678.956.956 0 0 1 .28-.676.962.962 0 0 1 .676-.28.963.963 0 0 1 .678.28.964.964 0 0 1 .28.676.975.975 0 0 1-.28.678.974.974 0 0 1-.678.28.973.973 0 0 1-.677-.28zm2.488-2.489a.957.957 0 0 1 0-1.354l10.408-10.408a.953.953 0 0 1 1.352 0l5.2 5.2 10.234-10.232h-1.437a.957.957 0 0 1-.958-.956.958.958 0 0 1 .958-.958h3.746a.956.956 0 0 1 .956.958v3.746a.955.955 0 0 1-.956.956.957.957 0 0 1-.958-.956v-1.436l-10.907 10.907a.956.956 0 0 1-1.354 0l-5.2-5.2-9.73 9.733a.963.963 0 0 1-.678.28.955.955 0 0 1-.677-.28zm29.886-23.816a7.282 7.282 0 0 1 7.272-7.275 7.281 7.281 0 0 1 7.272 7.275 7.28 7.28 0 0 1-7.272 7.272 7.281 7.281 0 0 1-7.273-7.272zm6.188-1.82a1.006 1.006 0 0 0 1.085.9 2.912 2.912 0 0 1 3 2.811 2.839 2.839 0 0 1-2.041 2.663v.72a5.366 5.366 0 0 0 4.4-5.271 5.364 5.364 0 0 0-4.4-5.271v.789a2.836 2.836 0 0 1 2.041 2.663.956.956 0 0 1-.956.956.957.957 0 0 1-.958-.956 1.006 1.006 0 0 0-1.085-.9 1.006 1.006 0 0 0-1.088.896zm-4.273 1.82a5.366 5.366 0 0 0 4.4 5.271v-.72a2.839 2.839 0 0 1-2.043-2.663.958.958 0 0 1 .958-.958.957.957 0 0 1 .956.958 1.006 1.006 0 0 0 1.085.895 1.006 1.006 0 0 0 1.085-.895 1.006 1.006 0 0 0-1.085-.9 2.914 2.914 0 0 1-3-2.811 2.836 2.836 0 0 1 2.043-2.663v-.788a5.364 5.364 0 0 0-4.401 5.274z" data-name="Union 24" transform="translate(-247.999 587.001)"/>
    </g>
</svg>
