<svg xmlns="http://www.w3.org/2000/svg" viewBox="567 657 41 41">
    <defs>
        <style>
            .cls-1{fill:none}.cls-2{fill:#f1a93b;fill-rule:evenodd}.cls-3{fill:#2a3143}
        </style>
    </defs>
    <g id="menu_person" transform="translate(6880 1026)">
        <g id="Group_11" data-name="Group 11">
            <path id="Path_189" d="M21.295 4.941a3.389 3.389 0 0 0 1.543.05l-.011-.013A7.192 7.192 0 0 0 14.878.086 6.725 6.725 0 0 0 11.085 2a9.207 9.207 0 0 0-1.45 2.022 9.774 9.774 0 0 0-.652 1.888c-.043.14-.072.345.2.378.183.023.366.054.548.085a7.048 7.048 0 0 0 .986.12 12.7 12.7 0 0 0 3.667-.27 4.972 4.972 0 0 0 3.55-2.623.758.758 0 0 1 1.192-.181c.108.1.213.211.318.32a6.19 6.19 0 0 0 .489.473 3.394 3.394 0 0 0 1.362.729zM.924 33.027h14.625l14.59-.014a1.51 1.51 0 0 0 .285 0c.549-.111.751-.38.625-.9a29.71 29.71 0 0 0-.493-1.718c-.154-.5-.318-1-.481-1.5l-.227-.694a28.48 28.48 0 0 1-.259-.862 13.045 13.045 0 0 0-.616-1.8 8.006 8.006 0 0 0-5.182-4.439 1.032 1.032 0 0 0-1.219.329 6.589 6.589 0 0 1-2.872 1.843 11.72 11.72 0 0 1-3.354.517l-.4.023a17.169 17.169 0 0 1-2.03-.065 11.073 11.073 0 0 1-1.51-.156 7.5 7.5 0 0 1-4.237-2.35.613.613 0 0 0-.7-.186 8.922 8.922 0 0 0-2.3.934 8.041 8.041 0 0 0-2.867 3 11.178 11.178 0 0 0-.919 2.51l-.12.427C.856 29.337.453 30.75.049 32.167a.573.573 0 0 0-.049.262.579.579 0 0 0 .506.546 1.489 1.489 0 0 0 .418.052z" class="cls-2" data-name="Path 189" transform="translate(-6304.7 -365.497)"/>
            <path id="Path_190" d="M0 18.749c.172-.585.369-1.163.511-1.756a4.84 4.84 0 0 1 3.543-3.742c.156-.046.31-.1.466-.146a.489.489 0 0 1 .118 0c-.194-.556-.42-1.1-.573-1.665a4.461 4.461 0 0 1 .506-3.965A3.573 3.573 0 0 1 7.5 5.892a3.812 3.812 0 0 1 2.272.486c.38-.413.727-.828 1.114-1.2a5.4 5.4 0 0 1 2.937-1.424 6.651 6.651 0 0 1 2.856.17.282.282 0 0 0 .234-.081c.393-.451.738-.95 1.163-1.365A8.32 8.32 0 0 1 22.334.2 8.755 8.755 0 0 1 31.7 4.246a8 8 0 0 1 1.147 3.237 16.9 16.9 0 0 1 .019 2.611A13.206 13.206 0 0 1 32 14.125a12.782 12.782 0 0 1-2.127 3.8 8.741 8.741 0 0 1-3.207 2.575 5.97 5.97 0 0 1-4.732.135 9.041 9.041 0 0 1-4.4-3.925 14.439 14.439 0 0 1-1.682-4.2 15.407 15.407 0 0 1-.358-4.67 12.106 12.106 0 0 1 .479-2.1c.051-.208.081-.3-.21-.364a4.265 4.265 0 0 0-4.153 1.341 4.034 4.034 0 0 0-1.05 2.158 7.742 7.742 0 0 0 .608 4.076 6.366 6.366 0 0 0 1.3 2.058 5.612 5.612 0 0 0 1.077.809.888.888 0 0 1 .339 1.128.936.936 0 0 1-1.077.359.573.573 0 0 1-.188-.092A1.228 1.228 0 0 0 11.171 17c-.835.316-1.709.539-2.522.9a5.362 5.362 0 0 0-3.007 3.653c-.32 1.106-.611 2.217-.913 3.329a2.226 2.226 0 0 0-.035.27h4.585a.538.538 0 0 0 .511-.27 9.512 9.512 0 0 1 5.968-4 1.882 1.882 0 0 1 1.93.58 5.6 5.6 0 0 0 2.563 1.719 8.647 8.647 0 0 0 2.587.4c.738 0 1.475.019 2.21 0a6.649 6.649 0 0 0 3.9-1.146 8.394 8.394 0 0 0 1.077-.971 2.038 2.038 0 0 1 1.941-.577 8.946 8.946 0 0 1 5.271 3.043 9.767 9.767 0 0 1 1.7 2.833 62.4 62.4 0 0 1 2.006 6.663A2.15 2.15 0 0 1 38.957 36H8.907a2.207 2.207 0 0 1-2-1.708 3.479 3.479 0 0 1 .2-1.678l1.658-5.832H4.837A1.769 1.769 0 0 1 3.109 25.5a2.6 2.6 0 0 1 .151-1.478c.331-1.125.633-2.261.948-3.391a.722.722 0 0 1 .032-.14c-.948 0-1.884-.027-2.8 0A1.375 1.375 0 0 1 0 19.628zm23.925 15.719h14.5a1.5 1.5 0 0 0 .285 0c.538-.108.746-.378.622-.89a26.611 26.611 0 0 0-.49-1.708c-.226-.728-.471-1.451-.705-2.177a23.512 23.512 0 0 0-.869-2.644 7.959 7.959 0 0 0-5.152-4.424 1.024 1.024 0 0 0-1.214.326 6.551 6.551 0 0 1-2.856 1.834 13.715 13.715 0 0 1-3.734.54 17.068 17.068 0 0 1-2.016-.065 10.989 10.989 0 0 1-1.5-.156 7.46 7.46 0 0 1-4.213-2.336.61.61 0 0 0-.694-.184 8.871 8.871 0 0 0-2.283.928 7.994 7.994 0 0 0-2.851 2.967A13.378 13.378 0 0 0 9.723 29.4c-.4 1.408-.808 2.811-1.214 4.219a.577.577 0 0 0 .455.809 1.48 1.48 0 0 0 .415.051zm7.351-26.3a5.182 5.182 0 0 1-4.355-1.184c-.043.059-.081.119-.126.17a6.818 6.818 0 0 1-3.844 2.226 13.881 13.881 0 0 1-2.253.286c-.826.038-1.658-.019-2.487-.054-.385-.016-.77-.084-1.182-.129.1.72.178 1.406.3 2.08a12.878 12.878 0 0 0 1.219 3.55 9.082 9.082 0 0 0 2.511 3.129 4.66 4.66 0 0 0 4.426.95 6.943 6.943 0 0 0 3.6-2.892 12.007 12.007 0 0 0 1.766-3.9 12.578 12.578 0 0 0 .426-4.234zM30.957 6.6a7.151 7.151 0 0 0-7.9-4.856 6.674 6.674 0 0 0-3.769 1.9 9.155 9.155 0 0 0-1.443 2.007 9.7 9.7 0 0 0-.645 1.873c-.043.138-.067.343.194.375.509.062 1.015.189 1.524.2a12.643 12.643 0 0 0 3.645-.27 4.951 4.951 0 0 0 3.527-2.606.756.756 0 0 1 1.184-.178c.269.27.512.54.808.788a3.37 3.37 0 0 0 2.875.766zM9.109 7.8c-.148-.057-.291-.1-.425-.167A2.331 2.331 0 0 0 5.634 8.9a3.244 3.244 0 0 0-.065 1.842 3.622 3.622 0 0 0 1.658 2.59.919.919 0 0 1 .193 1.232.756.756 0 0 1-.363.263.972.972 0 0 1-.915-.167.648.648 0 0 0-.417-.124c-.571.146-1.141.3-1.7.5a2.692 2.692 0 0 0-1.346 1.036 11.9 11.9 0 0 0-1.012 2.887h3.254c.075 0 .156-.111.221-.181.458-.486.878-1.014 1.376-1.454a7.931 7.931 0 0 1 3.1-1.54c.35-.1.7-.21 1.042-.313a9.774 9.774 0 0 1-1.537-7.68z" class="cls-3" data-name="Path 190" transform="translate(-6313 -367)"/>
        </g>
    </g>
</svg>
