<svg xmlns="http://www.w3.org/2000/svg" viewBox="352 659 38 38">
    <defs>
        <style>
            .cls-1{fill:none}.cls-2{fill:#f1a93b}.cls-3{fill:#2a3143}
        </style>
    </defs>
    <g id="menu_building" transform="translate(6999 1024.973)">
        <g id="Group_7" data-name="Group 7" transform="translate(-6647 -364.973)">
            <path id="Path_169" d="M19.456 22.471v.146h-2.218V18.75a1.691 1.691 0 0 0-.517-1.21 1.793 1.793 0 0 0-1.246-.5h-1.917a1.793 1.793 0 0 0-1.246.5 1.691 1.691 0 0 0-.517 1.21v3.867H9.576V18.75a1.691 1.691 0 0 0-.517-1.21 1.793 1.793 0 0 0-1.246-.5H3.982a1.793 1.793 0 0 0-1.246.5 1.691 1.691 0 0 0-.517 1.21v3.867H0V0h19.456v22.471zm-2.142-9.3v-1.86A1.691 1.691 0 0 0 16.8 10.1a1.793 1.793 0 0 0-1.246-.5H4.05a1.793 1.793 0 0 0-1.246.5 1.691 1.691 0 0 0-.517 1.21v1.86a1.691 1.691 0 0 0 .513 1.21 1.793 1.793 0 0 0 1.246.5h11.497a1.813 1.813 0 0 0 .676-.129 1.772 1.772 0 0 0 .574-.371 1.712 1.712 0 0 0 .384-.556 1.675 1.675 0 0 0 .135-.656zm0-7.441V3.867a1.691 1.691 0 0 0-.517-1.21 1.793 1.793 0 0 0-1.246-.5H4.05a1.793 1.793 0 0 0-1.246.5 1.691 1.691 0 0 0-.517 1.21v1.862a1.691 1.691 0 0 0 .513 1.21 1.793 1.793 0 0 0 1.246.5h11.497a1.793 1.793 0 0 0 1.249-.5 1.691 1.691 0 0 0 .52-1.21z" class="cls-2" data-name="Path 169" transform="translate(15.015 12.722)"/>
            <path id="Union_12" d="M.807 36.909a.816.816 0 0 1-.571-.231.767.767 0 0 1 0-1.107.823.823 0 0 1 .571-.229h1.11V1.713A1.7 1.7 0 0 1 2.433.5 1.794 1.794 0 0 1 3.679 0h17.238a1.788 1.788 0 0 1 1.246.5 1.694 1.694 0 0 1 .518 1.212V9H21.06V1.563H3.526v33.778h9.881V12.872a1.684 1.684 0 0 1 .518-1.21 1.8 1.8 0 0 1 1.245-.5h19.151a1.8 1.8 0 0 1 1.247.5 1.691 1.691 0 0 1 .518 1.21v22.469h1.107a.825.825 0 0 1 .572.229.769.769 0 0 1 0 1.107.819.819 0 0 1-.572.231zm29.687-7.146a1.8 1.8 0 0 1 1.247.5 1.692 1.692 0 0 1 .516 1.21v3.868h2.217V12.725H15.019v22.617h2.218v-3.867a1.692 1.692 0 0 1 .517-1.21 1.8 1.8 0 0 1 1.246-.5h3.832a1.794 1.794 0 0 1 1.246.5 1.69 1.69 0 0 1 .517 1.21v3.868h2.219v-3.868a1.692 1.692 0 0 1 .518-1.21 1.791 1.791 0 0 1 1.246-.5zm-2.07 5.579h2.218v-4.014h-2.219zm-9.573 0h4.129v-4.014h-4.13zM6.626 31.326a.823.823 0 0 1-.567-.231.771.771 0 0 1-.238-.551v-3.72a.771.771 0 0 1 .238-.551.823.823 0 0 1 .567-.231h3.832a.814.814 0 0 1 .569.229.77.77 0 0 1 .238.553v3.721a.772.772 0 0 1-.236.551.825.825 0 0 1-.569.231zm.807-1.567h2.219v-2.154H7.434zm11.634-2.153a1.8 1.8 0 0 1-1.246-.5 1.691 1.691 0 0 1-.518-1.21v-1.86a1.694 1.694 0 0 1 .518-1.21 1.791 1.791 0 0 1 1.246-.5H30.56a1.854 1.854 0 0 1 .677.128 1.777 1.777 0 0 1 .573.372 1.713 1.713 0 0 1 .385.556 1.645 1.645 0 0 1 .135.655v1.86a1.691 1.691 0 0 1-.518 1.21 1.8 1.8 0 0 1-1.246.5zm-.146-1.565h11.8v-2.154h-11.8zm-12.3-2.158a.814.814 0 0 1-.567-.229.772.772 0 0 1-.238-.553v-3.718a.775.775 0 0 1 .238-.553.814.814 0 0 1 .567-.229h3.832a.814.814 0 0 1 .569.229.767.767 0 0 1 .238.553V23.1a.773.773 0 0 1-.236.553.816.816 0 0 1-.569.229zm.807-1.565h2.224v-2.154H7.434zm11.634-2.151a1.8 1.8 0 0 1-1.246-.5 1.691 1.691 0 0 1-.518-1.21v-1.864a1.691 1.691 0 0 1 .518-1.21 1.792 1.792 0 0 1 1.246-.5H30.56a1.818 1.818 0 0 1 .677.13 1.777 1.777 0 0 1 .573.372 1.725 1.725 0 0 1 .385.555 1.66 1.66 0 0 1 .135.657v1.862a1.691 1.691 0 0 1-.518 1.21 1.8 1.8 0 0 1-1.246.5zm-.14-1.567h11.806v-2.153H18.922zm-12.3-2.154a.823.823 0 0 1-.567-.231.771.771 0 0 1-.238-.551v-3.72a.775.775 0 0 1 .238-.553.814.814 0 0 1 .567-.229h3.832a.814.814 0 0 1 .569.229.77.77 0 0 1 .238.553v3.721a.772.772 0 0 1-.236.551.825.825 0 0 1-.569.231zm.807-1.567h2.223v-2.154H7.434zm6.855-5.865a.814.814 0 0 1-.567-.229.775.775 0 0 1-.238-.553V4.514a.775.775 0 0 1 .238-.553.814.814 0 0 1 .567-.229h3.836a.812.812 0 0 1 .567.229.777.777 0 0 1 .238.553v3.719a.777.777 0 0 1-.238.553.812.812 0 0 1-.567.229zm.8-1.563h2.224V5.3h-2.22zM6.626 9.015a.814.814 0 0 1-.567-.229.775.775 0 0 1-.238-.553V4.514a.775.775 0 0 1 .238-.553.814.814 0 0 1 .567-.229h3.832a.814.814 0 0 1 .569.229.767.767 0 0 1 .238.553v3.719a.776.776 0 0 1-.236.553.816.816 0 0 1-.569.229zm.807-1.563h2.219V5.3H7.434z" class="cls-3" data-name="Union 12"/>
        </g>
    </g>
</svg>
