<svg xmlns="http://www.w3.org/2000/svg" viewBox="207 89 68.968 66.001">
    <defs>
        <style>
            .cls-1{fill:none}.cls-2,.cls-3{stroke:none}
        </style>
    </defs>
    <g id="icon-store-1" transform="translate(-3055 992)">
        <g id="Vector">
            <path id="Union_28" d="M3375.009-1803a2.009 2.009 0 0 1-2.009-2.011v-6.292a2.009 2.009 0 0 1 2.009-2.01h1.339v-29.219a1 1 0 0 1 1-1 1 1 0 0 1 1 1v29.219h4.749v-26.04a2.009 2.009 0 0 1 2.009-2.01h14.294a2.009 2.009 0 0 1 2.009 2.01v26.04h35.205v-29.219a1 1 0 0 1 1-.935 1 1 0 0 1 1 .935v29.219h1.339a2.01 2.01 0 0 1 2.009 2.01v6.292a2.01 2.01 0 0 1-2.009 2.011zm.04-7.58v4.847a.67.67 0 0 0 .67.67h63.532a.669.669 0 0 0 .669-.67v-4.847a.67.67 0 0 0-.669-.67h-63.532a.67.67 0 0 0-.67.67zm10.106-28.049v25.179h14.2v-25.179a.67.67 0 0 0-.67-.67h-12.864a.67.67 0 0 0-.666.67zm22.058 19.21a2.009 2.009 0 0 1-2.009-2.011v-18.057a2.009 2.009 0 0 1 2.009-2.01h25.572a2.01 2.01 0 0 1 2.009 2.01v18.057a2.01 2.01 0 0 1-2.009 2.011zm.056-19.337v16.6a.67.67 0 0 0 .669.67h24.121a.67.67 0 0 0 .67-.67v-16.6a.669.669 0 0 0-.67-.67h-24.121a.669.669 0 0 0-.669.669zm-19.818 15.129v-6.623h2.065v6.623zm21.9-3.688a.67.67 0 0 1 0-.948l6.026-6.03a.669.669 0 0 1 .947 0 .67.67 0 0 1 0 .948l-6.026 6.03a.667.667 0 0 1-.473.2.671.671 0 0 1-.471-.201zm0-3.35a.67.67 0 0 1 0-.948l1.339-1.34a.669.669 0 0 1 .947 0 .67.67 0 0 1 0 .948l-1.339 1.34a.667.667 0 0 1-.473.2.671.671 0 0 1-.471-.201zm2.677-2.685a.674.674 0 0 1-.194-.47.7.7 0 0 1 .194-.475.7.7 0 0 1 .951 0 .7.7 0 0 1 .193.475.7.7 0 0 1-.193.476.706.706 0 0 1-.476.194.673.673 0 0 1-.472-.2zm-2.677-.666a.669.669 0 0 1 0-.947l2.678-2.68a.669.669 0 0 1 .947 0 .67.67 0 0 1 0 .948l-2.678 2.679a.667.667 0 0 1-.473.2.672.672 0 0 1-.471-.2zm7.364-.668a.7.7 0 0 1-.194-.475.7.7 0 0 1 .194-.476.7.7 0 0 1 .951 0 .707.707 0 0 1 .193.476.707.707 0 0 1-.193.475.706.706 0 0 1-.476.194.7.7 0 0 1-.472-.194zm-3.346 0a.671.671 0 0 1 0-.948l2.009-2.01a.669.669 0 0 1 .947 0 .67.67 0 0 1 0 .948l-2.009 2.01a.669.669 0 0 1-.473.2.671.671 0 0 1-.471-.202zm24.14-22.924h-.9v-5.36h-58.254v5.36h-.9a1.013 1.013 0 0 1-.1.005 1.023 1.023 0 0 1-.1-.005h-.9v-5.36h-1.339a2.009 2.009 0 0 1-2.009-2.01v-2.01a2.009 2.009 0 0 1 2.009-2.011h64.95a2.01 2.01 0 0 1 2.009 2.011v2.01a2.009 2.009 0 0 1-2.009 2.01h-1.339v5.36h-.9a1.018 1.018 0 0 1-.1.005 1.022 1.022 0 0 1-.116-.007zm-62.31-8.65v.729a.67.67 0 0 0 .67.671h63.363a.67.67 0 0 0 .67-.671v-.729a.67.67 0 0 0-.67-.67h-63.363a.67.67 0 0 0-.669.668z" data-name="Union 28" transform="translate(-111 966)"/>
            <g id="Path_392" class="cls-1" data-name="Path 392">
                <path d="M1.029 0h66.91a1.015 1.015 0 0 1 1.029 1v7a1.015 1.015 0 0 1-1.029 1H1.029A1.015 1.015 0 0 1 0 8V1a1.015 1.015 0 0 1 1.029-1z" class="cls-2" transform="translate(3262 -889)"/>
                <path d="M66.968 7V2H2v5h64.968m.97 2H1.03C.461 9 0 8.552 0 8V1c0-.552.46-1 1.03-1h66.909c.568 0 1.029.448 1.029 1v7c0 .552-.461 1-1.03 1z" class="cls-3" transform="translate(3262 -889)"/>
            </g>
        </g>
    </g>
</svg>
