<svg xmlns="http://www.w3.org/2000/svg" viewBox="-48 97 49 49">
    <defs>
        <style>
            .cls-1{fill:none}.cls-2{fill:#abbcc3}
        </style>
    </defs>
    <g id="icon-second" transform="translate(6495 1704)">
        <g id="Vector" transform="translate(14.82 .001)">
            <path id="Union_16" d="M21.639 48.978a.808.808 0 0 1-.593-.568l-3.454-12.389a2.771 2.771 0 0 1-.617 0L13.523 48.41a.807.807 0 0 1-1.377.322L8.66 44.845l-5 1.522a.805.805 0 0 1-1.01-.987l2.958-10.588a.806.806 0 1 1 1.552.433L4.6 44.4l4.08-1.244a.807.807 0 0 1 .833.233l2.85 3.176 3.088-11.077A11.559 11.559 0 0 1 14 34.433a6.154 6.154 0 0 0-1.691-1.111 6.4 6.4 0 0 0-2.113-.111 5.329 5.329 0 0 1-3.504-.611 5.435 5.435 0 0 1-1.675-3.169 6.379 6.379 0 0 0-.747-1.954 6.288 6.288 0 0 0-1.609-1.292A5.444 5.444 0 0 1 .142 23.59a5.289 5.289 0 0 1 .5-3.484 6.461 6.461 0 0 0 .558-2.085 6.458 6.458 0 0 0-.555-2.087 5.289 5.289 0 0 1-.5-3.484 5.445 5.445 0 0 1 2.516-2.593A6.29 6.29 0 0 0 4.27 8.565a6.379 6.379 0 0 0 .747-1.954 5.435 5.435 0 0 1 1.675-3.17 5.332 5.332 0 0 1 3.508-.613 6.4 6.4 0 0 0 2.113-.111A6.115 6.115 0 0 0 14 1.607 5.476 5.476 0 0 1 17.283 0a5.48 5.48 0 0 1 3.282 1.607 6.13 6.13 0 0 0 1.691 1.111 6.4 6.4 0 0 0 2.113.111 5.332 5.332 0 0 1 3.507.613 5.435 5.435 0 0 1 1.676 3.169 6.281 6.281 0 0 0 .748 1.954 6.265 6.265 0 0 0 1.609 1.292 5.442 5.442 0 0 1 2.517 2.594 5.285 5.285 0 0 1-.5 3.484 6.466 6.466 0 0 0-.557 2.085 6.5 6.5 0 0 0 .555 2.087 5.289 5.289 0 0 1 .5 3.484 5.448 5.448 0 0 1-2.517 2.594 6.237 6.237 0 0 0-1.607 1.29 6.281 6.281 0 0 0-.746 1.954 6.409 6.409 0 0 1-1.3 2.836l3.66 13.115a.805.805 0 0 1-1.01.987l-5-1.522-3.485 3.887a.8.8 0 0 1-.784.246zm.618-15.655a6.1 6.1 0 0 0-1.691 1.111 11.667 11.667 0 0 1-1.45 1.053L22.2 46.563l2.849-3.176a.809.809 0 0 1 .835-.233l4.084 1.246-3.154-11.31a8.3 8.3 0 0 1-2.445.122c-.32-.015-.633-.03-.93-.03a3.912 3.912 0 0 0-1.183.141zM12.81 31.79a7.314 7.314 0 0 1 2.206 1.391 4.28 4.28 0 0 0 2.268 1.248 4.272 4.272 0 0 0 2.27-1.248 7.281 7.281 0 0 1 2.206-1.389 7.594 7.594 0 0 1 2.686-.189 4.245 4.245 0 0 0 2.484-.307A4.256 4.256 0 0 0 28 29.007a7.487 7.487 0 0 1 1-2.479 7.386 7.386 0 0 1 2.032-1.693c.846-.552 1.647-1.075 1.865-1.743a4.223 4.223 0 0 0-.476-2.417 7.688 7.688 0 0 1-.66-2.656 7.687 7.687 0 0 1 .66-2.655 4.225 4.225 0 0 0 .476-2.417c-.218-.668-1.019-1.19-1.866-1.743A7.4 7.4 0 0 1 29 9.513a7.475 7.475 0 0 1-1-2.479 4.256 4.256 0 0 0-1.068-2.289 4.244 4.244 0 0 0-2.484-.307 7.594 7.594 0 0 1-2.686-.188 7.314 7.314 0 0 1-2.206-1.391 4.282 4.282 0 0 0-2.27-1.248 4.284 4.284 0 0 0-2.268 1.248A7.314 7.314 0 0 1 12.81 4.25a7.6 7.6 0 0 1-2.687.188 4.242 4.242 0 0 0-2.482.307 4.256 4.256 0 0 0-1.07 2.288 7.465 7.465 0 0 1-1 2.479 7.421 7.421 0 0 1-2.031 1.695c-.848.552-1.647 1.073-1.865 1.741a4.211 4.211 0 0 0 .476 2.417 7.684 7.684 0 0 1 .659 2.656 7.686 7.686 0 0 1-.659 2.655 4.213 4.213 0 0 0-.476 2.417c.216.668 1.017 1.19 1.865 1.741a7.419 7.419 0 0 1 2.032 1.694 7.443 7.443 0 0 1 1 2.479A4.267 4.267 0 0 0 7.64 31.3a4.243 4.243 0 0 0 2.482.307c.334-.016.672-.031 1.009-.031a5.469 5.469 0 0 1 1.679.214zM5.637 18.019a11.647 11.647 0 0 1 20.285-7.812.805.805 0 0 1-1.194 1.081 9.995 9.995 0 1 0 1.672 2.531.805.805 0 0 1 1.462-.676 11.648 11.648 0 1 1-22.225 4.876zM13.018 22v-.493a.838.838 0 0 1 .264-.612l2.633-2.639c.221-.225.416-.438.588-.643a3.909 3.909 0 0 0 .438-.605 2.581 2.581 0 0 0 .271-.607 2.209 2.209 0 0 0 .1-.654 1.528 1.528 0 0 0-.089-.546 1.1 1.1 0 0 0-.258-.4 1.042 1.042 0 0 0-.4-.239 1.475 1.475 0 0 0-.516-.084 1.4 1.4 0 0 0-.882.271 1.422 1.422 0 0 0-.48.726.624.624 0 0 1-.2.33.558.558 0 0 1-.336.1 1.339 1.339 0 0 1-.2-.017l-.779-.139a3.185 3.185 0 0 1 .348-1.092 2.579 2.579 0 0 1 1.53-1.259 3.514 3.514 0 0 1 1.079-.163 3.232 3.232 0 0 1 1.1.18 2.451 2.451 0 0 1 .853.5 2.261 2.261 0 0 1 .552.779 2.532 2.532 0 0 1 .2 1.015 2.669 2.669 0 0 1-.144.887 3.555 3.555 0 0 1-.379.781 5.053 5.053 0 0 1-.552.72c-.212.231-.433.468-.666.709l-1.956 2a4.307 4.307 0 0 1 .564-.127 3.132 3.132 0 0 1 .527-.047h2.226a.511.511 0 0 1 .378.138.458.458 0 0 1 .144.354V22zM21 16.894a1.766 1.766 0 0 1-.618-.379 1.8 1.8 0 0 1-.4-.605 2.163 2.163 0 0 1-.142-.8 2.061 2.061 0 0 1 .142-.787 1.683 1.683 0 0 1 .4-.593 1.766 1.766 0 0 1 .618-.382 2.386 2.386 0 0 1 .811-.131 2.291 2.291 0 0 1 .792.131 1.753 1.753 0 0 1 .619.379 1.6 1.6 0 0 1 .4.593 2.061 2.061 0 0 1 .144.787 2.163 2.163 0 0 1-.144.8 1.707 1.707 0 0 1-.4.605 1.753 1.753 0 0 1-.619.379 2.294 2.294 0 0 1-.792.131 2.389 2.389 0 0 1-.811-.128zm.186-2.562a1.3 1.3 0 0 0-.191.787 1.329 1.329 0 0 0 .191.792.751.751 0 0 0 .625.252.7.7 0 0 0 .594-.252 1.3 1.3 0 0 0 .2-.792 1.277 1.277 0 0 0-.2-.787.7.7 0 0 0-.594-.252.75.75 0 0 0-.622.252z" class="cls-2" data-name="Union 16" transform="translate(-6550.82 -1607.001)"/>
        </g>
    </g>
</svg>
