<svg xmlns="http://www.w3.org/2000/svg" viewBox="-126 -13 39 39">
    <g id="icon-key" transform="translate(6541 1950)">
        <path id="Union_6" d="M-6274.113-2186a.89.89 0 0 1-.887-.887v-5.185a3.609 3.609 0 0 1 1.063-2.481l12.321-12.366a13.305 13.305 0 0 1-.886-4.786 13.335 13.335 0 0 1 13.3-13.3 13.3 13.3 0 0 1 13.202 13.344 13.335 13.335 0 0 1-13.295 13.3 12.984 12.984 0 0 1-4.918-.931l-3.724 3.722a1.354 1.354 0 0 1-.442.221l-.975.178-.178.975a.614.614 0 0 1-.222.443l-1.241 1.241a.844.844 0 0 1-.4.221l-1.994.488-.487 1.995a.91.91 0 0 1-.222.4l-2.35 2.35a3.375 3.375 0 0 1-2.481 1.063zm1.417-7.225a1.962 1.962 0 0 0-.532 1.241v4.3h4.254a1.59 1.59 0 0 0 1.2-.532l2.216-2.216.575-2.3a.92.92 0 0 1 .666-.666l2.3-.575.886-.886.222-1.241a.963.963 0 0 1 .709-.71l1.285-.265 3.1-3.1a13.675 13.675 0 0 1-5.007-5.052zm12.011-18.48a11.453 11.453 0 0 0 .887 4.432c.043.133.087.222.133.354a11.466 11.466 0 0 0 10.458 6.737 11.624 11.624 0 0 0 11.567-11.522 11.556 11.556 0 0 0-11.524-11.522 11.556 11.556 0 0 0-11.521 11.526zm12.231 8.909a.906.906 0 0 1-.886-.8.893.893 0 0 1 .8-.975 6.246 6.246 0 0 0 3.9-1.862 4.7 4.7 0 0 0 1.064-1.33.871.871 0 0 1 1.2-.354.772.772 0 0 1 .311 1.152 6.888 6.888 0 0 1-1.331 1.773 8.222 8.222 0 0 1-4.964 2.394zm-1.728-11.567a3.555 3.555 0 0 1 3.544-3.546 3.556 3.556 0 0 1 3.546 3.546 3.556 3.556 0 0 1-3.546 3.544 3.554 3.554 0 0 1-3.544-3.544zm1.771 0a1.779 1.779 0 0 0 1.773 1.773 1.779 1.779 0 0 0 1.773-1.773 1.778 1.778 0 0 0-1.773-1.773 1.778 1.778 0 0 0-1.772 1.773z" data-name="Union 6" transform="translate(-391.999 262)"/>
    </g>
</svg>
